<?xml version="1.0" encoding="UTF-8" standalone="no"?>
<!-- Created with Inkscape (http://www.inkscape.org/) -->

<svg
   xmlns:dc="http://purl.org/dc/elements/1.1/"
   xmlns:cc="http://creativecommons.org/ns#"
   xmlns:rdf="http://www.w3.org/1999/02/22-rdf-syntax-ns#"
   xmlns:svg="http://www.w3.org/2000/svg"
   xmlns="http://www.w3.org/2000/svg"
   xmlns:sodipodi="http://sodipodi.sourceforge.net/DTD/sodipodi-0.dtd"
   xmlns:inkscape="http://www.inkscape.org/namespaces/inkscape"
   width="501.11398"
   height="385.4043"
   id="svg2"
   version="1.1"
   inkscape:version="0.48.3.1 r9886"
   sodipodi:docname="monster_0.svg"
   inkscape:export-filename="/home/substack/projects/wizard-game/static/monster_0.png"
   inkscape:export-xdpi="26.940001"
   inkscape:export-ydpi="26.940001">
  <defs
     id="defs4" />
  <sodipodi:namedview
     id="base"
     pagecolor="#f1dcb9"
     bordercolor="#666666"
     borderopacity="1.0"
     inkscape:pageopacity="0"
     inkscape:pageshadow="2"
     inkscape:zoom="0.49497475"
     inkscape:cx="249.92967"
     inkscape:cy="210.2874"
     inkscape:document-units="px"
     inkscape:current-layer="layer1"
     showgrid="false"
     inkscape:window-width="1364"
     inkscape:window-height="382"
     inkscape:window-x="0"
     inkscape:window-y="384"
     inkscape:window-maximized="0"
     fit-margin-top="0"
     fit-margin-left="0"
     fit-margin-right="0"
     fit-margin-bottom="0" />
  <metadata
     id="metadata7">
    <rdf:RDF>
      <cc:Work
         rdf:about="">
        <dc:format>image/svg+xml</dc:format>
        <dc:type
           rdf:resource="http://purl.org/dc/dcmitype/StillImage" />
        <dc:title></dc:title>
      </cc:Work>
    </rdf:RDF>
  </metadata>
  <g
     inkscape:label="Layer 1"
     inkscape:groupmode="layer"
     id="layer1"
     transform="translate(-99.995369,-79.896069)">
    <path
       style="fill:#e76c50;fill-opacity:1;stroke:#ffffff;stroke-width:1px;stroke-linecap:butt;stroke-linejoin:miter;stroke-opacity:0"
       d="m 349.1405,266.49688 -47.34953,8.67609 c -2.92788,4.08788 -5.02862,8.5123 -7.37413,12.90311 -1.43537,2.68703 -1.71579,5.76096 -2.72758,8.39874 -1.33306,3.47538 -3.29936,6.68955 -4.60336,10.08913 -1.42239,3.7083 -4.9939,6.73672 -6.54526,10.78122 -0.87782,2.28852 -4.15655,3.35147 -5.59321,5.09923 -5.31437,6.46513 -12.34176,15.47999 -20.82526,20.81091 -2.96185,1.86118 -5.10476,5.66268 -7.83221,7.89266 -4.4998,3.67907 -7.17032,10.42057 -9.15269,15.58876 -0.444,1.15753 0.34462,2.92598 -0.10264,4.09187 -0.41115,1.07189 -0.81257,2.61198 -1.14188,4.38178 -0.30569,0.35849 -0.62721,0.65835 -0.8882,0.87174 -4.33278,3.54251 -25.65521,23.11656 -25.24322,27.33387 0.15883,1.62576 10.68884,-3.71283 11.77283,-4.19579 2.98356,-1.32927 9.1232,-3.68196 13.49078,-6.21614 -0.86507,5.86831 -2.53646,12.09174 -3.75885,17.44814 -0.45212,1.98119 1.14005,14.78237 3.34941,13.39405 7.67756,-4.82447 9.58629,-13.6668 14.16247,-21.19617 0.77707,-1.27854 3.39583,-5.78242 5.73519,-10.07411 0.46199,-0.23924 0.9242,-0.50407 1.36688,-0.79291 1.8726,3.67049 4.05266,7.27507 5.56338,10.66587 1.50594,3.38007 5.69657,6.24382 6.06853,10.05134 0.13566,1.38866 2.36933,5.98818 3.55773,5.24142 4.32371,-2.71697 -0.55721,-11.85425 0.96592,-15.82515 1.07351,-2.79874 -0.52443,-6.23007 0.14219,-9.15093 1.48347,-6.50047 -0.91353,-15.58621 -3.83533,-22.54642 0.59061,-1.79756 1.24778,-3.54991 2.12946,-5.20043 2.79734,-5.23664 4.32921,-10.7716 7.07941,-15.92 0.27818,-0.52075 1.2142,-1.10101 1.34401,-1.66984 1.0789,-4.72767 3.16749,-8.86432 5.9329,-12.22853 1.5558,-1.89269 4.39899,-3.12444 6.0878,-5.17895 3.4621,-4.21178 8.20925,-10.46235 13.9261,-13.0094 10.97035,-4.88766 22.7501,-10.29814 32.15812,-18.90376 6.22002,-5.68952 9.76573,-14.71284 10.98224,-22.89501 0.42744,-2.87504 0.36215,-6.64154 1.158,-8.71639 z"
       id="path4684"
       inkscape:connector-curvature="0" />
    <path
       style="fill:#e12e06;fill-opacity:1;stroke:#ffffff;stroke-width:1px;stroke-linecap:butt;stroke-linejoin:miter;stroke-opacity:0"
       d="m 441.94174,380.10566 c 1.92558,-0.63607 0.67309,2.35737 3.03046,0 1.05493,-1.05493 3.64001,-0.20895 5.05076,-3.03045 6.07569,-12.15138 -14.75157,-9.30009 -10.10153,0 0.73712,1.47423 0.96088,0.9116 2.02031,3.03045 z"
       id="path4492"
       inkscape:connector-curvature="0" />
    <path
       style="fill:#e12e06;fill-opacity:1;stroke:#ffffff;stroke-width:1px;stroke-linecap:butt;stroke-linejoin:miter;stroke-opacity:0"
       d="m 459.61941,407.88486 c 7.95102,-7.65564 14.90528,4.28762 8.5863,10.6066 -2.09964,2.09964 -9.24343,-2.17235 -10.10153,-3.03046 -0.64826,-0.64826 -0.0195,-2.54489 -0.50508,-3.03046 -0.218,-0.218 -0.92381,-0.17267 -0.50507,-1.01015 0.46329,-0.92658 2.203,-2.99823 2.52538,-3.53553 z"
       id="path4490"
       inkscape:connector-curvature="0" />
    <path
       style="fill:#ffffff;fill-opacity:1;stroke:#ffffff;stroke-width:1px;stroke-linecap:butt;stroke-linejoin:miter;stroke-opacity:0"
       d="m 451.03311,387.68181 c 6.95679,-4.95364 -5.27028,3.81216 2.02031,-2.02031 4.31533,-3.45226 13.37652,4.80622 10.10152,8.08122 -0.44771,0.44772 -0.94043,1.98545 -2.0203,2.52538 -4.26543,2.13272 -9.59645,0.42482 -9.59645,-4.04061 0,-1.66566 -0.15459,-2.79323 -0.50508,-4.54568 z"
       id="path4488"
       inkscape:connector-curvature="0" />
    <path
       style="fill:#c22e0c;fill-opacity:1;stroke:#ffffff;stroke-width:1px;stroke-linecap:butt;stroke-linejoin:miter;stroke-opacity:0"
       d="m 454.40625,285.9375 c -1.48962,-0.11081 -2.59215,2.42067 -6.40625,5.28125 -11.40086,8.55065 -20.4203,18.52107 -28.28125,30.3125 -1.62006,2.43008 -4.07689,4.57689 -6.0625,6.5625 -2.99518,2.99518 -4.22551,7.58826 -6.5625,11.09375 -5.64916,8.47374 -11.7345,20.39026 -8.09375,31.3125 4.57657,13.7297 22.11965,16.82769 26.78125,30.8125 1.57737,4.73212 2.19238,12.34013 3.3125,19.78125 -3.71322,4.08597 -7.13144,8.25008 -11.9375,10.21875 -1.0144,0.41552 -4.76594,5.30008 -5.90625,6.28125 -0.93149,0.8015 -5.57279,3.359 -4.875,5.0625 1.31387,3.20752 23.2347,-5.417 23.96875,-3.625 0.20581,0.50245 -0.53968,1.90892 -0.5,2.5 0.2629,3.91669 0.99662,22.30685 1.78125,23.21875 0.93555,1.08728 14.52266,-15.76665 16.71875,-17.65625 1.10573,-0.95142 2.12975,-3.18607 3.125,-3.59375 0.36011,-0.14751 13.68644,15.60735 14.40625,15.3125 0.93313,-0.38223 0.52061,-6.96254 0.59375,-7.9375 0.54566,-7.27417 -0.56365,-19.54485 -2.3125,-28.375 0.13688,-4.32647 -2.24651,-8.73953 -3.53125,-12.59375 -0.62248,-1.86742 0.13452,-4.15893 -0.5,-6.0625 -1.69326,-5.07978 -3.53803,-10.60733 -6.0625,-15.65625 -1.84102,-3.68204 -5.80473,-5.57822 -7.5625,-9.09375 -1.19241,-2.38482 -2.93073,-5.93074 -4.5625,-7.5625 -1.33368,-1.33368 -1.0173,-17.18413 0,-19.21875 1.46625,-2.9325 3.00939,-5.5094 5.0625,-7.5625 3.30963,-3.30964 6.28305,-11.96965 9.59375,-13.625 1.18844,-0.59422 3.45486,-3.90972 4.03125,-5.0625 0.80626,-1.61254 3.85562,-3.25217 5.0625,-5.0625 2.76962,-4.15443 4.03418,-8.54006 5.5625,-13.125 0.32322,-0.96966 0.68252,-6.20389 2.34375,-6.53125 l -18.53125,-15.1875 c -0.23795,-0.1297 -0.44345,-0.20292 -0.65625,-0.21875 z m 19.1875,15.40625 0.90625,0.71875 c -0.23239,-0.31405 -0.39286,-0.75 -0.75,-0.75 -0.0563,0 -0.10266,0.0207 -0.15625,0.0312 z"
       id="path4342"
       inkscape:connector-curvature="0" />
    <path
       style="fill:#c22e0c;fill-opacity:1;stroke:#ffffff;stroke-width:1px;stroke-linecap:butt;stroke-linejoin:miter;stroke-opacity:0"
       d="m 466.83393,296.36028 c -3.39734,-0.26848 -9.02554,9.07402 -6.18491,19.66587 0.96704,3.6058 2.75594,6.78811 3.68117,10.23799 1.17101,4.36638 6.8352,7.70467 9.38525,10.57908 3.92427,4.42346 10.05804,5.0664 15.25989,8.06814 1.47561,0.85151 4.22849,-0.51036 5.7041,0.34109 7.81175,4.50778 21.08925,0.89214 28.69103,-1.14658 22.25161,-5.96765 44.67449,-17.34085 56.66185,-38.11431 4.02805,-6.98043 10.98819,-11.61858 14.02803,-19.19688 2.21976,-5.53376 0.99353,-12.79106 3.2476,-18.4104 0.99848,-2.48919 0.19248,-5.9403 1.22465,-8.51351 5.31,-13.23769 -0.87408,-29.41894 -3.98681,-41.02542 -1.68156,-6.27 -6.55349,-8.83046 -9.12944,-14.85715 -1.11767,-2.61491 -3.32132,-6.78809 -5.19246,-8.89725 -1.12752,-1.27096 -3.89691,-2.6151 -4.73527,-4.57652 -5.01809,-11.74035 -16.00487,-20.32395 -22.66484,-27.8311 -0.81614,-0.91995 -8.40763,-5.36971 -9.01334,-4.83234 -6.19756,5.49818 3.03817,15.23576 5.85102,21.81672 1.49957,3.50841 -0.014,7.28211 1.49947,10.82311 3.04505,7.12421 8.17358,36.96559 2.97534,45.97385 -1.20615,2.09019 0.42374,8.40152 -1.30992,9.93953 -2.21923,1.9688 -2.25618,12.12939 -4.4178,14.04707 -5.77135,5.12005 -7.36524,11.13812 -15.91125,14.79089 -3.90616,1.66958 -11.39554,2.73009 -17.19757,0.40273 -2.08523,-0.83642 -7.43161,-2.28834 -8.3856,-3.36368 -1.34589,-1.51709 0.95139,-0.92622 1.46866,-0.62773"
       id="path4263"
       inkscape:connector-curvature="0" />
    <path
       style="fill:#e12e06;fill-opacity:1;stroke:#ffffff;stroke-width:1px;stroke-linecap:butt;stroke-linejoin:miter;stroke-opacity:0"
       d="m 439.64771,241.26505 c -3.43095,3.89884 -2.85526,10.63223 -3.40224,15.77606 -0.44571,4.19149 0.69319,8.54151 0.24939,12.71505 -1.88518,17.72839 13.01698,26.5802 19.95563,40.55718 0.96409,1.94204 0.44641,4.4912 1.4102,6.43262 2.42097,4.87673 5.07658,15.7694 11.16343,17.81769 4.20836,1.41616 8.51719,4.98461 13.05484,5.82303 3.09676,0.5722 6.68296,0.58513 9.85384,1.17101 5.23597,0.96747 12.87285,-3.20214 16.44687,-6.3816 0.96595,-0.85931 2.27977,-1.09064 3.29141,-1.9906 17.94115,-15.96054 17.18778,-27.55548 18.50013,-50.01878 0.21383,-3.65994 -1.13664,-7.36608 -1.0398,-11.07445 0.28808,-11.03092 -3.04729,-21.57393 -8.41159,-30.95272 -3.49754,-6.11502 -6.68597,-12.27468 -11.16342,-17.81769 -3.05041,-3.77633 -13.34105,-10.51285 -17.74626,-13.83647 -9.51326,-7.1775 -18.58824,-11.71813 -29.4609,-13.72708 -4.46408,-0.82484 -8.22931,-3.48422 -12.41464,-4.89264 -1.18847,-0.39993 -9.16381,-1.49262 -10.21405,-0.10061 -0.39448,0.52287 2.02133,7.32078 2.69061,8.29344 1.44041,2.09334 1.21668,33.21176 0.39817,35.64414 -0.25917,0.77014 -0.3757,4.86879 -0.80062,5.21202 -0.70528,0.5697 -1.57401,0.90026 -2.361,1.3504 z"
       id="path4239"
       inkscape:connector-curvature="0" />
    <path
       style="fill:#e76c50;fill-opacity:1;stroke:#ffffff;stroke-width:1px;stroke-linecap:butt;stroke-linejoin:miter;stroke-opacity:0"
       d="m 355.5737,210.40004 c 13.81387,-0.79084 22.87265,-9.66856 34.85026,-15.65737 2.01785,-1.00893 4.06432,-2.78977 6.56599,-4.04061 1.86283,-0.93141 4.06837,-0.85104 6.06092,-1.51523 14.5915,-4.86383 30.32305,-3.86609 44.95178,1.01015 3.09662,1.03221 4.7303,4.13292 7.57615,5.55584 4.73772,2.36886 9.73149,7.34116 12.12183,12.12183 1.33678,2.67357 0.7617,6.07729 1.51523,9.09138 3.83318,15.33272 2.917,34.01029 -6.06092,47.47717 -4.19091,6.28637 -12.00614,12.7567 -19.1929,15.15229 -6.01855,2.00618 -11.53034,7.7157 -17.17259,9.59644 -9.70014,3.23339 -23.27405,2.29312 -31.8198,6.566 -2.34662,1.1733 -10.25422,1.33903 -12.62691,2.52538 -2.16713,1.08356 -9.95292,1.36661 -11.11168,2.52538 -0.97166,0.97166 -4.78245,-0.63923 -6.06091,0 -3.55345,1.77672 -18.58238,4.65113 -21.21321,2.0203 -3.42572,-3.42572 4.4307,-8.24132 5.55584,-11.61675 0.62684,-1.88051 1.23607,-4.10034 2.02031,-6.06092 1.99296,-4.9824 2.00944,-10.04722 3.03045,-15.15228 1.41434,-7.07167 5.66729,-39.67814 2.52538,-45.96195 -1.01225,-2.02451 1.53864,-8.05781 0,-9.59644 -0.73909,-0.7391 -1.20842,-2.50657 -1.51522,-4.04061 z"
       id="path4177"
       inkscape:connector-curvature="0" />
    <path
       style="fill:#f13b12;fill-opacity:1;stroke:#ffffff;stroke-width:1px;stroke-linecap:butt;stroke-linejoin:miter;stroke-opacity:0"
       d="m 300.52039,199.79343 c -4.86918,-2.5456 -9.43972,4.38896 -12.62691,7.57615 -12.59137,12.59137 -20.32505,30.14761 -13.63706,47.98224 4.70982,12.55953 9.31404,28.66444 20.20305,37.37565 14.00409,11.20327 20.79639,10.42222 36.87057,13.63706 2.26116,0.45223 6.25324,1.28276 8.5863,0.50507 13.79822,-4.5994 27,-11.15988 34.85026,-24.24366 4.14854,-6.91423 4.29881,-15.69132 5.55584,-23.23351 1.70197,-10.21182 1.99985,-23.09924 -3.53553,-32.32488 -1.59989,-2.66647 -4.19859,-4.58796 -6.06092,-7.07106 -2.21023,-2.94698 -5.38113,-6.6632 -8.5863,-8.5863 -3.20756,-1.92454 -6.77775,-3.56158 -10.10152,-5.55584 -8.52386,-5.11432 -15.01827,-8.30025 -24.24366,-10.6066 -3.39465,-0.84866 -15.20222,-1.49027 -18.18275,0 -3.23657,1.61828 -4.85801,3.69901 -9.09137,4.54568 z"
       id="path4175"
       inkscape:connector-curvature="0" />
    <path
       style="fill:#c22e0c;fill-opacity:1;stroke:#ffffff;stroke-width:1px;stroke-linecap:butt;stroke-linejoin:miter;stroke-opacity:0"
       d="m 177.78684,227.06755 c -5.2112,0.77982 -14.11692,13.90985 -17.67767,18.18274 -2.76806,3.32168 -5.38041,6.72552 -8.08122,10.10153 -1.75514,2.19393 -2.61227,5.13766 -4.54568,7.07107 -3.21383,3.21383 -6.73149,6.78665 -9.59645,10.6066 -2.74861,3.66481 -4.01987,8.30265 -6.56599,12.12183 -2.15918,3.23877 -6.36406,6.16213 -8.08122,9.59645 -1.49156,2.98312 -5.17253,10.22329 -6.56599,11.61675 -0.60123,0.60123 -0.50508,4.05208 -0.50508,5.05077 0,0.5446 -1.29103,2.74957 -0.50508,3.53553 1.92473,1.92473 2.88455,9.95561 5.55584,12.62691 3.10686,3.10685 4.52363,7.04901 8.08122,10.6066 5.58771,5.5877 10.92716,10.00926 18.18275,13.63706 2.30442,1.15221 5.34912,3.53553 8.08122,3.53553 2.0688,0 16.38259,3.25061 17.17259,4.04061 0.56623,0.56623 2.7907,-0.37242 3.53554,0 6.84169,3.42085 44.38812,-6.00232 48.48732,-10.10152 6.43026,-6.43027 14.67026,-14.67027 22.72843,-22.72844 8.55518,-8.55517 14.07765,-16.88781 24.74874,-22.22335 3.98461,-1.99231 9.94102,-2.69767 14.64721,-5.05077 1.48032,-0.74016 3.54072,-0.25513 5.05076,-1.01015 3.20441,-1.6022 8.34167,0.62739 11.61676,-1.01015 2.97292,-1.48646 12.89617,0.62298 17.17259,-1.51523 8.36403,-4.18201 15.66507,-16.18556 18.68782,-25.25381 1.93811,-5.81433 1.10608,-17.9909 -1.51523,-23.23351 -1.11712,-2.23426 -3.82831,-5.13125 -4.54568,-6.56599 -0.27278,-0.54557 -0.71754,-1.75441 -1.51523,-2.02031 -11.60827,-3.86942 -20.86312,-5.41331 -33.84011,-7.57614 -20.44101,-3.40684 -40.7033,-7.57615 -61.61931,-7.57615 -8.84074,0 -20.05555,-0.44548 -28.78935,1.01016 -4.89747,0.81624 -10.2034,1.51523 -15.15228,1.51523 -3.67188,0 -11.23331,0.0791 -14.64722,1.01015 -1.91234,0.52155 -5.61033,4.48827 0,0 z"
       id="path4173"
       inkscape:connector-curvature="0" />
    <path
       style="fill:#ffffff;fill-opacity:1;stroke:#ffffff;stroke-width:1px;stroke-linecap:butt;stroke-linejoin:miter;stroke-opacity:0"
       d="m 182.3474,181.2133 c 0.11961,-0.46172 -31.45009,-7.94586 -41.41626,2.02031 -0.38232,0.38232 -7.68692,10.10152 -6.06091,10.10152 2.68682,0 6.5977,-2.79377 9.09137,-4.04061 3.78529,-1.89264 21.8302,-3.22704 26.26397,-1.01015 3.868,1.934 10.36113,6.06091 14.14213,6.06091"
       id="path3114"
       inkscape:connector-curvature="0" />
    <path
       style="fill:#ffffff;fill-opacity:1;stroke:#ffffff;stroke-width:1px;stroke-linecap:butt;stroke-linejoin:miter;stroke-opacity:0"
       d="m 164.65486,192.72237 c -17.71004,-4.78843 -28.88897,7.67577 -38.38579,17.17259 -0.75913,0.75913 -4.04061,3.12395 -4.04061,5.05076 0,0.1186 4.64044,-1.81514 5.05076,-2.0203 2.72003,-1.36002 7.31984,-0.62947 10.10152,-2.02031 7.94367,-3.97183 24.86946,-3.41481 30.30458,2.02031"
       id="path3112"
       inkscape:connector-curvature="0" />
    <path
       style="fill:#ffffff;fill-opacity:1;stroke:#ffffff;stroke-width:1px;stroke-linecap:butt;stroke-linejoin:miter;stroke-opacity:0"
       d="m 245.46707,282.62594 c 13.57947,2.18746 16.328,43.51934 20.20305,45.45687 3.64374,1.82187 6.06091,-19.62795 6.06091,-22.22336 0,-11.54663 -11.11168,-24.48558 -11.11168,-29.29442"
       id="path3050"
       inkscape:connector-curvature="0" />
    <path
       style="fill:#e12e06;fill-opacity:1;stroke:#ffffff;stroke-width:1px;stroke-linecap:butt;stroke-linejoin:miter;stroke-opacity:0"
       d="m 287.89348,309.90006 c -6.91248,-0.33024 5.6344,-0.50507 -2.52539,-0.50507 -1.63865,0 -1.55235,9.36247 4.04061,6.56599 3.20667,-1.60334 4.82289,-7.32854 -1.51522,-6.06092 z"
       id="path4712"
       inkscape:connector-curvature="0" />
    <path
       style="fill:#ffffff;fill-opacity:1;stroke:#ffffff;stroke-width:1px;stroke-linecap:butt;stroke-linejoin:miter;stroke-opacity:0"
       d="m 278.8021,274.54472 c -1.71808,8.46027 9.09137,13.52981 9.09137,21.21321 0,4.01571 2.02031,7.77786 2.02031,12.12183 0,2.62152 -1.8682,12.27393 -1.01015,13.13198 2.25316,2.25316 6.7863,-8.23709 7.07106,-9.09137 2.69809,-8.09425 3.28454,-35.10126 -2.0203,-40.40611"
       id="path3052"
       inkscape:connector-curvature="0" />
    <path
       style="fill:#ffffff;fill-opacity:1;stroke:#ffffff;stroke-width:1px;stroke-linecap:butt;stroke-linejoin:miter;stroke-opacity:0"
       d="m 297.68862,271.99396 c 4.47927,1.21459 9.35952,3.93775 12.12183,8.08122 4.58873,6.8831 -2.22906,28.07551 0,30.30458 1.8889,1.88889 8.35281,-7.88582 9.09137,-10.10153 4.3908,-13.17238 0.5675,-25.69647 -7.07106,-33.33503"
       id="path3054"
       inkscape:connector-curvature="0" />
    <path
       style="fill:#ffffff;fill-opacity:1;stroke:#ffffff;stroke-width:1px;stroke-linecap:butt;stroke-linejoin:miter;stroke-opacity:0"
       d="m 139.40105,285.6564 c -5.19887,-3.12639 -10.52872,-1.06208 -15.15229,2.0203 -10.08225,6.7215 -14.76379,18.8044 -21.2132,25.25382 -8.021918,8.02192 5.46645,-24.06489 6.06091,-25.25382 6.24172,-12.48343 30.55542,-24.24366 40.4061,-24.24366"
       id="path3056"
       inkscape:connector-curvature="0" />
    <path
       style="fill:#ffffff;fill-opacity:1;stroke:#ffffff;stroke-width:1px;stroke-linecap:butt;stroke-linejoin:miter;stroke-opacity:0"
       d="m 218.19295,298.78838 c 8.88481,6.87702 8.64319,16.39001 11.11168,26.26397 1.50212,6.00852 1.405,14.93183 4.04061,20.20305 0.28212,0.56425 -0.35591,8.43712 1.01015,7.07107 11.3836,-11.3836 7.456,-39.25129 2.0203,-55.55839 -1.53879,-4.61637 -5.29831,-10.59664 -7.07106,-14.14214 -0.15796,-0.31591 -3.46455,-5.05076 -3.03046,-5.05076 0.47619,0 1.96253,1.01015 3.03046,1.01015"
       id="path3048"
       inkscape:connector-curvature="0" />
    <path
       style="fill:#ffffff;stroke:#ffffff;stroke-width:1px;stroke-linecap:butt;stroke-linejoin:miter;stroke-opacity:0"
       d="m 145.46196,298.78838 c -1.29899,0.54417 -8.24111,4.36041 -13.13198,14.14214 -2.86646,5.73293 -8.08122,15.69952 -8.08122,22.22335 0,3.20575 -6.26929,33.12666 -3.03046,36.3655 0.32958,0.32957 2.19123,-4.38245 4.04061,-8.08122 2.77931,-5.55862 7.26369,-9.66922 9.09138,-15.15229 3.41771,-10.25314 28.62511,-42.42641 31.31473,-42.42641"
       id="path3044"
       inkscape:connector-curvature="0" />
    <path
       style="fill:#f3e4be;fill-opacity:1;stroke:#ffffff;stroke-width:1px;stroke-linecap:butt;stroke-linejoin:miter;stroke-opacity:0"
       d="m 151.25,300.8125 c -0.18969,0.17263 -0.41243,0.34993 -0.53125,0.46875 -4.89004,4.89004 -10.67802,11.62781 -12.875,18.21875 -0.94244,2.82733 -3.51917,13.17542 -5.34375,15 -0.97569,0.97569 -1.73492,5.96985 -2.5,7.5 -2.77741,5.55483 -10.06848,20.02298 -7.0625,26.40625 0.69135,-1.5129 1.49029,-3.32433 2.3125,-4.96875 2.77931,-5.55862 7.26606,-9.67318 9.09375,-15.15625 3.41771,-10.25314 28.62288,-42.40625 31.3125,-42.40625 L 151.25,300.8125 z"
       id="path4148"
       inkscape:connector-curvature="0" />
    <path
       style="fill:#f3e4be;fill-opacity:1;stroke:#000000;stroke-width:1px;stroke-linecap:butt;stroke-linejoin:miter;stroke-opacity:0"
       d="m 135.25,278.96875 c -1.90975,0.16066 -4.50206,1.9597 -5.59375,2.6875 -4.15016,2.76677 -9.50004,5.18755 -12.875,8.5625 -1.2633,1.26331 -1.88832,3.66957 -3.21875,5 -2.96863,2.96863 -4.56714,4.54053 -6.40625,8.21875 -0.28572,0.57143 -1.15179,0.86607 -1.4375,1.4375 -0.47285,0.94569 -0.68117,2.43117 -1.4375,3.1875 -0.66934,0.66934 -1.3429,1.27956 -1.78125,2.15625 -0.11616,0.23232 -0.91238,2.02555 -1.65625,3.90625 0.37301,0.26079 1.05942,-0.0594 2.1875,-1.1875 6.44941,-6.44942 11.1365,-18.5285 21.21875,-25.25 3.65434,-2.43622 7.75164,-4.23965 11.875,-3.34375 0.78463,-2.06513 1.48222,-4.60264 0.3125,-5.1875 -0.34027,-0.17014 -0.74679,-0.22458 -1.1875,-0.1875 z"
       id="path4158"
       inkscape:connector-curvature="0" />
    <path
       style="fill:#ffffff;fill-opacity:1;stroke:#ffffff;stroke-width:1px;stroke-linecap:butt;stroke-linejoin:miter;stroke-opacity:0"
       d="m 143.44166,238.17923 c -5.5266,-0.24567 -10.3907,0.43311 -15.15229,2.02031 -10.92869,3.64289 -15.25756,10.20679 -21.2132,16.16244 -2.42054,2.42053 -0.14495,-10.96674 5.05076,-16.16244 9.0774,-9.0774 24.99263,-24.24367 37.37564,-24.24367"
       id="path3110"
       inkscape:connector-curvature="0" />
    <path
       style="fill:#ffffff;fill-opacity:1;stroke:#ffffff;stroke-width:1px;stroke-linecap:butt;stroke-linejoin:miter;stroke-opacity:0"
       d="m 131.87676,281.80869 c -2.40637,-0.47261 -1.80082,-1.83745 -8.89039,-3.5774 -9.31806,-2.28687 -20.02395,-32.77154 -15.59187,-33.13171 3.11434,-0.25307 9.35779,9.27474 12.31669,10.46538 7.48449,3.01168 20.96648,11.08222 21.55418,18.31439 0.0579,0.71194 2.25153,1.25032 2.30937,1.96226 0.23784,2.92668 -10.63074,5.40333 -11.69798,5.96708 z"
       id="path3213"
       inkscape:connector-curvature="0" />
    <path
       style="fill:#f3e4be;fill-opacity:1;stroke:#ffffff;stroke-width:1px;stroke-linecap:butt;stroke-linejoin:miter;stroke-opacity:0"
       d="m 146.40625,227.28125 c -1.12611,0.35224 -2.0731,0.64937 -2.46875,0.78125 -7.91259,2.63753 -14.51604,5.85177 -21.4375,9.3125 -0.95814,0.47907 -1.93838,1.93838 -2.5,2.5 -1.3525,1.3525 -3.232,2.13825 -4.65625,3.5625 -2.97741,2.97741 -4.85294,5.57169 -7.125,7.84375 -0.71152,0.71152 -0.57076,2.31919 -0.0312,3.9375 5.41268,-5.63488 9.86233,-11.62078 20.09375,-15.03125 4.76159,-1.5872 9.62965,-2.24567 15.15625,-2 l 2.96875,-10.90625 z"
       id="path4168"
       inkscape:connector-curvature="0" />
    <path
       style="fill:#f3e4be;fill-opacity:1;stroke:#ffffff;stroke-width:1px;stroke-linecap:butt;stroke-linejoin:miter;stroke-opacity:0"
       d="m 106.72944,245.50163 c -0.18622,0.27871 -0.272,0.71722 -0.32002,1.24536 0.48965,1.2687 0.97307,2.60433 1.59365,4.06061 0.40876,0.95923 1.58254,1.61038 2.0077,2.60809 0.83112,1.95035 7.30044,5.75203 8.91478,7.12373 0.6594,0.56028 2.18238,2.26935 2.5352,3.0973 0.29558,0.69362 11.5956,9.18938 11.89622,9.16495 1.01051,-0.0821 2.54213,0.81324 3.60625,0.72677 0.25172,-0.0204 0.43628,-0.78923 0.68798,-0.80969 1.73842,-0.14127 2.26599,-1.26321 2.26987,-2.62314 -3.69757,-6.0819 -14.00702,-12.04888 -20.20352,-14.54227 -2.9589,-1.19064 -9.19763,-10.71444 -12.31195,-10.46137 -0.27703,0.0225 -0.51337,0.16609 -0.67616,0.40966 z"
       id="path4163"
       inkscape:connector-curvature="0" />
    <path
       style="fill:#e34926;fill-opacity:1;stroke:#ffffff;stroke-width:1px;stroke-linecap:butt;stroke-linejoin:miter;stroke-opacity:0"
       d="m 216.9375,155.15625 c -5.4476,0.0399 -11.15309,0.63687 -13.90625,1.1875 -7.08772,-0.90543 -28.28096,13.15596 -40.40625,25.28125 -2.16687,2.16686 -2.06514,8.12764 -4.03125,10.09375 -6.00675,6.00675 -10.08685,14.1181 -16.15625,20.1875 -3.17884,3.17884 -2.4813,10.57505 -5.0625,13.15625 -2.69629,2.69629 -2.17038,14.26413 -6.0625,18.15625 -0.88347,0.88348 0.0502,3.7781 0.15625,5.71875 -0.57396,1.41583 -0.94801,3.10597 -1.21875,5 -0.008,0.0541 -0.0237,0.10184 -0.0312,0.15625 -0.0642,0.41834 -0.11409,0.84027 -0.15625,1.28125 -0.46726,4.3487 -0.40625,9.55273 -0.40625,14.84375 0,2.51582 -0.65771,7.59228 0.6875,8.9375 0.81839,0.81838 0.15746,4.22118 0.71875,5.34375 3.41869,6.83739 8.42947,12.71072 13.9375,18.21875 1.22598,1.22599 2.94097,0.39236 4.28125,1.0625 1.22668,0.61334 1.97674,0.20499 2.59375,-0.53125 12.73067,12.45267 22.52295,18.78125 50.15625,18.78125 17.15609,0 59.46468,-30.18342 68.6875,-39.40625 8.03646,-8.03646 51.38821,-10.98197 54.5625,-14.15625 3.32801,-3.32802 9.17601,-6.14476 13.125,-10.09375 4.48744,-4.48744 3.59653,-13.72154 8.0625,-18.1875 0.50404,-0.50405 0,-4.24029 0,-5.03125 0,-12.98949 -3.56531,-22.78406 -12.09375,-31.3125 -7.21149,-7.21149 -19.63837,-12.40475 -28.3125,-18.1875 -12.66186,-8.44124 -25.59317,-17.6248 -39.375,-22.21875 -5.13273,-1.71091 -24.97279,-3.75404 -27.28125,-6.0625 -1.68359,-1.68359 -8.41017,1.68358 -10.09375,0 -1.72042,-1.72041 -6.9274,-2.25866 -12.375,-2.21875 z"
       id="path3116"
       inkscape:connector-curvature="0" />
    <path
       style="fill:#c22e0c;fill-opacity:1;stroke:#ffffff;stroke-width:1px;stroke-linecap:butt;stroke-linejoin:miter;stroke-opacity:0"
       d="m 253.42893,126.91769 c -7.00578,0.0713 -12.26263,0.41888 -13,1.15625 -1.81979,1.81979 -11.43088,-0.36269 -14.15625,1 -4.50222,2.25111 -19.03217,-0.15533 -22.21875,3.03125 -0.95314,0.95314 -2.32259,1.88267 -3.71875,2.8125 -2.88575,0.17841 -6.05827,0.076 -8.40625,1.25 -6.58635,3.29318 -11.65808,7.59558 -17.1875,13.125 -3.65844,3.65844 -2.60561,10.30497 -5.03125,15.15625 -6.88879,13.77757 6.53756,22.69381 15.15625,31.3125 4.10015,4.10015 12.84204,3.74829 16.15625,7.0625 0.14732,0.14731 5.25342,0.50391 10.5,0.78125 5.07096,10.06332 10.58702,20.30578 18.78125,28.5 5.62475,5.62476 43.05569,16.36277 51.53125,12.125 0.72265,-0.36133 1.41887,-0.67927 2.125,-1 12.99254,12.6423 33.42334,16.56958 48.375,9.09375 9.61119,-4.8056 8.09605,-8.09605 14.15625,-14.15625 1.66252,-1.66252 0.88861,-7.87097 2,-10.09375 4.22995,-8.4599 3.57852,-17.1049 0.34375,-25.34375 -0.69256,-6.78832 -1.99432,-12.68182 -3.375,-14.0625 -2.52082,-2.52082 -0.46299,-11.55674 -3.03125,-14.125 -2.60154,-2.60154 -3.55864,-8.62114 -6.0625,-11.125 -5.4498,-5.4498 -13.43131,-17.46257 -20.1875,-24.21875 -5.22538,-5.22539 -14.83447,-6.93286 -21.21875,-10.125 -2.32236,-1.16118 -26.11854,-2.31309 -41.53125,-2.15625 z"
       id="path3118"
       inkscape:connector-curvature="0" />
    <path
       style="fill:#f9dbdb;fill-opacity:1;stroke:#ffffff;stroke-width:1px;stroke-linecap:butt;stroke-linejoin:miter;stroke-opacity:0"
       d="m 213.14218,140.19443 c -11.1381,-5.49729 -24.4915,3.52615 -29.29442,13.13199 -12.66061,25.32121 27.3836,50.39815 43.43656,34.34518 3.38548,-3.38548 7.49717,-6.48701 10.10153,-9.09137 2.37284,-2.37284 3.17781,-6.20827 5.05076,-8.08122 0.39359,-0.39359 0,-3.42417 0,-4.04061 0,-12.94036 -10.13464,-20.23616 -17.17259,-27.27412 -1.36639,-1.36638 -11.55255,0.8963 -12.12184,1.01015 z"
       id="path3140"
       inkscape:connector-curvature="0" />
    <path
       style="fill:#f13b12;fill-opacity:1;stroke:#ffffff;stroke-width:1px;stroke-linecap:butt;stroke-linejoin:miter;stroke-opacity:0"
       d="m 227.28432,187.6716 c -13.00359,0.7399 -23.06444,6.90201 -31.31473,15.15229 -2.78087,2.78088 -2.42115,7.47192 -6.06091,11.11168 -2.55282,2.55282 -4.77683,3.49274 -7.07107,8.08122 -4.56202,9.12405 7.28966,47.69577 13.13198,53.53808 3.58134,3.58134 13.03278,3.03046 18.18275,3.03046 27.07249,0 40.14518,-10.7203 54.54823,-32.32488 2.98476,-4.47712 2.80774,-9.65609 5.05077,-14.14214 7.17492,-14.34985 -17.92375,-46.46701 -31.31473,-46.46701 -1.76502,0 -12.15795,-4.65385 -13.13198,-3.03046 -0.93293,1.55487 -0.51157,4.04494 -2.02031,5.05076 -3.80187,2.53458 -2.90468,-2.14608 -6.06091,1.01016"
       id="path3036"
       inkscape:connector-curvature="0" />
    <path
       style="fill:#e76c50;fill-opacity:1;stroke:#ffffff;stroke-width:1px;stroke-linecap:butt;stroke-linejoin:miter;stroke-opacity:0"
       d="m 208.09142,211.91526 c -14.17867,-9.70091 -39.72655,4.02228 -44.44671,18.18275 -4.82728,14.48184 -3.8474,51.58218 14.14214,57.57869 6.61473,2.20492 14.07314,2.2556 21.2132,4.04062 10.02854,2.50713 23.06845,2.18536 30.30458,-5.05077 20.63733,-20.63733 12.38759,-53.27232 -5.05077,-70.71068 -1.53568,-1.53568 -13.24394,-3.45691 -16.16244,-4.04061 z"
       id="path3038"
       inkscape:connector-curvature="0" />
    <path
       style="fill:#e12e06;fill-opacity:1;stroke:#ffffff;stroke-width:1px;stroke-linecap:butt;stroke-linejoin:miter;stroke-opacity:0"
       d="m 175.76654,231.10816 c -18.77998,-8.26434 -37.02081,14.90617 -33.33503,33.33504 2.7746,13.87302 9.02626,29.25101 21.2132,37.37564 19.03321,12.68881 70.90244,4.47549 78.7919,-19.1929 8.6144,-25.84321 -52.24121,-61.81045 -61.61931,-55.55839 -11.20793,7.47196 0.35676,1.33685 -9.09137,6.06092"
       id="path3040"
       inkscape:connector-curvature="0" />
    <path
       style="fill:#ffffff;stroke:#ffffff;stroke-width:1px;stroke-linecap:butt;stroke-linejoin:miter;stroke-opacity:0"
       d="m 185.86807,312.93052 c 3.14866,11.66746 6.24084,22.76314 10.10152,34.34519 2.38595,7.15783 3.9435,15.96822 7.07107,22.22335 0.0999,0.19976 5.93417,11.11168 4.04061,11.11168 -0.72216,0 3.03046,-5.00135 3.03046,-10.10153 0,-5.99508 4.04061,-11.49686 4.04061,-17.17259 0,-12.81096 0.6937,-36.68194 -7.07107,-44.44671 -1.51523,-1.51523 -0.50508,-5.55584 -2.02031,-7.07107"
       id="path3046"
       inkscape:connector-curvature="0" />
    <path
       style="fill:#f3e4be;fill-opacity:1;stroke:#ffffff;stroke-width:1px;stroke-linecap:butt;stroke-linejoin:miter;stroke-opacity:0"
       d="m 204.90625,317.21875 c -0.30215,5.4e-4 -0.53211,0.0634 -0.625,0.15625 -0.53901,0.53901 -0.96131,1.18601 -1.4375,1.78125 0.22504,3.47905 -0.0377,7.39342 1.4375,10.34375 0.66667,1.33333 -0.66666,3.66667 0,5 1.42891,2.85782 -1.03358,7.55785 0.375,10.375 2.18667,4.37334 -1.20244,18.34511 1.40625,23.5625 0.94238,1.88477 -0.24948,4.84478 0.71875,6.78125 0.14205,0.28409 0.42268,1.99311 0.78125,3.84375 0.88928,-1.84484 2.5625,-5.11997 2.5625,-8.5625 0,-5.99508 4.03125,-11.48052 4.03125,-17.15625 0,-8.38097 0.28121,-21.477 -1.6875,-31.71875 -2.05494,-1.59317 -4.0903,-3.0278 -4.96875,-3.90625 -0.15945,-0.15945 -1.68731,-0.50163 -2.59375,-0.5 z"
       id="path4119"
       inkscape:connector-curvature="0" />
    <path
       style="fill:#c22e0c;fill-opacity:1;stroke:#ffffff;stroke-width:1px;stroke-linecap:butt;stroke-linejoin:miter;stroke-opacity:0"
       d="m 162.63456,246.26045 c -13.82495,-0.66049 11.2688,-1.01015 -5.05077,-1.01015 -1.21405,0 -1.47736,1.94457 -2.0203,3.03046 -3.22955,6.45909 -12.6659,10.72359 -15.15229,18.18274 -1.71112,5.13337 -1.01015,11.64135 -1.01015,17.17259 0,2.34578 -1.03661,8.02831 0,10.10153 4.76107,9.52214 10.91997,22.63258 20.20305,27.27412 2.82455,1.41228 5.35573,2.67786 8.08122,4.04061 2.11399,1.05699 42.92787,1.51884 44.44671,0 2.9079,-2.9079 5.86193,-4.85178 9.09138,-8.08122 0.46695,-0.46696 -0.30496,-2.42056 0,-3.03046 7.63255,-15.26512 -4.10642,-29.39312 -12.12184,-41.41625 -1.91552,-2.87329 -2.79961,-5.90702 -6.06091,-8.08122 -7.3677,-4.9118 -14.86605,-7.43303 -22.22336,-11.11168 -6.87522,-3.43761 -9.47005,-8.81361 -18.18274,-7.07107 z"
       id="path3042"
       inkscape:connector-curvature="0" />
    <path
       style="fill:#f9dbdb;fill-opacity:1;stroke:#ffffff;stroke-width:1px;stroke-linecap:butt;stroke-linejoin:miter;stroke-opacity:0"
       d="m 314.15744,190.70206 c -2.4268,-0.9501 -14.14333,3.03284 -20.20305,15.15229 -1.51458,3.02915 -5.86129,14.54139 -4.04061,18.18274 7.01092,14.02185 28.12964,29.44906 42.42641,15.15229 1.52006,-1.52006 4.70327,-1.32532 6.06091,-4.04061 2.51598,-5.03196 9.58261,-18.21043 6.06092,-25.25381 -6.20916,-12.41832 -13.96875,-28.9944 -30.30458,-19.1929 z"
       id="path3142"
       inkscape:connector-curvature="0" />
    <path
       style="fill:#ffffff;fill-opacity:1;stroke:#ffffff;stroke-width:1px;stroke-linecap:butt;stroke-linejoin:miter;stroke-opacity:0"
       d="m 216.17264,325.05235 c 4.76191,-0.28886 -1.19047,3.86029 0,5.05076 14.8742,14.8742 24.24366,-14.40926 24.24366,-27.27412 0,-0.87121 -1.29699,-13.13198 -2.0203,-13.13198 -1.08625,0 -9.81397,20.92564 -12.12183,23.23351 -3.76145,3.76145 -7.23827,4.96369 -10.10153,12.12183 z"
       id="path3241"
       inkscape:connector-curvature="0" />
    <path
       style="fill:#c22e0c;fill-opacity:1;stroke:#ffffff;stroke-width:1px;stroke-linecap:butt;stroke-linejoin:miter;stroke-opacity:0"
       d="m 205.06096,149.28581 c -7.26034,1.1062 -6.25827,6.25827 -10.10152,10.10152 -0.3936,0.3936 0,3.42417 0,4.04061 0,10.02702 3.84908,16.16244 14.14213,16.16244 2.64995,0 4.7723,0.27847 6.06092,-1.01015 1.62561,-1.62561 6.2165,-1.16573 8.08122,-3.03046 11.14198,-11.14198 -0.53133,-33.32453 -18.18275,-26.26396 z"
       id="path4015"
       inkscape:connector-curvature="0" />
    <path
       style="fill:#c22e0c;fill-opacity:1;stroke:#ffffff;stroke-width:1px;stroke-linecap:butt;stroke-linejoin:miter;stroke-opacity:0"
       d="m 317.1879,198.78328 c -7.5672,-0.52315 -8.33293,7.32278 -12.12183,11.11168 -1.80772,1.80771 -0.56067,31.08998 19.19289,21.2132 14.94227,-7.47113 11.05088,-39.57366 -7.07106,-32.32488 z"
       id="path4017"
       inkscape:connector-curvature="0" />
    <path
       style="fill:#f13b12;fill-opacity:1;stroke:#ffffff;stroke-width:1px;stroke-linecap:butt;stroke-linejoin:miter;stroke-opacity:0"
       d="m 240.79842,171.70204 c 9.8991,-2.66521 25.33602,4.54294 33.74347,9.53785 9.545,5.67074 7.22143,8.35127 13.0817,15.12843 3.64048,4.21006 2.77899,18.50234 0.84544,16.26626 -4.22288,-4.88358 -6.82795,-11.17234 -10.99359,-15.98973 -2.45855,-2.84321 -7.72103,-3.46886 -9.70955,-5.7685 -5.87436,-6.79346 -17.37173,-16.52045 -26.96747,-19.17431 z"
       id="path4045"
       inkscape:connector-curvature="0" />
    <path
       style="fill:#f13b12;fill-opacity:1;stroke:#ffffff;stroke-width:1px;stroke-linecap:butt;stroke-linejoin:miter;stroke-opacity:0"
       d="m 240.10773,148.34559 c 15.19537,4.06221 38.59346,11.3488 49.72187,20.48347 2.41925,1.98582 3.3938,4.63399 5.71889,6.54252 1.35554,1.11268 8.87016,18.46467 9.82285,17.30404 1.9211,-2.34041 -11.97713,-8.90721 -13.15164,-9.8713 -5.15422,-4.2308 -10.01521,-9.145 -15.55789,-13.69467 -3.48994,-2.86469 -9.60959,-2.34332 -12.65706,-4.84482 -5.32078,-4.36751 -9.86623,-9.02272 -14.45367,-12.78828 -0.58928,-0.4837 -8.74113,-2.79836 -9.44335,-3.13096 z"
       id="path4073"
       inkscape:connector-curvature="0" />
    <path
       style="fill:#e76c50;fill-opacity:1;stroke:#ffffff;stroke-width:1px;stroke-linecap:butt;stroke-linejoin:miter;stroke-opacity:0"
       d="m 246.47722,148.27565 c -2.36972,-6.96678 -16.83567,-18.18274 -37.37565,-18.18274 -1.95635,0 -6.36927,-0.85597 -8.08122,0 -4.12823,2.06412 -9.38694,3.32603 -12.12183,6.06091 -1.19047,1.19048 -4.04061,4.71405 -4.04061,3.03046 0,-0.0132 1.76614,-3.78644 2.02031,-4.04061 0.64075,-0.64075 -0.42052,-3.19957 0,-4.04061 1.68316,-3.36633 2.99633,-5.01664 5.05076,-7.07107 2.46112,-2.46112 19.77104,-0.57814 21.2132,-2.0203 2.60252,-2.60252 -4.28103,-8.85095 -3.03045,-10.10153 3.66642,-3.66642 15.33531,9.2744 16.16244,10.10153 0.64884,0.64884 0.12444,5.99869 2.0203,5.05076 2.69011,-1.34505 11.55169,-12.69198 13.13199,-11.11168 2.21116,2.21117 1.66505,14.79704 3.03045,16.16244 2.3043,2.30429 12.41604,0.58842 15.15229,6.06092 0.78489,1.56977 -6.06091,6.10135 -6.06091,5.05076 0,-2.12389 8.84255,3.27928 6.06091,6.06092 -1.36933,1.36933 -5.48608,-1.01016 -7.07107,-1.01016 -2.0203,0 -6.06091,2.02031 -6.06091,0 0,-1.68358 3.36717,0 5.05076,0"
       id="path4075"
       inkscape:connector-curvature="0" />
    <path
       style="fill:#ffffff;stroke:#ffffff;stroke-width:1px;stroke-linecap:butt;stroke-linejoin:miter;stroke-opacity:0"
       d="m 328.80466,171.00408 c 6.45413,-1.89081 13.53364,-5.05076 20.20305,-5.05076 3.81791,0 26.10687,-6.21801 27.27412,-5.05076 1.12403,1.12403 -4.44022,7.07107 -5.05076,7.07107 -1.52151,0 -5.23926,3.21894 -6.06092,4.04061 -1.49088,1.49088 -32.91475,9.51165 -33.33503,9.09137 -2.39486,-2.39486 -3.03046,-6.7608 -3.03046,-10.10153 z"
       id="path4085"
       inkscape:connector-curvature="0" />
    <path
       style="fill:#e76c50;fill-opacity:1;stroke:#ffffff;stroke-width:1px;stroke-linecap:butt;stroke-linejoin:miter;stroke-opacity:0"
       d="m 314.15744,183.63099 c 19.88797,-9.86832 31.13945,4.70021 37.37564,17.1726 2.80956,5.61912 0,14.50387 0,21.2132 0,1.12203 0.71429,6.35678 0,7.07107 -0.53239,0.53239 -1.76307,2.0203 -1.01015,2.0203 7.23626,0 4.04061,-30.15856 4.04061,-33.33503 0,-7.56495 2.43088,-0.20529 8.08122,-3.03046 0.21773,-0.10886 4.04061,-2.53164 4.04061,-2.0203 0,0.95238 -1.34687,-1.34687 -2.0203,-2.02031 -0.72781,-0.72781 -4.8539,-1.4168 -6.06092,-2.0203 -3.3474,-1.6737 -10.91416,0.19751 -13.13198,-2.02031 -0.96311,-0.96311 10.38298,-13.86068 6.06091,-18.18274 -0.009,-0.009 -15.61151,6.06091 -16.16244,6.06091 -2.74188,0 -2.05746,-10.10153 -5.05076,-10.10153 -2.60353,0 -3.52943,5.54974 -5.05076,7.07107 -1.51895,1.51895 -6.94086,3.91041 -7.07107,4.04061 -0.50508,0.50508 0.40406,2.42437 0,3.03046 -10.054,15.081 11.67995,-4.38157 -4.04061,5.05076 z"
       id="path4077"
       inkscape:connector-curvature="0" />
    <path
       style="fill:#ffffff;stroke:#ffffff;stroke-width:1px;stroke-linecap:butt;stroke-linejoin:miter;stroke-opacity:0"
       d="m 253.54829,133.12337 c -1.62728,3.2781 0.50944,-9.08265 -2.02031,-14.14214 -1.48261,-2.96521 -1.01015,-17.10209 -1.01015,-21.213203 0,-2.603312 -3.73119,-15.461704 -2.02031,-17.172593 1.65146,-1.651454 6.06092,7.482257 6.06092,8.08122 0,2.507415 1.71154,4.742 3.03046,6.060916 1.4153,1.4153 3.51202,19.14588 5.05076,22.22336 0.90174,1.80347 5.43112,15.78208 5.05076,16.16244 -3.86395,3.86394 -9.05473,3.05244 -14.14213,0 z"
       id="path4079"
       inkscape:connector-curvature="0" />
    <path
       style="fill:#ffffff;stroke:#ffffff;stroke-width:1px;stroke-linecap:butt;stroke-linejoin:miter;stroke-opacity:0"
       d="m 273.75134,132.11321 c -0.33672,-1.34687 -2.35702,-3.70389 -1.01015,-4.04061 1.34687,-0.33671 1.01015,5.42894 1.01015,4.04061 0,-3.82769 -1.07419,-8.9633 1.01015,-13.13198 0.97442,-1.94883 2.81977,-33.335033 5.05076,-33.335033 1.67083,0 3.03046,10.611489 3.03046,12.12183 0,3.762423 6.4448,31.940993 3.03046,35.355343 -2.45868,2.45868 -9.82542,-0.0916 -12.12183,-1.01016 z"
       id="path4081"
       inkscape:connector-curvature="0" />
    <path
       style="fill:#ffffff;stroke:#ffffff;stroke-width:1px;stroke-linecap:butt;stroke-linejoin:miter;stroke-opacity:0"
       d="m 320.21835,161.40764 c -0.7538,-0.3436 0.84502,-3.87548 7.07107,-10.10153 7.78574,-7.78573 15.40483,-14.39467 23.23351,-22.22335 1.68359,-1.68359 3.36718,-6.73435 5.05076,-5.05077 1.11318,1.11318 -5.31125,12.64282 -6.06091,14.14214 -2.65204,5.30407 -3.81891,13.92043 -8.08122,18.18274 -1.21834,1.21835 -13.57257,13.70156 -15.15229,12.12184 -1.80087,-1.80088 -3.46196,-3.6058 -6.06092,-7.07107 z"
       id="path4083"
       inkscape:connector-curvature="0" />
    <path
       style="fill:#ffffff;stroke:#ffffff;stroke-width:1px;stroke-linecap:butt;stroke-linejoin:miter;stroke-opacity:0"
       d="m 267.69042,140.19443 c -9.29546,0.89348 -1.2017,3.22201 -4.04061,6.06092 -4.58572,4.58572 15.15229,9.05001 15.15229,-3.03046 0,-1.70934 -0.24316,-3.15204 -2.0203,-4.04061 -3.07153,-1.53576 -4.04282,-1.00927 -9.09138,1.01015 z"
       id="path4087"
       inkscape:connector-curvature="0" />
    <path
       style="fill:#ffffff;stroke:#ffffff;stroke-width:1px;stroke-linecap:butt;stroke-linejoin:miter;stroke-opacity:0"
       d="m 310.11683,161.40764 c -1.34687,0.33671 -3.70389,2.35702 -4.04061,1.01015 -0.33672,-1.34687 5.0223,-1.99184 4.04061,-1.01015 -1.29721,1.29721 -5.9084,2.87794 -7.07107,4.04061 -3.18971,3.1897 5.74479,14.45826 9.09137,11.11167 4.07843,-4.07842 10.90396,-15.15228 -2.0203,-15.15228 z"
       id="path4089"
       inkscape:connector-curvature="0" />
    <path
       style="fill:#f3e4be;fill-opacity:1;stroke:#ffffff;stroke-width:1px;stroke-linecap:butt;stroke-linejoin:miter;stroke-opacity:0"
       d="m 238.15625,291.5625 c -0.43674,0.0217 -0.86919,0.30669 -1,0.4375 -0.95643,0.95643 0.21988,3.81024 -0.375,5 -0.77858,1.55721 0.327,7.173 -0.71875,8.21875 -1.0023,1.0023 -1.1001,3.6377 -1.78125,5 -2.13701,4.27404 -3.8256,10.60686 -7.5,14.28125 -0.64094,0.64095 -1.12164,2.90289 -1.78125,3.5625 -0.70612,0.70612 -3.39071,3.40028 -4.8125,5.09375 12.53488,6.52593 20.21875,-18.64252 20.21875,-30.3125 0,-0.6313 -0.66222,-7.21893 -1.3125,-10.8125 -0.17102,-0.14735 -0.34567,-0.28221 -0.53125,-0.375 -0.13482,-0.0674 -0.26067,-0.10097 -0.40625,-0.0937 z"
       id="path4091"
       inkscape:connector-curvature="0" />
    <path
       style="fill:#e12e06;fill-opacity:1;stroke:#ffffff;stroke-width:1px;stroke-linecap:butt;stroke-linejoin:miter;stroke-opacity:0"
       d="m 416.73319,264.04886 c -0.78681,0.028 -1.63319,0.17392 -2.5625,0.40625 -2.26422,-0.13368 -9.64906,5.58656 -15.15625,11.09375 -0.72433,0.72433 -2.68182,1.83239 -3.03125,2.53125 -1.85623,3.71247 -5.31604,6.10084 -7.0625,9.59375 -7.70846,15.41693 -18.20811,26.01031 -35.875,34.84375 -25.59727,12.79864 -51.74244,11.10987 -63.625,34.875 -0.41943,0.83885 -1.58732,4.54119 -2.75,8.71875 -1.88419,0.85068 -4.53971,2.57096 -7.375,5.40625 -4.03928,4.03928 -9.73257,7.73256 -13.625,11.625 -1.73379,1.73379 -7.11107,8.54518 -7.0625,8.59375 2.23009,2.23009 10.43739,1.09381 12.625,0 1.38073,-0.69036 3.66073,0.15401 5.03125,-0.53125 3.20131,-1.60066 6.55872,-2.62766 9.65625,-3.75 -3.76971,7.37516 -7.125,15.68469 -7.125,21.4375 0,1.65259 -2.28084,6.95333 -1,7.59375 1.43094,0.71547 4.04231,-2.52452 5.5625,-3.03125 2.54443,-0.84814 4.16691,-3.16692 6.0625,-5.0625 3.23766,-3.23767 9.8427,-6.56041 12.125,-11.125 0.70587,-1.41174 1.64598,-2.70145 2.65625,-3.96875 0.20888,-0.033 0.41344,-0.084 0.625,-0.125 0.3506,2.39877 0.85831,4.77482 1.25,7.125 0.47737,2.8642 1.32659,5.7751 2.03125,8.59375 0.50334,2.01336 7.57382,16.67618 9.09375,15.15625 5.46424,-5.46423 5.02951,-20.68229 7.5625,-28.28125 1.58989,-4.76966 -0.66915,-11.03624 -0.96875,-15.71875 -6.6e-4,-0.0104 6.4e-4,-0.0209 0,-0.0312 3.68917,-7.47184 6.99604,-14.79491 14.59375,-18.59375 9.70494,-4.85248 18.35426,-11.72401 28.28125,-16.6875 2.37033,-1.18517 12.9879,-2.8629 14.15625,-4.03125 1.79347,-1.79347 6.55293,-2.49044 9.09375,-5.03125 12.38213,-12.38213 30.90315,-19.99069 36.875,-37.90625 0.81114,-2.43339 4.77567,-14.6674 3.53125,-17.15625 -0.76265,-1.52529 -2.13887,-8.70137 -2.53125,-9.09375 -3.24961,-3.2496 -5.55486,-7.66475 -11.0625,-7.46875 z"
       id="path4179"
       inkscape:connector-curvature="0" />
    <path
       style="fill:#e76c50;fill-opacity:1;stroke:#ffffff;stroke-width:1px;stroke-linecap:butt;stroke-linejoin:miter;stroke-opacity:0"
       d="m 303.04576,358.38738 c -2.64308,-3.34128 1.84188,-14.97385 8.08122,-21.2132 1.61803,-1.61803 6.23403,-1.51523 9.09138,-1.51523 2.01425,0 4.37339,-0.33869 6.06091,0.50508 2.32631,1.16315 4.43666,-0.10904 6.06092,1.51523 1.15604,1.15604 -2.51901,7.05832 -3.03046,8.08122 -2.97852,5.95704 -9.46152,7.44121 -13.63706,11.61675 -1.28756,1.28756 -4.54557,1.51512 -5.55584,2.52538 -1.34467,1.34468 -6.28412,-1.20045 -7.07107,-1.51523 z"
       id="path4203"
       inkscape:connector-curvature="0" />
    <path
       style="fill:#ffffff;fill-opacity:1;stroke:#ffffff;stroke-width:1px;stroke-linecap:butt;stroke-linejoin:miter;stroke-opacity:0"
       d="m 343.45187,338.68941 c -0.67344,0.16836 -1.85195,1.17851 -2.02031,0.50508 -0.16836,-0.67344 2.71447,-0.50508 2.02031,-0.50508 -9.1051,0 -1.26737,-0.24786 -2.52539,1.01015 -0.88199,0.882 -4.04061,0.8466 -4.04061,3.03046 0,0.85659 -1.94113,3.61471 -1.01015,4.54569 9.96164,9.96163 18.6644,-6.36865 7.57615,-8.5863 z"
       id="path4205"
       inkscape:connector-curvature="0" />
    <path
       style="fill:#ffffff;fill-opacity:1;stroke:#ffffff;stroke-width:1px;stroke-linecap:butt;stroke-linejoin:miter;stroke-opacity:0"
       d="m 342.94679,328.58788 c -0.16836,-0.67343 -1.17851,-1.85194 -0.50508,-2.0203 0.67344,-0.16836 0.50508,2.71446 0.50508,2.0203 0,-7.87213 -1.26514,-0.50018 0,-3.03045 0.9879,-1.97581 1.40677,-4.94231 3.03046,-6.566 2.97626,-2.97626 8.58629,-0.0612 8.58629,3.03046 0,0.45671 1.83194,4.73406 1.51523,5.05076 -3.06667,3.06668 -8.83059,4.09607 -13.13198,1.51523 z"
       id="path4207"
       inkscape:connector-curvature="0" />
    <path
       style="fill:#ffffff;fill-opacity:1;stroke:#ffffff;stroke-width:1px;stroke-linecap:butt;stroke-linejoin:miter;stroke-opacity:0"
       d="m 370.22091,320.00159 c -0.67344,0.50507 -1.51523,2.18866 -2.02031,1.51523 -0.50507,-0.67344 2.61555,-2.11047 2.02031,-1.51523 -0.97873,0.97872 -3.25238,2.7473 -4.04061,3.53553 -0.47748,0.47748 -0.0825,2.60793 -0.50508,3.03046 -3.31104,3.31104 4.69746,5.40406 7.07107,3.03046 2.69848,-2.69848 5.82457,-11.26644 -2.52538,-9.59645 z"
       id="path4209"
       inkscape:connector-curvature="0" />
    <path
       style="fill:#c22e0c;fill-opacity:1;stroke:#ffffff;stroke-width:1px;stroke-linecap:butt;stroke-linejoin:miter;stroke-opacity:0"
       d="m 392.44426,283.6361 c -0.67343,0.50507 -1.51522,2.18866 -2.0203,1.51522 -0.50508,-0.67343 2.61554,-2.11046 2.0203,-1.51522 -0.76398,0.76398 -7.58121,7.32614 -8.08122,7.57614 -2.51055,1.25528 -9.67652,17.5976 -7.57614,19.69797 0.97262,0.97262 2.85757,1.42879 4.04061,2.02031 0.99264,0.49632 4.32581,1.12009 5.55584,0.50508 3.68612,-1.84307 10.81629,-4.96507 12.62691,-8.5863 2.33783,-4.67567 6.08674,-16.13662 2.0203,-20.20305 -1.43157,-1.43158 -6.12862,-1.01015 -8.5863,-1.01015 z"
       id="path4211"
       inkscape:connector-curvature="0" />
    <path
       style="fill:#c22e0c;fill-opacity:1;stroke:#ffffff;stroke-width:1px;stroke-linecap:butt;stroke-linejoin:miter;stroke-opacity:0"
       d="m 422.65625,186 c -6.63239,0.0501 -13.20997,1.05957 -19.59375,3.1875 -1.99255,0.66419 -4.19967,0.56859 -6.0625,1.5 -2.50167,1.25084 -4.54465,3.05357 -6.5625,4.0625 -7.02364,3.51182 -13.06135,7.99581 -19.625,11.28125 3.5339,6.93206 7.47649,13.276 14.5625,18 2.99021,1.99348 5.60466,4.56977 8.59375,6.5625 3.60865,2.40576 7.97106,2.75116 11.59375,4.5625 2.32348,1.16174 5.76428,0.33527 8.09375,1.5 13.66145,6.83073 29.92293,-8.70418 37.375,-16.15625 1.81328,-1.81328 2.72677,-7.48479 4.03125,-10.09375 0.40406,-0.80813 -0.40406,-2.22313 0,-3.03125 0.71385,-1.4277 0.7449,-4.57271 0,-6.0625 -2.12443,-4.24886 -5.91031,-8.94092 -10.375,-12.125 -7.20419,-2.08705 -14.64285,-3.24332 -22.03125,-3.1875 z"
       id="path4241"
       inkscape:connector-curvature="0" />
    <path
       style="fill:#ffffff;fill-opacity:1;stroke:#ffffff;stroke-width:1px;stroke-linecap:butt;stroke-linejoin:miter;stroke-opacity:0"
       d="m 398.0001,194.74267 c 2.51016,5.72105 8.74636,12.62691 20.70813,12.62691 0.47898,0 2.72545,0.30501 3.03046,0 0.81133,-0.81134 3.2922,-1.2719 4.04061,-2.02031 1.74711,-1.74711 3.59758,-3.59758 5.05076,-5.05076 1.01391,-1.01391 0.29606,-2.61242 1.01015,-4.04061 4.71431,-9.42861 -1.36384,-23.94088 -5.05076,-31.31473 -1.53558,-3.07116 -1.50188,-6.04757 -3.53553,-8.08122 -2.06225,-2.06225 -2.15883,-12.62691 -4.54569,-12.62691 -3.13647,0 -6.35382,18.98073 -9.59645,22.22336 -0.21393,0.21393 -2.20588,8.2668 -3.03046,9.09137 -2.75548,2.75548 -8.08122,14.22123 -8.08122,19.1929 z"
       id="path4246"
       inkscape:connector-curvature="0" />
    <path
       style="fill:#e12e06;fill-opacity:1;stroke:#ffffff;stroke-width:1px;stroke-linecap:butt;stroke-linejoin:miter;stroke-opacity:0"
       d="m 503.09375,310.6875 c -2.66654,0.0943 -7.09375,1.78379 -7.09375,2.75 -0.97085,0.7513 -8.03986,9.48598 -11.625,16.65625 -1.05945,2.1189 -4.58407,7.11532 -5.5625,8.09375 -1.12548,1.12548 -0.96768,3.96553 -1.5,5.5625 -4.21847,12.65542 3.05957,21.74707 10.59375,29.28125 2.69129,2.69129 8.41491,2.60373 12.125,3.53125 9.33422,2.33356 24.68977,7.72217 30.3125,16.15625 2.16343,3.24515 6.09297,9.007 8.75,13.78125 -0.38039,2.12579 -0.6875,4.4019 -0.6875,6.4375 0,0.65318 -0.35021,2.04746 -0.59375,3.40625 -0.002,0.0104 0.002,0.0209 0,0.0312 -1.76467,5.93828 -4.86517,19.20892 -7.46875,21.8125 -0.80093,0.80093 -0.39087,3.78173 -1.03125,5.0625 -0.47166,0.9433 0.5,3.84851 0.5,5.03125 0,0.44896 -0.82709,1.20416 -0.5,1.53125 0.32485,0.32485 5.45811,-2.92686 6.0625,-3.53125 5.2508,-5.2508 9.54413,-8.98207 13.0625,-14.5 0.62581,0.14699 1.31518,0.26017 2.09375,0.3125 3.43003,5.31644 10.42101,15.38521 11.46875,16.71875 0.44741,0.56945 1.51522,4.25306 2.53125,4.375 1.88283,0.22597 1.64636,-3.55475 2.53125,-4.25 1.9231,-1.51095 2.67569,-14.69398 1.625,-17.625 -0.50815,-1.41752 1.10189,-3.58248 0.59375,-5 -0.1926,-0.53727 -0.37446,-1.22786 -0.5625,-1.9375 0.62395,-0.66371 1.20988,-1.29325 1.8125,-1.9375 0.2053,0.31741 0.40153,0.62644 0.625,0.90625 2.6995,3.38012 10.32607,4.97096 12.78125,6.5625 0.39948,0.25896 4.72647,3.17826 4.78125,3.09375 1.61718,-2.49474 -1.12323,-10.09418 -2.90625,-11.25 -1.26435,-0.8196 -6.30821,-15.99567 -10.75,-18.875 -4.96257,-4.91193 -5.91596,-12.78153 -10.71875,-16.8125 -5.87284,-11.92 -6.03848,-8.69618 -10.78125,-13.53125 -3.68677,-3.68677 -8.69562,-5.66438 -12.125,-9.09375 -2.43211,-2.97938 -11.19293,-3.38305 -13.125,-5.0625 -2.25269,-2.2527 -8.68492,-4.12242 -12.125,-7.5625 -3.37997,-3.37997 3.40892,-24.49467 2.53125,-26.25 -3.85134,-7.70269 -7.52701,-10.34163 -14.15625,-13.65625 -0.35117,-0.17558 -0.85339,-0.24051 -1.46875,-0.21875 z m -5.1875,3.0625 c 0.39155,0.0134 0.55986,0.25528 0.0937,1.1875 l -1.34375,-1 c 0.40922,-0.0263 0.91043,-0.19909 1.25,-0.1875 z"
       id="path4289"
       inkscape:connector-curvature="0"
       sodipodi:nodetypes="ccsssssscsccscsssccsssssccsscscccccsscscccccc" />
    <path
       style="fill:#ffffff;fill-opacity:1;stroke:#ffffff;stroke-width:1px;stroke-linecap:butt;stroke-linejoin:miter;stroke-opacity:0"
       d="m 404.06102,360.40769 c -0.43367,-4.59361 -1.60097,0.67656 0.50507,-3.53554 4.9394,-9.87878 20.0334,-7.24072 25.75889,-1.51522 1.33412,1.33411 3.69417,4.38705 2.02031,6.06091 -0.67344,0.67344 -1.85195,0.8418 -2.52538,1.51523 -0.76111,0.76111 -3.30432,-1.78909 -3.53554,-2.02031 -1.33505,-1.33505 -5.03825,-1.50272 -6.56599,-3.03045 -0.24597,-0.24598 -13.74201,2.52538 -15.65736,2.52538 z"
       id="path4386"
       inkscape:connector-curvature="0" />
    <path
       style="fill:#e76c50;fill-opacity:1;stroke:#ffffff;stroke-width:1px;stroke-linecap:butt;stroke-linejoin:miter;stroke-opacity:0"
       d="m 413.65747,366.97368 c -1.45088,0.75103 -1.76246,0.99953 -4.04061,5.55584 -4.01907,8.03814 11.17859,25.1869 19.1929,17.17259 8.11944,-8.11944 -3.55046,-27.36916 -15.15229,-22.72843 z"
       id="path4401"
       inkscape:connector-curvature="0" />
    <path
       style="fill:#ffffff;fill-opacity:1;stroke:#ffffff;stroke-width:1px;stroke-linecap:butt;stroke-linejoin:miter;stroke-opacity:0"
       d="m 510.6875,360.375 c -2.13768,0.10972 -4.40121,0.72532 -5.625,1.03125 -0.65397,-0.386 -6.0625,1.20253 -6.0625,6.0625 0,3.16499 2.09722,6.9589 4.84375,10.15625 4.72326,1.38426 10.22932,3.37482 15.15625,5.96875 2.83834,-0.79035 5.38407,-2.07156 6.28125,-2.96875 0.97938,-0.97937 0.8986,-3.3597 1.5,-4.5625 0.63078,-1.26155 0.63078,-1.7697 0,-3.03125 -0.33671,-0.67344 0.33672,-1.85781 0,-2.53125 -2.66508,-5.33017 -7.91781,-7.24015 -12.625,-9.59375 -0.95427,-0.47713 -2.18614,-0.59708 -3.46875,-0.53125 z"
       id="path4403"
       inkscape:connector-curvature="0" />
    <path
       style="fill:#c22e0c;fill-opacity:1;stroke:#ffffff;stroke-width:1px;stroke-linecap:butt;stroke-linejoin:miter;stroke-opacity:0"
       d="m 486.89353,355.862 c -5.8292,3.15627 4.40119,-4.02603 -2.52538,1.51523 -3.37098,2.69678 0.34615,11.94875 6.06091,9.09137 5.65757,-2.82878 3.33132,-12.32331 -3.53553,-10.6066 z"
       id="path4447"
       inkscape:connector-curvature="0" />
    <path
       style="fill:#ffffff;fill-opacity:1;stroke:#ffffff;stroke-width:1px;stroke-linecap:butt;stroke-linejoin:miter;stroke-opacity:0"
       d="m 490.93414,340.20464 c 0.2452,0.50436 -2.56837,-0.46209 -3.03046,0 -4.08453,4.08452 -1.20969,13.23175 4.04061,10.6066 5.95903,-2.97952 6.19564,-10.6066 -1.01015,-10.6066 z"
       id="path4449"
       inkscape:connector-curvature="0" />
    <path
       style="fill:#c22e0c;fill-opacity:1;stroke:#ffffff;stroke-width:1px;stroke-linecap:butt;stroke-linejoin:miter;stroke-opacity:0"
       d="m 474.34375,325.3125 c -1.21589,0.0734 -2.09375,1.05301 -2.09375,3.28125 -1.51656,-1.64221 -3.87272,1.61603 -4.75,5.21875 0.48826,0.3106 0.9912,0.56827 1.53125,0.75 3.28479,1.10537 6.62551,3.50008 10.09375,4.90625 5.84275,-6.13269 -1.0403,-14.38221 -4.78125,-14.15625 z"
       id="path4464"
       inkscape:connector-curvature="0" />
    <path
       style="fill:#e76c50;fill-opacity:1;stroke:#ffffff;stroke-width:1px;stroke-linecap:butt;stroke-linejoin:miter;stroke-opacity:0"
       d="m 533.36054,378.59043 c -0.67343,0.33672 -1.68358,1.68359 -2.0203,1.01016 -0.33672,-0.67344 2.77323,-1.01016 2.0203,-1.01016 -3.26141,0 -4.76844,4.60526 -3.53553,7.07107 0.69019,1.38039 2.31634,2.31634 3.03046,3.03046 1.05807,1.05807 4.23983,-0.90351 4.54568,-1.51523 0.67725,-1.35449 0.92309,-5.64291 -0.50507,-7.07107 -0.16163,-0.16163 -3.38665,-1.40356 -3.53554,-1.51523 z"
       id="path4482"
       inkscape:connector-curvature="0" />
    <path
       style="fill:#c22e0c;fill-opacity:1;stroke:#ffffff;stroke-width:1px;stroke-linecap:butt;stroke-linejoin:miter;stroke-opacity:0"
       d="m 544.9773,382.63104 c -6.45457,0.10783 4.98162,-1.5014 -2.52538,0 -1.95012,0.39003 0.11817,8.9732 3.03045,6.06092 1.72518,-1.72518 5.01181,-7.16429 -0.50507,-6.06092 z"
       id="path4484"
       inkscape:connector-curvature="0" />
    <path
       style="fill:#e76c50;fill-opacity:1;stroke:#ffffff;stroke-width:1px;stroke-linecap:butt;stroke-linejoin:miter;stroke-opacity:0"
       d="m 545.48237,395.76303 c -0.67343,0.16836 -1.85194,1.17851 -2.0203,0.50507 -0.16836,-0.67343 2.33074,-1.12595 2.0203,-0.50507 -2.66974,5.33949 -2.52538,-0.10747 -2.52538,2.0203 0,8.98033 10.6182,4.45395 2.52538,-2.0203 z"
       id="path4486"
       inkscape:connector-curvature="0" />
    <path
       style="fill:#e12e06;fill-opacity:1;stroke:#ffffff;stroke-width:1px;stroke-linecap:butt;stroke-linejoin:miter;stroke-opacity:0"
       d="m 421.73869,334.14372 c -6.48964,1.31972 5.1323,-2.04748 -2.52538,0.50508 -2.53927,0.84642 -3.07309,6.01829 -1.51523,7.57614 0.31556,0.31557 6.26906,1.30709 7.07107,0.50508 0.99133,-0.99133 2.2044,-1.69933 3.03045,-2.52538 3.75172,-3.75172 -3.61806,-6.06092 -6.06091,-6.06092 z"
       id="path4507"
       inkscape:connector-curvature="0" />
    <path
       style="fill:#e76c50;fill-opacity:1;stroke:#ffffff;stroke-width:1px;stroke-linecap:butt;stroke-linejoin:miter;stroke-opacity:0"
       d="m 429.81991,321.01174 c -6.28085,1.57449 4.83714,-2.43993 -2.52538,0.50508 -0.31264,0.12505 0.23809,0.77205 0,1.01015 -2.65174,2.65174 2.14615,10.48075 5.05076,7.57614 2.79558,-2.79558 7.30831,-11.05811 -2.52538,-9.09137 z"
       id="path4509"
       inkscape:connector-curvature="0" />
    <path
       style="fill:#ffffff;fill-opacity:1;stroke:#ffffff;stroke-width:1px;stroke-linecap:butt;stroke-linejoin:miter;stroke-opacity:0"
       d="m 550.53314,164.94317 c -3.08866,-3.9672 -7.98016,-7.77802 -9.59645,-12.62691 -2.15954,-6.4786 -9.49655,-9.49654 -13.63706,-13.63706 -1.47383,-1.47383 -5.09098,-2.56559 -6.56599,-4.04061 -0.061,-0.0609 -2.02031,-1.7422 -2.02031,-1.51522 0,1.49824 1.33767,4.69563 2.02031,6.06091 2.29377,4.58754 5.53488,7.02915 7.57614,11.11168 3.77009,7.54018 10.17047,16.23139 16.16244,22.22336 4.99475,4.99474 8.12792,-2.40864 6.06092,-7.57615 z"
       id="path4511"
       inkscape:connector-curvature="0" />
    <path
       style="fill:#ffffff;fill-opacity:1;stroke:#ffffff;stroke-width:1px;stroke-linecap:butt;stroke-linejoin:miter;stroke-opacity:0"
       d="m 559.11943,172.51932 c 0,-0.68376 0,-6.7477 0,-12.62691 0,-4.01928 1.26888,-8.35232 2.52539,-12.12183 0.45175,-1.35526 4.07589,-13.60178 6.06091,-11.61676 0.76285,0.76286 2.33335,37.56768 0.50508,39.39595 -0.7931,0.7931 -2.68367,2.17859 -3.53554,3.03046 -3.02899,3.02899 -4.34604,-3.03643 -5.55584,-6.06091 z"
       id="path4513"
       inkscape:connector-curvature="0" />
    <path
       style="fill:#ffffff;fill-opacity:1;stroke:#ffffff;stroke-width:1px;stroke-linecap:butt;stroke-linejoin:miter;stroke-opacity:0"
       d="m 552.55344,183.12592 c -2.29011,-2.08552 -19.23285,-5.15977 -28.78934,-7.07107 -0.53509,-0.10702 -10.60661,-0.23377 -10.60661,0.50508 0,0.3238 3.6126,2.56391 4.54569,3.03045 4.17571,2.08786 30.72509,17.25716 34.85026,13.13199 2.62247,-2.62247 2.7158,-9.55837 2.52538,-9.59645 -0.82544,-0.16509 -1.68358,0 -2.52538,0 z"
       id="path4528"
       inkscape:connector-curvature="0" />
    <path
       style="fill:#ffffff;fill-opacity:1;stroke:#ffffff;stroke-width:1px;stroke-linecap:butt;stroke-linejoin:miter;stroke-opacity:0"
       d="m 570.73619,193.73252 c -1.22239,-1.01682 1.51523,-4.76176 1.51523,-10.10153 0,-2.90379 1.32992,-5.82476 2.0203,-8.58629 0.45025,-1.80101 1.15435,-3.31885 2.02031,-5.05077 0.57327,-1.14653 3.93874,-10.6066 5.05076,-10.6066 0.88885,0 0.50508,8.29243 0.50508,9.09138 0,2.38326 1.34626,10.94452 0.50507,12.6269 -2.32268,4.64537 -4.05652,20.18714 -11.61675,12.62691 z"
       id="path4556"
       inkscape:connector-curvature="0" />
    <path
       style="fill:#ffffff;fill-opacity:1;stroke:#ffffff;stroke-width:1px;stroke-linecap:butt;stroke-linejoin:miter;stroke-opacity:0"
       d="m 558.10928,197.77313 c -4.46884,-1.00385 -9.07079,0.1615 -13.13198,1.51523 -1.76497,0.58832 -3.38736,0.68353 -5.05076,1.51523 -2.4021,1.20105 -6.61204,1.56127 -8.5863,3.53553 -9.07983,9.07983 26.91761,0.86159 29.29442,-1.51523 0.93099,-0.93099 -2.22341,-4.54748 -2.52538,-5.05076 z"
       id="path4558"
       inkscape:connector-curvature="0" />
    <path
       style="fill:#e76c50;fill-opacity:1;stroke:#ffffff;stroke-width:1px;stroke-linecap:butt;stroke-linejoin:miter;stroke-opacity:0"
       d="m 562.65497,183.63099 c -6.48964,1.31972 5.1323,-2.04748 -2.52538,0.50508 -0.63188,0.21063 -0.78667,1.57332 -1.01016,2.0203 -0.54416,1.08834 -2.70242,4.1916 -2.0203,5.55584 0.76063,1.52127 3.22748,6.72002 6.56599,5.05077 4.99073,-2.49537 5.98264,-13.13199 -1.01015,-13.13199 z"
       id="path4573"
       inkscape:connector-curvature="0" />
    <path
       style="fill:#e76c50;fill-opacity:1;stroke:#ffffff;stroke-width:1px;stroke-linecap:butt;stroke-linejoin:miter;stroke-opacity:0"
       d="m 482.85292,241.71476 c -0.67344,0.16836 -1.85195,1.17852 -2.02031,0.50508 -0.16836,-0.67343 2.33075,-1.12595 2.02031,-0.50508 -0.69416,1.38833 -2.43797,1.9329 -3.53554,3.03046 -0.71945,0.71946 -1.01015,3.58269 -1.01015,5.05076 0,8.04708 14.35028,1.2183 10.10153,-3.03045 -0.76358,-0.76358 -1.025,-2.78535 -2.52539,-3.53554 -1.46233,-0.73116 0.76675,0.004 -3.03045,-1.51523 z"
       id="path4575"
       inkscape:connector-curvature="0" />
    <path
       style="fill:#ffffff;fill-opacity:1;stroke:#ffffff;stroke-width:1px;stroke-linecap:butt;stroke-linejoin:miter;stroke-opacity:0"
       d="m 506.08643,246.26045 c -0.67344,-0.33672 -2.35703,-0.33672 -2.02031,-1.01015 0.33672,-0.67344 2.5527,0.47775 2.02031,1.01015 -0.69826,0.69826 -2.84465,-0.69088 -4.04061,0.50508 -1.368,1.36799 -2.34829,3.88972 -1.51523,5.55584 3.92765,7.8553 14.36323,0.54463 5.55584,-6.06092 z"
       id="path4577"
       inkscape:connector-curvature="0" />
    <path
       style="fill:#c22e0c;fill-opacity:1;stroke:#ffffff;stroke-width:1px;stroke-linecap:butt;stroke-linejoin:miter;stroke-opacity:0"
       d="m 505.07627,278.08026 c -0.67343,0 -2.0203,0.67343 -2.0203,0 0,-0.67344 2.49649,-0.47619 2.0203,0 -5.33844,5.33844 -1.1476,-0.43635 -3.03045,0.50507 -6.44624,3.22312 0.35526,12.44928 6.06091,9.59645 6.74892,-3.37446 3.61865,-10.10152 -3.03046,-10.10152 z"
       id="path4579"
       inkscape:connector-curvature="0" />
    <path
       style="fill:#e76c50;fill-opacity:1;stroke:#ffffff;stroke-width:1px;stroke-linecap:butt;stroke-linejoin:miter;stroke-opacity:0"
       d="m 481.84276,295.75793 c -6.71154,2.31539 5.37046,-2.12687 -2.52538,0.50507 -0.72205,0.24069 -0.63151,1.64167 -1.01015,2.02031 -3.60767,3.60766 2.55631,11.60129 7.57614,9.09137 7.86188,-3.93094 3.07529,-11.61675 -4.04061,-11.61675 z"
       id="path4581"
       inkscape:connector-curvature="0" />
    <path
       style="fill:#c22e0c;fill-opacity:1;stroke:#ffffff;stroke-width:1px;stroke-linecap:butt;stroke-linejoin:miter;stroke-opacity:0"
       d="m 476.792,269.99904 c -9.03275,-1.21693 -4.9939,13.60863 2.02031,10.10152 6.89073,-3.44537 3.31368,-9.03473 -2.02031,-10.10152 z"
       id="path4583"
       inkscape:connector-curvature="0" />
    <path
       style="fill:#e76c50;fill-opacity:1;stroke:#ffffff;stroke-width:1px;stroke-linecap:butt;stroke-linejoin:miter;stroke-opacity:0"
       d="m 542.45192,291.71732 c -6.51035,2.66536 5.23189,-2.86849 -2.52538,1.01015 -5.70828,2.85414 -3.91062,15.08729 3.03045,11.61675 4.78396,-2.39198 6.9775,-8.17479 3.03046,-12.12183 -0.84179,-0.84179 -2.36817,-0.2716 -3.53553,-0.50507 z"
       id="path4585"
       inkscape:connector-curvature="0" />
    <path
       style="fill:#ffffff;fill-opacity:1;stroke:#ffffff;stroke-width:1px;stroke-linecap:butt;stroke-linejoin:miter;stroke-opacity:0"
       d="m 552.55344,268.98888 c -6.75294,1.00896 5.45091,-1.32938 -2.52538,0 -2.34962,0.39161 -6.41314,9.09138 0.50508,9.09138 0.73144,0 2.39029,0.32008 3.03046,0 3.71537,-1.85769 4.36372,-9.09138 -1.01016,-9.09138 z"
       id="path4587"
       inkscape:connector-curvature="0" />
    <path
       style="fill:#e12e06;fill-opacity:1;stroke:#ffffff;stroke-width:1px;stroke-linecap:butt;stroke-linejoin:miter;stroke-opacity:0"
       d="m 586.125,205.46875 c -0.25111,0.12436 -0.49885,0.24942 -0.75,0.375 -1.23966,0.61983 -9.61989,4.50511 -8.0625,6.0625 2.00393,2.00393 7.96199,-0.6936 12,-1.84375 -1.12637,-1.40075 -2.25442,-2.84616 -3.1875,-4.59375 z"
       id="path4634"
       inkscape:connector-curvature="0" />
    <path
       style="fill:#e76c50;fill-opacity:1;stroke:#ffffff;stroke-width:1px;stroke-linecap:butt;stroke-linejoin:miter;stroke-opacity:0"
       d="m 594.9375,220.3125 c -2.97305,2.19724 -10.87045,7.66536 -9.5625,10.28125 0.4971,0.99419 1.89213,1.89212 2.53125,2.53125 2.16477,2.16476 7.05502,2.38109 11.28125,3 -1.19752,-5.65234 -2.91976,-11.04246 -4.25,-15.8125 z"
       id="path4632"
       inkscape:connector-curvature="0" />
    <path
       style="fill:#e12e06;fill-opacity:1;stroke:#ffffff;stroke-width:1px;stroke-linecap:butt;stroke-linejoin:miter;stroke-opacity:0"
       d="m 600.53125,245.78125 c -5.73239,1.81113 -16.95486,5.23263 -14.125,8.0625 0.55763,0.55763 6.85091,4.44664 11.59375,8.625 0.0751,-0.91387 0.21053,-1.7942 0.53125,-2.59375 1.78674,-4.4543 2.26113,-9.25933 2,-14.09375 z"
       id="path4630"
       inkscape:connector-curvature="0" />
    <path
       style="fill:#e76c50;fill-opacity:1;stroke:#ffffff;stroke-width:1px;stroke-linecap:butt;stroke-linejoin:miter;stroke-opacity:0"
       d="m 586.625,267.59375 c -2.45849,-0.0173 -7.04665,2.02333 -7.8125,2.40625 -1.5817,0.79084 1.71314,5.2444 2.53125,6.0625 2.34105,2.34106 4.81925,3.81925 7.0625,6.0625 0.86039,0.86039 2.74974,3.51484 4.6875,6.6875 0.3432,-0.65541 0.68731,-1.32963 0.96875,-2.03125 1.81906,-4.53483 1.34129,-10.21894 2.34375,-15.21875 -3.60806,-0.9035 -7.55057,-2.64432 -8.5,-3.59375 -0.26894,-0.26894 -0.71391,-0.371 -1.28125,-0.375 z"
       id="path4628"
       inkscape:connector-curvature="0" />
    <path
       style="fill:#e12e06;fill-opacity:1;stroke:#ffffff;stroke-width:1px;stroke-linecap:butt;stroke-linejoin:miter;stroke-opacity:0"
       d="m 568.875,282.1875 c -0.48836,0.0255 -0.87987,0.16113 -1.15625,0.4375 -0.63107,0.63108 2.5,5.55085 2.5,6.0625 0,3.21604 6.76006,8.96415 10.1875,16.6875 2.07346,-3.3785 4.79819,-6.23699 7.375,-9.1875 -0.51377,-0.84351 -1.1235,-1.65474 -1.90625,-2.4375 -2.98213,-2.98212 -7.07589,-5.5759 -10.59375,-9.09375 -0.68646,-0.68647 -4.29002,-2.57935 -6.40625,-2.46875 z"
       id="path4626"
       inkscape:connector-curvature="0" />
    <path
       style="fill:#e76c50;fill-opacity:1;stroke:#ffffff;stroke-width:1px;stroke-linecap:butt;stroke-linejoin:miter;stroke-opacity:0"
       d="m 559.5,298.8125 c -0.2808,0.0335 -0.57121,0.16496 -0.875,0.46875 -2.26255,2.26255 0.13256,10.25756 2,12.125 0.87655,0.87655 1.17784,7.38693 2.03125,9.09375 0.53798,1.07598 0.36659,3.14546 0.1875,5 3.79854,-2.97369 7.2929,-6.27705 10.4375,-9.96875 -3.63075,-4.223 -7.98493,-6.40737 -10.125,-10.6875 -0.33194,-0.66389 -1.69066,-6.26562 -3.65625,-6.03125 z"
       id="path4624"
       inkscape:connector-curvature="0" />
    <path
       style="fill:#e12e06;fill-opacity:1;stroke:#ffffff;stroke-width:1px;stroke-linecap:butt;stroke-linejoin:miter;stroke-opacity:0"
       d="m 543.78125,310.28125 c -0.10542,0.0172 -0.19545,0.0665 -0.3125,0.125 -0.59947,0.29973 -1.25439,0.72314 -1.53125,1 -0.63927,0.63927 2.51936,18.89323 -0.625,26.5625 4.36112,-1.85956 8.60426,-3.98279 12.65625,-6.40625 -2.20143,-5.73688 -3.0977,-12.25394 -7.46875,-16.625 -0.78623,-0.78622 -1.13752,-4.91459 -2.71875,-4.65625 z"
       id="path4617"
       inkscape:connector-curvature="0" />
    <path
       style="fill:#e76c50;fill-opacity:1;stroke:#ffffff;stroke-width:1px;stroke-linecap:butt;stroke-linejoin:miter;stroke-opacity:0"
       d="m 570.23111,253.33152 c -6.48964,1.31972 5.1323,-2.04748 -2.52538,0.50508 -6.43943,2.14647 -4.39539,13.05683 2.52538,9.59644 5.34226,-2.67112 8.25706,-8.45011 0,-10.10152 z"
       id="path4647"
       inkscape:connector-curvature="0" />
    <path
       style="fill:#ffffff;fill-opacity:1;stroke:#ffffff;stroke-width:1px;stroke-linecap:butt;stroke-linejoin:miter;stroke-opacity:0"
       d="m 568.21081,226.0574 c -6.91248,-0.33024 5.6344,-0.50508 -2.52538,-0.50508 -3.60378,0 -4.11357,8.04475 1.01015,10.60661 4.53321,2.2666 15.54807,-10.10153 1.51523,-10.10153 z"
       id="path4649"
       inkscape:connector-curvature="0" />
    <path
       style="fill:#922209;fill-opacity:1;stroke:#ffffff;stroke-width:1px;stroke-linecap:butt;stroke-linejoin:miter;stroke-opacity:0"
       d="m 205.71429,283.43361 c 0.45137,2.06809 0.52096,3.89906 1.42857,5.71429 3.64592,7.29185 3.71201,16.14741 0.35714,22.85714 -0.58621,1.17242 -3.3875,8.04107 -5,6.42857 -0.84158,-0.84158 -1.94977,-1.94977 -2.85714,-2.85714 -0.5927,-0.5927 0.077,-4.43983 0.35714,-5 0.44618,-0.89237 -0.33915,-3.23228 0.35714,-3.92857 1.33894,-1.33894 2.54255,-16.47112 2.85715,-16.78572 1.29596,-1.29596 1.70719,-4.44656 2.5,-6.42857 z"
       id="path4664"
       inkscape:connector-curvature="0" />
    <path
       style="fill:#922209;fill-opacity:1;stroke:#ffffff;stroke-width:1px;stroke-linecap:butt;stroke-linejoin:miter;stroke-opacity:0"
       d="m 169.28571,260.57647 c -3.57283,-0.75124 -7.70982,0.49702 -10.71428,2.5 -3.23039,2.15359 -4.84366,3.72011 -7.14286,6.78571 -1.8793,2.50574 -9.66678,11.76179 -6.42857,15 0.27642,0.27642 8.18935,-6.76078 8.92857,-7.5 4.43163,-4.43163 12.32395,-5.89537 15.35714,-8.92857 0.76712,-0.76711 3.06284,-0.91998 3.92858,-1.78571 2.02122,-2.02123 -3.04183,-5.40637 -3.92858,-6.07143 z"
       id="path4666"
       inkscape:connector-curvature="0" />
    <path
       style="fill:#f13d14;fill-opacity:1;stroke:#ffffff;stroke-width:1px;stroke-linecap:butt;stroke-linejoin:miter;stroke-opacity:0"
       d="m 252.03306,349.29601 c -0.78899,-0.19916 -3.85054,2.65032 -6.06092,7.07107 -0.49645,0.9929 -2.87434,12.78302 -2.0203,13.63706 3.66302,3.66302 9.10765,4.02434 13.13198,0 1.93102,-1.93102 1.69729,-5.59695 2.52538,-8.08122 1.27191,-3.81571 3.2394,-9.89259 0.50508,-12.62691 -0.61283,-0.61283 -3.43243,-3.63864 -5.05076,-2.0203 -0.71978,0.71977 -1.43671,1.22342 -3.03046,2.0203 z"
       id="path4706"
       inkscape:connector-curvature="0" />
    <path
       style="fill:#c22e0c;fill-opacity:1;stroke:#ffffff;stroke-width:1px;stroke-linecap:butt;stroke-linejoin:miter;stroke-opacity:0"
       d="m 267.18535,332.12342 c -6.48964,1.31972 5.1323,-2.04749 -2.52538,0.50507 -1.13194,0.37732 -0.94674,1.95689 -1.51523,2.52539 -3.8439,3.8439 1.3592,11.2677 4.04061,8.58629 2.30067,-2.30067 9.92351,-6.744 6.06091,-10.6066 -1.67124,-1.67124 -2.3146,-1.75942 -6.06091,-1.01015 z"
       id="path4708"
       inkscape:connector-curvature="0" />
    <path
       style="fill:#ffffff;fill-opacity:1;stroke:#ffffff;stroke-width:1px;stroke-linecap:butt;stroke-linejoin:miter;stroke-opacity:0"
       d="m 280.82241,324.0422 c -1.33299,-0.16884 -1.83592,0.32069 -3.03046,1.51523 -3.12688,3.12688 1.26298,6.43957 5.05076,4.54568 4.08121,-2.0406 3.79889,-9.55243 -2.0203,-6.06091 z"
       id="path4710"
       inkscape:connector-curvature="0" />
  </g>
</svg>
