<?xml version="1.0" encoding="UTF-8" standalone="no"?>
<!-- Created with Inkscape (http://www.inkscape.org/) -->

<svg
   xmlns:dc="http://purl.org/dc/elements/1.1/"
   xmlns:cc="http://creativecommons.org/ns#"
   xmlns:rdf="http://www.w3.org/1999/02/22-rdf-syntax-ns#"
   xmlns:svg="http://www.w3.org/2000/svg"
   xmlns="http://www.w3.org/2000/svg"
   xmlns:sodipodi="http://sodipodi.sourceforge.net/DTD/sodipodi-0.dtd"
   xmlns:inkscape="http://www.inkscape.org/namespaces/inkscape"
   width="514.19409"
   height="210.51801"
   id="svg3898"
   version="1.1"
   inkscape:version="0.48.3.1 r9886"
   sodipodi:docname="rock_1.svg">
  <defs
     id="defs3900" />
  <sodipodi:namedview
     id="base"
     pagecolor="#ffffff"
     bordercolor="#666666"
     borderopacity="1.0"
     inkscape:pageopacity="0.0"
     inkscape:pageshadow="2"
     inkscape:zoom="0.49497475"
     inkscape:cx="613.94009"
     inkscape:cy="124.3774"
     inkscape:document-units="px"
     inkscape:current-layer="layer1"
     showgrid="false"
     inkscape:window-width="1364"
     inkscape:window-height="766"
     inkscape:window-x="0"
     inkscape:window-y="0"
     inkscape:window-maximized="0"
     fit-margin-top="0"
     fit-margin-left="0"
     fit-margin-right="0"
     fit-margin-bottom="0" />
  <metadata
     id="metadata3903">
    <rdf:RDF>
      <cc:Work
         rdf:about="">
        <dc:format>image/svg+xml</dc:format>
        <dc:type
           rdf:resource="http://purl.org/dc/dcmitype/StillImage" />
        <dc:title></dc:title>
      </cc:Work>
    </rdf:RDF>
  </metadata>
  <g
     inkscape:label="Layer 1"
     inkscape:groupmode="layer"
     id="layer1"
     transform="translate(-101.51106,-392.65015)">
    <path
       style="fill:#6d6b53;fill-opacity:1;stroke:#ffffff;stroke-width:1px;stroke-linecap:butt;stroke-linejoin:miter;stroke-opacity:0"
       d="m 333.74538,393.18277 c -6.754,0.14622 -13.34111,0.83809 -19.33649,2.1595 -15.39233,3.39256 -47.81796,11.03614 -60.34444,19.74542 -6.21062,4.31806 -6.66082,12.02702 -10.40955,15.9252 -3.34157,3.47479 -13.14772,2.99203 -17.75669,4.62911 -7.28209,2.58653 -13.93105,7.12948 -21.25144,9.72962 -12.39633,4.40308 -23.82088,9.60998 -35.41882,15.69509 -9.0842,4.76622 -20.67861,6.20108 -27.58746,13.38538 -4.71212,4.89998 -7.66754,10.16231 -11.10008,17.37646 -2.39413,5.03175 -4.88882,5.38355 -3.40855,7.91187 -0.23922,-0.0549 -0.42784,-0.077 -0.56422,-0.0827 -2.62631,-0.20928 -14.51451,-0.27253 -16.56066,1.8552 -1.66396,1.73029 -6.07069,4.59434 -7.68899,7.99553 -3.142516,6.60461 18.79466,17.39962 22.53968,21.00107 1.54276,1.48362 -12.50461,15.27594 2.64434,24.95309 10.7932,6.89469 27.97844,5.17303 40.82273,4.922 2.61484,-0.0511 5.68455,-0.01 8.97192,0.0747 0.009,1.46179 -0.34389,3.31746 0.39121,4.02438 5.64813,5.43157 14.1964,11.72276 23.16059,15.98798 1.5384,0.73199 4.17925,-0.84372 5.71765,-0.11174 6.47941,3.08294 28.64259,1.56561 36.47207,1.41259 34.47805,-0.67385 64.2265,0.21817 92.57505,-14.6555 7.60838,-3.9919 17.17199,-4.33812 24.84135,-8.36201 2.59031,-1.35905 14.53039,-1.97552 15.66018,-3.15036 2.19867,-2.28633 6.74629,-3.5055 11.75783,-4.51186 7.50177,1.162 14.6415,2.58386 16.81326,4.67236 2.11296,2.03194 -1.84032,7.3353 0.91402,9.98404 1.12619,1.08302 2.78543,2.73371 4.35004,3.47816 5.52283,2.62781 33.65453,4.33247 40.04793,2.0616 3.04993,-1.08332 6.19379,-0.0366 9.26605,-0.86873 10.28345,-2.78546 21.57597,-2.628 32.06584,-4.94002 2.37124,-0.52264 4.73651,-1.07482 7.09433,-1.63894 3.75775,1.08117 8.88198,1.93684 11.45119,0.58885 3.52734,-1.85069 20.15687,-1.29111 20.6867,-1.84208 1.69307,-1.76055 5.44833,0.39256 7.85946,-0.87249 9.95646,-5.22386 21.93664,-1.78769 33.41625,-7.81071 1.61115,-0.84532 3.18702,-0.38121 4.25296,-1.48964 1.68248,-1.74956 5.69116,-0.81741 7.11275,-2.29567 3.76609,-3.91624 16.05515,-14.0386 10.94365,-23.78089 -1.68233,-3.20643 -13.05928,-16.29071 -12.45793,-16.91604 1.40039,-1.45622 7.16049,1.28889 8.56087,-0.16732 2.29195,-2.38331 23.05376,-5.73804 24.15143,-6.87949 0.73304,-0.76221 0.67079,-2.46115 0.64839,-3.60711 -0.0155,-0.79324 0.41715,-4.50393 -0.0977,-4.99904 -3.46945,-3.33643 -15.07236,-9.70734 -21.62881,-9.5792 -0.73979,0.0145 -14.19547,-1.4303 -15.03866,-1.83149 -3.38478,-1.61049 -15.21096,-0.18007 -20.05236,-2.48364 -9.60424,-4.56975 -16.89434,-11.33501 -23.4429,-17.63903 -0.39793,-5.32451 -2.92042,-11.40973 -5.72784,-13.2031 -11.87725,-7.58718 -23.53528,-11.08173 -37.44226,-14.27109 -5.45206,-1.25035 -12.36247,-1.67247 -17.206,-3.97705 -11.84152,-5.63428 -24.94017,-11.02749 -38.83419,-13.52499 -4.64553,-0.83505 -9.05924,-4.38708 -13.70291,-5.45204 -7.28139,-1.66988 -14.31741,-3.61785 -21.51329,-5.26812 -11.78443,-2.70259 -22.38622,-7.44343 -33.79679,-10.06027 -9.89943,-2.27029 -21.56401,-3.54051 -32.82069,-3.2968 z"
       id="path3906"
       inkscape:connector-curvature="0" />
    <path
       style="fill:#7a785d;fill-opacity:1;stroke:#ffffff;stroke-width:1px;stroke-linecap:butt;stroke-linejoin:miter;stroke-opacity:0"
       d="m 337.96875,393.15625 c -1.41559,-0.0158 -2.81167,7.9e-4 -4.21875,0.0312 -6.754,0.14622 -13.34837,0.83484 -19.34375,2.15625 -15.39233,3.39256 -47.81727,11.04072 -60.34375,19.75 -6.21062,4.31806 -6.65752,12.00807 -10.40625,15.90625 -3.34157,3.47479 -13.14103,3.01917 -17.75,4.65625 -7.28209,2.58653 -13.92961,7.11861 -21.25,9.71875 -12.39633,4.40308 -23.83956,9.60239 -35.4375,15.6875 -9.0842,4.76622 -20.6849,6.1907 -27.59375,13.375 -4.71212,4.89998 -7.66121,10.1921 -11.09375,17.40625 -2.39413,5.03175 -4.88652,5.37793 -3.40625,7.90625 -0.23922,-0.0549 -0.42612,-0.0881 -0.5625,-0.0937 -2.62631,-0.20928 -14.51635,-0.28398 -16.5625,1.84375 -1.66396,1.73029 -6.0692,4.59881 -7.6875,8 -0.10737,0.22566 -0.16821,0.45251 -0.21875,0.6875 1.54046,-0.10746 4.00303,-0.49848 5.0625,0.0312 3.48971,1.74486 2.69045,5 7.125,5 4.25301,0 12.93322,-2.83027 17.15625,-0.71875 6.48009,3.24004 22.41531,24.51109 27.125,22.15625 7.08956,-3.54478 5.65479,-10.65479 10,-15 2.2002,-2.2002 13.03609,0.71875 17.15625,0.71875 5.12463,0 12.25352,-1.21171 15,4.28125 0.92609,1.85218 4.2824,8.9213 6.4375,7.84375 2.17362,-1.08681 15.0724,-18.05104 16.40625,-20.71875 3.65173,-7.30347 -5.78109,-9.93758 7.15625,-16.40625 6.31179,-3.15589 13.43822,9.56286 18.5625,12.125 8.0935,4.04675 12.1994,-2.11905 15,-0.71875 3.55559,1.77779 4.68792,5.40667 7.15625,7.875 3.42299,3.42298 14.17227,9.32012 18.5625,7.125 2.00591,-1.00295 4.54184,-3.82309 5.71875,-5 0.74901,-0.74901 0.99474,-13.0105 0,-15 -1.4598,-2.91959 -4.97265,-4.91407 -6.4375,-7.84375 -2.13533,-4.27067 -7.08499,-14.96 -10,-17.875 -1.07631,-1.07632 -3.56373,-2.12624 -5,-3.5625 -1.50174,-1.50174 -5.34659,-3.55684 -3.5625,-7.125 9.34548,-18.69096 32.88514,-1.47889 37.125,-5.71875 2.98194,-2.98194 8.6251,-5.7501 12.875,-10 1.27803,-1.27804 5.71875,-3.74158 5.71875,-4.28125 0,-7.29601 -26.17867,-9.16746 -30.71875,-11.4375 -1.72649,-0.86324 -3.05017,-2.33142 -4.28125,-3.5625 -2.7383,-2.7383 4.23436,-5.9427 5.71875,-6.4375 3.88963,-1.29654 26.17335,-7.25708 30.6875,-5 2.4163,1.20815 13.55282,3.52158 14.3125,4.28125 6.23576,6.23577 8.4483,13.5054 17.125,17.84375 4,2 11,-2 15,0 6.92994,3.46497 14.56988,5.25966 22.15625,7.15625 3.7709,0.94273 6.57589,3.63036 10,5 1.57933,0.63173 13.09484,9.03016 13.5625,8.5625 1.60497,-1.60497 -11.95442,-33.76433 -11.4375,-34.28125 0.54124,-0.54124 4.06536,-0.71875 5,-0.71875 2.37272,0 3.21589,-1.25143 5.71875,0 2.30473,1.15236 13.18974,6.78348 14.28125,7.875 1.79997,1.79997 2.58591,5.42966 4.28125,7.125 3.78089,3.78089 9.53908,10.25784 12.875,13.59375 0.32199,0.322 1.56949,-1.15974 2.125,-1.4375 1.50191,-0.75095 3.45157,-0.57658 4.3125,-1.4375 2.88542,-2.88543 11.85312,4.58438 14.28125,2.15625 1.32645,-1.32645 10.89142,-7.67107 14.28125,-4.28125 2.71402,2.71402 9.13905,5.52107 12.125,10 2.52085,3.78127 4.46266,8.71265 6.4375,10.6875 0.095,0.095 9.11104,-4.82979 9.28125,-5 1.78324,-1.78324 11.15433,6.87308 12.875,8.59375 1.83972,1.83971 12.44934,0.29309 15,2.84375 2.14123,2.14122 6.2557,5.53695 9.28125,8.5625 1.44664,1.44664 5.94304,-1.01227 7.125,-1.40625 0.68818,-0.2294 3.78038,0.53211 4.3125,0 1.13558,-1.13559 4.44575,-2.6135 6.40625,-3.59375 0.9849,-0.49245 1.95698,-1.00985 2.875,-1.59375 -4.66336,-0.16636 -10.25138,-0.18186 -13.21875,-1.59375 -9.60424,-4.56975 -16.88894,-11.32098 -23.4375,-17.625 -0.39793,-5.32451 -2.91133,-11.42538 -5.71875,-13.21875 -11.87725,-7.58718 -23.53052,-11.09189 -37.4375,-14.28125 -5.45206,-1.25035 -12.37522,-1.66417 -17.21875,-3.96875 -11.84152,-5.63428 -24.91848,-11.03375 -38.8125,-13.53125 -4.64553,-0.83505 -9.07508,-4.37254 -13.71875,-5.4375 -7.28139,-1.66988 -14.30412,-3.63098 -21.5,-5.28125 -11.78443,-2.70259 -22.40193,-7.44566 -33.8125,-10.0625 -8.662,-1.9865 -18.68464,-3.2016 -28.59375,-3.3125 z"
       id="path4457"
       inkscape:connector-curvature="0" />
    <path
       style="fill:#615f46;fill-opacity:1;stroke:#ffffff;stroke-width:1px;stroke-linecap:butt;stroke-linejoin:miter;stroke-opacity:0"
       d="m 390.21875,482.28125 c -1.82148,10e-4 -3.63611,0.2537 -5.21875,0.78125 -0.46528,0.15509 -3.16254,-0.39996 -3.5625,0 -2.6648,2.6648 -4.50896,5.22771 -6.4375,7.15625 -2.15102,2.15103 -5.3667,24.8396 -8.5625,26.4375 -2.03251,1.01625 -15.88249,-6.89437 -19.28125,-8.59375 -1.66717,-0.83359 -3.99246,0.71875 -5.71875,0.71875 -0.43589,0 -2.59669,-0.27831 -2.875,0 -2.94378,2.94378 -4.25497,7.12997 -6.40625,9.28125 -2.40255,2.40255 1.10705,11.76795 -1.4375,14.3125 -0.93818,0.93818 -2.77564,3.49438 -3.5625,4.28125 -1.30953,1.30952 -4.40922,0.81548 -5.71875,2.125 -2.4083,2.4083 -2.0013,6.31379 -4.28125,8.59375 -1.77676,1.77676 -6.21694,1.1857 -7.875,2.84375 -1.37866,1.37867 -5.60451,2.04201 -7.125,3.5625 -0.47619,0.47619 -0.24256,1.68006 -0.71875,2.15625 -2.6859,2.6859 -34.52228,-1.55802 -37.15625,-2.875 -4.20858,-2.1043 -7.62982,-6.19232 -10.71875,-9.28125 -4.16014,-4.16014 -29.34858,13.62984 -30.71875,15 -0.45308,0.45308 -2.24904,-0.29735 -2.84375,0 -5.17779,2.5889 -9.59947,0.93464 -14.28125,-1.40625 -4.66162,-2.33081 -10.25731,-6.6948 -13.5625,-10 -1.0459,-1.04589 -2.40962,-4.04856 -4.3125,-5 -3.88245,-1.94122 -9.50255,4.0169 -12.84375,5.6875 -3.72546,1.86273 -9.44962,-0.61894 -13.5625,1.4375 -1.19447,0.59724 -2.73913,-0.29144 -3.59375,-0.71875 -3.41925,-1.70963 -16.50751,0.64874 -18.5625,-1.40625 -2.13546,-2.13546 -6.87947,-3.59375 -11.4375,-3.59375 -2.34597,0 -5.04353,0.92834 -7.28125,2.3125 0.50007,3.19849 2.3957,6.4737 6.9375,9.375 10.7932,6.89469 27.96821,5.15728 40.8125,4.90625 2.61484,-0.0511 5.68138,0.009 8.96875,0.0937 0.009,1.46179 -0.32885,3.29308 0.40625,4 5.64813,5.43157 14.19206,11.73478 23.15625,16 1.5384,0.73199 4.18035,-0.82573 5.71875,-0.0937 6.47941,3.08294 28.63927,1.55927 36.46875,1.40625 34.47805,-0.67385 64.2452,0.21742 92.59375,-14.65625 7.60838,-3.9919 17.17439,-4.35111 24.84375,-8.375 2.59031,-1.35905 14.52646,-1.98141 15.65625,-3.15625 2.19867,-2.28633 6.73846,-3.49364 11.75,-4.5 7.50177,1.162 14.64074,2.56775 16.8125,4.65625 2.11296,2.03194 -1.84809,7.35126 0.90625,10 1.12619,1.08302 2.77914,2.7243 4.34375,3.46875 5.52283,2.62781 33.6691,4.33337 40.0625,2.0625 3.04993,-1.08332 6.17774,-0.0429 9.25,-0.875 10.28345,-2.78546 21.60388,-2.62548 32.09375,-4.9375 2.37124,-0.52264 4.73593,-1.06088 7.09375,-1.625 3.75775,1.08117 8.86829,1.94174 11.4375,0.59375 3.52734,-1.85069 20.15767,-1.29278 20.6875,-1.84375 1.69307,-1.76055 5.43262,0.39005 7.84375,-0.875 9.95646,-5.22386 21.95789,-1.78948 33.4375,-7.8125 1.61115,-0.84532 3.18406,-0.39157 4.25,-1.5 1.68248,-1.74956 5.70341,-0.80299 7.125,-2.28125 3.76609,-3.91624 16.049,-14.03896 10.9375,-23.78125 -1.68233,-3.20643 -13.0701,-16.28092 -12.46875,-16.90625 1.40039,-1.45622 7.16212,1.26871 8.5625,-0.1875 1.38253,-1.43764 9.2651,-3.17943 15.71875,-4.625 -7.65442,-6.51806 -15.81433,-12.68659 -25.25,-7.96875 -2.45503,1.22751 -5.67454,-0.7942 -7.875,1.40625 -4.22154,4.22155 2.04152,10.14598 -2.125,14.3125 -0.18908,0.18908 -1.86213,0 -2.15625,0 -7.73608,0 -4.82931,-10 -12.125,-10 -3.6616,0 1.6595,11.68102 0,15 -1.08411,2.16823 -8.5619,9.28186 -10.71875,7.125 -1.47061,-1.47061 -1.17392,-6.64946 -3.5625,-7.84375 -3.80757,-1.90379 -12.59559,-7.28494 -14.3125,-10.71875 -1.77086,-3.54172 -1.89125,-10.25812 -5.6875,-12.15625 -5.54698,-2.77349 -3.55155,11.3953 -3.59375,11.4375 -2.73705,2.73706 -12.34319,-3.6716 -13.5625,-4.28125 -6.92645,-3.46323 -5.15262,-15.71875 -15.71875,-15.71875 -0.29411,0 -1.93593,-0.18907 -2.125,0 -0.86579,0.86579 -0.93151,16.48671 0,19.28125 3.50859,10.52577 7.50812,19.28125 -7.875,19.28125 -7.02405,0 -14.98314,2.18997 -10.71875,10.71875 0.47619,0.95238 -0.47619,2.61012 0,3.5625 0.39703,0.79406 2.53643,5.33857 1.4375,6.4375 -2.24732,2.24732 -8.94327,-0.16899 -12.15625,1.4375 -4.01023,2.00512 -7.47717,4.11359 -12.125,6.4375 -2.28572,1.14286 -6.27679,-1.14286 -8.5625,0 -2.89104,1.44552 -6.2392,1.81932 -9.3125,2.84375 -1.61679,0.53894 -8.55826,4.28549 -10,2.84375 -7.05428,-7.05428 -2.37336,-9.02797 -5,-14.28125 -0.32926,-0.65853 -1.17669,-1.14662 -0.6875,-2.125 1.5438,-3.0876 2.37149,-3.80898 4.28125,-5.71875 2.23984,-2.23984 1.7047,-6.28439 2.84375,-8.5625 2.81449,-5.62896 5.74714,-10.77839 9.28125,-14.3125 0.23809,-0.2381 -0.48065,-0.4494 -0.71875,-0.6875 -2.80484,-2.80484 -16.12211,2.40914 -17.84375,0.6875 -2.26829,-2.2683 9.34207,-14.22043 -0.71875,-24.28125 -2.34336,-2.34336 -7.75334,-2.30431 -10.71875,-4.28125 -2.23735,-1.49157 -5.30795,-2.22095 -8.34375,-2.21875 z"
       id="path4462"
       inkscape:connector-curvature="0" />
    <path
       style="fill:#4f4d38;fill-opacity:1;stroke:#ffffff;stroke-width:1px;stroke-linecap:butt;stroke-linejoin:miter;stroke-opacity:0"
       d="m 582.84375,503.78125 c -2.26284,0 -5.87388,3.971 -4.28125,7.15625 5.2015,10.40301 14.86033,18.01468 3.59375,29.28125 -1.06058,1.06058 -3.93943,1.09568 -5,2.15625 -6.92031,6.92031 -24.63947,3.72599 -34.3125,8.5625 -1.71428,0.85714 -4.69196,-0.85714 -6.40625,0 -7.0073,3.50365 -15.2971,-0.42164 -20,4.28125 -3.00158,3.00158 -15.77125,-2.48937 -17.875,-1.4375 -1.97327,0.98664 -2.33871,3.77622 -3.5625,5 -0.709,0.709 -16.55522,1.55522 -20,5 -1.62505,1.62506 -21.09969,-1.02531 -25,2.875 -2.27715,2.27715 -11.31052,-1.48537 -14.28125,0 -3.67045,1.83522 -5.71806,2.85973 -10,0.71875 -1.52477,-0.76238 -5.76723,1.74138 -7.875,0.6875 -2.13879,-1.0694 -3.01195,-1.84972 -5,-2.84375 -0.74938,-0.37469 -2.99238,0.57012 -3.5625,0 -1.96697,-1.96697 -1.37421,-5.68671 -2.84375,-7.15625 -2.26834,-2.26834 -2.9578,-8.6453 -3.59375,-9.28125 -0.27705,-0.27705 -0.65947,-0.68616 -1.0625,-1.125 0.10201,-0.071 0.23768,-0.14393 0.375,-0.28125 0.52493,-0.52493 -1.34227,-0.9092 -0.71875,-2.15625 1.81677,-3.63352 1.90039,-6.67577 3.5625,-10 0.70004,-1.40008 7.96101,-12.80074 3.5625,-15 -0.46375,-0.23187 -8.61844,10.11189 -9.28125,11.4375 -1.61374,3.22749 -1.15433,10.92092 -5,12.84375 -4.40198,2.20099 -16.21258,-26.53433 -20.71875,-24.28125 -4.68333,2.34167 12.26842,16.86941 9.28125,22.84375 -5.75578,11.51156 -15.58406,3.45907 -19.28125,7.15625 -2.7704,2.77041 -7.45837,4.61462 -10,7.15625 -0.70452,0.70452 -0.8857,2.3232 -1.40625,2.84375 -2.381,2.381 -12.96637,-1.01682 -16.4375,0.71875 -2.66764,1.33382 -4.2897,1.41048 -7.15625,2.84375 -2.87255,1.43628 -3.05772,3.66949 -5.71875,5 -3.30954,1.65478 -8.84355,-0.92198 -12.125,0.71875 -3.99764,1.99882 -8.90009,1.57504 -12.875,3.5625 -2.88713,1.44356 -18.47497,-6.10626 -25,-2.84375 -2.47159,1.2358 -12.45652,4.45924 -15.6875,2.84375 -2.89048,-1.44524 -4.48167,-4.35021 -7.15625,-5.6875 -3.34813,-1.67406 -13.74953,6.85914 -17.15625,8.5625 -1.86763,0.93382 -29.80459,-3.83979 -32.125,-5 -6.3847,-3.19235 -9.07529,-4.55681 -12.15625,-10.71875 -0.87608,-1.75216 -0.15264,-3.74638 -1.40625,-5 -0.88878,-0.88877 -4.32495,0.38123 -5,0.71875 -2.97344,1.48677 -30.09123,1.4375 -32.875,1.4375 -2.00952,0 -8.67611,-2.04264 -10,-0.71875 -0.79542,0.79542 -1.49634,1.6779 -2.125,2.625 9.88516,2.25502 21.69038,1.27875 31.15625,1.09375 2.61484,-0.0511 5.68138,0.009 8.96875,0.0937 0.009,1.46179 -0.32885,3.29308 0.40625,4 5.64813,5.43157 14.19206,11.73478 23.15625,16 1.5384,0.73199 4.18035,-0.82573 5.71875,-0.0937 6.47941,3.08294 28.63927,1.55927 36.46875,1.40625 34.47805,-0.67385 64.2452,0.21742 92.59375,-14.65625 7.60838,-3.9919 17.17439,-4.35111 24.84375,-8.375 2.59031,-1.35905 14.52646,-1.98141 15.65625,-3.15625 2.19867,-2.28633 6.73846,-3.49364 11.75,-4.5 7.50177,1.162 14.64074,2.56775 16.8125,4.65625 2.11296,2.03194 -1.84809,7.35126 0.90625,10 1.12619,1.08302 2.77914,2.7243 4.34375,3.46875 5.52283,2.62781 33.6691,4.33337 40.0625,2.0625 3.04993,-1.08332 6.17774,-0.0429 9.25,-0.875 10.28345,-2.78546 21.60388,-2.62548 32.09375,-4.9375 2.37124,-0.52264 4.73593,-1.06088 7.09375,-1.625 3.75775,1.08117 8.86829,1.94174 11.4375,0.59375 3.52734,-1.85069 20.15767,-1.29278 20.6875,-1.84375 1.69307,-1.76055 5.43262,0.39005 7.84375,-0.875 9.95646,-5.22386 21.95789,-1.78948 33.4375,-7.8125 1.61115,-0.84532 3.18406,-0.39157 4.25,-1.5 1.68248,-1.74956 5.70341,-0.80299 7.125,-2.28125 3.76609,-3.91624 16.049,-14.03896 10.9375,-23.78125 -1.68233,-3.20643 -13.0701,-16.28092 -12.46875,-16.90625 1.40039,-1.45622 7.16212,1.26871 8.5625,-0.1875 0.39293,-0.40859 1.36977,-0.8316 2.65625,-1.28125 -2.42269,-2.51607 -5.47297,-4.1875 -10.0625,-4.1875 z m -182.125,41.4375 c 0.47703,0 0.41899,0.94132 0.4375,1.6875 -0.72676,-0.88815 -1.21576,-1.6875 -0.4375,-1.6875 z"
       id="path4505"
       inkscape:connector-curvature="0" />
    <path
       style="fill:#6d6b53;fill-opacity:1;stroke:#ffffff;stroke-width:1px;stroke-linecap:butt;stroke-linejoin:miter;stroke-opacity:0"
       d="m 546.08222,552.27885 c -2.72031,-1.88937 -23.54216,1.89217 -31.24112,9.89807 -13.42431,13.9595 36.43243,25.5088 43.22581,18.44459 0.58576,-0.60912 3.60901,-0.10955 4.27094,-0.79789 3.73387,-3.88273 10.24478,-6.66173 13.3176,-13.11989 6.04903,-12.71321 -21.96622,-16.1015 -29.57323,-14.42488 z"
       id="path3911"
       inkscape:connector-curvature="0" />
    <path
       style="fill:#6d6b53;fill-opacity:1;stroke:#ffffff;stroke-width:1px;stroke-linecap:butt;stroke-linejoin:miter;stroke-opacity:0"
       d="m 320.08482,581.80871 c 1.17185,-1.3602 19.54044,-17.78833 29.87023,-23.02647 3.72007,-1.88642 9.20423,-0.36944 12.84481,-2.21555 8.45446,-4.28717 23.62335,-2.92273 28.5831,1.98121 2.03607,2.01318 7.89348,0.70188 10.01599,2.80053 2.15019,2.12599 2.94123,5.74924 5.04437,7.82873 3.39765,3.35943 -5.20786,13.88744 -6.34362,15.03612 -1.44597,1.46244 -6.1243,3.10558 -8.54705,4.33414 -7.47638,3.79121 -51.97456,7.14418 -58.55029,3.90267 -5.76331,-2.84101 -6.6542,-6.9314 -12.91754,-10.64138 z"
       id="path3913"
       inkscape:connector-curvature="0" />
    <path
       style="fill:#615f46;fill-opacity:1;stroke:#ffffff;stroke-width:1px;stroke-linecap:butt;stroke-linejoin:miter;stroke-opacity:0"
       d="m 399.5625,560.40625 c -0.45388,0.92541 -0.91537,1.85287 -1.71875,2.65625 -3.0212,3.0212 -7.42705,6.60415 -12.84375,9.3125 -2.8132,1.4066 -10.37522,1.03103 -12.84375,-1.4375 -0.414,-0.414 -1.0235,-2.461 -1.4375,-2.875 -0.0335,-0.0335 -10.21965,0.82858 -11.4375,1.4375 -7.00412,3.50206 -11.62273,10.18524 -16.4375,15 -0.89274,0.89274 0.71875,4.38814 0.71875,5.71875 0,1.09751 -0.0845,2.4535 0.0937,3.53125 15.60878,0.27653 42.27104,-2.32993 47.90625,-5.1875 2.42275,-1.22856 7.08528,-2.88131 8.53125,-4.34375 1.13576,-1.14868 9.7414,-11.67182 6.34375,-15.03125 -2.10314,-2.07949 -2.88106,-5.71776 -5.03125,-7.84375 -0.4606,-0.45542 -1.1086,-0.73442 -1.84375,-0.9375 z"
       id="path4467"
       inkscape:connector-curvature="0" />
    <path
       style="fill:#6d6b53;fill-opacity:1;stroke:#ffffff;stroke-width:1px;stroke-linecap:butt;stroke-linejoin:miter;stroke-opacity:0"
       d="m 467.65141,560.24152 c -8.64256,-0.8357 -29.74535,15.45895 -25.92105,26.22579 2.14538,6.04009 8.78107,11.96069 14.57608,14.718 9.90423,4.71249 39.01606,-2.68105 46.23826,-10.19118 1.69166,-1.7591 8.51674,-14.23306 7.56255,-15.15067 -0.85424,-0.82148 -2.71125,-1.90656 -3.62658,-2.7868 -2.33798,-2.24835 -9.35375,-1.97429 -12.21033,-3.33347 -3.60213,-1.71393 -4.56729,-3.23442 -7.95334,-4.84552 -3.30228,-1.57124 -1.57505,-2.91612 -3.66845,-4.92926 -3.63856,-3.49906 -10.52073,-3.43378 -14.99714,0.29311 z"
       id="path4423"
       inkscape:connector-curvature="0" />
    <path
       style="fill:#7a785d;fill-opacity:1;stroke:#ffffff;stroke-width:1px;stroke-linecap:butt;stroke-linejoin:miter;stroke-opacity:0"
       d="m 475.46875,557.375 c -2.73491,0.0448 -5.5743,1.01156 -7.8125,2.875 -8.64256,-0.8357 -29.7618,15.45191 -25.9375,26.21875 0.10023,0.2822 0.22446,0.56238 0.34375,0.84375 3.59941,-1.38406 7.77627,-6.93251 9.375,-8.53125 0.59524,-0.59523 2.24852,-0.12351 2.84375,-0.71875 3.99042,-3.99042 0.91991,10 6.4375,10 0.29411,0 1.93593,0.18907 2.125,0 0.73075,-0.73075 3.44647,-0.54023 4.3125,-1.40625 3.29956,-3.29956 4.3829,-7.9102 10,-10.71875 6.93432,-3.46716 14.71419,3.8483 20,-1.4375 1.09787,-1.09787 1.11711,-2.48585 0.75,-3.875 -1.42249,-0.23132 -2.73903,-0.4847 -3.625,-0.90625 -3.60213,-1.71393 -4.5827,-3.23265 -7.96875,-4.84375 -3.30228,-1.57124 -1.56285,-2.92436 -3.65625,-4.9375 -1.81928,-1.74953 -4.45259,-2.6073 -7.1875,-2.5625 z"
       id="path4485"
       inkscape:connector-curvature="0" />
    <path
       style="fill:#615f46;fill-opacity:1;stroke:#ffffff;stroke-width:1px;stroke-linecap:butt;stroke-linejoin:miter;stroke-opacity:0"
       d="m 507.1875,583.34375 c -3.88521,1.71165 -8.68289,3.31097 -12.90625,4.71875 -4.04487,1.34829 -9.65124,-3.36188 -12.125,-2.125 -4.80541,2.4027 -8.62531,7.15641 -14.3125,10 -4.29848,2.14924 -13.09519,-6.18606 -15,-4.28125 -1.13515,1.13515 -3.57295,0.69796 -5,2.125 -0.25313,0.25313 -0.4672,0.51985 -0.6875,0.78125 2.75533,2.79735 6.07482,5.15883 9.15625,6.625 9.90423,4.71249 38.99655,-2.67737 46.21875,-10.1875 0.82551,-0.85842 2.8864,-4.28274 4.65625,-7.65625 z"
       id="path4490"
       inkscape:connector-curvature="0" />
    <path
       style="fill:#7a785d;fill-opacity:1;stroke:#ffffff;stroke-width:1px;stroke-linecap:butt;stroke-linejoin:miter;stroke-opacity:0"
       d="m 542.84375,551.8125 c -5.02303,0.1113 -14.39185,2.15748 -21.5,5.8125 -1.17607,2.66033 -0.62498,5.45314 3.65625,7.59375 1.8201,0.91005 1.52991,2.54621 3.5625,3.5625 4.07152,2.03576 17.94951,0 23.59375,0 0.7934,0 4.49492,0.50508 5,0 0.97207,-0.97207 3.84418,-2.40668 5,-3.5625 2.02003,-2.02003 4.66449,-7.3052 3.5,-11.21875 -7.13763,-2.13758 -15.8178,-2.5441 -19.5625,-1.71875 -0.51006,-0.35426 -1.673,-0.50369 -3.25,-0.46875 z"
       id="path4495"
       inkscape:connector-curvature="0" />
    <path
       style="fill:#615f46;fill-opacity:1;stroke:#ffffff;stroke-width:1px;stroke-linecap:butt;stroke-linejoin:miter;stroke-opacity:0"
       d="m 575.40625,559.8125 c -3.14917,2.80943 -5.38419,6.79044 -7.5625,8.96875 -3.76041,3.76041 -9.92433,3.51809 -13.5625,7.15625 -0.59523,0.59524 -2.96727,-0.59524 -3.5625,0 -4.97877,4.97876 -27.41299,-4.26723 -35.75,-4 8.67727,8.80627 37.99871,13.98566 43.09375,8.6875 0.58576,-0.60912 3.61932,-0.12416 4.28125,-0.8125 3.73387,-3.88273 10.23968,-6.63559 13.3125,-13.09375 1.28811,-2.7072 1.02521,-5.00359 -0.25,-6.90625 z"
       id="path4500"
       inkscape:connector-curvature="0" />
    <path
       style="fill:#89876a;fill-opacity:1;stroke:#ffffff;stroke-width:1px;stroke-linecap:butt;stroke-linejoin:miter;stroke-opacity:0"
       d="m 337.96875,393.15625 c -1.41559,-0.0158 -2.81167,7.9e-4 -4.21875,0.0312 -6.754,0.14622 -13.34837,0.83484 -19.34375,2.15625 -15.39233,3.39256 -47.81727,11.04072 -60.34375,19.75 -6.21062,4.31806 -6.65752,12.00807 -10.40625,15.90625 -3.34157,3.47479 -13.14103,3.01917 -17.75,4.65625 -7.28209,2.58653 -13.92961,7.11861 -21.25,9.71875 -12.39633,4.40308 -23.83956,9.60239 -35.4375,15.6875 -9.0842,4.76622 -20.6849,6.1907 -27.59375,13.375 -4.71212,4.89998 -7.66121,10.1921 -11.09375,17.40625 -2.39413,5.03175 -4.88652,5.37793 -3.40625,7.90625 -0.23922,-0.0549 -0.42612,-0.0881 -0.5625,-0.0937 -0.77861,-0.062 -2.40358,-0.11066 -4.3125,-0.0937 3.08402,2.87335 9.24077,-2.29406 9.90625,-3.625 0.25812,-0.51624 0.38818,-3.26318 0.6875,-3.5625 2.82931,-2.82931 6.65462,-5.21712 9.3125,-7.875 0.46827,-0.46827 0.32964,-2.4859 0.6875,-2.84375 l 6.4375,-6.4375 c 2.86015,-2.86014 6.32681,-2.7643 8.5625,-5 0.46142,-0.46141 5.32201,2.15625 6.4375,2.15625 5.45943,0 34.43582,8.40794 35,7.84375 0.57032,-0.57031 -0.0889,-2.54445 -2.125,-3.5625 C 194.89949,475.52787 180.42972,469.92971 180,469.5 c -1.42857,-1.42857 -6.41518,0.70982 -7.84375,-0.71875 -0.38829,-0.38829 -3.27762,-2.0385 -2.875,-2.84375 1.73693,-3.47384 15.79014,-4.35264 17.15625,-5.71875 1.5736,-1.57359 2.29047,-3.00922 3.5625,-4.28125 1.62544,-1.62544 11.47954,-4.35454 15,-7.875 0.74337,-0.74338 8.10137,-2.58613 9.28125,-1.40625 1.12676,1.12676 13.60152,9.96098 17.15625,6.40625 1.17211,-1.17211 -9.85686,-8.70564 -7.875,-10.6875 1.07143,-1.07143 1.80357,-2.52232 2.875,-3.59375 3.25807,-3.25807 13.52061,0.0419 16.40625,-2.84375 0.45308,-0.45308 2.28029,0.29735 2.875,0 2.34615,-1.17308 3.31402,-4.28125 6.4375,-4.28125 5.79109,0 23.94706,23.17794 26.40625,20.71875 4.98048,-4.98048 -15.79163,-23.25519 -19.28125,-25 -1.02205,-0.51102 -5.39041,-5.32833 -2.84375,-7.875 1.30473,-1.30473 4.95002,-1.38753 6.40625,-2.84375 0.83334,-0.83334 1.32292,-2.04166 2.15625,-2.875 1.15932,-1.15931 10.65993,-2.06617 12.15625,-3.5625 1.66635,-1.66635 4.80365,-3.3974 6.40625,-5 1.27516,-1.27516 11.30126,-1.30127 12.15625,-2.15625 4.98302,-4.98302 38.48234,-6.40625 48.5625,-6.40625 0.91627,0 6.48948,-0.66678 7.15625,0 0.94537,0.94536 1.87518,1.28134 3.5625,2.125 4.46223,2.23112 11.22915,-0.17711 14.28125,2.875 1.66421,1.6642 14.32819,0.73444 15.71875,2.125 10.45006,10.45007 5,6.8989 5,18.59375 0,3.17807 0.71875,4.26895 0.71875,7.125 0,0.71428 -0.71429,2.15625 0,2.15625 4.98869,0 4.91794,-15.63668 8.5625,-19.28125 0.18153,-0.18152 18.20268,3.74196 19.28125,4.28125 1.07353,0.53676 0.89343,2.29968 1.4375,2.84375 1.37414,1.37414 6.75448,-0.90401 8.5625,0 1.26753,0.63376 2.38851,1.55363 3.59375,2.15625 7.56411,3.78205 20.71851,1.43726 26.40625,7.125 0.9606,0.96061 5.36957,-0.34918 6.4375,0.71875 0.71429,0.71428 0.72322,2.16072 1.4375,2.875 3.95582,3.95582 11.85145,3.00257 17.84375,5 1.51523,0.50508 2.68406,2.125 4.28125,2.125 4.95559,0 13.66678,0.77089 17.875,2.875 2.77767,1.38884 5.56112,3.75996 9.28125,5 1.72293,0.57431 6.61864,0.18114 7.84375,1.40625 9.68417,9.68417 -5.5178,7.47312 -9.28125,15 -0.1746,0.34921 -1.3892,1.4858 -0.71875,2.15625 3.5992,3.5992 14.69541,-5.30459 16.4375,-3.5625 0.47619,0.47619 -0.47619,2.36756 0,2.84375 1.86491,1.86491 3.39506,4.83256 5.71875,7.15625 1.43461,1.43461 6.82297,2.02433 9.28125,2.84375 3.42662,1.14221 3.92838,5.36589 5.71875,7.15625 1.19047,1.19048 3.09077,1.65328 4.28125,2.84375 0.35641,0.35642 3.00321,0 3.5625,0 3.67733,0 11.83765,1.58118 15,0 1.6104,-0.8052 3.68477,-1.69878 5.875,-2.625 -0.57773,-0.0947 -1.03369,-0.19169 -1.15625,-0.25 -3.38478,-1.61049 -15.2211,-0.16518 -20.0625,-2.46875 -9.60424,-4.56975 -16.88894,-11.32098 -23.4375,-17.625 -0.39793,-5.32451 -2.91133,-11.42538 -5.71875,-13.21875 -11.87725,-7.58718 -23.53052,-11.09189 -37.4375,-14.28125 -5.45206,-1.25035 -12.37522,-1.66417 -17.21875,-3.96875 -11.84152,-5.63428 -24.91848,-11.03375 -38.8125,-13.53125 -4.64553,-0.83505 -9.07508,-4.37254 -13.71875,-5.4375 -7.28139,-1.66988 -14.30412,-3.63098 -21.5,-5.28125 -11.78443,-2.70259 -22.40193,-7.44566 -33.8125,-10.0625 -8.662,-1.9865 -18.68464,-3.2016 -28.59375,-3.3125 z"
       id="path4510"
       inkscape:connector-curvature="0" />
  </g>
</svg>
