<?xml version="1.0" encoding="UTF-8" standalone="no"?>
<!-- Created with Inkscape (http://www.inkscape.org/) -->

<svg
   xmlns:dc="http://purl.org/dc/elements/1.1/"
   xmlns:cc="http://creativecommons.org/ns#"
   xmlns:rdf="http://www.w3.org/1999/02/22-rdf-syntax-ns#"
   xmlns:svg="http://www.w3.org/2000/svg"
   xmlns="http://www.w3.org/2000/svg"
   xmlns:sodipodi="http://sodipodi.sourceforge.net/DTD/sodipodi-0.dtd"
   xmlns:inkscape="http://www.inkscape.org/namespaces/inkscape"
   width="240.50047"
   height="177.02089"
   id="svg2"
   version="1.1"
   inkscape:version="0.48.3.1 r9886"
   sodipodi:docname="rock_0.svg"
   inkscape:export-filename="/home/substack/projects/wizard-game/static/rock_0.png"
   inkscape:export-xdpi="37.419998"
   inkscape:export-ydpi="37.419998">
  <defs
     id="defs4" />
  <sodipodi:namedview
     id="base"
     pagecolor="#ffffff"
     bordercolor="#666666"
     borderopacity="1.0"
     inkscape:pageopacity="0.0"
     inkscape:pageshadow="2"
     inkscape:zoom="0.7"
     inkscape:cx="321.22293"
     inkscape:cy="75.56308"
     inkscape:document-units="px"
     inkscape:current-layer="layer1"
     showgrid="false"
     inkscape:window-width="1364"
     inkscape:window-height="382"
     inkscape:window-x="0"
     inkscape:window-y="384"
     inkscape:window-maximized="0"
     fit-margin-top="0"
     fit-margin-left="0"
     fit-margin-right="0"
     fit-margin-bottom="0" />
  <metadata
     id="metadata7">
    <rdf:RDF>
      <cc:Work
         rdf:about="">
        <dc:format>image/svg+xml</dc:format>
        <dc:type
           rdf:resource="http://purl.org/dc/dcmitype/StillImage" />
        <dc:title></dc:title>
      </cc:Work>
    </rdf:RDF>
  </metadata>
  <g
     inkscape:label="Layer 1"
     inkscape:groupmode="layer"
     id="layer1"
     transform="translate(-64.864733,-357.98415)">
    <path
       style="fill:#9f7a7a;fill-opacity:1;stroke:#ffffff;stroke-width:1px;stroke-linecap:butt;stroke-linejoin:miter;stroke-opacity:0"
       d="m 178.21875,358.5 c -0.66419,0.0322 -1.2652,0.10923 -1.78125,0.28125 -11.01169,3.67057 -22.91926,5.49392 -34.28125,9.28125 -4.52994,1.50998 -8.97293,5.61598 -13.59375,7.15625 -1.93352,0.64451 -3.71279,3.71279 -5,5 -2.70824,2.70824 -7.13539,3.93747 -9.28125,7.15625 -4.52657,6.78987 -9.74806,13.20022 -14.28125,20 -4.103413,6.15512 -4.575869,13.3013 -8.5625,19.28125 -10.203582,15.30537 -25.71875,16.01036 -25.71875,37.125 0,1.25163 -0.796538,7.07846 0,7.875 1.27775,1.27775 1.120944,4.39814 2.125,6.40625 3.045007,6.09001 8.433522,9.87102 12.15625,13.59375 5.167183,5.16718 16.084755,6.6205 22.84375,10 1.57841,0.7892 4.15439,-0.0634 5.71875,0.71875 7.17636,3.58818 21.78901,5.29324 31,3.65625 0.97269,0.72447 2.03213,1.40669 3.28125,2.03125 7.85262,3.92631 18.49856,3.18678 26.4375,7.15625 2.6447,1.32235 6.57694,0.0853 9.28125,1.4375 3.46913,1.73456 9.38192,-1.02778 12.875,0.71875 5.86333,2.93167 25.92049,3.36076 30.71875,-1.4375 4.72269,-4.72269 7.73237,-15.60738 11.40625,-19.28125 1.31719,-1.3172 -2.125,-6.56095 -2.125,-7.875 0,-0.68437 -1.00351,-2.40976 -1.4375,-2.84375 -0.15676,-0.15676 -0.41858,-2.38074 -0.75,-4.84375 4.23864,-1.83886 8.53021,-3.69757 12.90625,-5.15625 4.21411,-1.4047 15.13054,-2.07536 19.28125,0 1.21053,0.60526 4.33539,0 5.71875,0 12.15781,0 23.61188,-3.64313 30.6875,-10.71875 4.45688,-4.45687 10.65521,-14.37603 4.3125,-20.71875 -0.6672,-0.6672 -0.7703,-2.8953 -1.4375,-3.5625 -3.41112,-3.41112 -7.36109,-4.51734 -10.71875,-7.875 -1.19048,-1.19048 -5.24702,0.50298 -6.4375,-0.6875 -2.12611,-2.12611 -4.91776,-5 -8.5625,-5 -0.50088,1.2779 1.32575,-3.06725 0,-5.71875 -3.2857,-6.57141 -17.12636,-33.08424 -22.15625,-36.4375 -20.63715,-13.75809 -42.68885,-26.4375 -68.5625,-26.4375 -1.62414,0 -4.06994,-0.37801 -6.0625,-0.28125 z"
       id="path2985"
       inkscape:connector-curvature="0" />
    <path
       style="fill:#9b7575;fill-opacity:1;stroke:#ffffff;stroke-width:1px;stroke-linecap:butt;stroke-linejoin:miter;stroke-opacity:0"
       d="m 179.53125,391.90625 c -2.73014,-0.082 -7.31454,0.76664 -8.09375,1.15625 -5.33083,2.66541 1.3877,7.89355 -1.4375,10.71875 -2.89687,2.89688 -12.15625,5.19228 -12.15625,6.4375 0,2.81317 4.11131,4.66011 5,6.4375 0.93671,1.8734 0.69828,4.98977 2.15625,5.71875 2.21627,1.10814 13.64799,10.6875 10,10.6875 -0.74406,0 -12.0326,0.81115 -7.84375,5 0.86703,0.86703 5.8046,0.7773 7.125,1.4375 0.48497,0.24248 0.77366,5.05491 2.15625,6.4375 2.45335,2.45335 8.48374,3.51499 11.40625,6.4375 1.00358,1.00357 5.7222,6.42015 2.875,7.84375 -4.26143,2.13072 -10.7249,0.006 -13.5625,2.84375 -1.97508,1.97507 9.13296,6.28922 10,7.15625 2.8746,2.87461 -0.90665,5.3742 0.6875,8.5625 0.77425,1.5485 2.15625,4.73316 2.15625,6.4375 0,3.2046 1.72747,7.71439 -2.84375,10 -0.85106,0.42553 -2.94871,0.79246 -3.59375,1.4375 -3.13679,3.13678 14.60343,11.00968 15.71875,12.125 1.92351,1.92351 -12.125,5.86944 -12.125,6.4375 0,0.46973 0.12635,1.0149 0.375,1.59375 1.43932,-0.0658 2.79851,0.009 3.90625,0.5625 5.86333,2.93167 25.92049,3.36076 30.71875,-1.4375 4.72269,-4.72269 7.73237,-15.60738 11.40625,-19.28125 1.31719,-1.3172 -2.125,-6.56095 -2.125,-7.875 0,-0.68437 -1.00351,-2.40976 -1.4375,-2.84375 -0.15676,-0.15676 -0.41858,-2.38074 -0.75,-4.84375 4.23864,-1.83886 8.53021,-3.69757 12.90625,-5.15625 4.21411,-1.4047 15.13054,-2.07536 19.28125,0 1.21053,0.60526 4.33539,0 5.71875,0 12.15781,0 23.61188,-3.64313 30.6875,-10.71875 4.45688,-4.45687 10.65521,-14.37603 4.3125,-20.71875 -0.6672,-0.6672 -0.7703,-2.8953 -1.4375,-3.5625 -3.41112,-3.41112 -7.36109,-4.51734 -10.71875,-7.875 -1.19048,-1.19048 -5.24702,0.50298 -6.4375,-0.6875 -2.12611,-2.12611 -4.91776,-5 -8.5625,-5 -0.0108,0.0275 -0.0226,0.009 -0.0312,0.0312 0.24029,-0.80725 1.02556,-3.76137 0.0312,-5.75 -1.59536,-3.19072 -5.70717,-11.09048 -10.0625,-18.75 -0.74458,0.26746 -1.46,0.55812 -2.09375,0.875 -5.49735,2.74868 5.73752,14.29374 1.4375,18.59375 -1.59305,1.59306 -6.12037,0.54456 -7.84375,1.40625 -1.07628,0.53814 -6.21613,1.54818 -7.875,0.71875 -3.34766,-1.67383 -0.15802,-3.75176 -2.125,-5.71875 -0.83801,-0.83801 -3.38329,-1.22704 -4.28125,-2.125 -1.30953,-1.30953 -0.12798,-5.12797 -1.4375,-6.4375 -3.70906,-3.70905 -5.25331,-12.40955 -8.5625,-15.71875 -0.50508,-0.50508 -4.2066,0 -5,0 -7.25157,0 -13.65354,-0.65896 -18.59375,4.28125 -1.37392,1.37392 -2.40445,2.98347 -5,4.28125 -4.40504,2.20252 -20.86255,-9.42505 -22.125,-10.6875 -0.28648,-0.28648 -0.9962,-0.44141 -1.90625,-0.46875 z"
       id="path3791"
       inkscape:connector-curvature="0" />
    <path
       style="fill:#927070;fill-opacity:1;stroke:#ffffff;stroke-width:1px;stroke-linecap:butt;stroke-linejoin:miter;stroke-opacity:0"
       d="m 212.9375,403.46875 c -0.60542,0.0355 -1.12142,0.12321 -1.5,0.3125 -2.71016,1.35509 -6.86342,8.59375 -10,8.59375 -8.31709,0 -18.62869,-11.40256 -22.15625,-7.875 -3.70048,3.70048 -4.70054,18.98179 -9.28125,23.5625 -0.91819,0.91819 -11.06989,2.95725 -14.5625,4.25 2.22877,-0.20579 4.3494,-0.0753 6,0.75 11.37094,5.68547 41.86495,6.86495 50,15 4.34755,4.34755 13.04658,18.99941 16.40625,25.71875 0.49837,0.99675 1.0079,4.35215 1.40625,7.3125 4.24932,-1.83842 8.52041,-3.6943 12.90625,-5.15625 4.21411,-1.4047 15.13054,-2.07536 19.28125,0 1.21053,0.60526 4.33539,0 5.71875,0 12.15781,0 23.61188,-3.64313 30.6875,-10.71875 2.80967,-2.80966 6.29858,-7.80206 6.90625,-12.6875 -2.11876,0.31823 -4.39452,0.38086 -6.90625,-0.875 -0.74938,-0.3747 -2.99238,0.57011 -3.5625,0 -0.47619,-0.47619 -1.64881,-0.24256 -2.125,-0.71875 -3.06245,-3.06245 4.34996,-7.05629 0.6875,-10.71875 -2.89676,-2.89676 -14.22627,2.16812 -17.125,0.71875 -2.80569,-1.40284 0.61229,-6.54396 -0.71875,-7.875 -2.2619,-2.26191 -9.1756,0.13691 -11.4375,-2.125 -2.12814,-2.12814 -21.68401,4.72224 -26.40625,0 -0.71429,-0.71429 -3.59821,0.71429 -4.3125,0 -2.82437,-2.82437 1.01083,-16.86417 -0.6875,-18.5625 -2.5,-2.5 -4.65625,-5.375 -7.15625,-7.875 -0.59524,-0.59524 -2.24851,-0.12351 -2.84375,-0.71875 -0.35641,-0.35641 -3.03446,0 -3.59375,0 -1.29796,0 -3.80873,-0.41898 -5.625,-0.3125 z"
       id="path2990"
       inkscape:connector-curvature="0" />
    <path
       style="fill:#a68181;fill-opacity:1;stroke:#ffffff;stroke-width:1px;stroke-linecap:butt;stroke-linejoin:miter;stroke-opacity:0"
       d="m 178.21875,358.5 c -0.66419,0.0322 -1.2652,0.10923 -1.78125,0.28125 -11.01169,3.67057 -22.91926,5.49392 -34.28125,9.28125 -4.52994,1.50998 -8.97293,5.61598 -13.59375,7.15625 -1.93352,0.64451 -3.71279,3.71279 -5,5 -2.70824,2.70824 -7.13539,3.93747 -9.28125,7.15625 -0.14585,0.21878 -0.29025,0.43823 -0.4375,0.65625 0.2739,4.33861 0.49866,8.56384 -1.6875,10.75 -1.66251,1.66251 -5.01527,1.68933 -7.6875,2.25 -1.52684,2.09593 -3.03577,4.19428 -4.46875,6.34375 -4.103413,6.15512 -4.575869,13.3013 -8.5625,19.28125 -3.035219,4.55283 -6.541722,7.79701 -9.96875,10.6875 3.167711,2.98513 7.279025,6.62277 9.96875,9.3125 3.968026,3.96802 -11.519127,7.92538 -12.875,9.28125 -2.157387,2.15739 -5.688187,4.28159 -8.5625,5.71875 -2.604972,1.30248 -1.548897,7.125 -0.71875,7.125 1.681836,0 2.236943,-3.64319 2.875,-4.28125 0.164972,-0.16497 3.360118,1.95386 3.5625,2.15625 1.509868,1.50986 7.84747,-0.71503 9.28125,0.71875 1.351754,1.35176 0.3653,18.7236 5,16.40625 3.105682,-1.55284 5.520938,-2.04171 8.5625,-3.5625 3.74045,-1.87022 12.04863,3.67012 15,0.71875 0.3503,-0.3503 10.6599,-6.49634 11.4375,-5.71875 1.32886,1.32886 -3.21359,8.2239 -0.71875,10.71875 l 11.4375,11.4375 c 1.59278,1.59278 8.20051,-5.17839 9.28125,-5.71875 3.58651,-1.79326 10.43687,-2.59312 12.84375,-5 1.20695,-1.20695 1.03858,-3.88233 2.15625,-5 6.2345,-6.23451 -5.71875,-9.31362 -5.71875,-14.28125 0,-2.15165 6.4243,-10.71875 0,-10.71875 -0.47619,0 -1.10078,-0.33672 -1.4375,0 -0.80857,0.80857 -16.10972,8.46366 -18.5625,9.28125 -1.46271,0.48757 -1.27914,2.84375 -2.84375,2.84375 -2.34517,0 3.50696,-7.21179 0.71875,-10 -1.67684,-1.67683 -4.86509,2.15625 -7.875,2.15625 -2.75277,0 -8.49402,4.21278 -10,5.71875 -1.94017,1.94017 -7.20971,0 -9.28125,0 -0.65183,0 -8.431439,-3.82463 -7.84375,-5 3.75582,-7.51164 18.87637,-10.31387 22.84375,-14.28125 1.73426,-1.73426 -16.64762,-10.50862 -10.71875,-16.4375 1.31832,-1.31831 5.07805,-1.51556 6.4375,-2.875 1.60499,-1.605 3.31124,-5.43625 5,-7.125 2.88037,-2.88038 11.23119,3.76881 14.28125,0.71875 2.06306,-2.06306 9.27816,-4.27817 12.15625,-7.15625 1.24973,-1.24974 2.06474,-8.24887 0,-9.28125 -2.86226,-1.43112 -11.01391,-0.29516 -11.4375,-0.71875 -1.05357,-1.05356 -0.56196,-4.12446 -1.4375,-5 -0.32654,-0.32654 -6.7625,-2.51875 -4.28125,-5 9.13731,-9.13731 33.08512,-3.08511 34.28125,-4.28125 C 174.9109,379.58911 147.00438,378.49781 155,374.5 c 10.09463,-5.04732 24.95512,-4.30662 35.71875,-0.71875 1.32884,0.44295 6.14212,-0.98288 7.125,0 3.426,3.426 0.9355,7.60838 5.71875,10 2.10044,1.05023 10.33291,2.54209 12.15625,0.71875 0.65152,-0.65152 7.30546,-10.53829 8.5625,-9.28125 1.60284,1.60284 2.73237,2.42869 5,3.5625 2.38884,1.19442 7.85556,-0.71875 10.71875,-0.71875 0.27041,0 1.17465,0.11012 1.90625,0.125 -17.51006,-10.76097 -36.2577,-19.40625 -57.625,-19.40625 -1.62414,0 -4.06994,-0.37801 -6.0625,-0.28125 z"
       id="path3781"
       inkscape:connector-curvature="0" />
    <path
       style="fill:#8f6868;fill-opacity:1;stroke:#ffffff;stroke-width:1px;stroke-linecap:butt;stroke-linejoin:miter;stroke-opacity:0"
       d="m 214.09375,435.75 c -0.15784,0.0181 -0.32998,0.0869 -0.53125,0.1875 -3.43611,1.71805 -6.58087,5.86212 -8.5625,7.84375 -0.10903,0.10903 -0.22638,0.2112 -0.34375,0.3125 2.88089,1.12316 5.23345,2.42095 6.78125,3.96875 4.34755,4.34755 13.04658,18.99941 16.40625,25.71875 0.49837,0.99675 1.0079,4.35215 1.40625,7.3125 4.24932,-1.83842 8.52041,-3.6943 12.90625,-5.15625 4.21411,-1.4047 15.13054,-2.07536 19.28125,0 1.21053,0.60526 4.33539,0 5.71875,0 8.40115,0 16.45214,-1.74661 22.96875,-5.15625 -5.9948,-0.7519 -14.94932,1.05068 -17.28125,-1.28125 -3.61331,-3.61332 4.47566,-6.24309 2.875,-7.84375 -1.83731,-1.83731 -19.35319,2.05306 -20,1.40625 -1.0646,-1.0646 11.76799,-12.125 4.28125,-12.125 -2.781,0 -17.72587,6.55537 -18.5625,5.71875 -5.39039,-5.3904 0.86172,-12.70078 -0.71875,-14.28125 -4.46635,-4.46635 -11.93076,10.6875 -16.4375,10.6875 -3.69828,0 -6.61929,-11.11357 -8.5625,-15 -0.37301,-0.74602 -0.52012,-2.43913 -1.625,-2.3125 z"
       id="path3786"
       inkscape:connector-curvature="0" />
    <path
       style="fill:#846060;fill-opacity:1;stroke:#ffffff;stroke-width:1px;stroke-linecap:butt;stroke-linejoin:miter;stroke-opacity:0"
       d="m 220.8125,366.96875 c -0.50021,0.4493 -0.77477,0.81898 -0.59375,1 2.10968,2.10969 4.99466,2.99465 7.0625,5.0625 1.09433,1.09433 3.96816,0.43692 5.0625,1.53125 l 8.0625,8.0625 c 0.48556,0.48557 1.88299,0.38299 2.53125,1.03125 2.68782,2.68782 13.65195,11.11642 15.15625,14.125 2.64111,5.28224 4.30219,10.36469 8.09375,14.15625 1.26058,1.26058 1.06358,4.09483 2.5,5.53125 1.32227,1.32227 1.68649,10.28024 4.5625,13.15625 1.13201,1.132 3.70104,0.66979 4.53125,1.5 l 4.0625,4.03125 c 2.32038,2.32038 9.45293,2.42167 11.59375,4.5625 1.07634,1.07634 1.38874,4.92 2.53125,6.0625 0.92685,0.92686 2.42621,1.42621 3.53125,2.53125 1.4282,1.42821 0.49372,11.13129 -0.5,12.125 -2.41278,2.41279 -6.98531,4.22704 -9.59375,5.53125 -2.44048,1.22025 -13.24938,-1.87562 -16.65625,1.53125 -1.43105,1.43105 -6.1627,-0.43105 -7.59375,1 -0.69475,0.69476 -5.41072,0.42411 -6.5625,1 -2.96876,1.48438 -7.29003,-0.27246 -9.59375,2.03125 -1.06499,1.06499 -13.41139,1.78639 -15.15625,3.53125 -3.0269,3.0269 -5.68083,4.18083 -8.0625,6.5625 -2.02388,2.02388 2.51161,9.07411 3.03125,9.59375 0.60703,0.60702 -0.53125,1.67278 -0.53125,2.53125 0,1.44841 0.27459,4.28791 -0.5,5.0625 -2.89671,2.89671 -3.34017,8.40267 -7.0625,12.125 l -3.53125,3.53125 c -1.51203,1.51203 -4.42019,0.88894 -5.5625,2.03125 -0.82736,0.82735 -15.03668,-2.03125 -16.65625,-2.03125 -1.80441,0 -5.22519,0.91866 -6.0625,0.5 -5.47247,-2.73623 -16.18866,-2.03241 -20.21875,-6.0625 -0.86441,-0.86441 -8.21251,-0.30938 -9.59375,-1 -1.21683,-0.60841 -5.25721,-0.22596 -6.0625,-1.03125 -3.56068,-3.56068 -11.56083,-3.46708 -15.15625,-7.0625 -2.51077,-2.51077 -15.30142,4.0625 -18.1875,4.0625 -1.17956,0 -3.28034,-0.22485 -5.5625,-0.46875 7.67657,2.12524 18.2112,2.90927 25.4375,1.625 0.97269,0.72447 2.03213,1.40669 3.28125,2.03125 7.85262,3.92631 18.49856,3.18678 26.4375,7.15625 2.6447,1.32235 6.57694,0.0853 9.28125,1.4375 3.46913,1.73456 9.38192,-1.02778 12.875,0.71875 5.86333,2.93167 25.92049,3.36076 30.71875,-1.4375 4.72269,-4.72269 7.73237,-15.60738 11.40625,-19.28125 1.31719,-1.3172 -2.125,-6.56095 -2.125,-7.875 0,-0.68437 -1.00351,-2.40976 -1.4375,-2.84375 -0.15676,-0.15676 -0.41858,-2.38074 -0.75,-4.84375 4.23864,-1.83886 8.53021,-3.69757 12.90625,-5.15625 4.21411,-1.4047 15.13054,-2.07536 19.28125,0 1.21053,0.60526 4.33539,0 5.71875,0 12.15781,0 23.61188,-3.64313 30.6875,-10.71875 4.45688,-4.45687 10.65521,-14.37603 4.3125,-20.71875 -0.6672,-0.6672 -0.7703,-2.8953 -1.4375,-3.5625 -3.41112,-3.41112 -7.36109,-4.51734 -10.71875,-7.875 -1.19048,-1.19048 -5.24702,0.50298 -6.4375,-0.6875 -2.12611,-2.12611 -4.91776,-5 -8.5625,-5 -0.0108,0.0275 -0.0226,0.009 -0.0312,0.0312 0.24029,-0.80725 1.02556,-3.76137 0.0312,-5.75 -3.2857,-6.57141 -17.12636,-33.08424 -22.15625,-36.4375 -10.23283,-6.82188 -20.80937,-13.37277 -32.03125,-18.25 z"
       id="path3885"
       inkscape:connector-curvature="0" />
    <path
       style="fill:#927070;fill-opacity:1;stroke:#ffffff;stroke-width:1px;stroke-linecap:butt;stroke-linejoin:miter;stroke-opacity:0"
       d="m 277.85714,464.50504 c -1.37518,-0.0867 -6.92189,-0.46763 -13.57143,2.85714 -4.27224,2.13612 -8.39177,4.82034 -10.71428,7.14286 -1.10674,1.10673 -0.73003,4.3172 -1.42857,5.71428 -0.40363,0.80726 -1.69015,5.45272 -0.71429,6.42857 1.98763,1.98763 31.91808,6.65335 35.71429,2.85715 3.45027,-3.45028 8.34152,-5.48438 11.42857,-8.57143 0.92342,-0.92343 -0.5695,-2.71236 -0.71429,-2.85715 -0.83926,-0.83926 -1.08163,-3.93877 -2.14286,-5 -4.2255,-4.2255 -10.55742,-8.57142 -17.85714,-8.57142 z"
       id="path3800"
       inkscape:connector-curvature="0" />
    <path
       style="fill:#a68181;fill-opacity:1;stroke:#ffffff;stroke-width:1px;stroke-linecap:butt;stroke-linejoin:miter;stroke-opacity:0"
       d="m 72.857143,513.07647 c 0.71327,0.34676 -0.653498,-3.63222 0,-4.28572 8.802891,-8.80289 19.519054,-20 35.714287,-20 2.10109,0 4.65853,-0.34147 5.71429,0.71429 0.73075,0.73075 4.13397,-0.15174 5,0.71428 2.22618,2.22619 3.4881,4.20239 5.71428,6.42857 1.40667,1.40667 5.19719,0.91148 6.42857,2.14286 1.27935,1.27934 8.96693,15.3188 7.85715,16.42857 -2.74148,2.74148 -8.47846,4.19274 -11.42857,7.14286 -1.52802,1.52802 -7.04342,-0.0994 -8.57143,1.42857 -2.27862,2.27862 -15.47773,2.14286 -20.714293,2.14286 -2.42989,0 -15.130154,-2.27301 -15.714284,-2.85714 -2.08803,-2.08803 5.955764,-10 -10,-10 z"
       id="path3824"
       inkscape:connector-curvature="0" />
    <path
       style="fill:#9f7a7a;fill-opacity:1;stroke:#ffffff;stroke-width:1px;stroke-linecap:butt;stroke-linejoin:miter;stroke-opacity:0"
       d="M 147.85715,527.36218 C 147.1385,524.1616 153.40338,519.6731 160,513.07647 c 1.56399,-1.56399 19.99239,-4.29333 22.14286,-2.14286 0.559,0.559 7.8531,0.71024 9.28572,2.14286 6.66367,6.66367 6.50995,10.6329 0,17.14285 -1.23139,1.23139 -5.7362,0.0219 -7.14286,1.42858 -2.55422,2.55422 -6.99827,2.85714 -12.14286,2.85714 -4.84347,0 -11.37497,-4.23212 -13.57143,-6.42857 -0.88828,-0.88829 -8.12389,0.32187 -10.71428,-0.71429 z"
       id="path3826"
       inkscape:connector-curvature="0" />
    <path
       style="fill:#8f6868;fill-opacity:1;stroke:#ffffff;stroke-width:1px;stroke-linecap:butt;stroke-linejoin:miter;stroke-opacity:0"
       d="m 277.89732,464.51339 c 0.26505,0.83251 0.41493,1.67882 -0.0312,2.125 -1.19624,1.19625 -8.61885,4.25616 -5.71875,7.15625 3.69419,3.6942 11.45185,2.11064 10,3.5625 -0.71429,0.71428 -2.16071,0.72321 -2.875,1.4375 -2.35052,2.35052 -3.33095,8.49133 -2.46875,12.09375 4.99072,0.18799 9.09297,-0.12422 10.34375,-1.375 3.45027,-3.45028 8.35045,-5.5067 11.4375,-8.59375 0.92342,-0.92343 -0.57396,-2.69896 -0.71875,-2.84375 -0.83926,-0.83926 -1.09502,-3.93877 -2.15625,-5 -4.21936,-4.21936 -10.52619,-8.5499 -17.8125,-8.5625 z"
       id="path3841"
       inkscape:connector-curvature="0" />
    <path
       style="fill:#a68181;fill-opacity:1;stroke:#ffffff;stroke-width:1px;stroke-linecap:butt;stroke-linejoin:miter;stroke-opacity:0"
       d="m 176.37054,510.15625 c -6.24774,0.21248 -15.29976,1.83101 -16.375,2.90625 -6.59662,6.59663 -12.84365,11.11192 -12.125,14.3125 2.59039,1.03616 9.79922,-0.20079 10.6875,0.6875 0.65453,0.65453 1.73495,1.49355 3,2.34375 2.27075,0.46697 4.26876,1.13749 5.59375,-0.1875 1.59187,-1.59186 -4.62111,-7.53514 -2.875,-9.28125 1.33161,-1.33161 5.159,-2.15625 7.15625,-2.15625 0.18928,0 0.64629,-0.31341 1,-0.53125 -0.91129,-0.49479 -2.89512,-3.29238 -1.71875,-4.46875 2.42072,-2.42072 9.53191,-0.51903 14.875,-2.21875 -1.6931,-0.21836 -3.20106,-0.38856 -3.4375,-0.625 -0.67202,-0.67202 -2.94137,-0.87783 -5.78125,-0.78125 z m -3.9375,8.09375 c 0.25016,0.13583 0.4375,0.10785 0.4375,-0.1875 0,-0.0647 -0.21282,0.0491 -0.4375,0.1875 z"
       id="path3846"
       inkscape:connector-curvature="0" />
    <path
       style="fill:#b08989;fill-opacity:1;stroke:#ffffff;stroke-width:1px;stroke-linecap:butt;stroke-linejoin:miter;stroke-opacity:0"
       d="m 110.20536,488.74107 c -0.55172,0.0155 -1.09973,0.0625 -1.625,0.0625 -16.195233,0 -26.915862,11.19711 -35.718753,20 -0.612654,0.61266 0.533702,4.12743 0.09375,4.28125 9.68848,0.0208 10.456149,2.97642 10.0625,5.75 2.567665,0.3813 6.45162,1.20463 7.6875,-0.0312 2.85951,-2.85951 12.555983,-3.99348 17.875003,-9.3125 6.4332,-6.4332 -17.680433,-3.03832 -10.718753,-10 4.857243,-4.85724 19.446493,-5.05277 23.875003,-6.5625 -0.74217,-0.88955 -1.49638,-1.77762 -2.4375,-2.71875 -0.86603,-0.86602 -4.26925,0.012 -5,-0.71875 -0.79182,-0.79182 -2.43858,-0.79655 -4.09375,-0.75 z"
       id="path3851"
       inkscape:connector-curvature="0" />
    <path
       style="fill:#9b7575;fill-opacity:1;stroke:#ffffff;stroke-width:1px;stroke-linecap:butt;stroke-linejoin:miter;stroke-opacity:0"
       d="m 128.14286,497.74107 c -0.0826,0.10538 -0.17068,0.23318 -0.28125,0.34375 -1.7789,1.77889 -5.97285,3.3207 -7.875,7.125 -1.59693,3.19387 4.73202,4.8797 3.59375,7.15625 -2.37494,4.74989 -20.23949,8.08325 -25.000003,12.84375 -0.22963,0.22963 -0.44311,0.46423 -0.625,0.6875 0.20594,0.0145 0.48392,0.0312 0.625,0.0312 5.236563,0 18.440133,0.15362 20.718753,-2.125 1.52801,-1.52797 7.03448,0.0905 8.5625,-1.4375 2.95011,-2.95012 8.69602,-4.41477 11.4375,-7.15625 1.10978,-1.10977 -6.59565,-15.12691 -7.875,-16.40625 -0.63649,-0.63649 -1.95991,-0.84752 -3.28125,-1.0625 z"
       id="path3856"
       inkscape:connector-curvature="0" />
    <path
       style="fill:#c1a2a2;fill-opacity:1;stroke:#ffffff;stroke-width:1px;stroke-linecap:butt;stroke-linejoin:miter;stroke-opacity:0"
       d="m 178.21875,358.5 c -0.66419,0.0322 -1.2652,0.10923 -1.78125,0.28125 -11.01169,3.67057 -22.91926,5.49392 -34.28125,9.28125 -4.52994,1.50998 -8.97293,5.61598 -13.59375,7.15625 -1.93352,0.64451 -3.71279,3.71279 -5,5 -2.70824,2.70824 -7.13539,3.93747 -9.28125,7.15625 -0.14585,0.21878 -0.29025,0.43823 -0.4375,0.65625 0.1078,1.7076 0.20767,3.38243 0.15625,4.9375 0.37838,-0.41882 0.75742,-0.85117 1.15625,-1.25 0.59257,-0.59257 0.89629,-2.39629 1.53125,-3.03125 1.24081,-1.24081 3.15589,-1.15589 4.03125,-2.03125 7.42071,-7.4207 30.55203,-21.1875 43.4375,-21.1875 4.10747,0 17.61891,-3.26258 21.21875,-5.0625 1.71416,-0.85708 6.60099,-0.82661 12.15625,-0.5 -4.30887,-0.71533 -8.71869,-1.125 -13.25,-1.125 -1.62414,0 -4.06994,-0.37801 -6.0625,-0.28125 z m -70.1875,41.9375 c -1.19345,0.21001 -2.43319,0.35681 -3.5625,0.59375 -1.52684,2.09593 -3.03577,4.19428 -4.46875,6.34375 -4.103413,6.15512 -4.575869,13.3013 -8.5625,19.28125 -3.035219,4.55283 -6.541722,7.79701 -9.96875,10.6875 0.702215,0.66174 1.51206,1.41656 2.28125,2.125 4.152792,-3.62292 10.032587,-7.68884 13.21875,-10.875 C 98.73582,426.82668 98.401742,420.59826 99,420 c 2.2312,-2.2312 2.42458,-8.48708 5.03125,-11.09375 0.90876,-0.90876 0.18545,-4.21669 1.03125,-5.0625 1.04424,-1.04424 2.0177,-2.21076 2.96875,-3.40625 z"
       id="path3880"
       inkscape:connector-curvature="0" />
  </g>
</svg>
