<?xml version="1.0" encoding="UTF-8" standalone="no"?>
<!-- Created with Inkscape (http://www.inkscape.org/) -->

<svg
   xmlns:dc="http://purl.org/dc/elements/1.1/"
   xmlns:cc="http://creativecommons.org/ns#"
   xmlns:rdf="http://www.w3.org/1999/02/22-rdf-syntax-ns#"
   xmlns:svg="http://www.w3.org/2000/svg"
   xmlns="http://www.w3.org/2000/svg"
   xmlns:sodipodi="http://sodipodi.sourceforge.net/DTD/sodipodi-0.dtd"
   xmlns:inkscape="http://www.inkscape.org/namespaces/inkscape"
   width="84.88092"
   height="128.91682"
   id="svg9998"
   version="1.1"
   inkscape:version="0.48.3.1 r9886"
   sodipodi:docname="wizard_purple_right_0.svg"
   inkscape:export-filename="/home/substack/projects/wizard-game/static/wizard_purple_right_0.png"
   inkscape:export-xdpi="94.251083"
   inkscape:export-ydpi="94.251083">
  <defs
     id="defs10000" />
  <sodipodi:namedview
     id="base"
     pagecolor="#ffffff"
     bordercolor="#666666"
     borderopacity="1.0"
     inkscape:pageopacity="0.0"
     inkscape:pageshadow="2"
     inkscape:zoom="1.4"
     inkscape:cx="120.708"
     inkscape:cy="41.349718"
     inkscape:document-units="px"
     inkscape:current-layer="layer1"
     showgrid="false"
     fit-margin-top="0"
     fit-margin-left="0"
     fit-margin-bottom="0"
     fit-margin-right="0"
     inkscape:window-width="1364"
     inkscape:window-height="766"
     inkscape:window-x="0"
     inkscape:window-y="0"
     inkscape:window-maximized="0" />
  <metadata
     id="metadata10003">
    <rdf:RDF>
      <cc:Work
         rdf:about="">
        <dc:format>image/svg+xml</dc:format>
        <dc:type
           rdf:resource="http://purl.org/dc/dcmitype/StillImage" />
        <dc:title></dc:title>
      </cc:Work>
    </rdf:RDF>
  </metadata>
  <g
     inkscape:label="Layer 1"
     inkscape:groupmode="layer"
     id="layer1"
     transform="translate(-205.78757,-370.94009)">
    <g
       id="g9256"
       transform="translate(-275.10992,91.10895)">
      <path
         inkscape:connector-curvature="0"
         id="path8763"
         d="m 559.49824,308.30907 c 0.0589,-0.2357 -0.0589,-0.76603 0.17678,-0.70711 0.2357,0.0589 -0.40727,0.78394 -0.17678,0.70711 0.35795,-0.11931 0.44031,-0.61709 0.70711,-0.88388 0.0735,-0.0735 1.52703,-0.24074 1.59099,-0.17678 1.9817,1.98171 -0.17282,5.488 0.53033,6.89429 0.23582,0.47165 0.53033,1.76979 0.53033,2.12132 0,0.48047 0.18874,2.10936 0.17678,2.12132 -0.34295,0.34295 -0.93028,0.50714 -1.59099,0.17678 -0.34128,-0.17064 -0.5721,-0.0209 -0.88389,-0.17678 -1.57949,-0.78974 -1.59099,-4.74208 -1.59099,-5.83363"
         style="fill:#e9792e;fill-opacity:1;stroke:#ffffff;stroke-width:1px;stroke-linecap:butt;stroke-linejoin:miter;stroke-opacity:0" />
      <path
         inkscape:connector-curvature="0"
         id="path8761"
         d="m 502.01851,396.72383 c -1.1999,2.45298 0.0445,5.12919 1.46045,6.45598 0.28367,0.26581 0.974,4.30431 1.40362,4.70689 0.0496,0.0464 3.80008,0.33971 4.24774,-0.13803 0.17122,-0.18271 -0.48794,-4.57565 0.89393,-3.28077 1.01605,0.95211 1.12226,2.74744 2.12074,3.68306 0.35195,0.32981 1.13091,-0.28685 1.24123,-0.29044 3.10073,-0.10076 5.94476,0.30709 8.51176,0.22368 0.72065,-0.0234 3.60441,-5.34382 2.80353,-6.09428 -0.30098,-0.28204 -0.4811,-0.69307 -0.78208,-0.97511 -1.09399,-1.02513 -11.42881,-0.53451 -12.04239,-1.10947 -0.93919,-0.88008 -0.89078,-4.32048 -0.94447,-5.97247"
         style="fill:#350335;fill-opacity:1;stroke:#ffffff;stroke-width:1px;stroke-linecap:butt;stroke-linejoin:miter;stroke-opacity:0" />
      <path
         inkscape:connector-curvature="0"
         id="path8748"
         d="m 492.68896,390.87444 c -1.0241,1.20127 -0.99526,8.10843 2.03677,10.60255 0.50057,0.41178 -0.01,2.05226 0.49102,2.46401 0.23858,0.19627 0.37625,-0.2878 0.47342,-0.29725 0.76592,-0.0746 2.64988,0.84445 3.7808,0.13435 0.15782,-0.099 0.45538,-0.48273 0.47343,-0.29726 0.0435,0.44665 -0.7796,-0.77675 -0.61875,-1.19569 0.37751,-0.98315 0.62987,-0.76568 1.12303,-1.36522 0.0455,-0.0553 0.61808,-0.63607 0.97108,-0.34565 0.84684,0.6966 1.09717,2.27592 2.05663,3.06516 0.0505,0.0414 9.97854,-0.44336 10.0014,-0.47114 0.715,-0.86921 1.23991,-1.98153 1.69996,-3.17966 0.97997,-2.55218 -5.31282,-3.22576 -6.43196,-4.14637 -0.61287,-0.50414 -2.71291,0.63501 -3.48353,0.33909 -0.47481,-0.18231 -1.85227,-0.84747 -2.13592,-1.29919 -0.36598,-0.58287 -0.0612,-2.98648 0.18279,-3.28315 0.75029,-0.91209 -0.88185,-3.89865 -0.9336,-4.4304"
         style="fill:#350335;fill-opacity:1;stroke:#ffffff;stroke-width:1px;stroke-linecap:butt;stroke-linejoin:miter;stroke-opacity:0" />
      <g
         transform="matrix(0.99152514,0.12991495,-0.12991495,0.99152514,-39.534574,-58.193714)"
         id="g8549">
        <path
           style="fill:#daae55;fill-opacity:1;stroke:#ffffff;stroke-width:0.21755025px;stroke-linecap:butt;stroke-linejoin:miter;stroke-opacity:0"
           d="m 641.79567,274.61195 c 3.65225,0.79023 4.12357,10.26445 2.41735,15.38313 -0.35918,1.07753 -0.43952,7.7576 -0.43952,9.22987 0,4.44561 -0.70139,9.17857 -1.75807,13.4053 -0.41999,1.67995 0.0907,3.68364 -0.43952,5.27421 -0.52932,1.58798 -0.21976,8.46163 -0.21976,10.54843 0,6.89118 0,13.79783 0,20.65734 0,7.57495 1.15986,15.79816 -0.65927,23.0747 -0.2762,1.10481 0.0532,2.53078 -0.43952,3.51614 -0.65346,1.30693 0.67829,5.27422 -1.53831,5.27422 -0.13411,0 -0.79341,0.0856 -0.87904,0 -0.29301,-0.29301 -0.80578,-0.36627 -1.09879,-0.65928 -0.15005,-0.15005 -1.30373,-7.00263 -1.97783,-8.35084 -0.49497,-0.98993 0.0653,-2.50652 -0.43952,-3.51614 -0.60643,-1.21285 0.66391,-3.73127 -0.21976,-4.61494 -0.62932,-0.62932 0.4114,-3.13286 0,-3.95566 -0.45821,-0.91641 -0.57373,-9.70628 -0.21976,-10.7682 0.24482,-0.73447 0.67766,-7.63642 0.43952,-8.35084 -1.26932,-3.80794 0.37154,-12.0709 -0.87904,-15.82264 -0.43918,-1.31755 0.33774,-3.04423 0,-4.39518 -0.83716,-3.34866 0.69329,-9.78713 -0.21976,-12.52626 -0.3268,-0.98042 0.0967,-2.1272 -0.21976,-3.07663 -1.0936,-3.2808 -0.65927,-7.61199 -0.65927,-11.2077 0,-1.05834 0.46409,-3.467 0,-4.39518 -0.37732,-0.75464 -0.43952,-2.21081 -0.43952,-3.07663 0,-2.18526 0.0343,-13.00008 1.09879,-14.06457 1.75659,-1.75659 4.83319,-1.10031 6.15325,0.21976 0.43952,0.43952 0.43952,1.31856 0.87904,1.75807 0.1638,0.1638 0.4442,-0.30579 0.65928,-0.21976 0.39658,0.15864 0.73253,0.43952 1.09879,0.65928 z"
           id="path7816-7"
           inkscape:connector-curvature="0" />
        <path
           style="fill:#ca9b3a;fill-opacity:1;stroke:#ffffff;stroke-width:1px;stroke-linecap:butt;stroke-linejoin:miter;stroke-opacity:0"
           d="m 638.15035,371.94309 c -0.32239,-0.58537 0.65813,-5.18374 0.5,-5.5 -0.82276,-1.64551 0.0667,-4.86658 -0.75,-6.5 -0.87287,-1.74575 -2.89659,-6.45682 -1.75,-8.75001 0.51489,-1.02978 0.92298,-1.84596 1.5,-3 0.6778,-1.35559 1.1873,-14.62539 0.5,-16 -0.53935,-1.0787 -0.45812,-2.41624 -1,-3.5 -0.12356,-0.24712 -0.13548,-18.59355 0,-19 0.86747,-2.6024 1.5,-5.74905 1.5,-8.5 0,-5.22109 0,-9.9634 0,-15.25 0,-0.38169 -0.6372,-3.25 -1,-3.25 -0.50784,0 -0.98524,2.72048 -1.25,3.25 -0.32732,0.65464 -0.64174,1.89174 -1,2.25 -0.32573,0.32574 0.44237,12.69237 0.75,13 1.47644,1.47645 -0.5,11.45599 -0.5,14.25 0,0.44941 0.29384,1.33769 0.5,1.75 0.12108,0.24216 0.12108,9.25784 0,9.5 -0.45994,0.91988 -0.76777,5.21446 -0.25,6.25 0.47387,0.94775 1.99622,10.25757 1.5,11.25 -0.41296,0.82592 -1.59586,9.30827 -1.5,9.5 0.17533,0.35067 0.40491,6.0951 0.25,6.25001 -0.17461,0.17461 -0.68822,1.62357 -0.5,2 0.84592,1.69185 0.0563,4.61261 0.75,6 0.70182,1.40364 0.78498,2.39164 1.75,4 z"
           id="path7818-4"
           inkscape:connector-curvature="0" />
        <path
           style="fill:#ca9b3a;fill-opacity:1;stroke:#ffffff;stroke-width:1px;stroke-linecap:butt;stroke-linejoin:miter;stroke-opacity:0"
           d="m 645.0566,285.11215 c -0.01,0.14637 0.0125,0.29209 0,0.4375 -0.13869,1.62037 -0.41719,3.15783 -0.84375,4.4375 -0.35918,1.07754 -0.4375,7.77773 -0.4375,9.25 0,2.2228 -0.19257,4.51397 -0.5,6.78125 -0.30743,2.26728 -0.72166,4.51164 -1.25,6.625 -0.21,0.83997 -0.1964,1.74651 -0.1875,2.65625 0.009,0.90974 0.0151,1.79847 -0.25,2.59375 -0.26466,0.79399 -0.32373,2.91599 -0.3125,5.09375 0.0112,2.17776 0.0937,4.42535 0.0937,5.46875 l 0,20.65625 c 0,3.78748 0.28118,7.74401 0.34375,11.65626 0.0313,1.95612 -0.009,3.89995 -0.15625,5.8125 -0.14708,1.91255 -0.42022,3.77461 -0.875,5.59375 -0.1381,0.5524 -0.11124,1.19474 -0.125,1.8125 -0.0138,0.61776 -0.0661,1.22607 -0.3125,1.71875 -0.32673,0.65346 -0.13043,1.96981 -0.15625,3.125 -0.0129,0.57759 -0.0842,1.10765 -0.28125,1.5 -0.19044,0.37917 -0.54129,0.609 -1.0625,0.625 -0.454,-1.89254 -0.82282,-4.27093 0.15625,-5.25 1.79088,-1.79088 0.75,-12.38035 0.75,-15.75 0,-0.4146 -0.76698,-2.48303 -0.25,-3.00001 0.64722,-0.64722 1.22087,-4.97087 2,-5.75 0.14625,-0.14625 -1.30507,-12.05507 -1.5,-12.25 -0.0974,-0.0974 0,-0.84744 0,-1 0,-2.14953 0.25,-4.75741 0.25,-7.25 0,-5.13732 0.25,-10.05483 0.25,-15.25 0,-0.3981 -0.25336,-2.24664 0,-2.5 0.86356,-0.86356 1.5,-6.17606 1.5,-8 0,-0.42492 -0.43963,-2.68963 -0.75,-3 -0.35642,-0.35641 0.0975,-2.19507 0.25,-2.5 0.39768,-0.79537 0,-2.84101 0,-3.75 0,-0.7987 0.1522,-2.0544 0.5,-2.75 0.93622,-1.87243 -0.82307,-5.10386 0.25,-7.25 0.42356,-0.84711 1.64724,-0.8638 2.90625,-0.59375 z"
           id="path7820-9"
           inkscape:connector-curvature="0" />
        <path
           style="fill:#9ff950;fill-opacity:1;stroke:#ffffff;stroke-width:0.21755025px;stroke-linecap:butt;stroke-linejoin:miter;stroke-opacity:0"
           d="m 641.74993,260.85365 c -0.0125,-2.05668 4.54383,5.83005 3.41864,8.08043 -0.98303,1.96607 -1.93919,3.87838 -2.79707,5.59415 -1.56609,3.13218 -5.62741,2.48629 -8.70201,2.48629 -1.16523,0 -1.27237,-1.27237 -1.86472,-1.86471 -0.4182,-0.41821 -0.56075,-1.8039 -0.93235,-2.17551 -4.62245,-4.62245 4.09363,-20.6005 10.87751,-12.12065 z"
           id="path7824-6"
           inkscape:connector-curvature="0" />
        <path
           style="fill:#e9792e;fill-opacity:1;stroke:#ffffff;stroke-width:0.21755025px;stroke-linecap:butt;stroke-linejoin:miter;stroke-opacity:0"
           d="m 643.07248,273.84375 c 0.904,0.0636 2.15399,0.56702 1.46875,1.9375 -0.16533,0.33065 -0.28633,0.63994 -0.375,0.9375 0.92212,0.0955 2.21875,0.91013 2.21875,3.09375 0,0.35736 -0.0611,0.70219 -0.125,1.03125 0.26216,0.1306 0.4375,0.37557 0.4375,0.84375 0,0.60752 0.0585,1.44818 -0.3125,2.25 0.0448,0.1739 0.10019,0.32819 0.125,0.5 -0.005,0.005 0.005,0.0267 0,0.0312 -0.29399,0.26425 -0.58175,0.50962 -0.75,0.59375 -0.63316,0.31656 -1.67953,-0.0509 -2.46875,0.34375 -0.1922,0.0961 -0.35701,0.2078 -0.5,0.3125 -4.2895,0.63916 -11.59026,0.3785 -12.875,-0.90625 -0.40788,-0.40788 -0.20877,-0.81105 0.3125,-1.15625 -0.82032,-0.54864 -0.88734,-1.39391 0.3125,-2.59375 -0.27233,-0.27233 -0.3125,-1.04302 -0.3125,-1.5625 0,-6.36175 7.42346,-2.73596 9.03125,-4.34375 0.67623,-0.67623 1.93166,-1.25 3.09375,-1.25 0.13866,-0.0579 0.41742,-0.0837 0.71875,-0.0625 z"
           id="path7826-9"
           inkscape:connector-curvature="0" />
        <path
           style="fill:#e9c375;fill-opacity:0.78753674;stroke:#ffffff;stroke-width:1px;stroke-linecap:butt;stroke-linejoin:miter;stroke-opacity:0"
           d="m 640.90035,293.94308 c 0.11884,1.12332 0.62967,2.86099 0.25,4 -0.44659,1.33977 -0.0634,2.94015 -0.5,4.25 -1.8772,5.63161 -1.25,11.29525 -1.25,17.25 0,3.91565 -0.25,7.99325 -0.25,11.75 0,1.13612 -0.37896,9.75 0.25,9.75 0.24074,0 -1,-4.51693 -1,-4.75 0,-2.09342 -0.5,-4.14873 -0.5,-6.25 0,-1.91648 0.5,-3.99081 0.5,-6 0,-5.27452 -1.19794,-11.35413 1,-15.75 0.76181,-1.52362 -0.31341,-7.68659 1.25,-9.25 0.11673,-0.11672 -0.20117,-3.87207 0.25,-5 z"
           id="path7860-0"
           inkscape:connector-curvature="0" />
        <path
           style="fill:#e6bf6e;fill-opacity:1;stroke:#ffffff;stroke-width:1px;stroke-linecap:butt;stroke-linejoin:miter;stroke-opacity:0"
           d="m 635.58785,375.08091 c -0.28023,-1.24248 -0.58459,-2.66917 -0.8125,-3.125 -0.24749,-0.49496 -0.23384,-1.12091 -0.21875,-1.75 0.0151,-0.62909 0.0337,-1.24519 -0.21875,-1.75 -0.30322,-0.60643 -0.16257,-1.54583 -0.0312,-2.4375 0.0657,-0.44583 0.13965,-0.87068 0.125,-1.25 -0.0147,-0.37932 -0.0916,-0.71658 -0.3125,-0.9375 -0.31466,-0.31466 -0.22384,-1.09885 -0.0937,-1.90625 0.13009,-0.8074 0.29945,-1.61985 0.0937,-2.03125 -0.22911,-0.4582 -0.39559,-2.899 -0.4375,-5.34376 -0.0419,-2.44476 0.0105,-4.90654 0.1875,-5.4375 0.24482,-0.73447 0.70689,-7.62933 0.46875,-8.34375 -0.31733,-0.95198 -0.45579,-2.19373 -0.5,-3.5625 -0.0442,-1.36876 -0.0164,-2.86965 0.0312,-4.375 0.0476,-1.50535 0.10436,-3.01326 0.0625,-4.375 -0.0419,-1.36174 -0.18736,-2.59331 -0.5,-3.53125 -0.21959,-0.65877 -0.12837,-1.42227 -0.0312,-2.1875 0.0971,-0.76523 0.20012,-1.51202 0.0312,-2.1875 -0.20929,-0.83716 -0.26149,-1.88269 -0.25,-3 0.0115,-1.11731 0.10558,-2.3147 0.1875,-3.5 0.0819,-1.1853 0.15425,-2.36513 0.15625,-3.40625 0.002,-1.04112 -0.0842,-1.94022 -0.3125,-2.625 -0.3268,-0.98042 0.0977,-2.14432 -0.21875,-3.09375 -0.5468,-1.6404 -0.69063,-3.52639 -0.71875,-5.46875 -0.0281,-1.94236 0.0625,-3.92089 0.0625,-5.71875 0,-0.52917 0.12949,-1.39952 0.1875,-2.25 0.0555,-0.81378 0.0157,-1.5885 -0.1875,-2.0625 l 0.8125,-0.46875 c -0.10756,2.4803 0.3013,18.3013 1,19 0.28171,0.28171 0.78768,4.67465 0.5,5.25 -0.73448,1.46895 -0.20892,9.08216 0.5,10.5 1.00207,2.00414 -1.79171,6.16658 -1,7.75 0.46594,0.93188 2.15411,12.94177 2,13.25 -0.97703,1.95405 -1.5,3.75648 -1.5,6.25 0,2.55405 -0.27837,14.69327 0.25,15.75001 0.97863,1.95726 1.26039,4.28118 2,6.5 0.34915,1.04746 -0.53912,1.82158 -1.3125,1.875 z"
           id="path7864-3"
           inkscape:connector-curvature="0" />
        <path
           style="fill:#c86624;fill-opacity:1;stroke:#ffffff;stroke-width:1px;stroke-linecap:butt;stroke-linejoin:miter;stroke-opacity:0"
           d="m 644.2441,276.54965 c -0.0166,0.0503 -0.0477,0.10666 -0.0625,0.15625 0.0781,0.008 0.1675,0.10618 0.25,0.125 -0.17672,0.0532 -0.42387,0.0489 -0.53125,0.15625 -0.58381,0.58381 -2.48217,0.70092 -3.03125,1.25 -0.18112,0.18108 -0.87948,0.0647 -1.125,0.1875 -2.21653,1.10827 -5.53729,2.1178 -8.03125,2.53125 -0.58341,0.50258 -1.1268,1.1232 -0.71875,1.53125 0.30976,0.30977 0.45313,0.52768 0.65625,0.75 1.939,-0.0835 4.70295,0.039 5.25,0.3125 0.44449,0.22225 3.56643,-0.28125 4.34375,-0.28125 0.49164,0 1.59472,0.0776 1.9375,-0.0937 0.0555,-0.0278 0.25221,-0.15404 0.34375,-0.0625 0.0997,0.0997 -0.0937,0.18357 -0.0937,0.25 0,1.14901 -0.22528,0.25653 -0.59375,0.625 -0.70616,0.70616 -2.63126,0.53125 -3.8125,0.53125 -0.79531,0 -1.44433,-0.28125 -2.21875,-0.28125 -0.23916,0 -0.58733,-0.0593 -0.78125,-0.15625 -0.21176,-0.10588 -2.84045,-0.28125 -3.28125,-0.28125 -0.16476,0 -0.4435,-0.0148 -0.71875,-0.0625 -0.081,0.0931 -0.15625,0.21031 -0.15625,0.34375 0,0.6486 0.0165,0.91448 0.4375,1.125 0.0804,0.0402 0.67791,0.31899 1.1875,0.5625 -0.48004,-0.0586 -1.06069,-0.0755 -1.46875,-0.15625 -1.00683,-0.19933 -1.75644,-0.47518 -2.09375,-0.8125 -0.20394,-0.20394 -0.25145,-0.39882 -0.1875,-0.59375 0.064,-0.19493 0.23937,-0.3899 0.5,-0.5625 -0.41016,-0.27432 -0.62444,-0.63262 -0.59375,-1.0625 0.0307,-0.42988 0.30633,-0.93133 0.90625,-1.53125 -0.27233,-0.27233 -0.3125,-1.04302 -0.3125,-1.5625 0,-0.79522 0.10637,-1.42466 0.3125,-1.9375 0.20612,-0.51284 0.51446,-0.89759 0.875,-1.1875 0.0541,-0.0435 0.13061,-0.0545 0.1875,-0.0937 0.10181,0.69695 -1.34082,2.06836 -0.90625,2.9375 0.17417,0.34834 0.78112,0.71875 1.15625,0.71875 0.22859,0 0.43569,0.0786 0.59375,0.15625 0.66619,-0.13061 1.33009,-0.25879 1.875,-0.53125 0.22937,-0.11469 0.9095,-0.003 1.0625,-0.15625 0.76095,-0.76094 3.46125,-1.26188 4.6875,-1.875 0.55987,-0.27993 1.70358,-0.0549 2.28125,-0.34375 0.28295,-0.14147 0.64157,-0.4375 0.90625,-0.4375 0.14505,0 0.55226,-0.0978 0.96875,-0.1875 z"
           id="path7868-4"
           inkscape:connector-curvature="0" />
        <path
           style="fill:#f98d44;fill-opacity:1;stroke:#ffffff;stroke-width:1px;stroke-linecap:butt;stroke-linejoin:miter;stroke-opacity:0"
           d="m 644.75998,277.03125 c 0.29817,0.12307 0.61434,0.14771 0.875,0.4375 0.21971,0.24427 0.39528,0.55257 0.53125,0.9375 0.13597,0.38494 0.21875,0.86034 0.21875,1.40625 0,0.35736 -0.0611,0.70219 -0.125,1.03125 0.26216,0.1306 0.4375,0.37557 0.4375,0.84375 0,0.44773 0.038,1.03288 -0.0937,1.625 -0.002,0.0105 0.002,0.0208 0,0.0312 -0.30549,0.46338 -0.50769,1.00769 -0.84375,1.34375 -0.0228,0.0228 -0.068,0.0407 -0.0937,0.0625 -0.0788,-0.20307 -0.17099,-0.38974 -0.28125,-0.5 -0.11987,-0.11987 -0.8415,0.12275 -0.71875,0 0.50995,-0.50995 1.25,-0.55747 1.25,-1.59375 0,-0.93079 0.0382,-1.65625 -1,-1.65625 -0.27085,0 -0.72843,0.12984 -0.96875,0.25 -0.31393,0.15697 -3.78673,0.13788 -4.0625,0 -0.0833,-0.0417 -2.56632,0.0351 -2.375,-0.15625 0.67822,-0.67822 2.13415,-0.56707 3,-1 0.19358,-0.0968 0.52343,0.0352 0.71875,-0.0625 0.26861,-0.1343 0.90891,-0.22141 1.0625,-0.375 0.35247,-0.35247 1.10099,-0.69112 1.65625,-0.96875 0.31167,-0.15583 0.21704,-0.46704 0.375,-0.625 0.30901,-0.30901 0.43133,-0.39952 0.4375,-1.03125 z"
           id="path7872-1"
           inkscape:connector-curvature="0" />
        <path
           style="fill:#f98d44;fill-opacity:1;stroke:#ffffff;stroke-width:1px;stroke-linecap:butt;stroke-linejoin:miter;stroke-opacity:0"
           d="m 637.9316,275.4559 c 0.504,-0.0512 1.08531,-0.0541 1.34375,-0.3125 0.33811,-0.33811 0.83135,-0.64703 1.375,-0.875 0.54365,-0.22797 1.1377,-0.375 1.71875,-0.375 0.13866,-0.0579 0.41742,-0.0837 0.71875,-0.0625 0.452,0.0318 1.00391,0.16364 1.34375,0.46875 0.16992,0.15256 0.27755,0.35284 0.3125,0.59375 0.0349,0.24091 -0.0162,0.53238 -0.1875,0.875 -0.11497,0.22994 -0.17387,0.44374 -0.25,0.65625 -0.63073,-0.24069 -1.75142,-0.0462 -2.28125,0.21875 -0.38055,0.19028 -1.0421,0.0109 -1.3125,0.28125 -0.0105,0.0105 -1.15625,0.24139 -1.15625,0.25 0,0.12098 0.40252,-0.34375 0.71875,-0.34375 0.32774,0 1.20374,-0.43626 1.0625,-0.71875 -0.052,-0.10391 -0.37139,-0.13882 -0.46875,-0.1875 -0.86958,-0.43479 -3.01441,1.03709 -2.9375,-0.46875 z"
           id="path7874-2"
           inkscape:connector-curvature="0" />
        <path
           style="fill:#cffca8;fill-opacity:1;stroke:none"
           d="m 638.62202,259.70285 c 0.53272,-0.32206 2.80445,1.56701 4.24264,3.00521 2.10467,2.10466 -0.83766,6.03351 -3.71231,4.59619 -0.43344,-0.21672 -1.43191,-0.19447 -1.76776,-0.53033 -0.42588,-0.42588 -0.7407,-0.91747 -1.23744,-1.41421 -0.61326,-0.61326 -0.74562,-6.94506 2.47487,-5.65686 z"
           id="path7878-7"
           inkscape:connector-curvature="0" />
        <path
           style="fill:#84ee26;fill-opacity:1;stroke:#ffffff;stroke-width:1px;stroke-linecap:butt;stroke-linejoin:miter;stroke-opacity:0"
           d="m 645.1816,268.6434 c -0.0229,0.0718 0.0316,0.218 0,0.28125 l -2.8125,5.59375 c -0.39152,0.78304 -0.94473,1.33884 -1.59375,1.71875 -0.64902,0.37991 -1.38979,0.60373 -2.1875,0.71875 -1.59542,0.23005 -3.36895,0.0625 -4.90625,0.0625 -0.58261,0 -0.90977,-0.32661 -1.15625,-0.71875 -0.24648,-0.39213 -0.42257,-0.86008 -0.71875,-1.15625 -0.4182,-0.41821 -0.5659,-1.78464 -0.9375,-2.15625 -0.57781,-0.5778 -0.9342,-1.35603 -1.125,-2.21875 -0.1908,-0.86272 -0.19905,-1.83601 -0.0625,-2.84375 0.13655,-1.00774 0.40825,-2.04964 0.8125,-3.0625 0.40425,-1.01286 0.91895,-1.99691 1.53125,-2.875 0.32163,-0.46124 0.72727,-0.79289 1.09375,-1.1875 -0.10206,0.36659 -0.18217,0.7081 -0.34375,1.03125 -0.26245,0.5249 0,1.86887 0,2.46875 0,4.83324 1.39532,4.20783 3.90625,6.71875 0.46943,0.46943 1.52717,0.46466 1.9375,0.875 0.21996,0.21996 1.08293,-0.0727 1.25,-0.15625 0.50816,-0.25408 1.72464,0.0254 2.125,-0.375 0.41522,-0.41522 0.97834,-0.44708 1.40625,-0.875 0.53688,-0.53688 1.16916,-1.20177 1.78125,-1.84375 z"
           id="path7880-8"
           inkscape:connector-curvature="0" />
      </g>
      <path
         sodipodi:nodetypes="ccccccccccccccccccc"
         inkscape:connector-curvature="0"
         id="path8393"
         d="m 548.6875,317.34375 c -0.33967,0.45924 -0.41302,0.98259 -0.93901,0.80589 -0.83927,1.22766 -1.37174,2.64818 -1.95638,4.00951 -0.42525,1.60465 -0.0632,3.4648 -1.18653,4.84091 -0.9978,1.92319 -2.85246,3.65971 -3.55003,5.02104 2.4971,10.72402 -1.76616,14.86094 6.70896,7.13161 1.67271,-1.09043 3.78342,-1.05492 5.55841,-1.89264 1.0791,-0.99269 2.31205,-2.10384 2.56598,-3.62088 0.0332,-1.15126 -1.65702,-2.19712 -0.16405,-3.09611 0.98228,-1.02417 2.47822,-2.14044 2.18231,-3.7448 -0.11421,-1.06088 -2.18391,-1.91962 -0.86383,-2.8609 0.5219,-0.6762 1.99057,-1.82674 0.8786,-2.5814 -1.23971,-0.74304 -2.55241,0.3528 -3.52923,1.05315 -1.33229,0.98191 -2.78529,2.19424 -4.5325,2.14861 -1.39928,-0.0849 -0.73404,-1.72574 -0.85315,-2.64694 -0.0191,-1.46767 0.18674,-2.97959 -0.1789,-4.41581 l -0.0781,-0.11999 -0.0625,-0.0312 c -2e-5,-10e-6 -3e-5,-3e-5 -5e-5,-5e-5 z"
         style="fill:#eebf97;fill-opacity:1;stroke:#ffffff;stroke-width:1px;stroke-linecap:butt;stroke-linejoin:miter;stroke-opacity:0" />
      <path
         inkscape:connector-curvature="0"
         id="path8332"
         d="m 497.66714,341.34625 c -0.95693,0.0592 -2.58835,4.05772 -4.7991,6.60255 -1.50314,1.7303 -2.75771,3.98311 -4.12102,5.55245 -0.55303,0.6366 -0.47231,2.01241 -0.80482,2.81332 -0.76319,1.83826 4.48748,8.75175 5.74105,10.37318 0.62414,0.80729 0.85041,2.0578 1.20778,2.92254 1.07985,2.613 4.7569,7.6449 6.40162,9.07369 2.07985,1.80681 7.24166,-3.15518 7.71753,-4.30141 0.33933,-0.81732 -1.08052,-2.26773 -1.45716,-2.90503 -1.96528,-3.32527 -5.7349,-5.60399 -8.1298,-8.70166 -1.30226,-1.68441 -2.1145,-3.79753 -3.14619,-5.54315 -0.2912,-0.49272 -0.11012,-1.28501 -0.37202,-1.72818 -0.13111,-0.22184 -0.44875,-0.37704 -0.30195,-0.73063 0.2116,-0.50967 0.30105,-1.1552 0.64304,-1.54888 0.98746,-1.13668 8.9002,-5.38149 7.55986,-6.54588 -0.62098,-0.53945 -1.46392,-1.5059 -2.15276,-2.10431 -0.37564,-0.32632 -0.56576,-1.19397 -0.85328,-1.44375 -0.59177,-0.51408 -2.09387,-1.06705 -3.13278,-1.78485 z"
         style="fill:#8b058b;fill-opacity:1;stroke:#ffffff;stroke-width:1px;stroke-linecap:butt;stroke-linejoin:miter;stroke-opacity:0" />
      <path
         sodipodi:nodetypes="scssssccssssscssssscscssss"
         inkscape:connector-curvature="0"
         id="path8201"
         d="m 508.34375,330.375 c -2.09489,-0.007 -4.3378,0.77828 -6.21875,1.71875 -3.4028,-0.43487 -3.51955,6.36331 -6.34375,9.1875 -0.8824,0.88241 -0.43201,3.24451 -1.4375,4.25 -1.09965,1.09965 -1.08319,4.23944 -2.125,5.28125 -0.4976,0.4976 -0.8382,4.17639 -1.40625,5.3125 -0.61811,1.23621 -1.54116,10.38492 -1.75,10.59375 -0.51544,0.51544 -1.45518,2.42562 -2.375,8.28125 -0.17634,0.51671 -0.40596,1.06192 -0.6875,1.625 -0.26667,0.53334 0.26667,1.46667 0,2 -0.92492,1.84985 -1,7.85674 -1,10.25 0,1.03764 -1.13085,9.11915 -0.5,9.75 1.73543,1.73543 6.10075,1.75 9.25,1.75 5.39209,0 9.2941,0.0504 13.6875,-1.71875 1.40555,0.66304 3.83488,-0.52006 5.3125,0.21875 1.20759,0.60379 2.75986,0.62993 4,1.25 2.27425,1.13713 5.1457,0.8957 6.75,2.5 0.27858,0.27858 2.43713,2.31287 2.75,2 1.58592,-1.58591 2.36065,-11.02871 1,-13.75 -0.1607,-0.3214 -0.83188,-8.60944 -1,-8.875 0.18567,-6.78317 -2.03849,-12.28849 -3.25,-13.5 -0.35355,-0.35355 0.35356,-1.77145 0,-2.125 -1.94297,-1.94297 -0.34756,-20.10138 -1.4375,-22.28125 -1.82108,-3.64217 -3.18984,-7.43984 -6.34375,-10.59375 -0.50152,-0.50152 -2.06953,-1.00703 -2.46875,-1.40625 -1.22057,-1.22057 -2.77689,-1.71329 -4.40625,-1.71875 z"
         style="fill:#800080;fill-opacity:1;stroke:#ffffff;stroke-width:1px;stroke-linecap:butt;stroke-linejoin:miter;stroke-opacity:0" />
      <path
         style="fill:#6f0471;fill-opacity:1;stroke:#ffffff;stroke-width:1px;stroke-linecap:butt;stroke-linejoin:miter;stroke-opacity:0"
         d="m 537.4375,104.28125 c -1.23706,0.0119 -2.19303,0.22428 -2.6875,0.71875 -0.41248,0.41248 -1.90002,-0.22498 -2.3125,0.1875 -0.0738,0.0738 -4.05542,-0.007 -4.9375,0.875 -0.60246,0.60246 2.96966,3.17528 3.75,4.25 -0.20994,0.0938 -0.40686,0.21936 -0.5625,0.375 -0.18085,0.18085 -0.12942,0.81692 -0.34375,1.03125 -0.39679,0.39678 -1.97792,-0.26104 -2.5,0 -0.8962,0.4481 -1.36561,0.86561 -1.9375,1.4375 -0.20534,0.20533 0.143,0.74145 0.1875,0.875 0.26186,0.7856 0.26887,1.68162 0.53125,2.46875 0.44467,1.33402 2.01544,2.78088 2.65625,4.0625 0.12738,0.25477 1.34098,1.47153 1.21875,1.59375 -0.48685,0.48686 -6.55404,-0.29817 -7.40625,1.40625 -0.2479,0.49581 1.53901,4.41401 1.75,4.625 0.73123,0.73123 2.10434,2.02092 3,2.46875 0.10283,0.0514 0.30163,0.18378 0.5,0.34375 -4.3e-4,0.011 3.5e-4,0.0202 0,0.0312 -0.0154,0.47891 0.0511,0.95983 0.21875,1.15625 -1.89983,0.41603 -8.07362,-0.79027 -9.03125,1.125 -0.7937,1.58739 1.45208,2.29583 2.5,3.34375 1.66118,1.66118 3.3007,3.33982 5.46875,4.0625 0.61658,0.20553 1.33208,0.17319 1.9375,0.375 1.14756,0.38252 2.52869,0.10331 3.71875,0.5 1.94984,0.64995 3.61169,1.74011 5.4375,2.4375 -0.72178,0.14494 -2.45162,-0.5 -2.96875,-0.5 -3.78484,0 -11.63634,-0.55117 -13.96875,1.78125 -1.93408,1.93407 -2.4214,1.56892 -2.46875,4 3.68264,-0.0601 6.78859,-0.3314 10.15625,-1.6875 1.40555,0.66304 3.83488,-0.52006 5.3125,0.21875 1.20759,0.60379 2.75986,0.62993 4,1.25 2.27425,1.13713 5.1457,0.8957 6.75,2.5 0.27858,0.27858 2.43713,2.31287 2.75,2 1.58592,-1.58591 2.36065,-11.02871 1,-13.75 -0.1607,-0.3214 -0.83188,-8.60944 -1,-8.875 0.18567,-6.78317 -2.03849,-12.28849 -3.25,-13.5 -0.35355,-0.35355 0.35356,-1.77145 0,-2.125 -0.91026,-0.91026 -1.03426,-5.40711 -1.03125,-10.125 -2.18376,-0.51575 -4.59838,-0.95514 -6.4375,-0.9375 z"
         transform="translate(-21.92031,251.02291)"
         id="path9074"
         inkscape:connector-curvature="0" />
      <path
         style="fill:#640466;fill-opacity:1;stroke:#ffffff;stroke-width:1px;stroke-linecap:butt;stroke-linejoin:miter;stroke-opacity:0"
         d="m 540.1875,108.90625 c -0.83219,-0.0135 -1.58193,0.0878 -2.09375,0.34375 -3.0691,1.53455 1.73501,6.47001 2.65625,8.3125 0.82225,1.64449 -3.02606,-0.61197 -3.875,-0.1875 -0.12487,0.0625 -0.32185,0.1063 -0.1875,0.375 1.01849,2.03699 1.777,4.21025 2.84375,6.34375 1.00702,2.01403 2.50322,3.97519 3.53125,6.03125 0.34977,0.69955 0.5359,1.21409 0,1.75 -1.78412,1.78412 -5.21693,-1.50981 -7.0625,-2.125 -0.28252,-0.0942 -1.85283,-0.42842 -2.125,-0.15625 -0.25514,0.25514 0.94811,1.70843 1.40625,1.9375 1.40948,0.70473 7.4375,4.97251 7.4375,6 0,0.2023 -1.39009,0.53125 -1.78125,0.53125 -0.88396,0 -1.98267,0.43172 -2.84375,0.71875 -1.29773,0.43258 -5.6806,-0.0763 -6.34375,1.25 -0.17355,0.3471 0.0398,0.94607 0.15625,1.0625 0.30768,0.30768 0.10641,2.06883 0.90625,2.46875 1.17408,0.58704 3.4089,0.28654 4.0625,1.59375 0.063,0.12593 -2.09979,-0.18448 -2.46875,0 -0.90988,0.45494 -7.20424,0.43526 -6.375,2.09375 0.15214,0.30429 0.30776,0.52266 0.46875,0.6875 0.282,-0.10014 0.55814,-0.19749 0.84375,-0.3125 1.40555,0.66304 3.83488,-0.52006 5.3125,0.21875 1.20759,0.60379 2.75986,0.62993 4,1.25 2.27425,1.13713 5.1457,0.8957 6.75,2.5 0.27858,0.27858 2.43713,2.31287 2.75,2 1.58592,-1.58591 2.36065,-11.02871 1,-13.75 -0.1607,-0.3214 -0.83188,-8.60944 -1,-8.875 0.18567,-6.78317 -2.03849,-12.28849 -3.25,-13.5 -0.35355,-0.35355 0.35356,-1.77145 0,-2.125 -0.62091,-0.62091 -0.83618,-2.96158 -0.9375,-5.84375 -1.26666,-0.3133 -2.61799,-0.57484 -3.78125,-0.59375 z"
         transform="translate(-21.92031,251.02291)"
         id="path9339"
         inkscape:connector-curvature="0" />
      <path
         style="fill:#5b005b;fill-opacity:1;stroke:#ffffff;stroke-width:1px;stroke-linecap:butt;stroke-linejoin:miter;stroke-opacity:0"
         d="m 544.8125,117.125 c -0.54463,0.2019 -0.98079,0.51921 -0.78125,0.71875 0.76097,0.76097 0.53121,2.37496 1.3125,3.15625 0.16229,0.16229 0.12886,0.75386 0.28125,0.90625 0.1682,0.16822 -0.0694,0.89936 0.0937,1.0625 0.13584,0.13584 0.13848,0.46446 0.25,0.6875 0.85036,1.70071 0.51369,3.55863 1.34375,5.21875 0.1007,0.20132 -0.043,0.50774 0.0625,0.71875 0.22667,0.45335 -0.15625,1.39302 -0.15625,1.75 0,0.43589 -0.0943,1.06361 -0.28125,1.4375 -0.0991,0.19812 0.1875,1.89973 0.1875,2.28125 0,0.0838 -0.0534,0.47785 0,0.53125 0.28693,0.28692 0.26675,0.90848 0.4375,1.25 0.13683,0.27364 0.65453,1.03297 0.28125,1.40625 -0.0235,0.0235 -0.66089,-0.34375 -0.8125,-0.34375 -0.33594,0 -2.52231,-1.4598 -2.75,-1.6875 -0.0219,-0.0219 -0.875,-0.2338 -0.875,0 0,0.51707 2.46789,2.09289 2.9375,2.5625 0.17716,0.17716 0.59381,0.25006 0.78125,0.4375 0.51833,0.51833 0.89862,1.08612 1.3125,1.5 0.57588,0.57588 0.80619,3.97507 0.28125,4.5 -0.062,0.062 -0.0489,3.14269 -0.53125,3.625 -0.34923,0.34924 0.19921,1.58204 -0.1875,1.96875 -0.19419,0.19419 -0.43905,0.5953 -0.625,0.78125 -0.15801,0.15801 -0.71545,-0.46545 -0.78125,-0.53125 -0.27379,-0.2738 -0.97252,-0.0975 -1.3125,-0.4375 -0.53989,-0.53989 -1.67236,-0.76611 -2.21875,-1.3125 -0.21905,-0.21906 -1.42719,-0.11469 -1.59375,-0.28125 -0.35481,-0.35481 -1.00301,-0.6265 -1.5,-0.875 -0.29017,-0.14508 -1.41239,-0.0999 -1.59375,-0.28125 -0.33703,-0.33703 -2.22821,-0.47821 -2.375,-0.625 -0.16879,-0.16879 -1.56965,-0.4134 -1.59375,-0.4375 -0.10097,-0.10098 -2.64873,-0.53877 -2.84375,-0.34375 -0.36047,0.36047 -1.13891,0.42016 -1.5,0.78125 -0.18165,0.18167 -0.72264,0.12889 -0.875,0.28125 -0.0441,0.0441 -0.3683,0 -0.4375,0 -0.88491,0 -1.32528,0.25 -2.21875,0.25 -0.11242,0 -0.64715,-0.0716 -0.71875,0 -0.20605,0.20606 -0.48767,0.70643 -0.6875,0.90625 -0.0481,0.0481 -0.038,0.0919 0,0.15625 1.40656,-0.25475 2.77638,-0.63793 4.21875,-1.21875 1.40555,0.66304 3.83488,-0.52006 5.3125,0.21875 1.20759,0.60379 2.75986,0.62993 4,1.25 2.27425,1.13713 5.1457,0.8957 6.75,2.5 0.27858,0.27858 2.43713,2.31287 2.75,2 1.58592,-1.58591 2.36065,-11.02871 1,-13.75 -0.1607,-0.3214 -0.83188,-8.60944 -1,-8.875 0.18567,-6.78317 -2.03849,-12.28849 -3.25,-13.5 -0.0738,-0.0738 -0.0931,-0.19646 -0.0937,-0.34375 z"
         id="path9360"
         transform="translate(-21.92031,251.02291)"
         inkscape:connector-curvature="0" />
      <path
         id="path8081"
         d="m 510.09375,309.59375 c -0.25349,-0.005 -0.48314,0.0156 -0.6875,0.0312 -0.46712,0.0359 -0.8238,0.11555 -0.96875,0.28125 -0.58706,0.67111 -0.85861,0.80869 -2.375,1.21875 -1.54391,0.29345 -1.35958,1.95945 -2.84375,5.5 -2.75984,6.58366 -2.19601,13.79601 0.9375,19.25 0.48466,-0.13481 0.91043,-0.18332 1.09375,0 0.57533,0.57533 1.95701,1.70701 2.75,2.5 0.5862,0.5862 0.54694,1.79695 1,2.25 0.18706,0.18706 0.26851,0.5052 0.28125,0.875 0.005,0.003 -0.005,0.0279 0,0.0312 0.98238,0.69602 2.04462,1.30216 3.1875,1.78125 3.15655,1.3232 7.43735,-1.64503 9.375,-2.78125 1.25768,-0.7375 2.40575,-2.58191 3.375,-4.90625 0.0642,0.0263 0.12255,0.06 0.15625,0.0937 0.26967,0.26967 1.24575,0.16051 1.5,-0.0937 0.29462,-0.29461 -0.29461,0.10712 0,-0.1875 0.10367,-0.10367 1.59967,0.36907 1.875,0.0937 0.19719,-0.19719 0.86971,-0.0572 1.0625,-0.25 0.14174,-0.14174 0.47599,-0.25724 0.59375,-0.375 0.56116,-0.56116 0.95401,-0.98668 1.09375,-1.40625 0.0488,-0.14658 0.083,-0.28413 0.0625,-0.4375 -0.002,-0.0178 0.003,-0.0445 0,-0.0625 0.173,-2.56488 -2.04598,-5.59492 -3.78125,-6.59375 -0.31023,-0.31023 -0.61499,-0.81992 -0.90625,-1.375 -10e-4,-0.37653 0,-0.76259 0,-1.09375 0,-4.70138 -1.57193,-8.7176 -6.53125,-6.75 -0.32314,-0.10735 -0.62252,-0.24752 -0.875,-0.5 -0.24721,-0.2472 -0.40826,-1.38103 -0.53125,-1.75 -0.40442,-1.21327 0.32832,-2.70026 1,-3.625 -3.20902,-0.78875 -7.45614,-1.67085 -9.84375,-1.71875 z"
         style="fill:#eebf97;fill-opacity:1;stroke:#ffffff;stroke-width:1px;stroke-linecap:butt;stroke-linejoin:miter;stroke-opacity:0"
         inkscape:connector-curvature="0" />
      <path
         id="path8147"
         d="m 513.28125,314.0625 c -0.25192,0.0298 -0.41102,0.47345 -0.4375,0.5 -0.49163,0.49162 -1.49551,0.43301 -2.125,1.0625 -0.47141,0.4714 0.4714,2.34109 0,2.8125 -0.87661,0.8766 -1.83737,1.92476 -2.46875,3.1875 -0.27626,0.55252 -0.71875,4.38703 -0.71875,4.9375 0,1.20915 1.65011,2.53872 2,2.75 -0.27134,0.16929 -0.85599,1.20651 -0.5625,1.5 0.5062,0.5062 0.79618,1.51493 1.40625,2.125 0.14118,0.14118 0.20289,0.55739 0.21875,1.0625 L 506.5,330.46875 c -1.80457,3.60913 -0.61972,6.09902 1.40625,8.125 0.38662,0.38662 -1.16021,2.69542 -1.40625,3.1875 -0.68741,1.37481 0.98582,1.97164 1.40625,2.8125 0.53517,1.07033 -0.76572,2.74982 -0.375,3.53125 0.41755,0.8351 1.34188,-0.0644 1.78125,0.375 0.27639,0.27639 -0.29775,0.5954 -0.34375,0.6875 -0.0217,0.0433 1.27514,7.3064 1.40625,7.4375 0.78207,0.78211 1.78125,-1.45198 1.78125,0.71875 0,0.97579 1.31549,4.35088 3.28125,4.4375 0.37209,0.90038 0.88771,1.77542 1.3125,2.625 0.2501,0.50021 -0.0505,1.73077 0.34375,2.125 0.56223,0.56223 1.48793,-0.86541 1.78125,-0.71875 0.33586,0.16793 1.19364,1.96261 2.09375,1.0625 0.8606,-0.8606 1.29728,-2.70354 2.125,-3.53125 0.12794,-0.12794 0.18025,-0.29857 0.1875,-0.46875 0.0604,-0.0904 0.13425,-0.19675 0.1875,-0.25 0.23178,-0.23178 1.22912,-0.16662 1.40625,-0.34375 0.98726,-0.98726 -0.53636,-5.46364 0,-6 1.98625,-1.98625 3.06574,-3.99676 0.6875,-6.375 -0.35437,-0.35437 1.0625,-1.58521 1.0625,-1.78125 0,-1.8168 -0.82696,-3.39179 0.375,-4.59375 0.79463,-0.79463 -0.19417,-3.8857 -1.28125,-5.625 0.41671,-0.29653 0.74997,-0.56247 0.90625,-0.71875 0.40563,-0.40563 0.43437,-1.07326 0.21875,-1.8125 -0.14969,-0.0182 -0.32478,-0.072 -0.40625,-0.0312 -0.55384,0.27691 -1.87379,0.34496 -2.28125,-0.0625 -0.55923,-0.55924 0.0413,-2.10381 0.34375,-2.40625 0.13102,-0.13102 0.31785,-0.25011 0.5,-0.375 -1.44769,-1.44465 -3.37544,-2.31206 -4.71875,-0.96875 -0.23178,-0.23178 -0.19787,-1.26037 -0.375,-1.4375 -0.19,-0.19 -1.82933,-0.39184 -2.46875,-1.03125 -0.58925,-0.58926 0.24551,-2.59825 -0.34375,-3.1875 -0.91858,-0.91859 -2.0301,-2.37384 -3.1875,-3.53125 -0.20133,-0.20133 1.01489,-6.79761 -0.34375,-8.15625 -0.10901,-0.10901 -0.19728,-0.13494 -0.28125,-0.125 z"
         style="fill:#9a7a7a;fill-opacity:1;stroke:#ffffff;stroke-width:1px;stroke-linecap:butt;stroke-linejoin:miter;stroke-opacity:0"
         inkscape:connector-curvature="0" />
      <path
         inkscape:connector-curvature="0"
         id="path8907"
         d="m 509.875,338.48718 c -0.0417,0.16667 0.0417,0.54167 -0.125,0.5 -0.16667,-0.0417 0.24648,-0.62148 0.125,-0.5 -0.48652,0.48652 -1.17994,4.71497 -0.25,4.25 0.18023,-0.0901 0.21775,-1.06451 0.125,-1.25 -0.1716,-0.3432 0.41573,-0.79073 0.625,-1 0.11817,-0.11817 0.0204,-0.64543 0.125,-0.75 0.22939,-0.22938 0.60152,-0.35152 0.875,-0.625 0.15862,-0.15862 0.41668,1.16668 0.5,1.25 0.20116,0.20116 0.64425,0.26925 0.875,0.5 0.13511,0.13511 0.20593,0.47797 0.5,0.625 0.30261,0.15131 0.74599,-0.125 1.125,-0.125 0.19358,0 0.70612,0.16888 0.75,0.125 0.27612,-0.27611 -0.25,-0.85526 -0.25,-1 0,-0.009 0.35207,0.0115 0.375,0 0.18927,-0.0946 0.8979,-0.375 1,-0.375 0.13692,0 0.77987,0.59513 1.125,0.25 0.6366,-0.6366 -0.36055,-0.86055 -0.625,-1.125 -0.052,-0.052 -0.052,-1.19801 0,-1.25 0.0308,-0.0308 0.47147,-0.27853 0.375,-0.375 -0.0833,-0.0833 -1.12846,-0.87153 -0.75,-1.25 0.0669,-0.0669 3.18897,-0.061 3.25,0 0.029,0.029 0.75024,0.87477 0.875,0.75 0.95873,-0.95873 -2.70927,-2.58427 -3,-2.875 -1.07953,-1.07953 1.49719,-1.81391 0.125,-2.5 -0.71847,-0.35924 -1.53002,0.43504 -1.75,0.875 -0.25493,0.50985 -0.1932,1.2046 -0.375,1.75 -0.39124,1.17372 -1.44507,3.28504 -2.625,3.875 -0.46862,0.23431 -0.99966,-0.25017 -1.5,0 -0.5769,0.28845 -0.62125,0.42575 -1.5,0.25 z"
         style="fill:#916f6f;fill-opacity:1;stroke:#ffffff;stroke-width:1px;stroke-linecap:butt;stroke-linejoin:miter;stroke-opacity:0" />
      <path
         id="path8771"
         d="m 527.125,325.5 c -0.0197,0.0153 -0.0466,0.0154 -0.0625,0.0312 -1.00039,1.00038 -0.75398,1.31449 -2.375,2.125 -0.27085,0.13543 -0.94314,0.10229 -1.25,0 -0.76528,-0.25509 -1.65057,-0.60654 -2.375,-0.96875 -0.53565,-0.26783 -1.2668,-0.19422 -1.875,-0.4375 -1.44087,0.0855 -1.46984,4.93533 -0.625,6.625 0.0355,0.071 0.22765,0.33485 0.28125,0.28125 0.11218,-0.11218 0.0955,-0.34732 0.1875,-0.53125 0.33161,-0.66323 0.51694,-0.8991 1.21875,-1.25 0.25706,-0.12854 0.74006,0.8331 1.34375,0.53125 0.4861,-0.24305 0.8264,-0.7257 1.3125,-0.96875 0.33123,-0.16562 1.03956,0.1792 1.3125,-0.0937 1.05176,-1.05175 2.66836,-1.14923 3.375,-2.5625 0.11103,-0.22206 0.43317,-1.054 0.4375,-1.6875 -0.086,-0.0576 -0.16597,-0.13913 -0.25,-0.1875 -0.21822,-0.21822 -0.44624,-0.54427 -0.65625,-0.90625 z"
         style="fill:#e9b282;fill-opacity:1;stroke:#ffffff;stroke-width:1px;stroke-linecap:butt;stroke-linejoin:miter;stroke-opacity:0"
         inkscape:connector-curvature="0" />
      <path
         inkscape:connector-curvature="0"
         id="path8789"
         d="m 517.60216,328.10806 c 0.0924,1.68381 1.36613,3.40684 2.74004,2.03293 0.2581,-0.2581 0.76935,-0.23902 0.97228,-0.44194 0.25481,-0.25481 2.6368,0.10324 3.09359,-0.35355 0.13274,-0.13274 0.56233,-0.73149 0.35355,-1.14905 -0.12192,-0.24385 -0.73272,-0.37917 -0.97227,-0.61872 -0.64826,-0.64826 -1.51823,-1.53727 -2.47487,-1.85615 -0.3265,-0.10884 -0.73417,-0.0679 -1.06066,-0.17678 -0.18149,-0.0605 -0.66202,-0.19932 -0.88389,-0.0884 -0.65771,0.32886 -0.72784,1.10214 -0.97227,1.59099 -0.24187,0.48373 -0.59178,0.55136 -0.7955,1.06066 z"
         style="fill:#e7a974;fill-opacity:1;stroke:#ffffff;stroke-width:1px;stroke-linecap:butt;stroke-linejoin:miter;stroke-opacity:0" />
      <path
         inkscape:connector-curvature="0"
         id="path8289"
         d="m 520.05084,323.92236 c -0.13297,1.70457 0.70857,3.6583 1.69762,4.40093 0.56473,0.42403 1.22503,0.45087 1.72455,0.82594 0.26489,0.19889 1.06264,0.0273 1.42501,-0.0242 2.88673,-0.41079 2.87151,-3.66184 2.45359,-6.59866 -0.0812,-0.57061 -0.088,-1.47291 -0.42407,-1.72523 -0.3332,-0.25018 -0.066,-1.30004 -0.39916,-1.55022 -0.29487,-0.22141 -0.42941,-0.79137 -0.67447,-0.97537 -0.59187,-0.4444 -1.45936,-0.82072 -2.2994,-1.10124 -0.4101,-0.13695 -1.27144,0.20638 -1.55022,0.39916 -2.67005,1.84635 -3.24066,2.6955 -1.95345,6.34893 z"
         style="fill:#ffffff;fill-opacity:1;stroke:#ffffff;stroke-width:1px;stroke-linecap:butt;stroke-linejoin:miter;stroke-opacity:0" />
      <path
         inkscape:connector-curvature="0"
         id="path8291"
         d="m 522.57507,325.34874 c -0.0227,0.2337 0.36675,1.52589 1.39875,2.30076 0.36869,0.27683 1.24057,0.22142 1.42502,-0.0242 0.12078,-0.16086 1.05941,-0.37005 1.32539,-0.72428 0.42724,-0.56902 0.65828,-4.82039 -0.24701,-5.50013 -0.37609,-0.28238 -1.04612,-0.78547 -1.39944,-1.05076 -0.20703,-0.15545 -0.573,0.204 -0.67514,0.27463 -0.31383,0.21702 -0.56345,0.10129 -0.85017,0.29954 -1.41114,0.97581 -1.52352,2.87443 -0.9774,4.42447 z"
         style="fill:#350335;fill-opacity:1;stroke:#ffffff;stroke-width:1px;stroke-linecap:butt;stroke-linejoin:miter;stroke-opacity:0" />
      <path
         inkscape:connector-curvature="0"
         id="path8890"
         d="m 516.625,358.11218 c -0.0932,0.44043 -0.0918,1.19133 0.125,1.625 0.50996,1.01992 0.6873,2.43731 1.375,3.125 0.37731,0.37731 0.1376,1.23741 0.375,1 0.51728,-0.51728 0.2192,-1.875 1.25,-1.875 0.29785,0 0.0241,0.54826 0.125,0.75 0.12172,0.24343 1.05545,1.19455 1.25,1 0.32654,-0.32654 0.15419,-2.09581 -0.125,-2.375 -0.30114,-0.30114 -1.44765,0.21368 -1.625,0.125 -0.20105,-0.10052 -0.27731,-0.52731 -0.375,-0.625 -0.31514,-0.31514 -0.96421,0.375 -1.125,0.375 -0.16286,0 -0.19345,-0.7619 -0.25,-0.875 -0.15057,-0.30115 -0.0507,-1.3007 -0.25,-1.5 -0.2602,-0.2602 -0.24475,-0.11844 -0.75,-0.75 z"
         style="fill:#a48787;fill-opacity:1;stroke:#ffffff;stroke-width:1px;stroke-linecap:butt;stroke-linejoin:miter;stroke-opacity:0" />
      <path
         id="path8870"
         d="m 508.625,338.625 c -0.17494,0 -0.40997,0.0549 -0.65625,0.1875 -4.5e-4,0.008 7.4e-4,0.023 0,0.0312 -0.0657,0.72409 -1.25588,2.51175 -1.46875,2.9375 -0.68741,1.37481 0.98582,1.97164 1.40625,2.8125 0.53517,1.07033 -0.76572,2.74982 -0.375,3.53125 0.41755,0.8351 1.34188,-0.0644 1.78125,0.375 0.27639,0.27639 -0.29775,0.5954 -0.34375,0.6875 -0.0217,0.0433 1.27514,7.3064 1.40625,7.4375 0.78207,0.78211 1.78125,-1.45198 1.78125,0.71875 0,0.97579 1.31549,4.35088 3.28125,4.4375 0.16495,0.39915 0.36155,0.79832 0.5625,1.1875 -0.10643,-0.52979 0.30942,-1.40933 -0.125,-1.84375 -0.45124,-0.45124 -1.20537,-0.83037 -1.625,-1.25 -0.347,-0.34703 0.0412,-1.20878 -0.25,-1.5 -0.91437,-0.91437 -0.21468,-1.05435 -0.75,-2.125 -0.26533,-0.53066 -0.69647,-0.89293 -1,-1.5 -0.35314,-0.70627 0.52069,-1.58363 0.125,-2.375 -0.38087,-0.76175 -1.66418,-0.57835 -2,-1.25 -0.33456,-0.66912 0.55011,-1.52478 0.25,-2.125 -0.19575,-0.3915 -0.67407,-0.42407 -0.875,-0.625 -0.0502,-0.0502 -0.9504,-2.47413 -0.875,-2.625 0.1314,-0.2628 0.75,-0.46665 0.75,-0.75 0,-0.0587 -0.1762,0.1619 -0.25,0.125 -0.3247,-0.16235 -0.375,-0.10221 -0.375,-0.5 0,-0.14714 1.21023,-0.78977 1,-1 -0.21855,-0.21855 -1.49403,-0.24403 -1.625,-0.375 -0.3125,-0.3125 -0.6875,-0.5625 -1,-0.875 -0.45171,-0.45171 1.70273,-3.75 1.25,-3.75 z m 7.5,24.625 c 0.20746,0.39437 0.43301,0.77227 0.625,1.15625 0.2501,0.50021 -0.0505,1.73077 0.34375,2.125 0.56223,0.56223 1.48793,-0.86541 1.78125,-0.71875 0.31265,0.15632 1.07593,1.69785 1.90625,1.1875 0.0506,-0.43531 -0.0148,-0.85856 -0.28125,-1.125 -0.13465,-0.13465 -0.69908,-0.0741 -0.875,-0.25 -0.2398,-0.23983 0.0248,-1.10024 -0.25,-1.375 -0.29095,-0.29095 -0.9395,1.00393 -1,1.125 -0.20668,0.41336 -0.308,-0.692 -0.625,-0.375 -0.21072,0.2107 -0.1696,0.5804 -0.5,0.25 -0.32695,-0.32695 0.53066,-0.96934 0.25,-1.25 -0.32296,-0.32296 -1.3096,-0.6846 -1.375,-0.75 z"
         style="fill:#a48787;fill-opacity:1;stroke:#ffffff;stroke-width:1px;stroke-linecap:butt;stroke-linejoin:miter;stroke-opacity:0"
         inkscape:connector-curvature="0" />
      <path
         inkscape:connector-curvature="0"
         id="path8054"
         d="m 511.14818,280.34191 c -0.0615,0.0175 -0.12377,0.0613 -0.1875,0.125 -0.4772,0.47719 -0.6557,1.06188 -0.8125,1.65625 -0.25611,0.31161 -0.42372,0.63878 -0.25,0.8125 -0.0258,0.103 -0.0332,0.21079 -0.0625,0.3125 -0.0994,-0.0628 -0.18121,-0.0688 -0.28125,0.0312 -1.46229,1.4623 -2.50277,6.40903 -4.25,8.15625 -0.46703,0.46704 -1.84702,4.65953 -2.125,4.9375 -1.10309,1.1031 -1.2013,4.04505 -2.09375,4.9375 -0.53033,0.53033 -0.18842,1.96967 -0.71875,2.5 -0.62079,0.62079 -0.82434,1.40826 -0.78125,2.28125 -0.31119,0.17607 -0.75851,0.52225 -1.25,0.9375 -1.59768,0.32105 -3.65899,0.84512 -5.40625,1.71875 -3.00422,1.50211 -5.54294,3.47459 -8.46875,4.9375 -1.2473,0.62365 -1.00868,1.35242 -1.78125,2.125 -3.53881,3.5388 1.40625,7.68931 1.40625,9.5625 0,0.78628 1.67656,2.02031 2.125,2.46875 1.77208,1.77208 2.93943,3.65818 4.59375,5.3125 3.70807,3.70808 13.40062,6.71875 19.8125,6.71875 0.81212,0 3.02233,0.13392 3.53125,-0.375 0.43337,-0.43337 1.25976,-0.88476 1.78125,-1.40625 0.87529,-0.8753 1.39775,-6.71025 2.125,-7.4375 0.33198,-0.33198 0.57326,-0.8615 0.75,-1.46875 1.99382,-2.00509 3.92286,-4.54383 5.40625,-7.375 3.17624,-2.09492 6.5625,-5.30247 6.5625,-7.75 0,-0.21575 0.13776,-1.29975 0,-1.4375 -1.29487,-1.29487 -2.62166,-1.41464 -3.84375,-2.21875 -0.0112,-0.11139 -0.0269,-0.21438 -0.0625,-0.25 -0.44492,-0.44492 -3.6667,-3.16332 -6.59375,-4.6875 -1.11987,-4.79174 -4.34375,-11.76875 -4.34375,-13.34375 0,-1.45205 -1.93362,-6.29595 -3.5,-9 -0.27993,-1.42569 -0.7438,-2.93407 -1.28125,-2.78125 z"
         style="fill:#8b058b;fill-opacity:1;stroke:#ffffff;stroke-width:1px;stroke-linecap:butt;stroke-linejoin:miter;stroke-opacity:0" />
      <path
         style="fill:#aa07aa;fill-opacity:1;stroke:#ffffff;stroke-width:1px;stroke-linecap:butt;stroke-linejoin:miter;stroke-opacity:0"
         d="m 532.46875,30 c -0.1888,0.345234 -0.30645,0.715453 -0.40625,1.09375 -0.25611,0.31161 -0.42372,0.63878 -0.25,0.8125 -0.0258,0.103 -0.0332,0.21079 -0.0625,0.3125 -0.0994,-0.0628 -0.18121,-0.06875 -0.28125,0.03125 -1.46229,1.4623 -2.50277,6.40903 -4.25,8.15625 -0.46703,0.46704 -1.84702,4.65953 -2.125,4.9375 -1.10309,1.1031 -1.2013,4.04505 -2.09375,4.9375 -0.53033,0.53033 -0.18842,1.96967 -0.71875,2.5 -0.62079,0.62079 -0.82434,1.40826 -0.78125,2.28125 -0.31119,0.17607 -0.75851,0.52225 -1.25,0.9375 -1.59768,0.32105 -3.65899,0.84512 -5.40625,1.71875 -3.00422,1.50211 -5.54294,3.47459 -8.46875,4.9375 -1.2473,0.62365 -1.00868,1.35242 -1.78125,2.125 -3.53881,3.5388 1.40625,7.68931 1.40625,9.5625 0,0.78628 1.67656,2.02031 2.125,2.46875 1.77208,1.77208 2.93943,3.65818 4.59375,5.3125 2.50804,2.508051 7.75828,4.689596 12.875,5.84375 0.15407,-0.03605 0.30239,-0.08364 0.40625,-0.1875 0.49534,-0.495346 -3.36045,-1.141701 -3.53125,-1.3125 -0.22493,-0.224937 -1.6212,-0.464943 -1.78125,-0.625 -0.21137,-0.211371 -0.63425,-0.478004 -0.875,-0.71875 -0.19279,-0.192796 -0.86531,-0.05281 -1.0625,-0.25 -0.4766,-0.476604 -0.93961,-0.689603 -1.3125,-1.0625 -0.69291,-0.692904 -1.78702,-0.974526 -2.40625,-1.59375 -0.085,-0.08497 -0.32405,-0.07405 -0.4375,-0.1875 -0.35448,-0.354483 -0.94059,-0.596837 -1.3125,-0.96875 -0.97474,-0.974738 -1.91751,-1.730011 -2.84375,-2.65625 -0.11348,-0.113446 -0.0713,-0.35252 -0.15625,-0.4375 l -1.34375,-1.3125 c -0.20255,-0.202547 -0.23495,-0.516203 -0.4375,-0.71875 -0.27227,-0.272275 -0.88398,-0.696475 -1.15625,-0.96875 -0.0442,-0.04419 0.0442,-0.23706 0,-0.28125 -0.68634,-0.68634 -0.75565,-2.068142 -1.59375,-2.90625 -0.1307,-0.130692 -1.06005,-1.752448 -0.875,-1.9375 0.0923,-0.09229 3.45261,-0.797392 3.28125,-0.96875 -0.45568,-0.45568 -3.16369,0.711305 -3.71875,0.15625 -0.19508,-0.195082 -0.22486,-0.837642 0,-1.0625 0.21294,-0.212939 -0.15463,-0.970378 0.0937,-1.21875 0.62164,-0.621643 1.08029,-1.36154 1.65625,-1.9375 0.0778,-0.07783 4.66777,2.050984 5.21875,1.5 0.0573,-0.05734 -1.07325,-0.73975 -1.21875,-0.8125 -0.66328,-0.331642 -1.38837,-0.575864 -1.875,-1.0625 -0.18024,-0.180236 -1.42243,-0.391183 -1.65625,-0.625 -0.15814,-0.158139 0.2259,-0.50713 0.25,-0.53125 0.71282,-0.712812 2.82456,-1.568529 3.875,-2.09375 0.49663,-0.248312 0.95846,-0.135482 1.4375,-0.375 0.56021,-0.280106 1.01591,-0.640914 1.5,-1.125 0.18661,-0.186614 0.63886,-0.232609 0.78125,-0.375 0.27295,-0.272944 0.71408,-0.52658 0.96875,-0.78125 0.17098,-0.170977 0.624,-0.09325 0.8125,-0.1875 0.8197,-0.409849 1.57211,-0.89664 2.375,-0.09375 0.18488,0.18487 0.6391,0.201603 0.875,0.4375 0.0621,0.06215 -0.62105,-1.378948 -0.4375,-1.5625 0.0962,-0.09625 0.90445,-0.533 0.96875,-0.46875 0.44845,0.448453 -0.19408,3.055919 0.28125,3.53125 0.13658,0.13657 0.083,0.426761 0.1875,0.53125 l 0.59375,0.625 c 0.0267,0.02665 0.375,0.51879 0.375,0.4375 0,-0.189494 -0.2751,-0.487698 -0.375,-0.6875 -0.14479,-0.289573 0.14226,-1.642254 0.28125,-1.78125 0.17252,-0.17252 -0.42077,-2.439706 -0.1875,-2.90625 0.17467,-0.349352 1.14079,0.515785 1.25,0.625 0.0219,0.02188 0.34375,0.04394 0.34375,0.09375 0,0.07128 -0.245,-0.3697 -0.25,-0.375 -0.21912,-0.21912 -0.53125,-0.422092 -0.53125,-0.875 0,-0.951137 0.2256,-1.076205 0.53125,-1.6875 0.0954,-0.190109 -0.0667,-0.308289 0.0625,-0.4375 -0.15866,-0.402173 0.36585,-0.325436 0.46875,-0.53125 0.37173,-0.743459 0.21479,-1.523331 0.59375,-2.28125 0.47321,-0.946413 0.95359,-1.532165 1.4375,-2.5 0.24206,-0.484117 -0.49344,-1.444046 -0.0937,-1.84375 0.29418,-0.294189 0.3459,-1.064648 0.625,-1.34375 0.76905,-0.769046 1.35173,-1.984706 1.9375,-3.15625 0.48738,-0.974759 0.51257,-2.106318 1.15625,-2.75 0.0536,-0.05362 0.54525,0.55387 0.6875,0.625 0.11894,0.05947 1.63858,0.486425 1.78125,0.34375 0.15128,-0.151283 -1.23392,-2.265169 -1.34375,-2.375 -0.18738,-0.187371 0.97938,-2.646248 1.15625,-3 0.0496,-0.09927 0.0262,-0.4637 0.0937,-0.53125 0.0417,-0.04167 0.1286,0 0.1875,0 -0.10991,-0.129712 0.3721,-0.400382 0.4375,-0.53125 0.36386,-0.727722 0.52646,-1.004792 1.15625,-0.375 0.26731,0.26731 0.66945,0.4375 0.59375,0.4375 -0.006,0 0.008,-0.23378 0,-0.25 -0.0784,-0.156849 -0.1754,-0.28836 -0.25,-0.4375 -0.13417,-0.268338 -0.75261,-1.377609 -0.875,-1.5 -0.18543,-0.185424 0.38322,-1.217204 0.0937,-1.75 z"
         id="path9320"
         transform="translate(-21.92031,251.02291)"
         inkscape:connector-curvature="0" />
      <path
         id="path8823"
         d="m 511.71875,280.8125 c -1.19202,1.62856 -1.92968,4.60157 -1.71875,4.8125 0.12937,0.12937 0.45805,0.0645 0.78125,0 -0.0474,0.0942 -0.0776,0.21461 -0.125,0.34375 -0.0101,0.0101 -0.0212,0.0212 -0.0312,0.0312 -0.002,0.002 7.8e-4,0.0261 0,0.0312 -0.0658,0.17519 -0.14691,0.36566 -0.25,0.46875 -1.36827,1.36827 0.85905,2.0635 1.625,3.1875 -1.13851,0.7244 -2.75035,1.43716 -2,2.1875 0.16826,0.16826 0.40005,0.24908 0.65625,0.28125 -1.3623,0.33238 -2.9649,0.5274 -3.40625,0.96875 -0.43083,0.43083 0.43915,1.25 0.875,1.25 0.2247,0 0.66885,0.14692 0.875,0.25 0.26667,0.13333 0.73333,-0.13333 1,0 0.0374,0.0187 0.0845,0.0212 0.125,0.0312 -0.47744,0.22387 -0.75588,0.457 -0.625,0.71875 0.42128,0.84255 1.71051,1.12553 3.25,1.21875 0.003,0.009 -0.003,0.022 0,0.0312 0.0749,0.2248 0.26649,0.71702 0.125,1 -0.86216,1.72433 -6.21854,1.21854 -7.75,2.75 -0.21309,0.2131 0.74721,0.5611 0.875,0.625 1.05885,0.52943 4.59262,-0.53238 5.25,0.125 0.0417,0.0417 -0.0833,0.0833 -0.125,0.125 -0.12788,0.12788 -0.22345,0.47345 -0.375,0.625 -0.0793,0.0793 -0.39593,-0.052 -0.5,0 -0.59457,0.29728 -1.36838,-0.0855 -2,0.125 -1.43292,0.47764 -3.15054,0.32527 -4.5,1 -0.74159,0.37079 -0.15138,0.97362 0.125,1.25 0.45532,0.45532 2.47704,0.16209 3.5,0.4375 -0.46854,0.39331 -0.78674,0.77576 -0.625,0.9375 0.0466,0.0466 0.54188,-0.14093 1.21875,-0.4375 0.0149,0.12341 -0.004,0.2589 -0.0937,0.4375 -0.15082,0.30165 -0.41025,0.64263 -0.875,0.875 -0.63752,0.31876 -3.6569,0.28191 -3.875,0.5 -0.50172,0.50172 0.84486,0.95257 0.25,1.25 -0.57535,0.28768 -2.3272,-1.0956 -3.25,0.75 -0.33188,0.66377 1.61626,3.73253 2,4.5 0.41819,0.83637 1.71971,0.84471 2.25,1.375 0.41298,0.41298 0.73992,0.93246 1.375,1.25 0.20407,0.102 0.50138,0.125 0.75,0.125 0.34941,0 1.70091,0.7991 1.125,1.375 -0.40266,0.40266 -1.69462,0 -2.25,0 -0.41755,0 -1.92034,0.32966 -2.25,0 -0.20933,-0.20933 -0.77509,-0.27509 -1,-0.5 -0.71818,-0.71818 -1.85276,-1.72776 -2.625,-2.5 -0.65187,-0.65187 -0.77416,-2.52416 -1.375,-3.125 -0.64949,-0.64949 -1.5802,1.7052 -1.625,1.75 -0.34601,0.34602 -1.16702,-0.29149 -1.5,-0.125 -1.30789,0.65395 -3.59777,0.22277 -4.75,1.375 -0.47794,0.47795 0.24734,1.12234 0.5,1.375 1.19925,1.19925 3.44483,1.27932 4,3.5 0.0947,0.37871 0.5,0.73608 0.5,1.125 0,1.7899 -2.15524,1.41381 -3.5,1.75 -0.10988,0.0275 -1.51498,0.48502 -1.25,0.75 0.1325,0.1325 0.92973,0.1849 1.125,0.25 0.93119,0.3104 2.00398,0.81449 2.875,1.25 0.73245,0.36623 2.0064,0.1314 2.625,0.75 0.73083,0.73083 -1.58864,1.69772 -1,2.875 0.38839,0.77679 1.6718,0.7734 2.375,1.125 0.48364,0.24184 1.43787,0.17834 2.40625,0.125 -1.06265,0.57613 -2.19654,1.14515 -2.90625,1.5 -1.00796,0.50398 -1.8201,1.33449 -2.0625,1.5625 0.36866,0.0492 1.16721,0.63514 1.5625,0.4375 2.27374,-1.13687 4.89813,-1.19906 7,-2.25 0.42989,-0.21494 0.76051,-0.38512 1.09375,-0.5625 0.17139,-0.006 0.32943,-0.0143 0.40625,0.0625 0.0467,0.0467 0.3919,0.7331 0.375,0.75 l -0.625,0.625 c -0.27892,0.27892 -1.31011,2.93989 -0.875,3.375 l 1.5,1.5 c 0.0884,0.0884 0.73616,0 0.875,0 1.56001,0 2.75404,-0.55948 3.6875,-1.375 0.006,0.72926 0.10669,1.41919 0.8125,2.125 0.59977,0.59977 3.03576,0.28536 4.65625,-0.0937 0.22643,-0.73067 0.42459,-1.73335 0.625,-2.71875 4.2e-4,-0.002 0.0308,0.002 0.0312,0 0.15432,-0.77367 0.31703,-1.51987 0.46875,-2.15625 0.0173,-0.0726 0.0451,-0.14975 0.0625,-0.21875 0.0778,-0.29838 0.13844,-0.57143 0.21875,-0.78125 0.0161,-0.0437 0.015,-0.0858 0.0312,-0.125 0.0181,-0.0426 0.0443,-0.0568 0.0625,-0.0937 0.0561,-0.11988 0.0975,-0.22247 0.15625,-0.28125 0.33198,-0.33198 0.57326,-0.8615 0.75,-1.46875 1.99382,-2.00509 3.92286,-4.54383 5.40625,-7.375 2.38218,-1.57119 4.86748,-3.77963 5.96875,-5.8125 0.0918,-0.16941 0.17854,-0.33333 0.25,-0.5 0.21439,-0.50001 0.34375,-0.97859 0.34375,-1.4375 0,-0.10788 0.0453,-0.43481 0.0625,-0.75 0.009,-0.15759 0.006,-0.31313 0,-0.4375 -0.006,-0.12437 -0.0281,-0.21556 -0.0625,-0.25 -1.29487,-1.29487 -2.62166,-1.41464 -3.84375,-2.21875 -0.0112,-0.11139 -0.0269,-0.21438 -0.0625,-0.25 -0.44492,-0.44492 -3.6667,-3.16332 -6.59375,-4.6875 -0.10336,-0.44227 -0.23893,-0.905 -0.375,-1.375 -0.13426,-0.47125 -0.28011,-0.947 -0.4375,-1.4375 -0.31778,-0.99033 -0.67003,-1.97238 -1.03125,-2.96875 -0.38512,-1.0623 -0.73913,-2.04458 -1.09375,-3 -0.34469,-0.92865 -0.63048,-1.76159 -0.875,-2.5 -0.14748,-0.43841 -0.25475,-0.79145 -0.34375,-1.125 -0.0109,-0.041 -0.0213,-0.0858 -0.0312,-0.125 -0.0841,-0.33482 -0.15625,-0.62617 -0.15625,-0.8125 0,-0.18113 -0.0381,-0.41154 -0.0937,-0.6875 -0.0445,-0.22013 -0.0815,-0.4819 -0.15625,-0.75 -0.0152,-0.0546 -0.0462,-0.13117 -0.0625,-0.1875 -0.16235,-0.55277 -0.40585,-1.20835 -0.65625,-1.875 -0.17273,-0.45987 -0.36207,-0.92633 -0.5625,-1.40625 -0.1999,-0.47934 -0.37765,-0.93452 -0.59375,-1.40625 -0.25269,-0.5516 -0.5235,-1.09376 -0.78125,-1.59375 -0.0341,-0.0663 -0.0597,-0.12249 -0.0937,-0.1875 -0.16819,-0.32114 -0.33716,-0.62515 -0.5,-0.90625 -0.17232,-0.87763 -0.43277,-1.779 -0.71875,-2.3125 z m -15.78125,51.625 c -0.12289,-0.0164 -0.1875,0.0402 -0.1875,0.1875 0,0.007 0.14822,-0.15055 0.1875,-0.1875 z"
         style="fill:#800080;fill-opacity:1;stroke:#ffffff;stroke-width:1px;stroke-linecap:butt;stroke-linejoin:miter;stroke-opacity:0"
         inkscape:connector-curvature="0" />
      <path
         inkscape:connector-curvature="0"
         id="path8866"
         d="m 515.25,308.86218 c -2.26553,1.43887 -5.17765,2.125 -8,2.125 -0.39818,0 -1.5934,-0.4066 -1.75,-0.25 -0.0331,0.0331 0,0.32353 0,0.375 0,1.20127 1.70949,1.35474 2.5,1.75 1.29882,0.64941 2.1802,0.625 3.5,0.625 0.15618,0 0.40403,-0.17298 0.5,-0.125 0.3361,0.16805 -0.4364,0.3136 -0.125,0.625 0.0195,0.0195 0.48052,0.0195 0.5,0 0.37554,-0.37553 1.51773,-0.69636 2.125,-1 0.45936,-0.22968 0.58362,-0.66681 1,-0.875 0.42869,-0.21434 2.07237,-0.44737 2.25,-0.625 0.16719,-0.16719 -0.67914,-0.77707 -0.875,-0.875 -0.68108,-0.34054 -1.12211,-1.12139 -1.625,-1.75 z"
         style="fill:#6f0471;fill-opacity:1;stroke:#ffffff;stroke-width:1px;stroke-linecap:butt;stroke-linejoin:miter;stroke-opacity:0" />
      <path
         id="path8837"
         d="m 513.5625,285.3125 c -0.50023,0.32465 -0.98972,0.76028 -0.6875,1.0625 0.16667,0.16667 0.45833,0.20833 0.625,0.375 0.0704,0.0704 0.58857,1.53643 0.375,1.75 -0.32626,0.32626 -1.75,1.21669 -1.75,1.625 0,0.0852 0.8331,0.2081 0.875,0.25 0.33925,0.33925 0.68139,1.2157 1.25,1.5 0.2081,0.10405 1.56449,0.43552 1.25,0.75 -0.30216,0.30216 -1.06521,0.69021 -1.375,1 -0.37457,0.37458 -3.25,0.17794 -3.25,1.5 0,0.0515 -0.0331,0.3419 0,0.375 0.59752,0.5975 2.24604,0.24604 2.625,0.625 0.39938,0.39938 -2.65095,1.25 -0.25,1.25 0.68998,0 2.37853,-0.29049 2.875,-0.125 0.35055,0.117 1.03832,-0.0433 1.375,0.125 0.0326,0.0163 0.0794,0.0348 0.125,0.0625 -0.91734,-2.46251 -1.6875,-4.54325 -1.6875,-5.3125 0,-1.11107 -1.14156,-4.20786 -2.375,-6.8125 z m 4.125,12.28125 c -0.22402,0.11435 -0.8048,0.46494 -0.9375,0.53125 -0.36542,0.18271 -2.87912,1.62088 -2.125,2.375 0.39574,0.39574 3.56451,1.3105 3,1.875 -0.33717,0.33718 -1.31124,0.28988 -1.625,1.125 -0.31731,-0.15866 -0.49386,0.0594 -1.125,0.375 -0.9728,0.4864 -2.77137,1.54879 -3.75,1.875 -1.09052,0.36351 -2.23659,0.4933 -3.25,1 -0.3725,0.18625 -1.5389,1.2111 -1,1.75 1.81838,1.81838 7.49125,-0.11625 9.5,-2.125 0.32032,-0.32032 2.18821,-2.06179 2.5,-1.75 0.64436,0.64436 -1.48941,3.39618 -1.25,3.875 0.38618,0.77236 2.1278,0.6889 2.75,1 0.77129,0.38564 0.82627,0.82627 1.375,1.375 0.41145,0.4115 1.81392,-0.24716 2.125,0.375 0.85944,1.71889 -4.01407,3.86093 -2.625,5.25 0.4104,0.4104 0.62971,0.25 1.375,0.25 0.11459,0 0.29659,0.0674 0.40625,0.0625 -0.10971,0.0752 -0.34356,0.24981 -0.53125,0.4375 -0.22377,0.22377 -0.93752,0.59376 -1.25,0.75 -0.49076,0.24538 -1.03254,1.03255 -1.375,1.375 -0.0487,0.0487 0,0.4237 0,0.5 0,1.78459 2.625,1.14786 2.625,1 0,-0.0111 -0.743,0.868 -0.75,0.875 -0.60368,0.60368 -0.83272,1.45772 -1.5,2.125 -0.25184,0.25185 -0.18168,0.55668 -0.375,0.75 l -1.75,1.75 c -0.43497,0.43497 -0.69535,1.57035 -1.125,2 -0.43895,0.43895 -0.35283,1.58066 -0.625,2.125 -0.25284,0.50569 -0.2548,1.1346 -0.5,1.625 -0.51543,1.03087 -1.36066,2.51434 -0.375,3.5 0.32601,0.32601 0.79823,0.26537 1.25,0.0937 0.45267,-2.02379 0.83989,-4.58989 1.3125,-5.0625 0.33198,-0.33198 0.57326,-0.8615 0.75,-1.46875 1.99382,-2.00509 3.92286,-4.54383 5.40625,-7.375 3.17624,-2.09492 6.5625,-5.30247 6.5625,-7.75 0,-0.21575 0.13776,-1.29975 0,-1.4375 -1.29487,-1.29487 -2.62166,-1.41464 -3.84375,-2.21875 -0.0112,-0.11139 -0.0269,-0.21438 -0.0625,-0.25 -0.44492,-0.44492 -3.6667,-3.16332 -6.59375,-4.6875 -0.55993,-2.39587 -1.6478,-5.3349 -2.59375,-7.875 z"
         style="fill:#640466;fill-opacity:1;stroke:#ffffff;stroke-width:1px;stroke-linecap:butt;stroke-linejoin:miter;stroke-opacity:0"
         inkscape:connector-curvature="0" />
      <path
         inkscape:connector-curvature="0"
         id="path8888"
         d="m 511.375,341.61218 c -0.0598,-0.7243 -1.06706,0.86588 -0.875,1.25 0.28104,0.56208 1.38064,0.88627 1.875,1.875 0.27079,0.54159 -0.42936,1.39128 -0.125,2 0.58106,1.16211 0.42822,2.60643 0.875,3.5 0.44382,-0.73969 0.50764,-0.75764 0.875,-1.125 0.41602,-0.41602 -0.59866,-1.05267 -0.375,-1.5 0.11073,-0.22147 0.1865,-2.627 0.125,-2.75 -0.12001,-0.24001 -0.73038,-0.23038 -0.875,-0.375 -0.57589,-0.57589 0.78897,-2.52393 -1.5,-2.875 z"
         style="fill:#a48787;fill-opacity:1;stroke:#ffffff;stroke-width:1px;stroke-linecap:butt;stroke-linejoin:miter;stroke-opacity:0" />
      <path
         inkscape:connector-curvature="0"
         id="path8905"
         d="m 516.625,348.73718 c -0.26747,-0.37317 -0.25,-0.50493 -0.25,-0.875 0,-0.62448 0.45516,-1.38453 0.25,-2 -0.25541,-0.76623 -1,-1.26708 -1,-2.25 0,-0.19491 0.14662,-1.11419 0.375,-1 0.64261,0.32131 0.89765,2.89765 1.375,3.375 0.49142,0.49142 1.26459,-1.875 1.75,-1.875 0.0303,0 -0.0969,0.68125 0.125,1.125 0.12668,0.25336 0.24312,0.24312 0.375,0.375 0.57087,0.57087 -1.29486,1.52243 -1.5,1.625 -0.5449,0.27245 -0.12397,0.74897 -0.375,1 -0.13446,0.13446 -0.87051,0.34731 -1.125,0.5 z"
         style="fill:#a48787;fill-opacity:1;stroke:#ffffff;stroke-width:1px;stroke-linecap:butt;stroke-linejoin:miter;stroke-opacity:0" />
      <path
         id="path8922"
         d="m 526.53125,344.28125 c -0.27483,0.13294 -0.55518,0.24268 -0.65625,0.34375 -0.70296,0.70296 0.24449,0.88602 -0.125,1.625 -0.20065,0.40129 -1.07817,0.84366 -0.75,1.5 0.156,0.31199 0.77329,0.74939 1.03125,1.15625 0.29389,-0.34916 0.59375,-0.6895 0.59375,-0.78125 0,-1.46371 -0.51365,-2.76257 -0.0937,-3.84375 z"
         style="fill:#916f6f;fill-opacity:1;stroke:#ffffff;stroke-width:1px;stroke-linecap:butt;stroke-linejoin:miter;stroke-opacity:0"
         inkscape:connector-curvature="0" />
      <path
         id="path8968"
         d="m 556.09375,324.40625 c -0.9114,0.16665 -4.19682,1.22807 -4.375,1.40625 -0.9279,0.9279 -2.87561,0.75061 -3.875,1.75 -0.63447,0.63447 -0.0928,3.28031 -1.0625,4.25 -0.5448,0.5448 -1.72938,0.51062 -2.125,0.90625 -0.17414,0.17414 -2.63545,3.11465 -2.84375,3.53125 -0.0145,0.0289 -0.0187,0.0634 -0.0312,0.0937 0.37641,3.56666 0.093,5.91514 0.53125,6.59375 0.0122,0.007 0.0186,0.0249 0.0312,0.0312 0.12727,0.0636 0.27179,0.10797 0.40625,0.15625 0.009,0.003 0.0221,-0.003 0.0312,0 0.70411,-0.0961 2.09251,-1.34561 4.96875,-3.96875 1.67271,-1.09043 3.78751,-1.06853 5.5625,-1.90625 1.07196,-0.98612 2.29743,-2.09207 2.5625,-3.59375 -2.43391,0.87791 -5.53439,2.62186 -6.28125,1.875 -0.24952,-0.24952 0.97205,-1.50331 1.25,-1.78125 1.24893,-1.24893 2.91367,-1.80844 4.28125,-2.5 0.052,-0.24246 0.22051,-0.494 0.59375,-0.71875 0.7275,-0.75853 1.73935,-1.57331 2.09375,-2.59375 -0.64487,0.10199 -1.58386,0.77136 -1.6875,0.875 -0.3738,0.3738 -2.98788,0.17537 -3.34375,0.53125 -0.10676,0.10675 -2.42081,1.14169 -2.84375,0.71875 -0.2757,-0.27569 0.48005,-0.66755 0.53125,-0.71875 l 2.3125,-2.28125 c 0.9145,-0.91451 2.47004,-0.87629 3.1875,-1.59375 0.0587,-0.0587 0.56358,-0.84267 0.34375,-1.0625 -0.0177,-0.0177 -0.0886,-0.0238 -0.21875,0 z"
         style="fill:#e9b282;fill-opacity:1;stroke:#ffffff;stroke-width:1px;stroke-linecap:butt;stroke-linejoin:miter;stroke-opacity:0"
         inkscape:connector-curvature="0" />
      <path
         inkscape:connector-curvature="0"
         id="path8337"
         d="m 541.40625,327.5 c -1.74979,0.30884 -3.83591,5.11882 -4.4375,6.1875 -1.69542,3.01182 -7.49318,9.75869 -7.96875,12.21875 -0.10074,0.5211 -1.06727,0.95086 -2.03125,1.25 0.133,0.15818 0.1678,0.31182 0.40625,0.46875 0.0246,0.0162 0.0689,0.046 0.0937,0.0625 -0.0635,0.0415 -0.12576,0.11345 -0.1875,0.15625 -0.0737,-0.13686 -0.1305,-0.27329 -0.1875,-0.40625 -0.68542,0.005 -1.3916,-0.0184 -1.59375,-0.125 -2.59723,-1.36895 -8.15329,0.60956 -11.09375,0.125 -2.01305,-0.33173 -4.12201,-0.89862 -5.875,-1.1875 -1.02412,-0.16879 -2.24179,0.84991 -3.34375,-0.0312 -3.84935,3.11812 -4.67448,10.12776 1.1875,11.09375 3.35525,0.55292 6.0897,1.96588 10.46875,2.6875 3.10933,0.51238 6.52062,-0.53765 9.59375,-0.0312 0.40362,0.0665 0.9544,-0.11406 1.53125,-0.40625 0.008,0.005 0.0228,-0.005 0.0312,0 0.63629,0.37005 1.44634,0.23806 2.46875,-0.40625 0.79846,0.28136 3.58363,-1.52824 4.03125,-2.03125 2.09516,-2.3544 6.40185,-6.73426 8.34375,-10.1875 1.32306,-0.49683 2.20428,-1.36053 3.15625,-2.3125 0.26685,-0.26684 -0.0384,-2.49493 -0.4375,-4.75 -0.009,-0.0536 -0.0217,-0.10265 -0.0312,-0.15625 -0.35036,-3.5239 -1.11473,-8.67723 -2.03125,-9.59375 -0.0724,-0.0724 -0.28917,-0.76153 -0.4375,-1.4375 -0.65781,-0.70801 -1.15766,-1.15757 -1.3125,-1.1875 -0.11312,-0.0219 -0.2271,-0.0206 -0.34375,0 z"
         style="fill:#800080;fill-opacity:1;stroke:#ffffff;stroke-width:1px;stroke-linecap:butt;stroke-linejoin:miter;stroke-opacity:0" />
      <path
         style="fill:#6f0471;fill-opacity:1;stroke:#ffffff;stroke-width:1px;stroke-linecap:butt;stroke-linejoin:miter;stroke-opacity:0"
         d="m 532.27463,110.8495 c 0.1826,-0.39533 -0.11635,-1.53056 -1.41421,-2.82842 -0.89941,-0.89941 -3.30083,-1.53306 -3.88909,-2.12133 -0.76486,-0.76486 -1.87957,-1.70279 -3.0052,-2.82842 -0.32489,-0.32489 -0.2764,-1.2599 -0.53033,-1.76777 -0.41959,-0.83916 0.0947,-1.685657 0.53033,-2.12132 2.28967,-2.289676 6.73802,2.67216 7.95495,3.88909 0.61062,0.61062 2.04246,0.80503 2.65165,1.41421 0.66461,0.66462 7.87051,0.61477 8.66206,-0.17678 0.35355,-0.35355 -0.17678,-1.59099 0.17677,-1.94454 0.2357,-0.2357 0.82496,-0.11785 1.06066,-0.35355 0.18308,-0.18308 0.59603,0.12123 0.70711,0.17677 0.60367,0.30184 1.1092,0.20105 1.76777,0.53033 0.8091,0.40455 1.21716,1.7475 1.76776,2.2981 0.34395,0.34395 1.65092,-0.0599 1.94455,-0.35355 0.30602,-0.30602 1.51591,0.17677 1.76776,0.17677 0.42582,0 4.11998,-2.52898 4.41942,-2.82842 0.36685,-0.36685 -0.53668,-0.87118 -0.35355,-1.23744 0.22878,-0.45756 3.08745,-1.319684 3.53553,-1.767766 0.43593,-0.435928 0.49095,-1.374829 0.88388,-1.767767 0.6335,-0.633498 -2.30403,-1.938606 -1.59099,-2.651651 0.83871,-0.838707 2.27777,-1.393882 3.00521,-2.12132 0.6175,-0.617498 -0.35904,-2.469388 0.17678,-3.005204 1.24628,-1.246284 1.79351,-2.625905 3.35875,-1.06066 0.24879,0.248788 0.3399,0.87023 0.53033,1.06066 0.85734,0.857335 -1.06066,4.073638 -1.06066,4.419417 0,1.317937 -1.5561,1.909651 -2.29809,2.651651 -0.44355,0.443544 -0.46985,2.591163 -0.88389,3.005204 -0.38742,0.387423 -0.80794,0.908776 -1.06066,1.414216 -0.5079,1.01581 -2.2751,1.39122 -3.0052,2.12132 -0.62692,0.62691 -1.05802,1.2348 -1.76777,1.94454 -0.38081,0.38081 -1.24122,0.53411 -1.76777,1.06066 -0.10246,0.10246 -0.25109,0.60465 -0.35355,0.70711 -0.59122,0.59122 -2.04852,0.6343 -2.65165,1.23744 -0.0725,0.0725 -4.01629,0.5799 -4.06586,0.53033 -1.3843,-1.3843 -7.61724,-0.27309 -9.8995,-1.41422 -0.0113,-0.006 -5.42409,-0.70711 -5.48008,-0.70711 -0.0512,0 -2.45064,-0.32932 -1.76776,0.35356 1.14448,1.14448 2.40911,1.74303 1.94454,4.06586 z"
         id="path9381"
         inkscape:connector-curvature="0"
         transform="translate(-21.92031,251.02291)" />
      <path
         id="path8791"
         d="m 531.1875,330.75 c 0.0114,0.0472 0.0312,0.18259 0.0312,0.1875 0,0.69462 0.12595,2.15529 -0.28125,2.5625 -0.40551,0.4055 -0.99023,0.83397 -1.40625,1.25 -0.16755,0.16755 -1.44532,0.4375 -1.59375,0.4375 -0.57155,0 -1.41,-0.40438 -2.03125,-0.0937 -0.14777,0.0739 -0.33121,0.19113 -0.5,0.3125 0.0204,0.004 0.0431,0.0118 0.0625,0.0312 0.0991,0.0991 0.16248,0.2449 0.21875,0.40625 10e-4,0.004 0.03,-0.004 0.0312,0 0.39949,0.0612 0.97008,-0.0326 1.15625,-0.21875 0.29462,-0.29461 -0.29461,0.10712 0,-0.1875 0.10367,-0.10367 1.59967,0.36907 1.875,0.0937 0.19719,-0.19719 0.86971,-0.0572 1.0625,-0.25 0.14174,-0.14174 0.47599,-0.25724 0.59375,-0.375 0.56116,-0.56116 0.95401,-0.98668 1.09375,-1.40625 0.0488,-0.14658 0.083,-0.28413 0.0625,-0.4375 -0.002,-0.0178 0.003,-0.0445 0,-0.0625 0.0494,-0.73262 -0.10112,-1.49966 -0.375,-2.25 z"
         style="fill:#e7a974;fill-opacity:1;stroke:#ffffff;stroke-width:1px;stroke-linecap:butt;stroke-linejoin:miter;stroke-opacity:0"
         inkscape:connector-curvature="0" />
      <path
         id="path8799"
         d="m 528.6875,327.09375 c -0.009,0.008 -0.0229,0.0229 -0.0312,0.0312 -0.10233,0.10233 0.75207,1.47082 0.875,1.59375 0.0369,0.0369 0.10185,1.77312 0.0937,1.78125 -0.30668,0.30668 -0.11653,1.08977 -0.15625,1.28125 0.0115,-0.057 0.40107,-0.55732 0.78125,-0.9375 0.39209,-0.3921 0.23136,0.54989 0.4375,0.34375 0.15476,-0.15476 0.29482,-0.33639 0.4375,-0.53125 -0.5314,-1.39236 -1.47206,-2.70353 -2.4375,-3.5625 z"
         style="fill:#f5ceae;fill-opacity:1;stroke:#ffffff;stroke-width:1px;stroke-linecap:butt;stroke-linejoin:miter;stroke-opacity:0"
         inkscape:connector-curvature="0" />
      <path
         inkscape:connector-curvature="0"
         id="path8812"
         d="m 499.125,315.23718 c 0.24734,0.77677 3.48171,3.36586 5.5,4.375 1.82446,0.91223 4.32704,-0.22602 5.875,-1 0.61302,-0.30651 1.79497,-1.91997 2.25,-2.375 0.23332,-0.23332 0.79492,-0.41992 1,-0.625 0.23698,-0.23698 0.69861,-2 1,-2 0.1257,0 -0.74634,0.49634 -1.25,1 -1.01267,1.01267 -1.94306,1.81806 -2.75,2.625 -0.50973,0.50973 -1.35324,0.60324 -1.75,1 -1.82551,1.82552 -4.34837,1.15163 -6.125,-0.625 -0.29593,-0.29593 -1.06152,-0.56152 -1.375,-0.875 -0.72376,-0.72376 -2.11636,-0.20681 -2.375,-1.5 z"
         style="fill:#640466;fill-opacity:1;stroke:#ffffff;stroke-width:1px;stroke-linecap:butt;stroke-linejoin:miter;stroke-opacity:0" />
      <path
         id="path8814"
         d="m 512.3125,282.625 c -0.10248,0.12592 -0.2159,0.2784 -0.3125,0.375 -0.35059,0.35059 -1.1083,0.4833 -1.375,0.75 -0.35308,0.35308 1.36996,-0.28202 2.03125,-0.21875 -0.0739,-0.13395 -0.14616,-0.28094 -0.21875,-0.40625 -0.033,-0.16828 -0.087,-0.33229 -0.125,-0.5 z M 513,284.1875 c -0.24176,0.50688 -1.25535,0.94285 -1.375,1.0625 -0.0173,0.0173 -0.14683,0.11707 -0.28125,0.21875 0.19903,-0.003 0.48156,0.0895 0.65625,0.0312 0.29992,-0.1 0.67367,-0.375 1,-0.375 0.21822,0 0.4901,0.232 0.75,0.59375 -0.24493,-0.53169 -0.50095,-1.04896 -0.75,-1.53125 z m -1.65625,1.28125 c -0.11942,0.002 -0.21875,0.0458 -0.21875,0.15625 0,0.01 0.11735,-0.0795 0.21875,-0.15625 z M 515,288.65625 c -0.0416,1.01123 -2.01058,1.10433 -2.5,1.59375 -0.10197,0.10197 -0.75,-0.1618 -0.75,0.125 0,0.33807 3.54005,-0.58495 3.625,-0.5 0.0625,0.0625 -0.0625,0.3125 0,0.375 0.0744,0.0744 0.14458,0.1464 0.21875,0.25 -0.15925,-0.54221 -0.34946,-1.19118 -0.59375,-1.84375 z m 1.1875,4.65625 c -0.022,0.0632 -0.0328,0.12811 -0.0625,0.1875 -0.052,0.10407 0.0793,0.42071 0,0.5 -0.29996,0.29996 -0.75409,0.25409 -1,0.5 -0.34869,0.34869 -1.71958,0.25 -2.25,0.25 -0.61823,0 -1.24764,-0.10986 -1.3125,-0.125 0.11336,0.1117 -0.0943,0.59319 0.0625,0.75 0.1764,0.1764 0.94859,0.40071 1.25,0.25 0.33244,-0.16622 2.22112,-0.47112 2.25,-0.5 0.11364,-0.11364 1.27516,-0.72484 1.375,-0.625 0.009,0.009 0.0641,0.0631 0.0937,0.0937 -0.16255,-0.46918 -0.2998,-0.91422 -0.40625,-1.28125 z m 0.59375,1.8125 c -0.41322,0.45701 -2.51354,1.23229 -2.65625,1.375 -0.1199,0.1199 0.84961,-0.25 1.75,-0.25 0.13848,0 0.80475,-0.38496 1.1875,-0.34375 -0.0956,-0.26115 -0.19463,-0.53821 -0.28125,-0.78125 z m 1.125,3.0625 c 0.12416,0.60642 0.25373,1.27752 0.0937,1.4375 -0.0572,0.0572 -0.65292,0.72208 -0.625,0.75 0.28156,0.28156 0.99588,0.62088 1.25,0.875 0.11299,0.11299 0.73805,3.36305 1.25,3.875 0.0834,0.0834 0.17656,0.0206 0.28125,-0.0625 -0.53596,-2.13636 -1.41108,-4.61488 -2.25,-6.875 z m 2.53125,7.375 c -1.00014,1.76629 -3.4521,4.1507 -6.1875,5.0625 -0.53887,0.17963 -1.23649,0.36149 -1.625,0.75 -0.20611,0.20611 -0.47611,0.10111 -0.625,0.25 -0.0303,0.0303 -0.0782,0.0787 -0.125,0.125 0.22462,0.0169 0.54231,0.125 0.75,0.125 0.52728,0 1.16176,-0.51838 1.625,-0.75 0.56351,-0.28175 1.17448,-0.33724 1.75,-0.625 1.96088,-0.98044 3.47599,-2.22599 4.75,-3.5 0.0258,-0.0258 0.53439,-0.84061 0.625,-0.75 0.0578,0.0578 -0.0377,0.29953 0,0.375 0.33746,0.67491 1.72878,1.22878 2.125,1.625 0.90734,0.90734 1.79976,1.67476 2.625,2.5 0.10417,0.10417 0.0208,0.39583 0.125,0.5 0.33879,0.3388 0.96652,-0.31695 1.25,0.25 0.29882,0.59764 -0.97506,2.72507 -1.25,3 -0.30601,0.30601 -0.44242,0.87513 -0.46875,0.9375 0.0549,-0.0328 0.16934,-0.0131 0.21875,-0.0625 0.5706,-0.5706 1.19537,-1.07037 1.625,-1.5 0.10341,-0.1034 1.23046,-1.875 1.25,-1.875 0.31403,0 0.56455,0.68955 0.75,0.875 0.86223,0.86223 -3.54392,4.66892 -4.125,5.25 -0.51859,0.5186 -1.12956,0.87956 -1.5,1.25 -0.0964,0.0964 -0.23359,0.34956 -0.3125,0.46875 0.0948,-0.0493 0.38535,-0.0676 0.4375,-0.0937 0.17839,-0.0892 0.15149,-0.25 0.375,-0.25 0.3715,0 4.02887,-2.65387 4.25,-2.875 0.44955,-0.44955 1.08129,-1.03757 1.375,-1.625 0.13522,-0.27043 0.25166,-1.12334 0.5,-0.875 0.7003,0.7003 -2.38914,3.76415 -2.75,4.125 -0.31314,0.31314 -0.78921,0.41421 -1.125,0.75 -0.90972,0.90972 -2.01458,2.26458 -3,3.25 -0.14622,0.14622 -0.64926,0.27426 -0.875,0.5 -0.85206,0.85206 -1.61567,1.49068 -2.25,2.125 -0.19314,0.19314 -0.10223,0.60223 -0.25,0.75 -0.75053,0.75053 -1.06222,2.06222 -1.75,2.75 -0.0497,0.0497 -0.53306,1.65806 -0.875,2 -0.25,0.25 0,1 -0.25,1.25 -0.26489,0.26489 -1.48302,4.39198 -1.25,4.625 0.0966,0.0966 0.23011,0.13636 0.34375,0.1875 0.52586,-2.0598 0.9405,-5.253 1.46875,-5.78125 0.33198,-0.33198 0.57326,-0.8615 0.75,-1.46875 1.99382,-2.00509 3.92286,-4.54383 5.40625,-7.375 3.17624,-2.09492 6.5625,-5.30247 6.5625,-7.75 0,-0.21575 0.13776,-1.29975 0,-1.4375 -1.29487,-1.29487 -2.62166,-1.41464 -3.84375,-2.21875 -0.0112,-0.11139 -0.0269,-0.21438 -0.0625,-0.25 -0.43688,-0.43688 -3.55388,-3.05584 -6.4375,-4.59375 z m 3.25,14.28125 c -0.0163,0.008 -0.0625,0.021 -0.0625,0.0312 0,0.072 0.0208,0.0317 0.0625,-0.0312 z M 511.875,311.75 c -0.13588,-0.0102 -0.25,-6.4e-4 -0.25,0.125 0,0.10731 0.13293,-0.009 0.25,-0.125 z"
         style="fill:#5b005b;fill-opacity:1;stroke:#ffffff;stroke-width:1px;stroke-linecap:butt;stroke-linejoin:miter;stroke-opacity:0"
         inkscape:connector-curvature="0" />
      <path
         inkscape:connector-curvature="0"
         id="path8819"
         d="m 506.75,307.73718 c 1.16019,-0.10379 2.24063,-0.875 3.375,-0.875 1.19097,0 4.08863,-1.73181 5.125,-2.25 0.29683,-0.14841 1.00952,-1.125 1.25,-1.125 0.0932,0 -0.0833,0.16667 -0.125,0.25 -0.53405,1.06811 -0.71438,0.83938 -1.5,1.625 -0.082,0.0819 -0.43737,0.0624 -0.5,0.125 -0.9928,0.9928 -5.88023,2.94791 -7.625,2.25 z"
         style="fill:#5b005b;fill-opacity:1;stroke:#ffffff;stroke-width:1px;stroke-linecap:butt;stroke-linejoin:miter;stroke-opacity:0" />
      <path
         inkscape:connector-curvature="0"
         id="path8821"
         d="m 506.75,301.11218 c 1.97127,0.20817 4.29846,-0.39923 6,-1.25 0.33181,-0.16591 2.03609,-1.08891 1.875,-1.25 -0.15857,-0.15857 -1.10962,0.17981 -1.25,0.25 -2.18768,1.09384 -4.63826,1.05796 -6.625,2.25 z"
         style="fill:#5b005b;fill-opacity:1;stroke:#ffffff;stroke-width:1px;stroke-linecap:butt;stroke-linejoin:miter;stroke-opacity:0" />
      <path
         inkscape:connector-curvature="0"
         id="path8864"
         d="m 516.5,313.23718 c -2.05851,0.75545 -3.70459,2.82959 -5.25,4.375 -0.17512,0.17513 -0.33515,0.60508 -0.625,0.75 -0.70284,0.35142 -1.39237,0.75579 -2.125,1 -0.32047,0.10683 -0.67762,0.0175 -1,0.125 -0.55303,0.18435 -1.51489,0.45337 -2.125,0.25 -0.3695,-0.12317 -5.1089,-1.0161 -5.25,-0.875 -1.39519,1.3952 1.77957,4.01478 2.75,4.5 0.20227,0.10114 0.78432,0 1,0 0.53002,0 1.37952,0.16516 1.875,0 0.70116,-0.23372 4.33789,-1.76855 4.875,-1.5 1.27828,0.63914 -2.00569,5.12785 -0.25,4.25 1.08375,-0.54187 3.25,-3.18695 3.25,-4.375 0,-0.88244 -1.92848,-1.82152 -0.875,-2.875 1.24759,-1.24759 3.24586,-2.49586 4.75,-4 0.0373,-0.0373 0.31479,-1.1852 0.25,-1.25 -0.24765,-0.24765 -0.72235,-0.26947 -1.25,-0.375 z"
         style="fill:#6f0471;fill-opacity:1;stroke:#ffffff;stroke-width:1px;stroke-linecap:butt;stroke-linejoin:miter;stroke-opacity:0" />
      <path
         inkscape:connector-curvature="0"
         id="path8868"
         d="m 498.625,323.48718 c 0.41841,1.44298 4.66559,2.36147 6.125,1.875 0.2746,-0.0915 1.82196,-0.55304 2.125,-0.25 0.20955,0.20955 -1.40972,1.84028 -0.875,2.375 0.50844,0.50844 3.87124,-0.004 4.375,0.5 0.32646,0.32646 -0.46726,0.67113 -0.625,0.75 -1.33566,0.66783 -3.23363,-0.125 -4.5,-0.125 -0.36526,0 -0.57552,-0.22526 -0.875,-0.375 -0.30118,-0.15059 -1.01218,-0.0122 -1.25,-0.25 -0.34406,-0.34406 0.75,-1.93146 0.75,-1.5 0,0.0608 -1.7493,-0.0831 -1.875,-0.125 -1.5034,-0.50113 -3.375,-1.12625 -3.375,-2.875 z"
         style="fill:#8b058b;fill-opacity:1;stroke:#ffffff;stroke-width:1px;stroke-linecap:butt;stroke-linejoin:miter;stroke-opacity:0" />
      <path
         inkscape:connector-curvature="0"
         id="path8909"
         d="m 520.875,338.98718 c -0.16667,0.0833 -0.41667,0.41667 -0.5,0.25 -0.0833,-0.16667 0.58333,-0.41667 0.5,-0.25 -0.13802,0.27604 -1.80711,1.31789 -1.375,1.75 0.3173,0.3173 1.65581,-0.21919 2,0.125 0.15417,0.15417 -0.1125,0.2375 -0.125,0.25 -0.10819,0.10819 0.0728,2.94776 0.125,3 0.32294,0.32294 0.80987,-0.44013 1.125,-0.125 0.0881,0.0881 -0.048,2.79798 0.875,1.875 0.59614,-0.59614 -0.25,-1.41249 -0.25,-2.125 0,-1.03616 1.24759,-2.50483 1,-3 -0.29605,-0.5921 -1.88031,-0.0106 -2,-0.25 -0.4942,-0.9884 0.53824,-1.11735 -1.375,-1.5 z"
         style="fill:#916f6f;fill-opacity:1;stroke:#ffffff;stroke-width:1px;stroke-linecap:butt;stroke-linejoin:miter;stroke-opacity:0" />
      <path
         id="path8924"
         d="M 523.34375,334.5625 C 523.14445,334.6187 523,334.92848 523,335.625 c 0,1.60662 1.44385,0.69385 2.25,1.5 0.4642,0.4642 -1.00523,1.61977 -0.75,1.875 0.23983,0.23983 0.85024,0.22524 1.125,0.5 0.26786,0.26786 -0.46267,0.96267 -0.5,1 -0.17094,0.17094 0.78576,0.94652 0.875,1.125 0.16421,0.32842 -0.39696,0.97804 -0.125,1.25 0.25598,0.25598 0.70676,-0.43815 1.25,0.4375 0.51433,-1.02149 -0.39531,-3.78878 -1.40625,-5.40625 0.41671,-0.29653 0.74997,-0.56247 0.90625,-0.71875 0.40563,-0.40563 0.43437,-1.07326 0.21875,-1.8125 -0.14969,-0.0182 -0.32478,-0.072 -0.40625,-0.0312 -0.20442,0.10221 -0.51499,0.15561 -0.84375,0.1875 -0.20959,0.14847 -0.44013,0.23306 -0.71875,0.0937 -0.0336,-0.0168 -0.0845,-0.0948 -0.125,-0.125 -0.25062,-0.043 -0.46785,-0.0928 -0.59375,-0.21875 -0.11158,-0.11158 -0.15668,-0.26516 -0.1875,-0.4375 -0.23102,-0.18371 -0.44924,-0.33078 -0.625,-0.28125 z"
         style="fill:#916f6f;fill-opacity:1;stroke:#ffffff;stroke-width:1px;stroke-linecap:butt;stroke-linejoin:miter;stroke-opacity:0"
         inkscape:connector-curvature="0" />
      <path
         id="path8911"
         d="m 525.09375,359.5625 c -0.27104,0.45407 -0.91061,0.69623 -1.21875,1.3125 -0.22055,0.44111 0.97254,0.77747 0.375,1.375 -0.20261,0.20262 -1.60047,-2 -2.125,-2 -0.91848,0 1,1.77448 1,2.375 0,0.46424 -2.26033,2.02863 -1.1875,2.6875 0.35797,-0.7436 0.69668,-1.50918 1.15625,-1.96875 0.12794,-0.12794 0.18025,-0.29857 0.1875,-0.46875 0.0604,-0.0904 0.13425,-0.19675 0.1875,-0.25 0.23178,-0.23178 1.22912,-0.16662 1.40625,-0.34375 0.4378,-0.4378 0.36987,-1.55654 0.21875,-2.71875 z"
         style="fill:#916f6f;fill-opacity:1;stroke:#ffffff;stroke-width:1px;stroke-linecap:butt;stroke-linejoin:miter;stroke-opacity:0"
         inkscape:connector-curvature="0" />
      <path
         style="fill:#640466;fill-opacity:1;stroke:#ffffff;stroke-width:1px;stroke-linecap:butt;stroke-linejoin:miter;stroke-opacity:0"
         d="m 566.78125,87.3125 c -0.069,0.0029 -0.12518,0.03143 -0.15625,0.0625 -0.22917,0.229167 0.10417,1.020833 -0.125,1.25 -0.61548,0.615484 -1.96009,0.835088 -2.625,1.5 -0.0336,0.03363 1.09654,2.528463 0,3.625 -0.83319,0.83319 -3.30284,1.052843 -4.25,2 -0.46487,0.46487 3.74417,1.380829 2.5,2.625 -0.65871,0.658715 -0.74141,2.03881 -1.75,2.375 -0.54903,0.18301 -2.73541,0.11041 -3,0.375 -0.51592,0.51593 0.39886,0.70229 0.125,1.25 -0.47346,0.94691 -1.76172,2.13672 -2.375,2.75 -0.082,0.082 -0.4374,0.0624 -0.5,0.125 -0.94633,0.94633 -1.83808,-0.91191 -2.375,-0.375 -0.53919,0.5392 0.50908,2.24546 -0.25,2.625 -0.22576,0.11288 -0.5838,-0.0419 -0.75,-0.125 -1.0547,-0.52736 -0.24027,-1.61527 -1,-2.375 -0.85214,-0.85214 -1.20545,1.1609 -1.375,1.5 -0.15199,0.304 -0.55622,0.18122 -0.75,0.375 -0.0125,0.0125 -0.0958,0.27917 -0.25,0.125 -0.36746,-0.36746 -0.60177,-1.47677 -1,-1.875 -0.1478,-0.14777 0.0681,-0.68186 -0.125,-0.875 -0.34686,-0.34686 -1.53551,-0.98224 -2.25,-0.625 -1.18443,0.59222 -0.41556,0.45613 -0.875,1.375 -0.22753,0.45507 -0.56468,0.68969 -0.875,1 -0.66402,0.66402 -2.75538,-1.49462 -3.5,-0.75 -0.125,0.125 -0.375,0.125 -0.5,0.25 -0.49663,0.49663 0.44396,1.5 -1.125,1.5 -0.0979,0 -0.5626,0.0624 -0.625,0 -0.71358,-0.71358 -4.75897,-0.63397 -5.875,-1.75 -0.14472,-0.14472 -2.16277,0.53777 -2.375,0.75 -0.20011,0.20012 1.1719,0.5469 1.25,0.625 0.0156,0.0156 0.0455,0.0159 0.0625,0.0312 2.62632,0.66614 5.09903,1.72116 8.6875,2.3125 3.10933,0.51238 6.52062,-0.5377 9.59375,-0.0312 0.40362,0.0665 0.9544,-0.11406 1.53125,-0.40625 0.008,0.005 0.0228,-0.005 0.0312,0 0.63629,0.37005 1.44634,0.23806 2.46875,-0.40625 0.79846,0.28136 3.58363,-1.52824 4.03125,-2.03125 2.09516,-2.3544 6.40185,-6.73426 8.34375,-10.1875 1.32306,-0.49683 2.20428,-1.36053 3.15625,-2.3125 0.26685,-0.26684 -0.0384,-2.49493 -0.4375,-4.75 -0.009,-0.0536 -0.0217,-0.10265 -0.0312,-0.15625 -0.0394,-0.396391 -0.0755,-0.851973 -0.125,-1.28125 -0.20353,-0.05925 -0.40406,-0.09916 -0.53125,-0.09375 z"
         transform="translate(-21.92031,251.02291)"
         id="path9376"
         inkscape:connector-curvature="0" />
      <path
         inkscape:connector-curvature="0"
         id="path8948"
         d="m 525.75,337.98718 c -0.15676,-0.12907 -3.82212,1.15144 -5.125,0.5"
         style="fill:none;stroke:#624c4c;stroke-width:0.5;stroke-linecap:round;stroke-linejoin:round;stroke-miterlimit:4;stroke-opacity:1;stroke-dasharray:none" />
      <path
         id="path8999"
         d="m 497.78125,337.90625 c -0.52792,1.28355 -1.13813,2.51314 -2,3.375 -0.8824,0.88241 -0.43201,3.24451 -1.4375,4.25 -1.09965,1.09965 -1.08319,4.23944 -2.125,5.28125 -0.4976,0.4976 -0.8382,4.17639 -1.40625,5.3125 -0.61811,1.23621 -1.54116,10.38492 -1.75,10.59375 -0.51544,0.51544 -1.45518,2.42562 -2.375,8.28125 -0.17634,0.51671 -0.40596,1.06192 -0.6875,1.625 -0.26667,0.53334 0.26667,1.46667 0,2 -0.92492,1.84985 -1,7.85674 -1,10.25 0,1.03764 -1.13085,9.11915 -0.5,9.75 1.62832,1.62832 5.54302,1.74221 8.625,1.75 -0.59057,-0.29033 -1.23796,-0.55648 -1.875,-0.875 -0.40639,-0.20319 -1.22809,0.0219 -1.5,-0.25 -0.59481,-0.59481 -1.42584,-0.92584 -2,-1.5 -0.30708,-0.30708 -0.15836,-0.90836 -0.375,-1.125 -0.0539,-0.054 -0.22863,-0.0427 -0.125,-0.25 0.18631,-0.37262 0.4131,-0.5381 0.625,-0.75 0.18866,-0.18866 1.09002,0.0717 1.25,0.125 0.54482,0.18161 1.74354,-0.20618 2.25,-0.375 0.56603,-0.18867 1.52619,0 2.125,0 0.7285,0 1.35319,-0.25 2,-0.25 0.30821,0 1.88292,-0.61708 1.375,-1.125 -0.95456,-0.95456 -2.95156,-0.70156 -3,-0.75 -0.29089,-0.29089 -0.95392,-0.45391 -1.375,-0.875 -0.74837,-0.74836 -1.53719,-1.57439 -2.125,-2.75 -0.4546,-0.90921 3.53432,-1.46567 2.5,-2.5 -0.41626,-0.41626 -2.52224,-1.82362 -3.125,-2.125 -1.17745,-0.58872 -1.77763,-2.02763 -2.5,-2.75 -0.0392,-0.0392 -0.61784,-1.25715 -0.5,-1.375 0.0677,-0.0677 0.95895,-0.66605 1.25,-0.375 0.22182,0.22182 0.56404,0.0945 0.875,0.25 0.30653,0.15327 1.73418,0.85918 1.875,1 0.0833,0.0833 0.41667,-0.0833 0.5,0 0.64662,0.64662 6.75206,0.99794 7.375,0.375 1.03817,-1.03816 -4.8505,-1.25 -5.5,-1.25 -0.63851,0 -1.24648,-0.37324 -1.75,-0.625 -0.43068,-0.21534 -1.46349,-0.0885 -1.875,-0.5 -0.47917,-0.47917 -1.02083,-0.89583 -1.5,-1.375 -0.11817,-0.11817 -0.0204,-0.64543 -0.125,-0.75 -0.81151,-0.81151 -0.079,-3.71703 0.25,-4.375 0.39846,-0.79692 0.8603,-3.8603 1,-4 l 1.375,-1.375 c 0.43903,-0.43903 4.80444,-1.68481 5.75,-2 1.80337,-0.60112 3.86999,-1.30999 5.5,-2.125 0.19092,-0.0955 1.32569,-0.92431 0.875,-1.375 -1.43716,-1.43716 -9.55701,3.69299 -11.375,1.875 -0.20818,-0.20818 0.125,-0.86691 0.125,-1 0,-0.0224 0.36651,-4.1165 0.5,-4.25 0.42201,-0.42201 0.98862,-0.73862 1.375,-1.125 0.26682,-0.26682 0.061,-0.78052 0.5,-1 1.53894,-0.76947 3.72514,-0.82528 4.5,-2.375 0.11288,-0.22576 -0.0419,-0.5838 -0.125,-0.75 -0.90082,-1.80165 -1.73618,-0.61118 -2.5,-1.375 -0.85538,-0.85538 0.45843,-1.91657 0.125,-2.25 -0.0638,-0.0638 -0.28685,0.17631 -0.5,-0.25 -0.75108,-2.01032 3.29814,-3.82686 2.25,-4.875 -0.0578,-0.0578 0.0377,-0.29953 0,-0.375 -0.55835,-1.1167 0.39548,-2.39547 1,-3 0.011,-0.011 0.10176,-1.10176 0.5,-1.5 0.54842,-0.54842 -0.80728,-1.83694 -1.21875,-2.21875 z"
         style="fill:#8b058b;fill-opacity:1;stroke:#ffffff;stroke-width:1px;stroke-linecap:butt;stroke-linejoin:miter;stroke-opacity:0"
         inkscape:connector-curvature="0" />
      <path
         id="path8950"
         d="m 497.46875,338.65625 c -0.45478,1.00321 -0.99616,1.93366 -1.6875,2.625 -0.8824,0.88241 -0.43201,3.24451 -1.4375,4.25 -1.09965,1.09965 -1.08319,4.23944 -2.125,5.28125 -0.4976,0.4976 -0.8382,4.17639 -1.40625,5.3125 -0.61811,1.23621 -1.54116,10.38492 -1.75,10.59375 -0.51544,0.51544 -1.45518,2.42562 -2.375,8.28125 -0.17634,0.51671 -0.40596,1.06192 -0.6875,1.625 -0.26667,0.53334 0.26667,1.46667 0,2 -0.92492,1.84985 -1,7.85674 -1,10.25 0,1.03764 -1.13085,9.11915 -0.5,9.75 0.68328,0.68328 1.76734,1.08986 3.03125,1.34375 -0.80351,-0.85582 -2.8125,-0.57119 -2.8125,-2.75 0,-0.1266 -0.0806,-0.70065 0,-0.78125 0.49597,-0.49596 -0.12957,-2.36584 0.28125,-3.1875 0.11083,-0.22169 -0.18365,-0.4451 -0.0937,-0.625 0.19328,-0.38657 0.4375,-2.3781 0.4375,-2.8125 0,-0.26686 0.50342,-1.34034 0.25,-1.59375 -0.18526,-0.18527 -0.4542,-2.18535 -0.34375,-2.40625 0.54058,-1.08115 0.12328,-3.52952 0.8125,-4.21875 0.0426,-0.0426 -0.1161,-1.70985 -0.1875,-1.78125 -0.0739,-0.0739 0.0569,-0.5882 0.0937,-0.625 0.26974,-0.26975 2.1175,0.96875 2.1875,0.96875 0.002,0 0.18735,-0.25015 0.0937,-0.34375 -0.29795,-0.29795 -0.59983,-0.34983 -0.875,-0.625 -0.32286,-0.32286 -0.65051,-0.74426 -0.875,-0.96875 -0.0589,-0.0589 0.0589,-0.28485 0,-0.34375 -0.4815,-0.48149 0.0921,-1.43413 0.34375,-1.9375 0.1231,-0.24614 -0.10101,-0.86774 0.0937,-1.0625 0.29667,-0.29667 0.40369,-1.05739 0.625,-1.5 0.16015,-0.32032 -0.29001,-1.12321 0.15625,-1.34375 0,-0.34943 0.10148,-0.78894 0.28125,-0.96875 0.26197,-0.26196 -0.0843,-1.16565 0.15625,-1.40625 0.42704,-0.42703 0.41574,-1.29075 0.8125,-1.6875 L 489.75,367.1875 c 0.2115,-0.21146 0.53302,-0.14152 0.8125,-0.28125 0.33572,-0.16786 0.57849,-0.42224 0.78125,-0.625 0.15208,-0.15209 0.97337,-0.34837 1.5,-0.875 0.2097,-0.20972 -0.68975,-0.18525 -0.78125,-0.0937 -0.14418,0.14418 -1.88378,0.98877 -2.21875,1.15625 -0.0988,0.0494 -0.24395,0.0764 -0.3125,0.15625 0.0541,-0.1277 0.20139,-0.48264 0.21875,-0.5 0.0882,-0.0883 0.375,-1.59339 0.375,-1.875 0,-1.03985 0.97086,-3.52702 0.53125,-4.40625 -0.14418,-0.28836 1.07919,-4.50214 1.21875,-4.78125 0.20405,-0.40808 -0.11353,-1.08542 0.0937,-1.5 0.14979,-0.29956 0.24949,-0.687 0.4375,-0.875 0.17004,-0.17004 -0.11187,-0.83877 0,-1.0625 0.26888,-0.53776 0.4017,-1.2767 0.71875,-1.59375 0.13988,-0.13982 0.0536,-0.85706 0.15625,-1.0625 0.56689,-1.13377 0.89551,-2.20802 1.59375,-2.90625 0.15671,-0.15671 0.4972,-2.21315 0.71875,-2.65625 0.0558,-0.11159 -0.0849,-0.44635 0,-0.53125 0.10013,-0.10013 0.4375,-0.79912 0.4375,-0.96875 0,-0.32993 1.87183,-2.81566 1.5,-3.1875 -0.0215,-0.0215 -0.0398,-0.0434 -0.0625,-0.0625 z"
         style="fill:#aa07aa;fill-opacity:1;stroke:#ffffff;stroke-width:1px;stroke-linecap:butt;stroke-linejoin:miter;stroke-opacity:0"
         inkscape:connector-curvature="0" />
      <path
         id="path9022"
         d="m 542.5,328.125 c 0.0613,0.63304 0.19194,1.44194 0.25,1.5 0.55586,0.55586 0.54035,1.91535 1.125,2.5 0.3125,0.3125 -0.3125,1.5625 0,1.875 0.33664,0.33664 0.36938,0.98877 0.625,1.5 0.25208,0.50416 -0.25234,1.74766 0.125,2.125 0.37826,0.37826 0.37174,1.49674 0.75,1.875 0.27111,0.27111 -0.25,1.60805 -0.25,1.875 0,0.82837 0.46998,2.18504 0.125,2.875 -0.54366,1.08733 -1.6189,1.6189 -2.375,2.375 -0.12884,0.12884 -0.62116,0.12116 -0.75,0.25 -0.30248,0.3025 -1.11089,0.11089 -1.375,0.375 -0.17586,0.17587 -1.81727,0.0673 -2.125,0.375 -0.20113,0.2011 0.14221,0.25 0.25,0.25 0.21904,0 1.23561,0.1394 1.375,0 0.18732,-0.18732 0.93812,-0.5 1.375,-0.5 0.43989,0 1,-0.3006 1,-0.25 0,0.29204 -1.21894,1.34394 -1.625,1.75 -0.17609,0.1761 -0.30422,0.67922 -0.5,0.875 -1.93105,1.93105 -3.21199,4.212 -5.125,6.125 -0.72671,0.72671 -1.77822,1.15322 -2.5,1.875 -0.19051,0.19051 -0.35057,0.54192 -0.53125,0.8125 0.94399,-0.5024 1.90924,-1.15993 2.15625,-1.4375 2.09516,-2.3544 6.40185,-6.73426 8.34375,-10.1875 1.32306,-0.49683 2.20428,-1.36053 3.15625,-2.3125 0.26685,-0.26684 -0.0384,-2.49493 -0.4375,-4.75 -0.009,-0.0536 -0.0217,-0.10265 -0.0312,-0.15625 -0.35036,-3.5239 -1.11473,-8.67723 -2.03125,-9.59375 -0.0724,-0.0724 -0.28917,-0.76153 -0.4375,-1.4375 -0.21927,-0.236 -0.38526,-0.3899 -0.5625,-0.5625 z M 528,355.75 c -0.76596,0 0,3.12268 0,3.625 0,0.25328 -4.88683,0.125 -5.625,0.125 -0.67815,0 -6.51691,0.23309 -6.75,0 -0.21652,-0.21652 -4.72171,-1.5 -5.25,-1.5 -0.49128,0 -2.91733,-0.79233 -3.25,-1.125 -0.12481,-0.12481 -1.125,0.1105 -1.125,0.125 0,0.2875 0.99726,0.24726 1.125,0.375 0.045,0.045 0.15019,0.0749 0.21875,0.125 2.93181,0.63799 5.55506,1.84992 9.5,2.5 3.10933,0.51238 6.52062,-0.5377 9.59375,-0.0312 0.40362,0.0665 0.9544,-0.11406 1.53125,-0.40625 0.008,0.005 0.0228,-0.005 0.0312,0 0.54576,0.3174 1.23671,0.24028 2.0625,-0.1875 -0.0222,7.6e-4 -0.0393,0 -0.0625,0 -0.14116,0 -0.24427,0.25287 -0.5,0.125 -0.26477,-0.13238 -0.72159,-0.0966 -0.875,-0.25 -0.14862,-0.14862 0.20568,-3.5 -0.625,-3.5 z m 2.25,0.0312 c -0.0385,0.008 -0.0882,0.0569 -0.125,0.0937 -0.281,0.281 1.34926,2.5953 0.53125,3.28125 0.33399,0.0108 0.82747,-0.13778 1.375,-0.40625 -0.17884,0.005 -0.38981,0.0165 -0.40625,0 -0.0799,-0.0799 -0.79821,-3.08299 -1.375,-2.96875 z"
         style="fill:#5b005b;fill-opacity:1;stroke:#ffffff;stroke-width:1px;stroke-linecap:butt;stroke-linejoin:miter;stroke-opacity:0"
         inkscape:connector-curvature="0" />
      <path
         id="path9079"
         d="m 541.40625,327.5 c -1.74979,0.30884 -3.83591,5.11882 -4.4375,6.1875 -1.69542,3.01182 -7.49318,9.75869 -7.96875,12.21875 -0.10074,0.5211 -1.06727,0.95086 -2.03125,1.25 0.133,0.15818 0.1678,0.31182 0.40625,0.46875 0.0246,0.0162 0.0689,0.046 0.0937,0.0625 -0.0635,0.0415 -0.12576,0.11345 -0.1875,0.15625 -0.0737,-0.13686 -0.1305,-0.27329 -0.1875,-0.40625 -0.68542,0.005 -1.3916,-0.0184 -1.59375,-0.125 -2.59723,-1.36895 -8.15329,0.60956 -11.09375,0.125 -2.01305,-0.33173 -4.12201,-0.89862 -5.875,-1.1875 -0.37049,-0.0611 -0.78099,0.0527 -1.1875,0.15625 -0.24693,0.33476 -0.24188,0.72687 0.1875,1.15625 0.45789,0.45788 1.55743,-0.0363 1.9375,0.34375 0.31647,0.31647 2.23935,0.85405 2.65625,1.0625 0.69286,0.34643 0.35295,1.94671 0.875,2.46875 0.60416,0.60416 1.22906,1.60406 1.9375,2.3125 0.54529,0.54529 2.19374,0.98749 3.03125,1.40625 0.31761,0.1588 0.59158,-0.0916 0.6875,-0.1875 0.16556,-0.16556 0.52991,0.0339 0.71875,-0.34375 0.34549,-0.69098 -0.32841,-3.04659 0.15625,-3.53125 0.51299,-0.51299 3.33123,1.35001 3.90625,1.0625 1.16091,-0.58045 -1.3828,-2.84375 0.71875,-2.84375 0.0728,0 0.48446,-0.0468 0.53125,0 1.40702,1.40703 2.32886,6.80432 6,4.96875 0.55798,-0.27899 1.03338,-0.16051 1.40625,-0.90625 0.69465,-1.3893 -0.71,-2.82125 -0.1875,-3.34375 0.0975,-0.0975 4.88468,0.42782 6.1875,-0.875 0.49893,-0.49893 -1.31822,-0.90625 -1.5625,-0.90625 -0.32831,0 -4.93728,-1.40614 -5.3125,-1.59375 -0.3397,-0.16985 -0.17317,-0.88933 0,-1.0625 1.82704,-1.82704 5.34947,-1.09947 6,-1.75 0.41248,-0.41248 0.99377,-0.65002 1.40625,-1.0625 0.95592,-0.95592 -0.79934,-2.12008 -0.53125,-2.65625 0.32448,-0.64896 0.89242,-1.04867 1.25,-1.40625 0.78892,-0.78892 3.05624,0.13127 3.71875,-0.53125 1.01394,-1.01394 -1.83165,-2.70665 -2.125,-3 -0.29463,-0.29463 0.10713,-1.29912 -0.1875,-1.59375 -0.13861,-0.13861 -1.0625,-0.62702 -1.0625,-1.0625 0,-1.0571 1.93321,-1.25 3.03125,-1.25 0.25566,0 0.87928,-0.004 1.03125,-0.15625 0.0883,-0.0883 0.10177,-0.29313 0.0625,-0.53125 -0.0993,-0.20344 -0.20889,-0.36514 -0.3125,-0.46875 -0.0724,-0.0724 -0.28917,-0.76153 -0.4375,-1.4375 -0.65781,-0.70801 -1.15766,-1.15757 -1.3125,-1.1875 -0.11312,-0.0219 -0.2271,-0.0206 -0.34375,0 z"
         style="fill:#8b058b;fill-opacity:1;stroke:#ffffff;stroke-width:1px;stroke-linecap:butt;stroke-linejoin:miter;stroke-opacity:0"
         inkscape:connector-curvature="0" />
      <path
         id="path9027"
         d="m 541.40625,327.5 c -1.74979,0.30884 -3.83591,5.11882 -4.4375,6.1875 -1.69542,3.01182 -7.49318,9.75869 -7.96875,12.21875 -0.10074,0.5211 -1.06727,0.95086 -2.03125,1.25 0.133,0.15818 0.1678,0.31182 0.40625,0.46875 0.0246,0.0162 0.0689,0.046 0.0937,0.0625 -0.0635,0.0415 -0.12576,0.11345 -0.1875,0.15625 -0.0737,-0.13686 -0.1305,-0.27329 -0.1875,-0.40625 -0.68542,0.005 -1.3916,-0.0184 -1.59375,-0.125 -2.59723,-1.36895 -8.15329,0.60956 -11.09375,0.125 -2.01305,-0.33173 -4.12201,-0.89862 -5.875,-1.1875 -0.38856,-0.064 -0.8226,0.047 -1.25,0.15625 -0.17416,0.39706 1.15479,0.15479 1.21875,0.21875 0.29167,0.29167 1.33333,-0.16667 1.625,0.125 0.53424,0.53424 5.11371,0.98871 5.375,1.25 0.47796,0.47796 0.60408,1.35408 1.125,1.875 0.0866,0.0866 0.0384,0.53839 0.125,0.625 0.3125,0.3125 0.5625,0.6875 0.875,1 0.006,0.006 0.54312,0.375 0.5,0.375 -0.10173,0 -0.32117,-1.01734 -0.375,-1.125 -0.41724,-0.83448 -1.125,-1.81097 -1.125,-2.625 0,-0.71514 3.00258,0.75 3.375,0.75 0.10623,0 0.27656,-0.0359 0.40625,-0.0312 -0.20399,-0.13003 -0.48178,-0.29428 -0.53125,-0.34375 -0.2337,-0.23369 -1.125,-0.36029 -1.125,-0.875 0,-0.0607 0.74969,-0.125 0.875,-0.125 0.77507,0 1.19072,-0.0954 1.75,-0.375 0.24544,-0.12272 0.66767,0.0427 0.75,0.125 0.11733,0.11733 0.31389,-0.0944 0.375,-0.125 0.57019,-0.28509 2.87242,0.37371 3.375,0.625 0.51016,0.25508 1.16792,0.0429 1.5,0.375 0.15113,0.15113 1.49137,4.50863 1.875,4.125 0.0487,-0.0487 0,-0.42372 0,-0.5 0,-2.34429 -1.5,-2.5078 -1.5,-4 0,-0.2755 0.24568,0.009 0.375,-0.25 0.0916,-0.18323 0.006,-0.37777 0.25,-0.5 0.75437,-0.37718 4.51596,1.35905 5.125,0.75 0.009,-0.009 -1.21822,-0.625 -1.375,-0.625 -0.49039,0 -2.5,-0.8527 -2.5,-1.25 0,-1.51892 1.4056,-3.0306 2.25,-3.875 0.19725,-0.19724 0.18629,-0.81129 0.375,-1 0.63553,-0.63552 1.35767,-1.23267 2,-1.875 0.44226,-0.44226 1.14564,-1.02064 1.625,-1.5 0.27083,-0.27083 0.10417,-0.97917 0.375,-1.25 0.21153,-0.21153 0.44548,-0.26596 0.625,-0.625 0.28914,-0.57827 0.14785,-1.52285 0.5,-1.875 0.31386,-0.31386 2.7754,0.0254 3,0.25 0.0125,0.0125 0.0958,0.27917 0.25,0.125 0.2042,-0.20419 -0.21803,-0.34303 -0.25,-0.375 -0.14946,-0.14946 -0.33179,-0.58179 -0.5,-0.75 -0.39236,-0.39235 -1.1646,-0.1646 -1.5,-0.5 -0.27419,-0.27419 1,-1.45721 1,-2.125 0,-0.57099 1.05828,-1.80827 1.375,-2.125 0.14279,-0.14279 0.63061,-0.1306 0.75,-0.25 0.0844,-0.0844 0.24576,-0.29479 0.40625,-0.53125 -0.064,-0.0442 -0.1227,-0.0873 -0.15625,-0.0937 -0.11312,-0.0219 -0.2271,-0.0206 -0.34375,0 z m -21,21.34375 c 0.0866,0.0552 0.21875,0.15923 0.21875,0.15625 0,-0.10625 -0.0891,-0.15156 -0.21875,-0.15625 z"
         style="fill:#aa07aa;fill-opacity:1;stroke:#ffffff;stroke-width:1px;stroke-linecap:butt;stroke-linejoin:miter;stroke-opacity:0"
         inkscape:connector-curvature="0" />
      <path
         style="fill:#aa07aa;fill-opacity:1;stroke:#ffffff;stroke-width:1px;stroke-linecap:butt;stroke-linejoin:miter;stroke-opacity:0"
         d="m 515.75,95.6875 c -0.30678,0.431495 -0.63529,0.866145 -0.96875,1.25 -1.50314,1.7303 -2.76169,3.96191 -4.125,5.53125 -0.55303,0.6366 -0.44874,2.01159 -0.78125,2.8125 -0.32567,0.78443 0.44463,2.51655 1.53125,4.34375 0.28485,-1.79976 -1.77748,-4.62877 -0.40625,-6 0.15155,-0.15155 0.12212,-0.62212 0.25,-0.75 0.44912,-0.44912 0.59622,-1.09622 1,-1.5 l 1.625,-1.625 c 0.11085,-0.110849 0.0497,-0.349337 0.125,-0.5 0.23537,-0.470731 0.6,-0.724997 0.875,-1 0.33975,-0.339751 0.81661,-1.691134 0.875,-2.5625 z"
         transform="translate(-21.92031,251.02291)"
         id="path9388"
         inkscape:connector-curvature="0" />
    </g>
  </g>
</svg>
