<?xml version="1.0" encoding="UTF-8" standalone="no"?>
<!-- Created with Inkscape (http://www.inkscape.org/) -->

<svg
   xmlns:dc="http://purl.org/dc/elements/1.1/"
   xmlns:cc="http://creativecommons.org/ns#"
   xmlns:rdf="http://www.w3.org/1999/02/22-rdf-syntax-ns#"
   xmlns:svg="http://www.w3.org/2000/svg"
   xmlns="http://www.w3.org/2000/svg"
   xmlns:sodipodi="http://sodipodi.sourceforge.net/DTD/sodipodi-0.dtd"
   xmlns:inkscape="http://www.inkscape.org/namespaces/inkscape"
   width="82.175377"
   height="128.68083"
   id="svg9998"
   version="1.1"
   inkscape:version="0.48.3.1 r9886"
   sodipodi:docname="wizard_purple_right_1.svg"
   inkscape:export-filename="/home/substack/projects/wizard-game/static/wizard_purple_right_1.png"
   inkscape:export-xdpi="94.184052"
   inkscape:export-ydpi="94.184052">
  <defs
     id="defs10000" />
  <sodipodi:namedview
     id="base"
     pagecolor="#ffffff"
     bordercolor="#666666"
     borderopacity="1.0"
     inkscape:pageopacity="0.0"
     inkscape:pageshadow="2"
     inkscape:zoom="1.4"
     inkscape:cx="-37.430477"
     inkscape:cy="40.517436"
     inkscape:document-units="px"
     inkscape:current-layer="layer1"
     showgrid="false"
     fit-margin-top="0"
     fit-margin-left="0"
     fit-margin-bottom="0"
     fit-margin-right="0"
     inkscape:window-width="1364"
     inkscape:window-height="766"
     inkscape:window-x="0"
     inkscape:window-y="0"
     inkscape:window-maximized="0" />
  <metadata
     id="metadata10003">
    <rdf:RDF>
      <cc:Work
         rdf:about="">
        <dc:format>image/svg+xml</dc:format>
        <dc:type
           rdf:resource="http://purl.org/dc/dcmitype/StillImage" />
        <dc:title></dc:title>
      </cc:Work>
    </rdf:RDF>
  </metadata>
  <g
     inkscape:label="Layer 1"
     inkscape:groupmode="layer"
     id="layer1"
     transform="translate(-211.42605,-370.3438)">
    <g
       transform="translate(-269.9329,90.733526)"
       id="g9393">
      <path
         style="fill:#e9792e;fill-opacity:1;stroke:#ffffff;stroke-width:1px;stroke-linecap:butt;stroke-linejoin:miter;stroke-opacity:0"
         d="m 559.49824,308.30907 c 0.0589,-0.2357 -0.0589,-0.76603 0.17678,-0.70711 0.2357,0.0589 -0.40727,0.78394 -0.17678,0.70711 0.35795,-0.11931 0.44031,-0.61709 0.70711,-0.88388 0.0735,-0.0735 1.52703,-0.24074 1.59099,-0.17678 1.9817,1.98171 -0.17282,5.488 0.53033,6.89429 0.23582,0.47165 0.53033,1.76979 0.53033,2.12132 0,0.48047 0.18874,2.10936 0.17678,2.12132 -0.34295,0.34295 -0.93028,0.50714 -1.59099,0.17678 -0.34128,-0.17064 -0.5721,-0.0209 -0.88389,-0.17678 -1.57949,-0.78974 -1.59099,-4.74208 -1.59099,-5.83363"
         id="path9395"
         inkscape:connector-curvature="0" />
      <path
         style="fill:#350335;fill-opacity:1;stroke:#ffffff;stroke-width:1px;stroke-linecap:butt;stroke-linejoin:miter;stroke-opacity:0"
         d="m 501.05146,397.46516 c -0.66403,2.64876 1.10927,5.00801 2.76999,6.01164 0.33271,0.20107 1.84712,4.00799 2.35097,4.31254 0.0582,0.0351 3.78774,-0.45728 4.12637,-1.01761 0.12951,-0.2143 -1.42801,-4.37441 0.19275,-3.39491 1.19169,0.72022 1.66862,2.4543 2.83971,3.16204 0.4128,0.24949 1.04642,-0.51601 1.15378,-0.54202 3.01213,-0.74282 5.87883,-0.9348 8.37248,-1.54975 0.70007,-0.17262 2.41543,-5.97611 1.47609,-6.54379 -0.353,-0.21335 -0.6146,-0.57798 -0.96761,-0.79133 -1.28312,-0.77546 -11.29045,1.85181 -12.0101,1.41687 -1.10156,-0.66573 -1.76904,-4.0411 -2.16481,-5.64588"
         id="path9397"
         inkscape:connector-curvature="0" />
      <path
         style="fill:#350335;fill-opacity:1;stroke:#ffffff;stroke-width:1px;stroke-linecap:butt;stroke-linejoin:miter;stroke-opacity:0"
         d="m 491.42641,389.94741 c -1.19664,1.0295 -2.23028,7.85894 0.38215,10.78964 0.4313,0.48386 -0.32546,2.02631 0.10628,2.51021 0.20557,0.23062 0.41604,-0.22652 0.5135,-0.22091 0.76829,0.0441 2.48851,1.24188 3.71518,0.71414 0.17116,-0.0736 0.52419,-0.40697 0.51351,-0.22093 -0.0257,0.44803 -0.65089,-0.88739 -0.42753,-1.27661 0.5242,-0.91341 0.74012,-0.65972 1.31961,-1.17629 0.0535,-0.0477 0.70854,-0.53346 1.01268,-0.19222 0.72965,0.81854 0.73414,2.41757 1.56083,3.34496 0.0435,0.0487 9.92803,1.09635 9.95489,1.07242 0.84016,-0.74893 1.52987,-1.7673 2.16869,-2.88044 1.36077,-2.37113 -4.75359,-4.00436 -5.71786,-5.08611 -0.52805,-0.59239 -2.77829,0.21028 -3.49424,-0.20062 -0.44113,-0.25316 -1.69992,-1.12222 -1.91073,-1.61219 -0.272,-0.63221 0.39877,-2.96037 0.68548,-3.21599 0.88162,-0.78587 -0.27186,-3.98789 -0.24122,-4.52127"
         id="path9399"
         inkscape:connector-curvature="0" />
      <g
         id="g9401"
         transform="matrix(0.9999296,0.01186536,-0.01186536,0.9999296,-80.877981,15.006347)">
        <path
           inkscape:connector-curvature="0"
           id="path9403"
           d="m 641.79567,274.61195 c 3.65225,0.79023 4.12357,10.26445 2.41735,15.38313 -0.35918,1.07753 -0.43952,7.7576 -0.43952,9.22987 0,4.44561 -0.70139,9.17857 -1.75807,13.4053 -0.41999,1.67995 0.0907,3.68364 -0.43952,5.27421 -0.52932,1.58798 -0.21976,8.46163 -0.21976,10.54843 0,6.89118 0,13.79783 0,20.65734 0,7.57495 1.15986,15.79816 -0.65927,23.0747 -0.2762,1.10481 0.0532,2.53078 -0.43952,3.51614 -0.65346,1.30693 0.67829,5.27422 -1.53831,5.27422 -0.13411,0 -0.79341,0.0856 -0.87904,0 -0.29301,-0.29301 -0.80578,-0.36627 -1.09879,-0.65928 -0.15005,-0.15005 -1.30373,-7.00263 -1.97783,-8.35084 -0.49497,-0.98993 0.0653,-2.50652 -0.43952,-3.51614 -0.60643,-1.21285 0.66391,-3.73127 -0.21976,-4.61494 -0.62932,-0.62932 0.4114,-3.13286 0,-3.95566 -0.45821,-0.91641 -0.57373,-9.70628 -0.21976,-10.7682 0.24482,-0.73447 0.67766,-7.63642 0.43952,-8.35084 -1.26932,-3.80794 0.37154,-12.0709 -0.87904,-15.82264 -0.43918,-1.31755 0.33774,-3.04423 0,-4.39518 -0.83716,-3.34866 0.69329,-9.78713 -0.21976,-12.52626 -0.3268,-0.98042 0.0967,-2.1272 -0.21976,-3.07663 -1.0936,-3.2808 -0.65927,-7.61199 -0.65927,-11.2077 0,-1.05834 0.46409,-3.467 0,-4.39518 -0.37732,-0.75464 -0.43952,-2.21081 -0.43952,-3.07663 0,-2.18526 0.0343,-13.00008 1.09879,-14.06457 1.75659,-1.75659 4.83319,-1.10031 6.15325,0.21976 0.43952,0.43952 0.43952,1.31856 0.87904,1.75807 0.1638,0.1638 0.4442,-0.30579 0.65928,-0.21976 0.39658,0.15864 0.73253,0.43952 1.09879,0.65928 z"
           style="fill:#daae55;fill-opacity:1;stroke:#ffffff;stroke-width:0.21755025px;stroke-linecap:butt;stroke-linejoin:miter;stroke-opacity:0" />
        <path
           inkscape:connector-curvature="0"
           id="path9405"
           d="m 638.15035,371.94309 c -0.32239,-0.58537 0.65813,-5.18374 0.5,-5.5 -0.82276,-1.64551 0.0667,-4.86658 -0.75,-6.5 -0.87287,-1.74575 -2.89659,-6.45682 -1.75,-8.75001 0.51489,-1.02978 0.92298,-1.84596 1.5,-3 0.6778,-1.35559 1.1873,-14.62539 0.5,-16 -0.53935,-1.0787 -0.45812,-2.41624 -1,-3.5 -0.12356,-0.24712 -0.13548,-18.59355 0,-19 0.86747,-2.6024 1.5,-5.74905 1.5,-8.5 0,-5.22109 0,-9.9634 0,-15.25 0,-0.38169 -0.6372,-3.25 -1,-3.25 -0.50784,0 -0.98524,2.72048 -1.25,3.25 -0.32732,0.65464 -0.64174,1.89174 -1,2.25 -0.32573,0.32574 0.44237,12.69237 0.75,13 1.47644,1.47645 -0.5,11.45599 -0.5,14.25 0,0.44941 0.29384,1.33769 0.5,1.75 0.12108,0.24216 0.12108,9.25784 0,9.5 -0.45994,0.91988 -0.76777,5.21446 -0.25,6.25 0.47387,0.94775 1.99622,10.25757 1.5,11.25 -0.41296,0.82592 -1.59586,9.30827 -1.5,9.5 0.17533,0.35067 0.40491,6.0951 0.25,6.25001 -0.17461,0.17461 -0.68822,1.62357 -0.5,2 0.84592,1.69185 0.0563,4.61261 0.75,6 0.70182,1.40364 0.78498,2.39164 1.75,4 z"
           style="fill:#ca9b3a;fill-opacity:1;stroke:#ffffff;stroke-width:1px;stroke-linecap:butt;stroke-linejoin:miter;stroke-opacity:0" />
        <path
           inkscape:connector-curvature="0"
           id="path9407"
           d="m 645.0566,285.11215 c -0.01,0.14637 0.0125,0.29209 0,0.4375 -0.13869,1.62037 -0.41719,3.15783 -0.84375,4.4375 -0.35918,1.07754 -0.4375,7.77773 -0.4375,9.25 0,2.2228 -0.19257,4.51397 -0.5,6.78125 -0.30743,2.26728 -0.72166,4.51164 -1.25,6.625 -0.21,0.83997 -0.1964,1.74651 -0.1875,2.65625 0.009,0.90974 0.0151,1.79847 -0.25,2.59375 -0.26466,0.79399 -0.32373,2.91599 -0.3125,5.09375 0.0112,2.17776 0.0937,4.42535 0.0937,5.46875 l 0,20.65625 c 0,3.78748 0.28118,7.74401 0.34375,11.65626 0.0313,1.95612 -0.009,3.89995 -0.15625,5.8125 -0.14708,1.91255 -0.42022,3.77461 -0.875,5.59375 -0.1381,0.5524 -0.11124,1.19474 -0.125,1.8125 -0.0138,0.61776 -0.0661,1.22607 -0.3125,1.71875 -0.32673,0.65346 -0.13043,1.96981 -0.15625,3.125 -0.0129,0.57759 -0.0842,1.10765 -0.28125,1.5 -0.19044,0.37917 -0.54129,0.609 -1.0625,0.625 -0.454,-1.89254 -0.82282,-4.27093 0.15625,-5.25 1.79088,-1.79088 0.75,-12.38035 0.75,-15.75 0,-0.4146 -0.76698,-2.48303 -0.25,-3.00001 0.64722,-0.64722 1.22087,-4.97087 2,-5.75 0.14625,-0.14625 -1.30507,-12.05507 -1.5,-12.25 -0.0974,-0.0974 0,-0.84744 0,-1 0,-2.14953 0.25,-4.75741 0.25,-7.25 0,-5.13732 0.25,-10.05483 0.25,-15.25 0,-0.3981 -0.25336,-2.24664 0,-2.5 0.86356,-0.86356 1.5,-6.17606 1.5,-8 0,-0.42492 -0.43963,-2.68963 -0.75,-3 -0.35642,-0.35641 0.0975,-2.19507 0.25,-2.5 0.39768,-0.79537 0,-2.84101 0,-3.75 0,-0.7987 0.1522,-2.0544 0.5,-2.75 0.93622,-1.87243 -0.82307,-5.10386 0.25,-7.25 0.42356,-0.84711 1.64724,-0.8638 2.90625,-0.59375 z"
           style="fill:#ca9b3a;fill-opacity:1;stroke:#ffffff;stroke-width:1px;stroke-linecap:butt;stroke-linejoin:miter;stroke-opacity:0" />
        <path
           inkscape:connector-curvature="0"
           id="path9409"
           d="m 641.74993,260.85365 c -0.0125,-2.05668 4.54383,5.83005 3.41864,8.08043 -0.98303,1.96607 -1.93919,3.87838 -2.79707,5.59415 -1.56609,3.13218 -5.62741,2.48629 -8.70201,2.48629 -1.16523,0 -1.27237,-1.27237 -1.86472,-1.86471 -0.4182,-0.41821 -0.56075,-1.8039 -0.93235,-2.17551 -4.62245,-4.62245 4.09363,-20.6005 10.87751,-12.12065 z"
           style="fill:#9ff950;fill-opacity:1;stroke:#ffffff;stroke-width:0.21755025px;stroke-linecap:butt;stroke-linejoin:miter;stroke-opacity:0" />
        <path
           inkscape:connector-curvature="0"
           id="path9411"
           d="m 643.07248,273.84375 c 0.904,0.0636 2.15399,0.56702 1.46875,1.9375 -0.16533,0.33065 -0.28633,0.63994 -0.375,0.9375 0.92212,0.0955 2.21875,0.91013 2.21875,3.09375 0,0.35736 -0.0611,0.70219 -0.125,1.03125 0.26216,0.1306 0.4375,0.37557 0.4375,0.84375 0,0.60752 0.0585,1.44818 -0.3125,2.25 0.0448,0.1739 0.10019,0.32819 0.125,0.5 -0.005,0.005 0.005,0.0267 0,0.0312 -0.29399,0.26425 -0.58175,0.50962 -0.75,0.59375 -0.63316,0.31656 -1.67953,-0.0509 -2.46875,0.34375 -0.1922,0.0961 -0.35701,0.2078 -0.5,0.3125 -4.2895,0.63916 -11.59026,0.3785 -12.875,-0.90625 -0.40788,-0.40788 -0.20877,-0.81105 0.3125,-1.15625 -0.82032,-0.54864 -0.88734,-1.39391 0.3125,-2.59375 -0.27233,-0.27233 -0.3125,-1.04302 -0.3125,-1.5625 0,-6.36175 7.42346,-2.73596 9.03125,-4.34375 0.67623,-0.67623 1.93166,-1.25 3.09375,-1.25 0.13866,-0.0579 0.41742,-0.0837 0.71875,-0.0625 z"
           style="fill:#e9792e;fill-opacity:1;stroke:#ffffff;stroke-width:0.21755025px;stroke-linecap:butt;stroke-linejoin:miter;stroke-opacity:0" />
        <path
           inkscape:connector-curvature="0"
           id="path9413"
           d="m 640.90035,293.94308 c 0.11884,1.12332 0.62967,2.86099 0.25,4 -0.44659,1.33977 -0.0634,2.94015 -0.5,4.25 -1.8772,5.63161 -1.25,11.29525 -1.25,17.25 0,3.91565 -0.25,7.99325 -0.25,11.75 0,1.13612 -0.37896,9.75 0.25,9.75 0.24074,0 -1,-4.51693 -1,-4.75 0,-2.09342 -0.5,-4.14873 -0.5,-6.25 0,-1.91648 0.5,-3.99081 0.5,-6 0,-5.27452 -1.19794,-11.35413 1,-15.75 0.76181,-1.52362 -0.31341,-7.68659 1.25,-9.25 0.11673,-0.11672 -0.20117,-3.87207 0.25,-5 z"
           style="fill:#e9c375;fill-opacity:0.78753674;stroke:#ffffff;stroke-width:1px;stroke-linecap:butt;stroke-linejoin:miter;stroke-opacity:0" />
        <path
           inkscape:connector-curvature="0"
           id="path9415"
           d="m 635.58785,375.08091 c -0.28023,-1.24248 -0.58459,-2.66917 -0.8125,-3.125 -0.24749,-0.49496 -0.23384,-1.12091 -0.21875,-1.75 0.0151,-0.62909 0.0337,-1.24519 -0.21875,-1.75 -0.30322,-0.60643 -0.16257,-1.54583 -0.0312,-2.4375 0.0657,-0.44583 0.13965,-0.87068 0.125,-1.25 -0.0147,-0.37932 -0.0916,-0.71658 -0.3125,-0.9375 -0.31466,-0.31466 -0.22384,-1.09885 -0.0937,-1.90625 0.13009,-0.8074 0.29945,-1.61985 0.0937,-2.03125 -0.22911,-0.4582 -0.39559,-2.899 -0.4375,-5.34376 -0.0419,-2.44476 0.0105,-4.90654 0.1875,-5.4375 0.24482,-0.73447 0.70689,-7.62933 0.46875,-8.34375 -0.31733,-0.95198 -0.45579,-2.19373 -0.5,-3.5625 -0.0442,-1.36876 -0.0164,-2.86965 0.0312,-4.375 0.0476,-1.50535 0.10436,-3.01326 0.0625,-4.375 -0.0419,-1.36174 -0.18736,-2.59331 -0.5,-3.53125 -0.21959,-0.65877 -0.12837,-1.42227 -0.0312,-2.1875 0.0971,-0.76523 0.20012,-1.51202 0.0312,-2.1875 -0.20929,-0.83716 -0.26149,-1.88269 -0.25,-3 0.0115,-1.11731 0.10558,-2.3147 0.1875,-3.5 0.0819,-1.1853 0.15425,-2.36513 0.15625,-3.40625 0.002,-1.04112 -0.0842,-1.94022 -0.3125,-2.625 -0.3268,-0.98042 0.0977,-2.14432 -0.21875,-3.09375 -0.5468,-1.6404 -0.69063,-3.52639 -0.71875,-5.46875 -0.0281,-1.94236 0.0625,-3.92089 0.0625,-5.71875 0,-0.52917 0.12949,-1.39952 0.1875,-2.25 0.0555,-0.81378 0.0157,-1.5885 -0.1875,-2.0625 l 0.8125,-0.46875 c -0.10756,2.4803 0.3013,18.3013 1,19 0.28171,0.28171 0.78768,4.67465 0.5,5.25 -0.73448,1.46895 -0.20892,9.08216 0.5,10.5 1.00207,2.00414 -1.79171,6.16658 -1,7.75 0.46594,0.93188 2.15411,12.94177 2,13.25 -0.97703,1.95405 -1.5,3.75648 -1.5,6.25 0,2.55405 -0.27837,14.69327 0.25,15.75001 0.97863,1.95726 1.26039,4.28118 2,6.5 0.34915,1.04746 -0.53912,1.82158 -1.3125,1.875 z"
           style="fill:#e6bf6e;fill-opacity:1;stroke:#ffffff;stroke-width:1px;stroke-linecap:butt;stroke-linejoin:miter;stroke-opacity:0" />
        <path
           inkscape:connector-curvature="0"
           id="path9417"
           d="m 644.2441,276.54965 c -0.0166,0.0503 -0.0477,0.10666 -0.0625,0.15625 0.0781,0.008 0.1675,0.10618 0.25,0.125 -0.17672,0.0532 -0.42387,0.0489 -0.53125,0.15625 -0.58381,0.58381 -2.48217,0.70092 -3.03125,1.25 -0.18112,0.18108 -0.87948,0.0647 -1.125,0.1875 -2.21653,1.10827 -5.53729,2.1178 -8.03125,2.53125 -0.58341,0.50258 -1.1268,1.1232 -0.71875,1.53125 0.30976,0.30977 0.45313,0.52768 0.65625,0.75 1.939,-0.0835 4.70295,0.039 5.25,0.3125 0.44449,0.22225 3.56643,-0.28125 4.34375,-0.28125 0.49164,0 1.59472,0.0776 1.9375,-0.0937 0.0555,-0.0278 0.25221,-0.15404 0.34375,-0.0625 0.0997,0.0997 -0.0937,0.18357 -0.0937,0.25 0,1.14901 -0.22528,0.25653 -0.59375,0.625 -0.70616,0.70616 -2.63126,0.53125 -3.8125,0.53125 -0.79531,0 -1.44433,-0.28125 -2.21875,-0.28125 -0.23916,0 -0.58733,-0.0593 -0.78125,-0.15625 -0.21176,-0.10588 -2.84045,-0.28125 -3.28125,-0.28125 -0.16476,0 -0.4435,-0.0148 -0.71875,-0.0625 -0.081,0.0931 -0.15625,0.21031 -0.15625,0.34375 0,0.6486 0.0165,0.91448 0.4375,1.125 0.0804,0.0402 0.67791,0.31899 1.1875,0.5625 -0.48004,-0.0586 -1.06069,-0.0755 -1.46875,-0.15625 -1.00683,-0.19933 -1.75644,-0.47518 -2.09375,-0.8125 -0.20394,-0.20394 -0.25145,-0.39882 -0.1875,-0.59375 0.064,-0.19493 0.23937,-0.3899 0.5,-0.5625 -0.41016,-0.27432 -0.62444,-0.63262 -0.59375,-1.0625 0.0307,-0.42988 0.30633,-0.93133 0.90625,-1.53125 -0.27233,-0.27233 -0.3125,-1.04302 -0.3125,-1.5625 0,-0.79522 0.10637,-1.42466 0.3125,-1.9375 0.20612,-0.51284 0.51446,-0.89759 0.875,-1.1875 0.0541,-0.0435 0.13061,-0.0545 0.1875,-0.0937 0.10181,0.69695 -1.34082,2.06836 -0.90625,2.9375 0.17417,0.34834 0.78112,0.71875 1.15625,0.71875 0.22859,0 0.43569,0.0786 0.59375,0.15625 0.66619,-0.13061 1.33009,-0.25879 1.875,-0.53125 0.22937,-0.11469 0.9095,-0.003 1.0625,-0.15625 0.76095,-0.76094 3.46125,-1.26188 4.6875,-1.875 0.55987,-0.27993 1.70358,-0.0549 2.28125,-0.34375 0.28295,-0.14147 0.64157,-0.4375 0.90625,-0.4375 0.14505,0 0.55226,-0.0978 0.96875,-0.1875 z"
           style="fill:#c86624;fill-opacity:1;stroke:#ffffff;stroke-width:1px;stroke-linecap:butt;stroke-linejoin:miter;stroke-opacity:0" />
        <path
           inkscape:connector-curvature="0"
           id="path9419"
           d="m 644.75998,277.03125 c 0.29817,0.12307 0.61434,0.14771 0.875,0.4375 0.21971,0.24427 0.39528,0.55257 0.53125,0.9375 0.13597,0.38494 0.21875,0.86034 0.21875,1.40625 0,0.35736 -0.0611,0.70219 -0.125,1.03125 0.26216,0.1306 0.4375,0.37557 0.4375,0.84375 0,0.44773 0.038,1.03288 -0.0937,1.625 -0.002,0.0105 0.002,0.0208 0,0.0312 -0.30549,0.46338 -0.50769,1.00769 -0.84375,1.34375 -0.0228,0.0228 -0.068,0.0407 -0.0937,0.0625 -0.0788,-0.20307 -0.17099,-0.38974 -0.28125,-0.5 -0.11987,-0.11987 -0.8415,0.12275 -0.71875,0 0.50995,-0.50995 1.25,-0.55747 1.25,-1.59375 0,-0.93079 0.0382,-1.65625 -1,-1.65625 -0.27085,0 -0.72843,0.12984 -0.96875,0.25 -0.31393,0.15697 -3.78673,0.13788 -4.0625,0 -0.0833,-0.0417 -2.56632,0.0351 -2.375,-0.15625 0.67822,-0.67822 2.13415,-0.56707 3,-1 0.19358,-0.0968 0.52343,0.0352 0.71875,-0.0625 0.26861,-0.1343 0.90891,-0.22141 1.0625,-0.375 0.35247,-0.35247 1.10099,-0.69112 1.65625,-0.96875 0.31167,-0.15583 0.21704,-0.46704 0.375,-0.625 0.30901,-0.30901 0.43133,-0.39952 0.4375,-1.03125 z"
           style="fill:#f98d44;fill-opacity:1;stroke:#ffffff;stroke-width:1px;stroke-linecap:butt;stroke-linejoin:miter;stroke-opacity:0" />
        <path
           inkscape:connector-curvature="0"
           id="path9421"
           d="m 637.9316,275.4559 c 0.504,-0.0512 1.08531,-0.0541 1.34375,-0.3125 0.33811,-0.33811 0.83135,-0.64703 1.375,-0.875 0.54365,-0.22797 1.1377,-0.375 1.71875,-0.375 0.13866,-0.0579 0.41742,-0.0837 0.71875,-0.0625 0.452,0.0318 1.00391,0.16364 1.34375,0.46875 0.16992,0.15256 0.27755,0.35284 0.3125,0.59375 0.0349,0.24091 -0.0162,0.53238 -0.1875,0.875 -0.11497,0.22994 -0.17387,0.44374 -0.25,0.65625 -0.63073,-0.24069 -1.75142,-0.0462 -2.28125,0.21875 -0.38055,0.19028 -1.0421,0.0109 -1.3125,0.28125 -0.0105,0.0105 -1.15625,0.24139 -1.15625,0.25 0,0.12098 0.40252,-0.34375 0.71875,-0.34375 0.32774,0 1.20374,-0.43626 1.0625,-0.71875 -0.052,-0.10391 -0.37139,-0.13882 -0.46875,-0.1875 -0.86958,-0.43479 -3.01441,1.03709 -2.9375,-0.46875 z"
           style="fill:#f98d44;fill-opacity:1;stroke:#ffffff;stroke-width:1px;stroke-linecap:butt;stroke-linejoin:miter;stroke-opacity:0" />
        <path
           inkscape:connector-curvature="0"
           id="path9423"
           d="m 638.62202,259.70285 c 0.53272,-0.32206 2.80445,1.56701 4.24264,3.00521 2.10467,2.10466 -0.83766,6.03351 -3.71231,4.59619 -0.43344,-0.21672 -1.43191,-0.19447 -1.76776,-0.53033 -0.42588,-0.42588 -0.7407,-0.91747 -1.23744,-1.41421 -0.61326,-0.61326 -0.74562,-6.94506 2.47487,-5.65686 z"
           style="fill:#cffca8;fill-opacity:1;stroke:none" />
        <path
           inkscape:connector-curvature="0"
           id="path9425"
           d="m 645.1816,268.6434 c -0.0229,0.0718 0.0316,0.218 0,0.28125 l -2.8125,5.59375 c -0.39152,0.78304 -0.94473,1.33884 -1.59375,1.71875 -0.64902,0.37991 -1.38979,0.60373 -2.1875,0.71875 -1.59542,0.23005 -3.36895,0.0625 -4.90625,0.0625 -0.58261,0 -0.90977,-0.32661 -1.15625,-0.71875 -0.24648,-0.39213 -0.42257,-0.86008 -0.71875,-1.15625 -0.4182,-0.41821 -0.5659,-1.78464 -0.9375,-2.15625 -0.57781,-0.5778 -0.9342,-1.35603 -1.125,-2.21875 -0.1908,-0.86272 -0.19905,-1.83601 -0.0625,-2.84375 0.13655,-1.00774 0.40825,-2.04964 0.8125,-3.0625 0.40425,-1.01286 0.91895,-1.99691 1.53125,-2.875 0.32163,-0.46124 0.72727,-0.79289 1.09375,-1.1875 -0.10206,0.36659 -0.18217,0.7081 -0.34375,1.03125 -0.26245,0.5249 0,1.86887 0,2.46875 0,4.83324 1.39532,4.20783 3.90625,6.71875 0.46943,0.46943 1.52717,0.46466 1.9375,0.875 0.21996,0.21996 1.08293,-0.0727 1.25,-0.15625 0.50816,-0.25408 1.72464,0.0254 2.125,-0.375 0.41522,-0.41522 0.97834,-0.44708 1.40625,-0.875 0.53688,-0.53688 1.16916,-1.20177 1.78125,-1.84375 z"
           style="fill:#84ee26;fill-opacity:1;stroke:#ffffff;stroke-width:1px;stroke-linecap:butt;stroke-linejoin:miter;stroke-opacity:0" />
      </g>
      <path
         style="fill:#eebf97;fill-opacity:1;stroke:#ffffff;stroke-width:1px;stroke-linecap:butt;stroke-linejoin:miter;stroke-opacity:0"
         d="m 548.31793,320.72289 c -0.35151,0.45023 -0.43848,0.97149 -0.95968,0.78114 -0.87098,1.20538 -1.44029,2.61154 -2.0602,3.95718 -0.46693,1.59302 -0.15346,3.46197 -1.31228,4.80834 -1.04757,1.89654 -2.94685,3.58414 -3.67966,4.92682 2.2168,10.78546 -2.15281,14.80988 6.52084,7.30402 1.70056,-1.04647 3.80962,-0.95597 5.60584,-1.74715 1.1046,-0.96423 2.36609,-2.04288 2.65946,-3.55278 0.0632,-1.15001 -1.5992,-2.23956 -0.0833,-3.09934 1.00863,-0.99823 2.53316,-2.07514 2.27916,-3.68666 -0.0865,-1.06349 -2.13315,-1.97588 -0.78899,-2.88244 0.53934,-0.66237 2.03749,-1.77425 0.94557,-2.55762 -1.21993,-0.7751 -2.56074,0.2862 -3.55548,0.96082 -1.35742,0.94685 -2.84152,2.12091 -4.58695,2.02977 -1.39659,-0.12133 -0.68882,-1.74428 -0.78389,-2.66828 0.0192,-1.46766 0.26433,-2.97371 -0.0638,-4.41897 l -0.075,-0.12198 -0.0617,-0.0328 c -2e-5,-10e-6 -3e-5,-3e-5 -5e-5,-4e-5 z"
         id="path9427"
         inkscape:connector-curvature="0"
         sodipodi:nodetypes="ccccccccccccccccccc" />
      <path
         style="fill:#8b058b;fill-opacity:1;stroke:#ffffff;stroke-width:1px;stroke-linecap:butt;stroke-linejoin:miter;stroke-opacity:0"
         d="m 496.44622,342.23941 c -0.94086,0.18438 -2.03296,4.36254 -3.8903,7.17569 -1.26285,1.91274 -2.21065,4.31082 -3.35603,6.04563 -0.46462,0.70372 -0.20389,2.05701 -0.42832,2.89466 -0.51513,1.92257 5.59811,8.08651 7.05379,9.52924 0.72477,0.71832 1.11333,1.92828 1.58118,2.73859 1.4137,2.44852 5.71982,6.95386 7.53796,8.15425 2.29915,1.51797 6.7645,-4.07901 7.08569,-5.27782 0.22904,-0.85481 -1.36901,-2.10616 -1.8261,-2.68847 -2.38502,-3.03833 -6.42128,-4.80218 -9.2023,-7.55845 -1.51222,-1.49877 -2.59497,-3.4869 -3.847,-5.08189 -0.3534,-0.4502 -0.27795,-1.25941 -0.59579,-1.66434 -0.15911,-0.2027 -0.49439,-0.31483 -0.3953,-0.68464 0.14282,-0.53305 0.14671,-1.18474 0.43403,-1.61992 0.8296,-1.25654 8.11625,-6.50388 6.63459,-7.48213 -0.68646,-0.45322 -1.64904,-1.30058 -2.41051,-1.80333 -0.41524,-0.27415 -0.71768,-1.10931 -1.03552,-1.31916 -0.65416,-0.4319 -2.21588,-0.78279 -3.34007,-1.35791 z"
         id="path9429"
         inkscape:connector-curvature="0" />
      <path
         style="fill:#800080;fill-opacity:1;stroke:#ffffff;stroke-width:1px;stroke-linecap:butt;stroke-linejoin:miter;stroke-opacity:0"
         d="m 508.34375,330.375 c -2.09489,-0.007 -4.3378,0.77828 -6.21875,1.71875 -3.4028,-0.43487 -3.51955,6.36331 -6.34375,9.1875 -0.8824,0.88241 -0.43201,3.24451 -1.4375,4.25 -1.09965,1.09965 -1.08319,4.23944 -2.125,5.28125 -0.4976,0.4976 -0.8382,4.17639 -1.40625,5.3125 -0.61811,1.23621 -1.54116,10.38492 -1.75,10.59375 -0.51544,0.51544 -1.45518,2.42562 -2.375,8.28125 -0.17634,0.51671 -0.40596,1.06192 -0.6875,1.625 -0.26667,0.53334 0.26667,1.46667 0,2 -0.92492,1.84985 -1,7.85674 -1,10.25 0,1.03764 -1.13085,9.11915 -0.5,9.75 1.73543,1.73543 6.10075,1.75 9.25,1.75 5.39209,0 9.2941,0.0504 13.6875,-1.71875 1.40555,0.66304 3.83488,-0.52006 5.3125,0.21875 1.20759,0.60379 2.75986,0.62993 4,1.25 2.27425,1.13713 5.1457,0.8957 6.75,2.5 0.27858,0.27858 2.43713,2.31287 2.75,2 1.58592,-1.58591 2.36065,-11.02871 1,-13.75 -0.1607,-0.3214 -0.83188,-8.60944 -1,-8.875 0.18567,-6.78317 -2.03849,-12.28849 -3.25,-13.5 -0.35355,-0.35355 0.35356,-1.77145 0,-2.125 -1.94297,-1.94297 -0.34756,-20.10138 -1.4375,-22.28125 -1.82108,-3.64217 -3.18984,-7.43984 -6.34375,-10.59375 -0.50152,-0.50152 -2.06953,-1.00703 -2.46875,-1.40625 -1.22057,-1.22057 -2.77689,-1.71329 -4.40625,-1.71875 z"
         id="path9431"
         inkscape:connector-curvature="0"
         sodipodi:nodetypes="scssssccssssscssssscscssss" />
      <path
         inkscape:connector-curvature="0"
         id="path9433"
         transform="translate(-21.92031,251.02291)"
         d="m 537.4375,104.28125 c -1.23706,0.0119 -2.19303,0.22428 -2.6875,0.71875 -0.41248,0.41248 -1.90002,-0.22498 -2.3125,0.1875 -0.0738,0.0738 -4.05542,-0.007 -4.9375,0.875 -0.60246,0.60246 2.96966,3.17528 3.75,4.25 -0.20994,0.0938 -0.40686,0.21936 -0.5625,0.375 -0.18085,0.18085 -0.12942,0.81692 -0.34375,1.03125 -0.39679,0.39678 -1.97792,-0.26104 -2.5,0 -0.8962,0.4481 -1.36561,0.86561 -1.9375,1.4375 -0.20534,0.20533 0.143,0.74145 0.1875,0.875 0.26186,0.7856 0.26887,1.68162 0.53125,2.46875 0.44467,1.33402 2.01544,2.78088 2.65625,4.0625 0.12738,0.25477 1.34098,1.47153 1.21875,1.59375 -0.48685,0.48686 -6.55404,-0.29817 -7.40625,1.40625 -0.2479,0.49581 1.53901,4.41401 1.75,4.625 0.73123,0.73123 2.10434,2.02092 3,2.46875 0.10283,0.0514 0.30163,0.18378 0.5,0.34375 -4.3e-4,0.011 3.5e-4,0.0202 0,0.0312 -0.0154,0.47891 0.0511,0.95983 0.21875,1.15625 -1.89983,0.41603 -8.07362,-0.79027 -9.03125,1.125 -0.7937,1.58739 1.45208,2.29583 2.5,3.34375 1.66118,1.66118 3.3007,3.33982 5.46875,4.0625 0.61658,0.20553 1.33208,0.17319 1.9375,0.375 1.14756,0.38252 2.52869,0.10331 3.71875,0.5 1.94984,0.64995 3.61169,1.74011 5.4375,2.4375 -0.72178,0.14494 -2.45162,-0.5 -2.96875,-0.5 -3.78484,0 -11.63634,-0.55117 -13.96875,1.78125 -1.93408,1.93407 -2.4214,1.56892 -2.46875,4 3.68264,-0.0601 6.78859,-0.3314 10.15625,-1.6875 1.40555,0.66304 3.83488,-0.52006 5.3125,0.21875 1.20759,0.60379 2.75986,0.62993 4,1.25 2.27425,1.13713 5.1457,0.8957 6.75,2.5 0.27858,0.27858 2.43713,2.31287 2.75,2 1.58592,-1.58591 2.36065,-11.02871 1,-13.75 -0.1607,-0.3214 -0.83188,-8.60944 -1,-8.875 0.18567,-6.78317 -2.03849,-12.28849 -3.25,-13.5 -0.35355,-0.35355 0.35356,-1.77145 0,-2.125 -0.91026,-0.91026 -1.03426,-5.40711 -1.03125,-10.125 -2.18376,-0.51575 -4.59838,-0.95514 -6.4375,-0.9375 z"
         style="fill:#6f0471;fill-opacity:1;stroke:#ffffff;stroke-width:1px;stroke-linecap:butt;stroke-linejoin:miter;stroke-opacity:0" />
      <path
         inkscape:connector-curvature="0"
         id="path9435"
         transform="translate(-21.92031,251.02291)"
         d="m 540.1875,108.90625 c -0.83219,-0.0135 -1.58193,0.0878 -2.09375,0.34375 -3.0691,1.53455 1.73501,6.47001 2.65625,8.3125 0.82225,1.64449 -3.02606,-0.61197 -3.875,-0.1875 -0.12487,0.0625 -0.32185,0.1063 -0.1875,0.375 1.01849,2.03699 1.777,4.21025 2.84375,6.34375 1.00702,2.01403 2.50322,3.97519 3.53125,6.03125 0.34977,0.69955 0.5359,1.21409 0,1.75 -1.78412,1.78412 -5.21693,-1.50981 -7.0625,-2.125 -0.28252,-0.0942 -1.85283,-0.42842 -2.125,-0.15625 -0.25514,0.25514 0.94811,1.70843 1.40625,1.9375 1.40948,0.70473 7.4375,4.97251 7.4375,6 0,0.2023 -1.39009,0.53125 -1.78125,0.53125 -0.88396,0 -1.98267,0.43172 -2.84375,0.71875 -1.29773,0.43258 -5.6806,-0.0763 -6.34375,1.25 -0.17355,0.3471 0.0398,0.94607 0.15625,1.0625 0.30768,0.30768 0.10641,2.06883 0.90625,2.46875 1.17408,0.58704 3.4089,0.28654 4.0625,1.59375 0.063,0.12593 -2.09979,-0.18448 -2.46875,0 -0.90988,0.45494 -7.20424,0.43526 -6.375,2.09375 0.15214,0.30429 0.30776,0.52266 0.46875,0.6875 0.282,-0.10014 0.55814,-0.19749 0.84375,-0.3125 1.40555,0.66304 3.83488,-0.52006 5.3125,0.21875 1.20759,0.60379 2.75986,0.62993 4,1.25 2.27425,1.13713 5.1457,0.8957 6.75,2.5 0.27858,0.27858 2.43713,2.31287 2.75,2 1.58592,-1.58591 2.36065,-11.02871 1,-13.75 -0.1607,-0.3214 -0.83188,-8.60944 -1,-8.875 0.18567,-6.78317 -2.03849,-12.28849 -3.25,-13.5 -0.35355,-0.35355 0.35356,-1.77145 0,-2.125 -0.62091,-0.62091 -0.83618,-2.96158 -0.9375,-5.84375 -1.26666,-0.3133 -2.61799,-0.57484 -3.78125,-0.59375 z"
         style="fill:#640466;fill-opacity:1;stroke:#ffffff;stroke-width:1px;stroke-linecap:butt;stroke-linejoin:miter;stroke-opacity:0" />
      <path
         inkscape:connector-curvature="0"
         transform="translate(-21.92031,251.02291)"
         id="path9437"
         d="m 544.8125,117.125 c -0.54463,0.2019 -0.98079,0.51921 -0.78125,0.71875 0.76097,0.76097 0.53121,2.37496 1.3125,3.15625 0.16229,0.16229 0.12886,0.75386 0.28125,0.90625 0.1682,0.16822 -0.0694,0.89936 0.0937,1.0625 0.13584,0.13584 0.13848,0.46446 0.25,0.6875 0.85036,1.70071 0.51369,3.55863 1.34375,5.21875 0.1007,0.20132 -0.043,0.50774 0.0625,0.71875 0.22667,0.45335 -0.15625,1.39302 -0.15625,1.75 0,0.43589 -0.0943,1.06361 -0.28125,1.4375 -0.0991,0.19812 0.1875,1.89973 0.1875,2.28125 0,0.0838 -0.0534,0.47785 0,0.53125 0.28693,0.28692 0.26675,0.90848 0.4375,1.25 0.13683,0.27364 0.65453,1.03297 0.28125,1.40625 -0.0235,0.0235 -0.66089,-0.34375 -0.8125,-0.34375 -0.33594,0 -2.52231,-1.4598 -2.75,-1.6875 -0.0219,-0.0219 -0.875,-0.2338 -0.875,0 0,0.51707 2.46789,2.09289 2.9375,2.5625 0.17716,0.17716 0.59381,0.25006 0.78125,0.4375 0.51833,0.51833 0.89862,1.08612 1.3125,1.5 0.57588,0.57588 0.80619,3.97507 0.28125,4.5 -0.062,0.062 -0.0489,3.14269 -0.53125,3.625 -0.34923,0.34924 0.19921,1.58204 -0.1875,1.96875 -0.19419,0.19419 -0.43905,0.5953 -0.625,0.78125 -0.15801,0.15801 -0.71545,-0.46545 -0.78125,-0.53125 -0.27379,-0.2738 -0.97252,-0.0975 -1.3125,-0.4375 -0.53989,-0.53989 -1.67236,-0.76611 -2.21875,-1.3125 -0.21905,-0.21906 -1.42719,-0.11469 -1.59375,-0.28125 -0.35481,-0.35481 -1.00301,-0.6265 -1.5,-0.875 -0.29017,-0.14508 -1.41239,-0.0999 -1.59375,-0.28125 -0.33703,-0.33703 -2.22821,-0.47821 -2.375,-0.625 -0.16879,-0.16879 -1.56965,-0.4134 -1.59375,-0.4375 -0.10097,-0.10098 -2.64873,-0.53877 -2.84375,-0.34375 -0.36047,0.36047 -1.13891,0.42016 -1.5,0.78125 -0.18165,0.18167 -0.72264,0.12889 -0.875,0.28125 -0.0441,0.0441 -0.3683,0 -0.4375,0 -0.88491,0 -1.32528,0.25 -2.21875,0.25 -0.11242,0 -0.64715,-0.0716 -0.71875,0 -0.20605,0.20606 -0.48767,0.70643 -0.6875,0.90625 -0.0481,0.0481 -0.038,0.0919 0,0.15625 1.40656,-0.25475 2.77638,-0.63793 4.21875,-1.21875 1.40555,0.66304 3.83488,-0.52006 5.3125,0.21875 1.20759,0.60379 2.75986,0.62993 4,1.25 2.27425,1.13713 5.1457,0.8957 6.75,2.5 0.27858,0.27858 2.43713,2.31287 2.75,2 1.58592,-1.58591 2.36065,-11.02871 1,-13.75 -0.1607,-0.3214 -0.83188,-8.60944 -1,-8.875 0.18567,-6.78317 -2.03849,-12.28849 -3.25,-13.5 -0.0738,-0.0738 -0.0931,-0.19646 -0.0937,-0.34375 z"
         style="fill:#5b005b;fill-opacity:1;stroke:#ffffff;stroke-width:1px;stroke-linecap:butt;stroke-linejoin:miter;stroke-opacity:0" />
      <path
         inkscape:connector-curvature="0"
         style="fill:#eebf97;fill-opacity:1;stroke:#ffffff;stroke-width:1px;stroke-linecap:butt;stroke-linejoin:miter;stroke-opacity:0"
         d="m 510.09375,309.59375 c -0.25349,-0.005 -0.48314,0.0156 -0.6875,0.0312 -0.46712,0.0359 -0.8238,0.11555 -0.96875,0.28125 -0.58706,0.67111 -0.85861,0.80869 -2.375,1.21875 -1.54391,0.29345 -1.35958,1.95945 -2.84375,5.5 -2.75984,6.58366 -2.19601,13.79601 0.9375,19.25 0.48466,-0.13481 0.91043,-0.18332 1.09375,0 0.57533,0.57533 1.95701,1.70701 2.75,2.5 0.5862,0.5862 0.54694,1.79695 1,2.25 0.18706,0.18706 0.26851,0.5052 0.28125,0.875 0.005,0.003 -0.005,0.0279 0,0.0312 0.98238,0.69602 2.04462,1.30216 3.1875,1.78125 3.15655,1.3232 7.43735,-1.64503 9.375,-2.78125 1.25768,-0.7375 2.40575,-2.58191 3.375,-4.90625 0.0642,0.0263 0.12255,0.06 0.15625,0.0937 0.26967,0.26967 1.24575,0.16051 1.5,-0.0937 0.29462,-0.29461 -0.29461,0.10712 0,-0.1875 0.10367,-0.10367 1.59967,0.36907 1.875,0.0937 0.19719,-0.19719 0.86971,-0.0572 1.0625,-0.25 0.14174,-0.14174 0.47599,-0.25724 0.59375,-0.375 0.56116,-0.56116 0.95401,-0.98668 1.09375,-1.40625 0.0488,-0.14658 0.083,-0.28413 0.0625,-0.4375 -0.002,-0.0178 0.003,-0.0445 0,-0.0625 0.173,-2.56488 -2.04598,-5.59492 -3.78125,-6.59375 -0.31023,-0.31023 -0.61499,-0.81992 -0.90625,-1.375 -10e-4,-0.37653 0,-0.76259 0,-1.09375 0,-4.70138 -1.57193,-8.7176 -6.53125,-6.75 -0.32314,-0.10735 -0.62252,-0.24752 -0.875,-0.5 -0.24721,-0.2472 -0.40826,-1.38103 -0.53125,-1.75 -0.40442,-1.21327 0.32832,-2.70026 1,-3.625 -3.20902,-0.78875 -7.45614,-1.67085 -9.84375,-1.71875 z"
         id="path9439" />
      <path
         inkscape:connector-curvature="0"
         style="fill:#9a7a7a;fill-opacity:1;stroke:#ffffff;stroke-width:1px;stroke-linecap:butt;stroke-linejoin:miter;stroke-opacity:0"
         d="m 513.28125,314.0625 c -0.25192,0.0298 -0.41102,0.47345 -0.4375,0.5 -0.49163,0.49162 -1.49551,0.43301 -2.125,1.0625 -0.47141,0.4714 0.4714,2.34109 0,2.8125 -0.87661,0.8766 -1.83737,1.92476 -2.46875,3.1875 -0.27626,0.55252 -0.71875,4.38703 -0.71875,4.9375 0,1.20915 1.65011,2.53872 2,2.75 -0.27134,0.16929 -0.85599,1.20651 -0.5625,1.5 0.5062,0.5062 0.79618,1.51493 1.40625,2.125 0.14118,0.14118 0.20289,0.55739 0.21875,1.0625 L 506.5,330.46875 c -1.80457,3.60913 -0.61972,6.09902 1.40625,8.125 0.38662,0.38662 -1.16021,2.69542 -1.40625,3.1875 -0.68741,1.37481 0.98582,1.97164 1.40625,2.8125 0.53517,1.07033 -0.76572,2.74982 -0.375,3.53125 0.41755,0.8351 1.34188,-0.0644 1.78125,0.375 0.27639,0.27639 -0.29775,0.5954 -0.34375,0.6875 -0.0217,0.0433 1.27514,7.3064 1.40625,7.4375 0.78207,0.78211 1.78125,-1.45198 1.78125,0.71875 0,0.97579 1.31549,4.35088 3.28125,4.4375 0.37209,0.90038 0.88771,1.77542 1.3125,2.625 0.2501,0.50021 -0.0505,1.73077 0.34375,2.125 0.56223,0.56223 1.48793,-0.86541 1.78125,-0.71875 0.33586,0.16793 1.19364,1.96261 2.09375,1.0625 0.8606,-0.8606 1.29728,-2.70354 2.125,-3.53125 0.12794,-0.12794 0.18025,-0.29857 0.1875,-0.46875 0.0604,-0.0904 0.13425,-0.19675 0.1875,-0.25 0.23178,-0.23178 1.22912,-0.16662 1.40625,-0.34375 0.98726,-0.98726 -0.53636,-5.46364 0,-6 1.98625,-1.98625 3.06574,-3.99676 0.6875,-6.375 -0.35437,-0.35437 1.0625,-1.58521 1.0625,-1.78125 0,-1.8168 -0.82696,-3.39179 0.375,-4.59375 0.79463,-0.79463 -0.19417,-3.8857 -1.28125,-5.625 0.41671,-0.29653 0.74997,-0.56247 0.90625,-0.71875 0.40563,-0.40563 0.43437,-1.07326 0.21875,-1.8125 -0.14969,-0.0182 -0.32478,-0.072 -0.40625,-0.0312 -0.55384,0.27691 -1.87379,0.34496 -2.28125,-0.0625 -0.55923,-0.55924 0.0413,-2.10381 0.34375,-2.40625 0.13102,-0.13102 0.31785,-0.25011 0.5,-0.375 -1.44769,-1.44465 -3.37544,-2.31206 -4.71875,-0.96875 -0.23178,-0.23178 -0.19787,-1.26037 -0.375,-1.4375 -0.19,-0.19 -1.82933,-0.39184 -2.46875,-1.03125 -0.58925,-0.58926 0.24551,-2.59825 -0.34375,-3.1875 -0.91858,-0.91859 -2.0301,-2.37384 -3.1875,-3.53125 -0.20133,-0.20133 1.01489,-6.79761 -0.34375,-8.15625 -0.10901,-0.10901 -0.19728,-0.13494 -0.28125,-0.125 z"
         id="path9441" />
      <path
         style="fill:#916f6f;fill-opacity:1;stroke:#ffffff;stroke-width:1px;stroke-linecap:butt;stroke-linejoin:miter;stroke-opacity:0"
         d="m 509.875,338.48718 c -0.0417,0.16667 0.0417,0.54167 -0.125,0.5 -0.16667,-0.0417 0.24648,-0.62148 0.125,-0.5 -0.48652,0.48652 -1.17994,4.71497 -0.25,4.25 0.18023,-0.0901 0.21775,-1.06451 0.125,-1.25 -0.1716,-0.3432 0.41573,-0.79073 0.625,-1 0.11817,-0.11817 0.0204,-0.64543 0.125,-0.75 0.22939,-0.22938 0.60152,-0.35152 0.875,-0.625 0.15862,-0.15862 0.41668,1.16668 0.5,1.25 0.20116,0.20116 0.64425,0.26925 0.875,0.5 0.13511,0.13511 0.20593,0.47797 0.5,0.625 0.30261,0.15131 0.74599,-0.125 1.125,-0.125 0.19358,0 0.70612,0.16888 0.75,0.125 0.27612,-0.27611 -0.25,-0.85526 -0.25,-1 0,-0.009 0.35207,0.0115 0.375,0 0.18927,-0.0946 0.8979,-0.375 1,-0.375 0.13692,0 0.77987,0.59513 1.125,0.25 0.6366,-0.6366 -0.36055,-0.86055 -0.625,-1.125 -0.052,-0.052 -0.052,-1.19801 0,-1.25 0.0308,-0.0308 0.47147,-0.27853 0.375,-0.375 -0.0833,-0.0833 -1.12846,-0.87153 -0.75,-1.25 0.0669,-0.0669 3.18897,-0.061 3.25,0 0.029,0.029 0.75024,0.87477 0.875,0.75 0.95873,-0.95873 -2.70927,-2.58427 -3,-2.875 -1.07953,-1.07953 1.49719,-1.81391 0.125,-2.5 -0.71847,-0.35924 -1.53002,0.43504 -1.75,0.875 -0.25493,0.50985 -0.1932,1.2046 -0.375,1.75 -0.39124,1.17372 -1.44507,3.28504 -2.625,3.875 -0.46862,0.23431 -0.99966,-0.25017 -1.5,0 -0.5769,0.28845 -0.62125,0.42575 -1.5,0.25 z"
         id="path9443"
         inkscape:connector-curvature="0" />
      <path
         inkscape:connector-curvature="0"
         style="fill:#e9b282;fill-opacity:1;stroke:#ffffff;stroke-width:1px;stroke-linecap:butt;stroke-linejoin:miter;stroke-opacity:0"
         d="m 527.125,325.5 c -0.0197,0.0153 -0.0466,0.0154 -0.0625,0.0312 -1.00039,1.00038 -0.75398,1.31449 -2.375,2.125 -0.27085,0.13543 -0.94314,0.10229 -1.25,0 -0.76528,-0.25509 -1.65057,-0.60654 -2.375,-0.96875 -0.53565,-0.26783 -1.2668,-0.19422 -1.875,-0.4375 -1.44087,0.0855 -1.46984,4.93533 -0.625,6.625 0.0355,0.071 0.22765,0.33485 0.28125,0.28125 0.11218,-0.11218 0.0955,-0.34732 0.1875,-0.53125 0.33161,-0.66323 0.51694,-0.8991 1.21875,-1.25 0.25706,-0.12854 0.74006,0.8331 1.34375,0.53125 0.4861,-0.24305 0.8264,-0.7257 1.3125,-0.96875 0.33123,-0.16562 1.03956,0.1792 1.3125,-0.0937 1.05176,-1.05175 2.66836,-1.14923 3.375,-2.5625 0.11103,-0.22206 0.43317,-1.054 0.4375,-1.6875 -0.086,-0.0576 -0.16597,-0.13913 -0.25,-0.1875 -0.21822,-0.21822 -0.44624,-0.54427 -0.65625,-0.90625 z"
         id="path9445" />
      <path
         style="fill:#e7a974;fill-opacity:1;stroke:#ffffff;stroke-width:1px;stroke-linecap:butt;stroke-linejoin:miter;stroke-opacity:0"
         d="m 517.60216,328.10806 c 0.0924,1.68381 1.36613,3.40684 2.74004,2.03293 0.2581,-0.2581 0.76935,-0.23902 0.97228,-0.44194 0.25481,-0.25481 2.6368,0.10324 3.09359,-0.35355 0.13274,-0.13274 0.56233,-0.73149 0.35355,-1.14905 -0.12192,-0.24385 -0.73272,-0.37917 -0.97227,-0.61872 -0.64826,-0.64826 -1.51823,-1.53727 -2.47487,-1.85615 -0.3265,-0.10884 -0.73417,-0.0679 -1.06066,-0.17678 -0.18149,-0.0605 -0.66202,-0.19932 -0.88389,-0.0884 -0.65771,0.32886 -0.72784,1.10214 -0.97227,1.59099 -0.24187,0.48373 -0.59178,0.55136 -0.7955,1.06066 z"
         id="path9447"
         inkscape:connector-curvature="0" />
      <path
         style="fill:#ffffff;fill-opacity:1;stroke:#ffffff;stroke-width:1px;stroke-linecap:butt;stroke-linejoin:miter;stroke-opacity:0"
         d="m 520.05084,323.92236 c -0.13297,1.70457 0.70857,3.6583 1.69762,4.40093 0.56473,0.42403 1.22503,0.45087 1.72455,0.82594 0.26489,0.19889 1.06264,0.0273 1.42501,-0.0242 2.88673,-0.41079 2.87151,-3.66184 2.45359,-6.59866 -0.0812,-0.57061 -0.088,-1.47291 -0.42407,-1.72523 -0.3332,-0.25018 -0.066,-1.30004 -0.39916,-1.55022 -0.29487,-0.22141 -0.42941,-0.79137 -0.67447,-0.97537 -0.59187,-0.4444 -1.45936,-0.82072 -2.2994,-1.10124 -0.4101,-0.13695 -1.27144,0.20638 -1.55022,0.39916 -2.67005,1.84635 -3.24066,2.6955 -1.95345,6.34893 z"
         id="path9449"
         inkscape:connector-curvature="0" />
      <path
         style="fill:#350335;fill-opacity:1;stroke:#ffffff;stroke-width:1px;stroke-linecap:butt;stroke-linejoin:miter;stroke-opacity:0"
         d="m 522.57507,325.34874 c -0.0227,0.2337 0.36675,1.52589 1.39875,2.30076 0.36869,0.27683 1.24057,0.22142 1.42502,-0.0242 0.12078,-0.16086 1.05941,-0.37005 1.32539,-0.72428 0.42724,-0.56902 0.65828,-4.82039 -0.24701,-5.50013 -0.37609,-0.28238 -1.04612,-0.78547 -1.39944,-1.05076 -0.20703,-0.15545 -0.573,0.204 -0.67514,0.27463 -0.31383,0.21702 -0.56345,0.10129 -0.85017,0.29954 -1.41114,0.97581 -1.52352,2.87443 -0.9774,4.42447 z"
         id="path9451"
         inkscape:connector-curvature="0" />
      <path
         style="fill:#a48787;fill-opacity:1;stroke:#ffffff;stroke-width:1px;stroke-linecap:butt;stroke-linejoin:miter;stroke-opacity:0"
         d="m 516.625,358.11218 c -0.0932,0.44043 -0.0918,1.19133 0.125,1.625 0.50996,1.01992 0.6873,2.43731 1.375,3.125 0.37731,0.37731 0.1376,1.23741 0.375,1 0.51728,-0.51728 0.2192,-1.875 1.25,-1.875 0.29785,0 0.0241,0.54826 0.125,0.75 0.12172,0.24343 1.05545,1.19455 1.25,1 0.32654,-0.32654 0.15419,-2.09581 -0.125,-2.375 -0.30114,-0.30114 -1.44765,0.21368 -1.625,0.125 -0.20105,-0.10052 -0.27731,-0.52731 -0.375,-0.625 -0.31514,-0.31514 -0.96421,0.375 -1.125,0.375 -0.16286,0 -0.19345,-0.7619 -0.25,-0.875 -0.15057,-0.30115 -0.0507,-1.3007 -0.25,-1.5 -0.2602,-0.2602 -0.24475,-0.11844 -0.75,-0.75 z"
         id="path9453"
         inkscape:connector-curvature="0" />
      <path
         inkscape:connector-curvature="0"
         style="fill:#a48787;fill-opacity:1;stroke:#ffffff;stroke-width:1px;stroke-linecap:butt;stroke-linejoin:miter;stroke-opacity:0"
         d="m 508.625,338.625 c -0.17494,0 -0.40997,0.0549 -0.65625,0.1875 -4.5e-4,0.008 7.4e-4,0.023 0,0.0312 -0.0657,0.72409 -1.25588,2.51175 -1.46875,2.9375 -0.68741,1.37481 0.98582,1.97164 1.40625,2.8125 0.53517,1.07033 -0.76572,2.74982 -0.375,3.53125 0.41755,0.8351 1.34188,-0.0644 1.78125,0.375 0.27639,0.27639 -0.29775,0.5954 -0.34375,0.6875 -0.0217,0.0433 1.27514,7.3064 1.40625,7.4375 0.78207,0.78211 1.78125,-1.45198 1.78125,0.71875 0,0.97579 1.31549,4.35088 3.28125,4.4375 0.16495,0.39915 0.36155,0.79832 0.5625,1.1875 -0.10643,-0.52979 0.30942,-1.40933 -0.125,-1.84375 -0.45124,-0.45124 -1.20537,-0.83037 -1.625,-1.25 -0.347,-0.34703 0.0412,-1.20878 -0.25,-1.5 -0.91437,-0.91437 -0.21468,-1.05435 -0.75,-2.125 -0.26533,-0.53066 -0.69647,-0.89293 -1,-1.5 -0.35314,-0.70627 0.52069,-1.58363 0.125,-2.375 -0.38087,-0.76175 -1.66418,-0.57835 -2,-1.25 -0.33456,-0.66912 0.55011,-1.52478 0.25,-2.125 -0.19575,-0.3915 -0.67407,-0.42407 -0.875,-0.625 -0.0502,-0.0502 -0.9504,-2.47413 -0.875,-2.625 0.1314,-0.2628 0.75,-0.46665 0.75,-0.75 0,-0.0587 -0.1762,0.1619 -0.25,0.125 -0.3247,-0.16235 -0.375,-0.10221 -0.375,-0.5 0,-0.14714 1.21023,-0.78977 1,-1 -0.21855,-0.21855 -1.49403,-0.24403 -1.625,-0.375 -0.3125,-0.3125 -0.6875,-0.5625 -1,-0.875 -0.45171,-0.45171 1.70273,-3.75 1.25,-3.75 z m 7.5,24.625 c 0.20746,0.39437 0.43301,0.77227 0.625,1.15625 0.2501,0.50021 -0.0505,1.73077 0.34375,2.125 0.56223,0.56223 1.48793,-0.86541 1.78125,-0.71875 0.31265,0.15632 1.07593,1.69785 1.90625,1.1875 0.0506,-0.43531 -0.0148,-0.85856 -0.28125,-1.125 -0.13465,-0.13465 -0.69908,-0.0741 -0.875,-0.25 -0.2398,-0.23983 0.0248,-1.10024 -0.25,-1.375 -0.29095,-0.29095 -0.9395,1.00393 -1,1.125 -0.20668,0.41336 -0.308,-0.692 -0.625,-0.375 -0.21072,0.2107 -0.1696,0.5804 -0.5,0.25 -0.32695,-0.32695 0.53066,-0.96934 0.25,-1.25 -0.32296,-0.32296 -1.3096,-0.6846 -1.375,-0.75 z"
         id="path9455" />
      <path
         style="fill:#a48787;fill-opacity:1;stroke:#ffffff;stroke-width:1px;stroke-linecap:butt;stroke-linejoin:miter;stroke-opacity:0"
         d="m 511.375,341.61218 c -0.0598,-0.7243 -1.06706,0.86588 -0.875,1.25 0.28104,0.56208 1.38064,0.88627 1.875,1.875 0.27079,0.54159 -0.42936,1.39128 -0.125,2 0.58106,1.16211 0.42822,2.60643 0.875,3.5 0.44382,-0.73969 0.50764,-0.75764 0.875,-1.125 0.41602,-0.41602 -0.59866,-1.05267 -0.375,-1.5 0.11073,-0.22147 0.1865,-2.627 0.125,-2.75 -0.12001,-0.24001 -0.73038,-0.23038 -0.875,-0.375 -0.57589,-0.57589 0.78897,-2.52393 -1.5,-2.875 z"
         id="path9467"
         inkscape:connector-curvature="0" />
      <path
         style="fill:#a48787;fill-opacity:1;stroke:#ffffff;stroke-width:1px;stroke-linecap:butt;stroke-linejoin:miter;stroke-opacity:0"
         d="m 516.625,348.73718 c -0.26747,-0.37317 -0.25,-0.50493 -0.25,-0.875 0,-0.62448 0.45516,-1.38453 0.25,-2 -0.25541,-0.76623 -1,-1.26708 -1,-2.25 0,-0.19491 0.14662,-1.11419 0.375,-1 0.64261,0.32131 0.89765,2.89765 1.375,3.375 0.49142,0.49142 1.26459,-1.875 1.75,-1.875 0.0303,0 -0.0969,0.68125 0.125,1.125 0.12668,0.25336 0.24312,0.24312 0.375,0.375 0.57087,0.57087 -1.29486,1.52243 -1.5,1.625 -0.5449,0.27245 -0.12397,0.74897 -0.375,1 -0.13446,0.13446 -0.87051,0.34731 -1.125,0.5 z"
         id="path9469"
         inkscape:connector-curvature="0" />
      <path
         inkscape:connector-curvature="0"
         style="fill:#916f6f;fill-opacity:1;stroke:#ffffff;stroke-width:1px;stroke-linecap:butt;stroke-linejoin:miter;stroke-opacity:0"
         d="m 526.53125,344.28125 c -0.27483,0.13294 -0.55518,0.24268 -0.65625,0.34375 -0.70296,0.70296 0.24449,0.88602 -0.125,1.625 -0.20065,0.40129 -1.07817,0.84366 -0.75,1.5 0.156,0.31199 0.77329,0.74939 1.03125,1.15625 0.29389,-0.34916 0.59375,-0.6895 0.59375,-0.78125 0,-1.46371 -0.51365,-2.76257 -0.0937,-3.84375 z"
         id="path9471" />
      <path
         inkscape:connector-curvature="0"
         style="fill:#e9b282;fill-opacity:1;stroke:#ffffff;stroke-width:1px;stroke-linecap:butt;stroke-linejoin:miter;stroke-opacity:0"
         d="m 555.53764,327.97599 c -0.91544,0.14282 -4.2274,1.11829 -4.41016,1.29176 -0.95177,0.90341 -2.8942,0.67542 -3.91929,1.64844 -0.65079,0.61771 -0.17825,3.27677 -1.17289,4.22086 -0.55881,0.53042 -1.7421,0.46538 -2.1479,0.85057 -0.17861,0.16955 -2.71572,3.04492 -2.9348,3.45595 -0.0153,0.0285 -0.0203,0.0629 -0.0336,0.0929 0.28339,3.57526 -0.0612,5.91556 0.35924,6.60536 0.012,0.007 0.0179,0.0254 0.0303,0.032 0.12557,0.0669 0.26888,0.11502 0.40204,0.16679 0.009,0.003 0.0222,-0.002 0.0312,10e-4 0.70637,-0.0777 2.12686,-1.29062 5.07049,-3.83792 1.70055,-1.04647 3.81407,-0.96947 5.61028,-1.76065 1.09729,-0.95785 2.35116,-2.03149 2.65528,-3.52576 -2.45597,0.81419 -5.60084,2.47676 -6.32798,1.71069 -0.24293,-0.25594 1.01089,-1.47747 1.29599,-1.74807 1.28105,-1.21596 2.95981,-1.73191 4.34495,-2.38759 0.0583,-0.24103 0.2333,-0.48809 0.61227,-0.70304 0.74702,-0.73931 1.77976,-1.52744 2.16063,-2.5383 -0.6473,0.0852 -1.60342,0.72982 -1.70973,0.83072 -0.38341,0.36394 -2.99143,0.0975 -3.35645,0.44394 -0.10951,0.10395 -2.44974,1.07822 -2.86152,0.6444 -0.26842,-0.28277 0.49729,-0.65482 0.5498,-0.70466 l 2.37116,-2.22021 c 0.93802,-0.89037 2.49203,-0.81163 3.22795,-1.51015 0.0602,-0.0571 0.58535,-0.8277 0.37132,-1.05318 -0.0172,-0.0182 -0.0879,-0.0261 -0.21868,-0.006 z"
         id="path9473" />
      <path
         style="fill:#800080;fill-opacity:1;stroke:#ffffff;stroke-width:1px;stroke-linecap:butt;stroke-linejoin:miter;stroke-opacity:0"
         d="m 543.28219,329.88332 c -1.7729,0.11817 -4.36602,4.67487 -5.07945,5.67237 -2.01061,2.81122 -8.50275,8.89286 -9.24108,11.28721 -0.1564,0.50718 -1.16367,0.8301 -2.15431,1.02344 0.11515,0.17162 0.13316,0.32812 0.35328,0.50987 0.0227,0.0188 0.0635,0.0532 0.0864,0.0722 -0.0676,0.0344 -0.13727,0.0992 -0.20327,0.13509 -0.0585,-0.14401 -0.10024,-0.28578 -0.14256,-0.42411 -0.68195,-0.069 -1.38148,-0.1685 -1.57094,-0.2963 -2.43429,-1.6413 -8.17145,-0.27407 -11.04243,-1.07319 -1.96548,-0.54708 -4.00093,-1.3383 -5.7125,-1.81471 -0.99991,-0.27835 -2.32043,0.60297 -3.32084,-0.39194 -4.16343,2.6844 -5.74036,9.56402 -0.0169,11.15711 3.27597,0.91186 5.84192,2.61172 10.1175,3.8018 3.03586,0.845 6.54055,0.16932 9.54106,1.00453 0.39409,0.10968 0.96114,-0.0104 1.56616,-0.2386 0.007,0.006 0.0232,-0.003 0.031,0.003 0.59262,0.43657 1.41219,0.39279 2.49817,-0.1374 0.76343,0.3659 3.72765,-1.13249 4.22695,-1.58425 2.33705,-2.11449 7.09134,-6.0039 9.39464,-9.22735 1.36896,-0.35112 2.33826,-1.11465 3.38742,-1.9583 0.2941,-0.23648 0.23113,-2.4845 0.0778,-4.76948 -0.003,-0.0542 -0.0105,-0.10439 -0.0142,-0.1587 0.0321,-3.54113 -0.1716,-8.74686 -0.98383,-9.75695 -0.0642,-0.0798 -0.20528,-0.78829 -0.27978,-1.47633 -0.57755,-0.77487 -1.02595,-1.27576 -1.17665,-1.32223 -0.1101,-0.034 -0.22355,-0.045 -0.34175,-0.0371 z"
         id="path9475"
         inkscape:connector-curvature="0" />
      <path
         inkscape:connector-curvature="0"
         id="path9477"
         d="m 508.70153,360.70316 c 0.22421,-0.37331 0.0495,-1.53417 -1.10065,-2.96454 -0.79707,-0.99124 -3.11606,-1.8804 -3.63739,-2.52873 -0.67783,-0.84295 -1.68479,-1.89572 -2.68234,-3.13627 -0.28792,-0.35806 -0.13879,-1.28238 -0.33642,-1.81469 -0.32656,-0.87955 0.2761,-1.66558 0.75621,-2.05168 2.52344,-2.02915 6.41022,3.38385 7.48868,4.72503 0.54114,0.67296 1.94363,1.02078 2.48351,1.69216 0.58899,0.73248 7.75817,1.46072 8.63053,0.75924 0.38965,-0.31332 -0.004,-1.60078 0.38563,-1.9141 0.25977,-0.20888 0.83286,-0.0281 1.09263,-0.237 0.20177,-0.16225 0.57946,0.18486 0.6839,0.25206 0.56756,0.36524 1.08101,0.31961 1.70019,0.71805 0.76071,0.48952 1.02143,1.86867 1.50938,2.47548 0.30481,0.37907 1.64774,0.11866 1.97135,-0.14158 0.33726,-0.27121 1.48797,0.33936 1.73835,0.36654 0.42333,0.046 4.36889,-2.06949 4.6989,-2.33486 0.4043,-0.32511 -0.43951,-0.92402 -0.21792,-1.26837 0.27684,-0.43019 3.21186,-0.97871 3.70569,-1.37581 0.48044,-0.38633 0.63648,-1.31381 1.06953,-1.66204 0.69818,-0.56141 -2.08132,-2.17597 -1.29548,-2.80789 0.92434,-0.74327 2.41492,-1.13987 3.21663,-1.78454 0.68055,-0.54724 -0.0904,-2.49371 0.50013,-2.96856 1.37352,-1.10448 2.06647,-2.41697 3.45361,-0.69192 0.22049,0.27419 0.24399,0.90183 0.41275,1.1117 0.75979,0.94487 -1.49417,3.93535 -1.5315,4.27911 -0.14226,1.31024 -1.75313,1.73053 -2.57088,2.38811 -0.48883,0.39307 -0.74679,2.5253 -1.20311,2.89223 -0.42697,0.34335 -0.90131,0.81626 -1.20711,1.29147 -0.61458,0.95505 -2.41198,1.13752 -3.21662,1.78454 -0.69092,0.55558 -1.18512,1.11339 -1.96733,1.74237 -0.41969,0.33748 -1.29162,0.39701 -1.87193,0.86365 -0.11292,0.0908 -0.31489,0.57401 -0.42781,0.66482 -0.65158,0.52395 -2.10502,0.40947 -2.76973,0.94399 -0.0799,0.0642 -4.05542,0.14299 -4.09935,0.0884 -1.22679,-1.52563 -7.54326,-1.0937 -9.68901,-2.47451 -0.0106,-0.007 -5.31607,-1.28845 -5.37173,-1.2945 -0.0509,-0.006 -2.40078,-0.59192 -1.7956,0.16068 1.01426,1.26133 2.20689,1.99289 1.49431,4.252 z"
         style="fill:#6f0471;fill-opacity:1;stroke:#ffffff;stroke-width:1px;stroke-linecap:butt;stroke-linejoin:miter;stroke-opacity:0" />
      <path
         inkscape:connector-curvature="0"
         style="fill:#e7a974;fill-opacity:1;stroke:#ffffff;stroke-width:1px;stroke-linecap:butt;stroke-linejoin:miter;stroke-opacity:0"
         d="m 531.1875,330.75 c 0.0114,0.0472 0.0312,0.18259 0.0312,0.1875 0,0.69462 0.12595,2.15529 -0.28125,2.5625 -0.40551,0.4055 -0.99023,0.83397 -1.40625,1.25 -0.16755,0.16755 -1.44532,0.4375 -1.59375,0.4375 -0.57155,0 -1.41,-0.40438 -2.03125,-0.0937 -0.14777,0.0739 -0.33121,0.19113 -0.5,0.3125 0.0204,0.004 0.0431,0.0118 0.0625,0.0312 0.0991,0.0991 0.16248,0.2449 0.21875,0.40625 10e-4,0.004 0.03,-0.004 0.0312,0 0.39949,0.0612 0.97008,-0.0326 1.15625,-0.21875 0.29462,-0.29461 -0.29461,0.10712 0,-0.1875 0.10367,-0.10367 1.59967,0.36907 1.875,0.0937 0.19719,-0.19719 0.86971,-0.0572 1.0625,-0.25 0.14174,-0.14174 0.47599,-0.25724 0.59375,-0.375 0.56116,-0.56116 0.95401,-0.98668 1.09375,-1.40625 0.0488,-0.14658 0.083,-0.28413 0.0625,-0.4375 -0.002,-0.0178 0.003,-0.0445 0,-0.0625 0.0494,-0.73262 -0.10112,-1.49966 -0.375,-2.25 z"
         id="path9479" />
      <path
         inkscape:connector-curvature="0"
         style="fill:#f5ceae;fill-opacity:1;stroke:#ffffff;stroke-width:1px;stroke-linecap:butt;stroke-linejoin:miter;stroke-opacity:0"
         d="m 528.6875,327.09375 c -0.009,0.008 -0.0229,0.0229 -0.0312,0.0312 -0.10233,0.10233 0.75207,1.47082 0.875,1.59375 0.0369,0.0369 0.10185,1.77312 0.0937,1.78125 -0.30668,0.30668 -0.11653,1.08977 -0.15625,1.28125 0.0115,-0.057 0.40107,-0.55732 0.78125,-0.9375 0.39209,-0.3921 0.23136,0.54989 0.4375,0.34375 0.15476,-0.15476 0.29482,-0.33639 0.4375,-0.53125 -0.5314,-1.39236 -1.47206,-2.70353 -2.4375,-3.5625 z"
         id="path9481" />
      <path
         style="fill:#8b058b;fill-opacity:1;stroke:#ffffff;stroke-width:1px;stroke-linecap:butt;stroke-linejoin:miter;stroke-opacity:0"
         d="m 509.63077,280.12524 c -0.0605,0.0206 -0.1205,0.0675 -0.18091,0.13436 -0.45237,0.5008 -0.60096,1.09379 -0.72739,1.69536 -0.23997,0.3242 -0.39075,0.65946 -0.20844,0.82414 -0.0205,0.10417 -0.0225,0.2122 -0.0466,0.31527 -0.10246,-0.0577 -0.18447,-0.0595 -0.2793,0.0454 -1.38619,1.53464 -2.17424,6.5278 -3.83054,8.36145 -0.44272,0.49015 -1.60814,4.74728 -1.87165,5.039 -1.04568,1.15767 -0.99444,4.10081 -1.84044,5.03741 -0.50273,0.55656 -0.0882,1.97669 -0.59093,2.53326 -0.58848,0.65149 -0.7518,1.44828 -0.66446,2.31796 -0.30185,0.19164 -0.73102,0.56007 -1.2008,0.99974 -1.57932,0.40173 -3.61138,1.02974 -5.31204,1.99093 -2.92411,1.65266 -5.35944,3.75146 -8.20723,5.36099 -1.21403,0.68615 -0.93873,1.40187 -1.67109,2.21267 -3.35463,3.71385 1.79472,7.60802 1.8898,9.47879 0.0399,0.78527 1.77694,1.93261 2.24756,2.35771 1.85974,1.67986 3.12132,3.50427 4.85748,5.07249 3.8915,3.51509 13.72437,6.02992 20.12798,5.70448 0.81107,-0.0412 3.02523,-0.0197 3.50767,-0.55376 0.41081,-0.4548 1.21322,-0.94756 1.70757,-1.49484 0.82974,-0.9186 1.05536,-6.77255 1.74476,-7.53577 0.3147,-0.34841 0.5288,-0.88949 0.67449,-1.50493 1.88947,-2.1037 3.68717,-4.73708 5.02495,-7.6399 3.06581,-2.25343 6.2849,-5.62872 6.16067,-8.0731 -0.0109,-0.21547 0.0716,-1.30506 -0.073,-1.43564 -1.35892,-1.22748 -2.69008,-1.27975 -3.95141,-2.0208 -0.0168,-0.11068 -0.0377,-0.21274 -0.0751,-0.2465 -0.46693,-0.42177 -3.82253,-2.97314 -6.82317,-4.34679 -1.36164,-4.72872 -4.9355,-11.5331 -5.01544,-13.10607 -0.0737,-1.45018 -2.25069,-6.18969 -3.9523,-8.81075 -0.35193,-1.40965 -0.89176,-2.89254 -1.42076,-2.71264 z"
         id="path9457"
         inkscape:connector-curvature="0" />
      <path
         inkscape:connector-curvature="0"
         id="path9459"
         d="m 509.06637,280.83581 c -0.17104,0.35437 -0.26974,0.73008 -0.35021,1.11296 -0.23997,0.32421 -0.39076,0.65946 -0.20844,0.82414 -0.0205,0.10418 -0.0225,0.2122 -0.0466,0.31527 -0.10246,-0.0577 -0.18447,-0.0595 -0.2793,0.0454 -1.38619,1.53464 -2.17425,6.52781 -3.83054,8.36146 -0.44272,0.49014 -1.60814,4.74727 -1.87165,5.03899 -1.04568,1.15767 -0.99444,4.10081 -1.84044,5.03741 -0.50273,0.55656 -0.0882,1.97669 -0.59093,2.53326 -0.58848,0.6515 -0.7518,1.44828 -0.66446,2.31796 -0.30185,0.19164 -0.73102,0.56008 -1.2008,0.99974 -1.57933,0.40173 -3.61138,1.02975 -5.31205,1.99094 -2.9241,1.65265 -5.35943,3.75145 -8.20722,5.36098 -1.21404,0.68615 -0.93873,1.40187 -1.67109,2.21267 -3.35464,3.71386 1.79472,7.60802 1.88979,9.4788 0.0399,0.78526 1.77695,1.93261 2.24757,2.35771 1.85974,1.67985 3.12132,3.50427 4.85747,5.07249 2.63211,2.37751 7.98631,4.28977 13.15502,5.18272 0.15204,-0.0439 0.29776,-0.0988 0.39621,-0.20788 0.46956,-0.51985 -3.41407,-0.96966 -3.59332,-1.13157 -0.23606,-0.21323 -1.64271,-0.38205 -1.81068,-0.53378 -0.22182,-0.20037 -0.65769,-0.4452 -0.91035,-0.67342 -0.20233,-0.18276 -0.86687,-0.009 -1.07382,-0.19575 -0.50018,-0.45179 -0.9734,-0.64101 -1.36474,-0.99451 -0.72718,-0.65683 -1.83418,-0.88257 -2.48404,-1.46956 -0.0892,-0.0806 -0.32739,-0.0575 -0.44645,-0.16505 -0.37202,-0.33603 -0.96967,-0.54833 -1.35998,-0.90089 -1.02296,-0.924 -2.00285,-1.63045 -2.97491,-2.50848 -0.11909,-0.10755 -0.0891,-0.34845 -0.17825,-0.42901 l -1.40864,-1.2426 c -0.21257,-0.19201 -0.26085,-0.50361 -0.47341,-0.69562 -0.28574,-0.2581 -0.9182,-0.6507 -1.20394,-0.90881 -0.0464,-0.0419 0.0321,-0.239 -0.0143,-0.28089 -0.72029,-0.65062 -0.85965,-2.02712 -1.73921,-2.82161 -0.13716,-0.12389 -1.14763,-1.69639 -0.97221,-1.89059 0.0875,-0.0969 3.40769,-0.97161 3.22785,-1.13405 -0.47822,-0.43196 -3.12351,0.87097 -3.70603,0.3448 -0.20473,-0.18492 -0.26708,-0.82515 -0.0539,-1.06113 0.20186,-0.22347 -0.20368,-0.96128 0.0317,-1.22193 0.58929,-0.65239 1.00979,-1.41462 1.55578,-2.01907 0.0737,-0.0817 4.76585,1.81141 5.28816,1.23318 0.0543,-0.0601 -1.10942,-0.68432 -1.25842,-0.74959 -0.67926,-0.29755 -1.41581,-0.50465 -1.92652,-0.96597 -0.18915,-0.17086 -1.44045,-0.31847 -1.68583,-0.54013 -0.16597,-0.1499 0.19987,-0.51794 0.22271,-0.54325 0.67572,-0.74807 2.74131,-1.70987 3.76373,-2.28773 0.48339,-0.2732 0.95035,-0.18396 1.41662,-0.44748 0.54527,-0.30819 0.98207,-0.69165 1.44096,-1.19969 0.1769,-0.19584 0.62623,-0.26473 0.76121,-0.41417 0.25875,-0.28644 0.68643,-0.56214 0.92785,-0.82941 0.16208,-0.17944 0.61846,-0.12485 0.80193,-0.2285 0.79785,-0.45093 1.52458,-0.97528 2.36719,-0.21413 0.19402,0.17525 0.64851,0.16891 0.89608,0.39253 0.0652,0.0589 -0.69024,-1.34565 -0.51625,-1.53828 0.0912,-0.10096 0.87623,-0.57822 0.94371,-0.51732 0.47064,0.42511 -0.0387,3.06183 0.46012,3.51242 0.14334,0.12947 0.10456,0.422 0.21423,0.52105 l 0.6247,0.59406 c 0.028,0.0252 0.40085,0.49909 0.39673,0.4179 -0.01,-0.18924 -0.2995,-0.47311 -0.40942,-0.66758 -0.1593,-0.28184 0.0587,-1.64735 0.19048,-1.79323 0.16354,-0.18105 -0.54406,-2.4152 -0.33477,-2.89298 0.15671,-0.35777 1.1655,0.45722 1.28011,0.56075 0.023,0.0208 0.34554,0.0264 0.34807,0.0761 0.004,0.0712 -0.26345,-0.35679 -0.26871,-0.36183 -0.22996,-0.20772 -0.55199,-0.39458 -0.57498,-0.84691 -0.0483,-0.94991 0.17068,-1.08626 0.44491,-1.71229 0.0856,-0.1947 -0.0823,-0.3045 0.0402,-0.44011 -0.17886,-0.39359 0.34886,-0.34359 0.44119,-0.55435 0.33351,-0.76137 0.13719,-1.53227 0.47719,-2.30845 0.42457,-0.96921 0.8746,-1.57859 1.30876,-2.56974 0.21717,-0.49578 -0.5661,-1.41714 -0.18716,-1.83662 0.27886,-0.30874 0.29141,-1.08083 0.55599,-1.37374 0.72902,-0.80709 1.24925,-2.05076 1.7748,-3.25052 0.43727,-0.99824 0.405,-2.12962 1.01518,-2.80514 0.0508,-0.0563 0.57266,0.52548 0.71833,0.58929 0.12181,0.0534 1.66116,0.40264 1.7964,0.2529 0.14341,-0.15876 -1.3473,-2.19962 -1.46256,-2.30373 -0.19665,-0.17762 0.8438,-2.69255 1.00249,-3.05482 0.0445,-0.10169 0.003,-0.46444 0.0666,-0.53533 0.0395,-0.0438 0.12844,-0.007 0.18726,-0.01 -0.11635,-0.12397 0.3513,-0.41875 0.40997,-0.55277 0.32646,-0.74525 0.47478,-1.03022 1.13573,-0.43321 0.28053,0.2534 0.69079,0.40296 0.61519,0.4068 -0.006,3.1e-4 -0.004,-0.23388 -0.0127,-0.24968 -0.0863,-0.15266 -0.18981,-0.27908 -0.27188,-0.42424 -0.14762,-0.26119 -0.82157,-1.33764 -0.95001,-1.45366 -0.1946,-0.17577 0.32094,-1.23508 0.005,-1.7525 z"
         style="fill:#aa07aa;fill-opacity:1;stroke:#ffffff;stroke-width:1px;stroke-linecap:butt;stroke-linejoin:miter;stroke-opacity:0" />
      <path
         inkscape:connector-curvature="0"
         style="fill:#800080;fill-opacity:1;stroke:#ffffff;stroke-width:1px;stroke-linecap:butt;stroke-linejoin:miter;stroke-opacity:0"
         d="m 510.22449,280.56627 c -1.10782,1.68696 -1.69363,4.69358 -1.47227,4.89353 0.13577,0.12264 0.46073,0.0412 0.78024,-0.0396 -0.0426,0.0965 -0.0666,0.21827 -0.10739,0.34965 -0.01,0.0106 -0.0201,0.0223 -0.0296,0.0327 -0.002,0.002 0.002,0.026 0.002,0.0312 -0.0568,0.17831 -0.12816,0.37265 -0.22589,0.48084 -1.29705,1.43595 0.96268,2.01724 1.7847,3.10091 -1.10028,0.78125 -2.67386,1.57491 -1.88639,2.28619 0.17658,0.15951 0.41217,0.22846 0.66967,0.24758 -1.34367,0.4011 -2.9343,0.67721 -3.35268,1.14039 -0.40841,0.45215 0.50203,1.2261 0.93731,1.20398 0.22441,-0.0114 0.67545,0.11278 0.88657,0.20527 0.27309,0.11962 0.72561,-0.17038 0.99871,-0.0508 0.0383,0.0168 0.0855,0.0169 0.12642,0.0248 -0.46546,0.24782 -0.73171,0.49478 -0.58771,0.74955 0.4635,0.82008 1.76543,1.03726 3.30767,1.05222 0.003,0.009 -0.002,0.0221 0.002,0.0312 0.0862,0.22071 0.30254,0.70257 0.1756,0.99237 -0.77353,1.76587 -6.14868,1.5326 -7.60043,3.13982 -0.202,0.22364 0.77472,0.52245 0.90559,0.57978 1.08436,0.475 4.55968,-0.7648 5.24958,-0.14163 0.0438,0.0395 -0.079,0.0874 -0.1185,0.13118 -0.12122,0.13421 -0.19913,0.48418 -0.34279,0.64323 -0.0752,0.0832 -0.39806,-0.0318 -0.49936,0.0254 -0.57871,0.32707 -1.37095,-0.0159 -1.99107,0.22635 -1.40683,0.54975 -3.12997,0.48476 -4.44345,1.22711 -0.72181,0.40796 -0.10176,0.98005 0.18829,1.24205 0.47784,0.43162 2.48207,0.0361 3.51769,0.25929 -0.44797,0.41658 -0.74635,0.81469 -0.57661,0.96801 0.0489,0.0442 0.53403,-0.16825 1.19498,-0.4988 0.0211,0.1225 0.009,0.25877 -0.0714,0.4417 -0.13531,0.30891 -0.3771,0.66262 -0.82946,0.91828 -0.62052,0.35071 -3.63787,0.46716 -3.84462,0.69604 -0.47561,0.52654 0.89212,0.90846 0.31312,1.2357 -0.56001,0.31651 -2.37981,-0.97607 -3.20774,0.91399 -0.29776,0.67976 1.80362,3.64568 2.22582,4.39269 0.46011,0.81406 1.76037,0.75633 2.31689,1.25902 0.43341,0.39149 0.7863,0.8937 1.43668,1.1786 0.20898,0.0915 0.50708,0.0994 0.75538,0.0868 0.34896,-0.0177 1.73927,0.71174 1.19334,1.31613 -0.38171,0.42258 -1.69244,0.086 -2.2471,0.1142 -0.41702,0.0212 -1.90114,0.42671 -2.2471,0.1142 -0.21969,-0.19843 -0.78806,-0.23539 -1.02409,-0.4486 -0.75371,-0.6808 -1.93807,-1.63149 -2.74851,-2.36354 -0.68412,-0.61794 -0.90128,-2.48161 -1.53184,-3.05118 -0.68162,-0.61568 -1.49162,1.78321 -1.53408,1.83023 -0.32801,0.36313 -1.18032,-0.23188 -1.50442,-0.0487 -1.27301,0.71949 -3.58182,0.4051 -4.67408,1.61432 -0.45307,0.5016 0.30398,1.10834 0.56914,1.34785 1.25858,1.13684 3.50533,1.10283 4.1725,3.29247 0.1138,0.37341 0.53671,0.70975 0.55645,1.09817 0.0909,1.78759 -2.0807,1.52138 -3.40666,1.92539 -0.10834,0.033 -1.48841,0.56129 -1.21032,0.81248 0.13905,0.1256 0.93791,0.13747 1.13624,0.19258 0.94574,0.26273 2.04273,0.71172 2.93474,1.10246 0.75009,0.32858 2.01048,0.0294 2.65968,0.6158 0.76698,0.69279 -1.50042,1.77616 -0.85279,2.92205 0.42732,0.75607 1.7089,0.68754 2.42904,1.003 0.4953,0.21698 1.44507,0.10513 2.4095,0.003 -1.03204,0.62932 -2.13559,1.25516 -2.82637,1.64557 -0.98108,0.55449 -1.75002,1.42516 -1.98054,1.66517 0.37069,0.0304 1.19795,0.57508 1.5827,0.35763 2.2131,-1.25081 4.83095,-1.44612 6.87677,-2.60239 0.41843,-0.23649 0.73998,-0.42323 1.06379,-0.61729 0.17087,-0.0147 0.32828,-0.031 0.4089,0.0418 0.049,0.0443 0.4286,0.71226 0.41258,0.73 l -0.59247,0.65591 c -0.2644,0.29272 -1.1592,3.0026 -0.70257,3.41507 l 1.57421,1.42193 c 0.0928,0.0838 0.73521,-0.0374 0.87387,-0.0444 1.558,-0.0792 2.72209,-0.69854 3.61295,-1.56039 0.043,0.72802 0.17859,1.41195 0.91932,2.08102 0.62943,0.56856 3.04633,0.13091 4.64549,-0.32991 0.18905,-0.74122 0.33606,-1.75267 0.4862,-2.74697 3.2e-4,-0.002 0.0309,4.3e-4 0.0312,-0.002 0.11485,-0.78051 0.23947,-1.53401 0.3587,-2.17727 0.0136,-0.0734 0.0374,-0.15184 0.0513,-0.22164 0.0626,-0.30194 0.10926,-0.57772 0.17882,-0.79134 0.0139,-0.0445 0.0106,-0.0865 0.0248,-0.12643 0.0159,-0.0435 0.0414,-0.059 0.0577,-0.0967 0.0499,-0.12257 0.0861,-0.22713 0.14177,-0.28882 0.3147,-0.3484 0.5288,-0.88948 0.67449,-1.50492 1.88947,-2.10371 3.68717,-4.73709 5.02495,-7.6399 2.29936,-1.69007 4.66936,-4.02181 5.66603,-6.10796 0.0831,-0.17385 0.16139,-0.34196 0.2243,-0.51204 0.18873,-0.51025 0.29364,-0.99478 0.27034,-1.4531 -0.005,-0.10774 0.0232,-0.43655 0.0244,-0.7522 9.9e-4,-0.15785 -0.01,-0.31304 -0.0222,-0.43694 -0.0123,-0.12391 -0.039,-0.21386 -0.0751,-0.24651 -1.35892,-1.22747 -2.69008,-1.27975 -3.95141,-2.02079 -0.0168,-0.11068 -0.0377,-0.21274 -0.0751,-0.24651 -0.46693,-0.42176 -3.82253,-2.97313 -6.82317,-4.34678 -0.12568,-0.43645 -0.28456,-0.8917 -0.44431,-1.35419 -0.15801,-0.46383 -0.32782,-0.93156 -0.5099,-1.41344 -0.36764,-0.97293 -0.76928,-1.93583 -1.1806,-2.91258 -0.43855,-1.04139 -0.84196,-2.00443 -1.24461,-2.94062 -0.39138,-0.90996 -0.71908,-1.72732 -1.00077,-2.45237 -0.16954,-0.43036 -0.29459,-0.7775 -0.40041,-1.1061 -0.013,-0.0404 -0.0256,-0.0846 -0.0375,-0.12325 -0.10099,-0.33012 -0.18783,-0.61744 -0.19729,-0.80353 -0.009,-0.18089 -0.0589,-0.40907 -0.12847,-0.68185 -0.0556,-0.21759 -0.10586,-0.47715 -0.19412,-0.74111 -0.018,-0.0537 -0.0528,-0.12865 -0.0719,-0.18408 -0.19019,-0.54382 -0.46665,-1.1862 -0.75057,-1.83928 -0.19585,-0.45051 -0.40862,-0.90676 -0.63315,-1.37588 -0.22397,-0.46858 -0.4246,-0.91415 -0.66436,-1.3743 -0.28036,-0.53807 -0.57834,-1.06578 -0.86114,-1.55205 -0.0374,-0.0645 -0.0658,-0.1193 -0.10309,-0.1825 -0.18428,-0.31219 -0.36846,-0.60723 -0.54536,-0.8797 -0.21664,-0.86775 -0.52251,-1.75474 -0.8352,-2.27304 z m -13.1406,52.35946 c -0.12356,-0.0101 -0.18521,0.0497 -0.17774,0.19677 3.6e-4,0.007 0.14039,-0.15787 0.17774,-0.19677 z"
         id="path9461" />
      <path
         style="fill:#6f0471;fill-opacity:1;stroke:#ffffff;stroke-width:1px;stroke-linecap:butt;stroke-linejoin:miter;stroke-opacity:0"
         d="m 515.1749,308.40056 c -2.18958,1.552 -5.06312,2.38506 -7.88183,2.52831 -0.39767,0.0202 -1.61199,-0.3252 -1.76044,-0.16085 -0.0314,0.0347 0.0164,0.32311 0.019,0.37452 0.061,1.19972 1.77605,1.26622 2.5856,1.62085 1.33011,0.58265 2.20911,0.51353 3.52721,0.44654 0.15598,-0.008 0.39473,-0.19326 0.49301,-0.15021 0.3442,0.15077 -0.41992,0.33534 -0.0931,0.63054 0.0205,0.0185 0.4809,-0.005 0.49936,-0.0254 0.356,-0.39411 1.48043,-0.7725 2.0715,-1.10657 0.44711,-0.2527 0.54903,-0.69557 0.9543,-0.92463 0.41726,-0.23582 2.047,-0.55198 2.21538,-0.7384 0.15849,-0.17546 -0.71771,-0.74159 -0.91828,-0.82946 -0.69749,-0.30553 -1.17759,-1.06299 -1.71173,-1.66526 z"
         id="path9463"
         inkscape:connector-curvature="0" />
      <path
         inkscape:connector-curvature="0"
         style="fill:#640466;fill-opacity:1;stroke:#ffffff;stroke-width:1px;stroke-linecap:butt;stroke-linejoin:miter;stroke-opacity:0"
         d="m 512.29427,284.96688 c -0.48311,0.34963 -0.94986,0.80954 -0.63269,1.09603 0.17492,0.158 0.46832,0.1848 0.64323,0.34279 0.0739,0.0667 0.6658,1.50458 0.46334,1.72871 -0.30928,0.3424 -1.68599,1.30395 -1.66526,1.71173 0.004,0.0851 0.84259,0.16555 0.88656,0.20527 0.35603,0.32159 0.74222,1.17955 1.32452,1.43462 0.21312,0.0933 1.58458,0.35555 1.28646,0.68559 -0.28644,0.31711 -1.02881,0.74339 -1.32247,1.0685 -0.35508,0.39311 -3.23678,0.34267 -3.16968,1.66303 0.003,0.0514 -0.0157,0.34313 0.019,0.37451 0.62707,0.5664 2.25563,0.13172 2.65333,0.49096 0.41914,0.37859 -2.58408,1.38294 -0.18623,1.26108 0.68909,-0.035 2.36072,-0.41084 2.86495,-0.27077 0.35604,0.0991 1.03479,-0.0959 1.37958,0.055 0.0334,0.0146 0.0811,0.0307 0.12801,0.0561 -1.04115,-2.41278 -1.91593,-4.45174 -1.95497,-5.22 -0.0564,-1.10964 -1.35367,-4.1445 -2.71772,-6.68318 z m 4.74304,12.05605 c -0.21793,0.12558 -0.78017,0.50519 -0.90933,0.57815 -0.35568,0.20103 -2.79314,1.76493 -2.00171,2.4798 0.41531,0.37514 3.62643,1.12789 3.0913,1.72031 -0.31962,0.35386 -1.29484,0.35606 -1.56581,1.20603 -0.32495,-0.14235 -0.49021,0.0844 -1.10451,0.43162 -0.94686,0.53515 -2.68919,1.68746 -3.65,2.06292 -1.07066,0.41839 -2.20867,0.60619 -3.19505,1.16367 -0.36257,0.20492 -1.47545,1.28765 -0.90989,1.7985 1.90833,1.72374 7.47569,-0.49633 9.3799,-2.60445 0.30364,-0.33616 2.08074,-2.1702 2.40795,-1.87463 0.67623,0.61082 -1.31511,3.4674 -1.05171,3.93345 0.42489,0.75176 2.16003,0.58001 2.79721,0.85913 0.78987,0.34599 0.86715,0.78326 1.44302,1.30344 0.43181,0.39008 1.79904,-0.33891 2.1413,0.26665 0.94557,1.67306 -3.81293,4.0597 -2.35515,5.37647 0.4307,0.38904 0.64159,0.21772 1.38592,0.17989 0.11444,-0.006 0.29963,0.0523 0.4089,0.0418 -0.10575,0.0807 -0.33044,0.26693 -0.50836,0.4639 -0.21212,0.23484 -0.90617,0.64058 -1.21032,0.81248 -0.47767,0.26997 -0.9788,1.08363 -1.30344,1.44302 -0.0462,0.0511 0.0215,0.42315 0.0254,0.49935 0.0906,1.78229 2.67988,1.01315 2.67237,0.86548 -5.6e-4,-0.0111 -0.69798,0.90459 -0.70462,0.91194 -0.57226,0.63354 -0.75766,1.49811 -1.39021,2.19839 -0.23873,0.26431 -0.15319,0.56519 -0.33645,0.76807 l -1.65892,1.83657 c -0.41233,0.45649 -0.61474,1.60362 -1.02203,2.05452 -0.41611,0.46067 -0.27215,1.59653 -0.51634,2.15399 -0.22685,0.51787 -0.19688,1.14607 -0.41688,1.64828 -0.46244,1.0557 -1.23128,2.58016 -0.19686,3.51452 0.34213,0.30905 0.81067,0.22452 1.25314,0.0301 0.34937,-2.04416 0.60584,-4.62661 1.05385,-5.1226 0.31471,-0.3484 0.5288,-0.88948 0.67449,-1.50492 1.88948,-2.10371 3.68717,-4.73709 5.02495,-7.6399 3.06581,-2.25343 6.2849,-5.62872 6.16068,-8.0731 -0.0109,-0.21547 0.0716,-1.30507 -0.073,-1.43565 -1.35892,-1.22747 -2.69008,-1.27975 -3.95141,-2.02079 -0.0168,-0.11068 -0.0377,-0.21274 -0.0751,-0.24651 -0.46693,-0.42176 -3.82253,-2.97313 -6.82317,-4.34678 -0.68082,-2.36436 -1.91646,-5.24438 -2.99012,-7.7332 z"
         id="path9465" />
      <path
         style="fill:#640466;fill-opacity:1;stroke:#ffffff;stroke-width:1px;stroke-linecap:butt;stroke-linejoin:miter;stroke-opacity:0"
         d="m 499.39425,315.58579 c 0.28645,0.76322 3.64807,3.1848 5.71498,4.0902 1.86841,0.81845 4.30999,-0.44535 5.81667,-1.2969 0.59667,-0.33723 1.6952,-2.00861 2.12655,-2.48615 0.22118,-0.24486 0.77258,-0.45972 0.96699,-0.67495 0.22464,-0.2487 0.59619,-2.03288 0.8972,-2.04818 0.12553,-0.006 -0.72019,0.53359 -1.19764,1.06216 -0.95996,1.06277 -1.84827,1.91434 -2.61322,2.7612 -0.4832,0.53494 -1.32087,0.67115 -1.69698,1.08753 -1.7305,1.91583 -4.28432,1.37086 -6.14883,-0.31331 -0.31057,-0.28052 -1.08865,-0.50691 -1.41764,-0.80408 -0.75956,-0.68609 -2.12413,-0.0991 -2.44808,-1.37752 z"
         id="path9483"
         inkscape:connector-curvature="0" />
      <path
         inkscape:connector-curvature="0"
         style="fill:#5b005b;fill-opacity:1;stroke:#ffffff;stroke-width:1px;stroke-linecap:butt;stroke-linejoin:miter;stroke-opacity:0"
         d="m 510.90947,282.34629 c -0.096,0.13096 -0.20149,0.289 -0.29306,0.39038 -0.33235,0.36794 -1.08234,0.53893 -1.33516,0.81883 -0.33471,0.37054 1.35388,-0.35119 2.01753,-0.32157 -0.0806,-0.13003 -0.16024,-0.27316 -0.23909,-0.39462 -0.0415,-0.16639 -0.10376,-0.32745 -0.15022,-0.49302 z m 0.76592,1.5256 c -0.21572,0.51849 -1.20587,1.00535 -1.3193,1.13092 -0.0164,0.0181 -0.1407,0.12437 -0.26978,0.23274 0.19862,-0.0131 0.48548,0.0649 0.65699,-0.002 0.29445,-0.11509 0.65376,-0.40871 0.97967,-0.42527 0.21794,-0.0111 0.50125,0.20682 0.77917,0.55491 -0.2716,-0.51857 -0.55354,-1.02218 -0.82675,-1.4912 z m -1.58908,1.36366 c -0.11917,0.008 -0.21615,0.0568 -0.21054,0.16715 5.1e-4,0.01 0.11316,-0.0854 0.21054,-0.16715 z m 3.81332,2.99781 c 0.01,1.01204 -1.95193,1.20496 -2.41588,1.71859 -0.0967,0.10701 -0.75725,-0.12352 -0.74269,0.16291 0.0172,0.33763 3.5058,-0.76388 3.59495,-0.68335 0.0656,0.0592 -0.0466,0.31527 0.019,0.37451 0.0781,0.0705 0.15183,0.13888 0.23116,0.23858 -0.18657,-0.53343 -0.40947,-1.17191 -0.68657,-1.81124 z m 1.42231,4.58998 c -0.0188,0.0642 -0.0263,0.12961 -0.0529,0.19043 -0.0467,0.10657 0.10055,0.41614 0.0254,0.49935 -0.28434,0.3148 -0.74022,0.29204 -0.97333,0.55012 -0.33054,0.36593 -1.70467,0.33695 -2.23441,0.36388 -0.61743,0.0314 -1.25161,-0.0464 -1.31715,-0.0582 0.11888,0.10581 -0.0641,0.59722 0.10048,0.74587 0.18513,0.16721 0.96771,0.35204 1.26108,0.18623 0.32358,-0.18288 2.19435,-0.58325 2.22172,-0.61356 0.10773,-0.11926 1.23673,-0.78863 1.34151,-0.69399 0.009,0.009 0.0672,0.0598 0.0983,0.0888 -0.18615,-0.46033 -0.34581,-0.89783 -0.47075,-1.25898 z m 0.68498,1.78002 c -0.38949,0.4774 -2.44775,1.35828 -2.58304,1.50805 -0.11366,0.12584 0.83583,-0.2928 1.73506,-0.3385 0.1383,-0.007 0.78417,-0.42531 1.16852,-0.40358 -0.10873,-0.25596 -0.2217,-0.52764 -0.32054,-0.76597 z m 1.27899,3.00146 c 0.15478,0.59933 0.31825,1.26299 0.16654,1.43089 -0.0542,0.06 -0.61542,0.75429 -0.58612,0.78075 0.29548,0.26691 1.02611,0.56953 1.2928,0.81043 0.11858,0.10711 0.90779,3.32125 1.44507,3.80656 0.0875,0.0791 0.17738,0.0116 0.27771,-0.0767 -0.6437,-2.1064 -1.64349,-4.53731 -2.59605,-6.75193 z m 2.90232,7.23701 c -0.9092,1.81478 -3.23698,4.32057 -5.92257,5.37003 -0.52906,0.20675 -1.21655,0.42379 -1.58484,0.83152 -0.19538,0.2163 -0.47036,0.12514 -0.6115,0.2814 -0.0287,0.0318 -0.0741,0.0826 -0.1185,0.13118 0.22519,0.005 0.54796,0.0973 0.75538,0.0868 0.5266,-0.0268 1.13395,-0.57668 1.58484,-0.83151 0.54848,-0.30999 1.15585,-0.39642 1.71602,-0.71302 1.90859,-1.0787 3.35853,-2.39955 4.56623,-3.73658 0.0245,-0.0271 0.49103,-0.86665 0.58613,-0.78076 0.0607,0.0548 -0.0224,0.30106 0.019,0.37452 0.37128,0.65691 1.78892,1.13945 2.20474,1.51504 0.95222,0.86012 1.88245,1.58126 2.74851,2.36355 0.10932,0.0987 0.0409,0.39426 0.15022,0.49301 0.35555,0.32116 0.94918,-0.3656 1.26107,0.18623 0.32877,0.5817 -0.83548,2.77105 -1.09611,3.05958 -0.29009,0.32115 -0.39744,0.89646 -0.42057,0.96008 0.0532,-0.0355 0.16846,-0.0217 0.2153,-0.0735 0.5409,-0.59883 1.1395,-1.12966 1.54677,-1.58055 0.098,-0.10851 1.13371,-1.93503 1.15322,-1.93603 0.31363,-0.0159 0.59882,0.66001 0.79345,0.83581 0.90488,0.81735 -3.30238,4.84278 -3.85322,5.4526 -0.49159,0.54426 -1.08346,0.93576 -1.43462,1.32453 -0.0914,0.10117 -0.21554,0.36096 -0.2883,0.484 0.0922,-0.054 0.38142,-0.0871 0.43218,-0.11578 0.17363,-0.0981 0.13861,-0.25737 0.36183,-0.26871 0.37102,-0.0189 3.88897,-2.85494 4.09859,-3.08701 0.42616,-0.47179 1.02724,-1.09112 1.29075,-1.6927 0.12132,-0.27694 0.19432,-1.13466 0.45494,-0.89925 0.73495,0.66385 -2.195,3.88056 -2.53708,4.25926 -0.29684,0.32863 -0.76717,0.45374 -1.08548,0.80614 -0.86237,0.95472 -1.89704,2.36391 -2.83118,3.39808 -0.13861,0.15345 -0.6345,0.30686 -0.84849,0.54377 -0.80771,0.89421 -1.53792,1.57076 -2.13924,2.23646 -0.18309,0.2027 -0.0715,0.60664 -0.21161,0.76172 -0.71147,0.78766 -0.95618,2.11348 -1.60816,2.83528 -0.0471,0.0522 -0.44822,1.68298 -0.77236,2.04184 -0.23699,0.26236 0.0507,0.99871 -0.18624,1.26108 -0.2511,0.27799 -1.25818,4.46159 -1.01363,4.68248 0.10137,0.0916 0.23673,0.1245 0.35282,0.16981 0.42063,-2.08384 0.67266,-5.29396 1.17342,-5.84835 0.3147,-0.3484 0.52879,-0.88948 0.67448,-1.50492 1.88948,-2.10371 3.68718,-4.73709 5.02495,-7.6399 3.06582,-2.25343 6.28491,-5.62872 6.16068,-8.0731 -0.0109,-0.21547 0.0716,-1.30507 -0.073,-1.43565 -1.35893,-1.22747 -2.69008,-1.27975 -3.95141,-2.02079 -0.0168,-0.11068 -0.0377,-0.21274 -0.0751,-0.24651 -0.45849,-0.41414 -3.70441,-2.87151 -6.66237,-4.26108 z m 3.97068,14.09788 c -0.0159,0.009 -0.0613,0.0242 -0.0608,0.0343 0.004,0.0719 0.0224,0.0306 0.0608,-0.0343 z m -12.20809,-7.48375 c -0.13622,-0.003 -0.24971,0.012 -0.24333,0.13753 0.005,0.10717 0.1323,-0.0157 0.24333,-0.13753 z"
         id="path9485" />
      <path
         style="fill:#5b005b;fill-opacity:1;stroke:#ffffff;stroke-width:1px;stroke-linecap:butt;stroke-linejoin:miter;stroke-opacity:0"
         d="m 506.62875,307.70844 c 1.15343,-0.16254 2.19333,-0.9876 3.32624,-1.04518 1.18943,-0.0605 3.99546,-1.9371 5.00419,-2.50722 0.28892,-0.16329 0.95112,-1.17479 1.19129,-1.187 0.0931,-0.005 -0.0747,0.17068 -0.11215,0.25602 -0.47915,1.09384 -0.67086,0.87456 -1.41559,1.69904 -0.0777,0.086 -0.43364,0.0845 -0.49301,0.15022 -0.94113,1.04191 -5.72302,3.24257 -7.50097,2.63412 z"
         id="path9487"
         inkscape:connector-curvature="0" />
      <path
         style="fill:#5b005b;fill-opacity:1;stroke:#ffffff;stroke-width:1px;stroke-linecap:butt;stroke-linejoin:miter;stroke-opacity:0"
         d="m 506.29249,301.09198 c 1.97929,0.10785 4.27265,-0.61689 5.92882,-1.55293 0.32296,-0.18254 1.97819,-1.19085 1.80914,-1.34356 -0.16642,-0.15031 -1.09907,0.2359 -1.2357,0.31313 -2.12934,1.20347 -4.57859,1.29202 -6.50226,2.58336 z"
         id="path9489"
         inkscape:connector-curvature="0" />
      <path
         style="fill:#6f0471;fill-opacity:1;stroke:#ffffff;stroke-width:1px;stroke-linecap:butt;stroke-linejoin:miter;stroke-opacity:0"
         d="m 516.64535,312.70647 c -2.01752,0.85896 -3.5562,3.01398 -5.02118,4.63584 -0.166,0.18379 -0.304,0.62131 -0.58612,0.78075 -0.6841,0.38664 -1.35222,0.82549 -2.07151,1.10657 -0.31463,0.12296 -0.67586,0.0519 -0.99236,0.1756 -0.54296,0.21218 -1.48993,0.52967 -2.10958,0.35753 -0.37527,-0.10425 -5.15388,-0.75548 -5.28764,-0.6074 -1.32258,1.46422 1.98105,3.91928 2.97486,4.35462 0.20714,0.0908 0.78331,-0.0398 0.99871,-0.0507 0.52934,-0.0269 1.38613,0.0949 1.87258,-0.0952 0.6884,-0.26901 4.24254,-1.98645 4.79259,-1.74551 1.30907,0.57344 -1.74284,5.22304 -0.034,4.25721 1.05485,-0.59618 3.08406,-3.3478 3.02375,-4.53432 -0.0448,-0.8813 -2.01845,-1.72129 -1.01979,-2.82688 1.18265,-1.3093 3.11499,-2.65739 4.54085,-4.23594 0.0354,-0.0391 0.25422,-1.19965 0.18623,-1.26108 -0.2599,-0.23476 -0.7351,-0.23245 -1.26742,-0.31107 z"
         id="path9491"
         inkscape:connector-curvature="0" />
      <path
         style="fill:#8b058b;fill-opacity:1;stroke:#ffffff;stroke-width:1px;stroke-linecap:butt;stroke-linejoin:miter;stroke-opacity:0"
         d="m 499.31364,323.85054 c 0.49111,1.41988 4.77944,2.12161 6.21228,1.5617 0.2696,-0.10532 1.79154,-0.64481 2.10957,-0.35754 0.21991,0.19864 -1.3145,1.90946 -0.75333,2.41635 0.53359,0.48198 3.86605,-0.20049 4.39474,0.2773 0.34261,0.30947 -0.43259,0.69398 -0.58612,0.78075 -1.30005,0.73477 -3.23581,0.0393 -4.50055,0.10357 -0.36479,0.0185 -0.58621,-0.19576 -0.89291,-0.33011 -0.30843,-0.1351 -1.01149,0.0392 -1.26107,-0.18623 -0.36108,-0.32615 0.651,-1.96704 0.6729,-1.53613 0.003,0.0607 -1.75127,0.006 -1.87893,-0.0297 -1.5269,-0.42418 -3.42782,-0.9535 -3.51658,-2.69999 z"
         id="path9493"
         inkscape:connector-curvature="0" />
      <path
         style="fill:#916f6f;fill-opacity:1;stroke:#ffffff;stroke-width:1px;stroke-linecap:butt;stroke-linejoin:miter;stroke-opacity:0"
         d="m 520.875,338.98718 c -0.16667,0.0833 -0.41667,0.41667 -0.5,0.25 -0.0833,-0.16667 0.58333,-0.41667 0.5,-0.25 -0.13802,0.27604 -1.80711,1.31789 -1.375,1.75 0.3173,0.3173 1.65581,-0.21919 2,0.125 0.15417,0.15417 -0.1125,0.2375 -0.125,0.25 -0.10819,0.10819 0.0728,2.94776 0.125,3 0.32294,0.32294 0.80987,-0.44013 1.125,-0.125 0.0881,0.0881 -0.048,2.79798 0.875,1.875 0.59614,-0.59614 -0.25,-1.41249 -0.25,-2.125 0,-1.03616 1.24759,-2.50483 1,-3 -0.29605,-0.5921 -1.88031,-0.0106 -2,-0.25 -0.4942,-0.9884 0.53824,-1.11735 -1.375,-1.5 z"
         id="path9495"
         inkscape:connector-curvature="0" />
      <path
         inkscape:connector-curvature="0"
         style="fill:#916f6f;fill-opacity:1;stroke:#ffffff;stroke-width:1px;stroke-linecap:butt;stroke-linejoin:miter;stroke-opacity:0"
         d="M 523.34375,334.5625 C 523.14445,334.6187 523,334.92848 523,335.625 c 0,1.60662 1.44385,0.69385 2.25,1.5 0.4642,0.4642 -1.00523,1.61977 -0.75,1.875 0.23983,0.23983 0.85024,0.22524 1.125,0.5 0.26786,0.26786 -0.46267,0.96267 -0.5,1 -0.17094,0.17094 0.78576,0.94652 0.875,1.125 0.16421,0.32842 -0.39696,0.97804 -0.125,1.25 0.25598,0.25598 0.70676,-0.43815 1.25,0.4375 0.51433,-1.02149 -0.39531,-3.78878 -1.40625,-5.40625 0.41671,-0.29653 0.74997,-0.56247 0.90625,-0.71875 0.40563,-0.40563 0.43437,-1.07326 0.21875,-1.8125 -0.14969,-0.0182 -0.32478,-0.072 -0.40625,-0.0312 -0.20442,0.10221 -0.51499,0.15561 -0.84375,0.1875 -0.20959,0.14847 -0.44013,0.23306 -0.71875,0.0937 -0.0336,-0.0168 -0.0845,-0.0948 -0.125,-0.125 -0.25062,-0.043 -0.46785,-0.0928 -0.59375,-0.21875 -0.11158,-0.11158 -0.15668,-0.26516 -0.1875,-0.4375 -0.23102,-0.18371 -0.44924,-0.33078 -0.625,-0.28125 z"
         id="path9497" />
      <path
         inkscape:connector-curvature="0"
         style="fill:#916f6f;fill-opacity:1;stroke:#ffffff;stroke-width:1px;stroke-linecap:butt;stroke-linejoin:miter;stroke-opacity:0"
         d="m 525.09375,359.5625 c -0.27104,0.45407 -0.91061,0.69623 -1.21875,1.3125 -0.22055,0.44111 0.97254,0.77747 0.375,1.375 -0.20261,0.20262 -1.60047,-2 -2.125,-2 -0.91848,0 1,1.77448 1,2.375 0,0.46424 -2.26033,2.02863 -1.1875,2.6875 0.35797,-0.7436 0.69668,-1.50918 1.15625,-1.96875 0.12794,-0.12794 0.18025,-0.29857 0.1875,-0.46875 0.0604,-0.0904 0.13425,-0.19675 0.1875,-0.25 0.23178,-0.23178 1.22912,-0.16662 1.40625,-0.34375 0.4378,-0.4378 0.36987,-1.55654 0.21875,-2.71875 z"
         id="path9499" />
      <path
         inkscape:connector-curvature="0"
         id="path9501"
         d="m 545.54713,341.02832 c -0.0689,-0.005 -0.12785,0.0177 -0.16209,0.0453 -0.25256,0.2031 -0.007,1.02612 -0.25919,1.22921 -0.67832,0.54545 -2.03878,0.61863 -2.77158,1.20789 -0.037,0.0298 0.81722,2.63205 -0.39128,3.60382 -0.91825,0.73839 -3.39718,0.69019 -4.44105,1.52957 -0.51233,0.41198 3.57325,1.77691 2.20205,2.87952 -0.72596,0.58376 -0.95714,1.94687 -1.99613,2.17222 -0.56558,0.12268 -2.73134,-0.18549 -3.02295,0.049 -0.56859,0.45723 0.32073,0.74124 -0.0107,1.25619 -0.57291,0.89027 -1.98207,1.93408 -2.65796,2.47758 -0.0904,0.0727 -0.44158,0.0148 -0.51057,0.0703 -1.04295,0.83865 -1.72891,-1.10499 -2.32065,-0.62917 -0.59424,0.47785 0.26373,2.28729 -0.53188,2.58268 -0.23663,0.0879 -0.57587,-0.10467 -0.73213,-0.20523 -0.99161,-0.63812 -0.0645,-1.63176 -0.7378,-2.46906 -0.75518,-0.93914 -1.32371,1.024 -1.52887,1.34282 -0.18392,0.28582 -0.57254,0.12012 -0.7861,0.29185 -0.0138,0.0111 -0.12537,0.2672 -0.26203,0.0973 -0.32565,-0.40498 -0.43885,-1.5331 -0.79177,-1.97199 -0.13099,-0.16286 0.1413,-0.67052 -0.0298,-0.88338 -0.3074,-0.38227 -1.42052,-1.14224 -2.1694,-0.86421 -1.24143,0.46091 -0.46236,0.40861 -1.0183,1.27252 -0.27532,0.42785 -0.63583,0.62471 -0.97783,0.89971 -0.73181,0.58846 -2.57795,-1.78331 -3.39859,-1.12341 -0.13777,0.11078 -0.38631,0.0838 -0.52407,0.19457 -0.54733,0.44012 0.27946,1.53916 -1.28033,1.3698 -0.0973,-0.0106 -0.56605,0.001 -0.62135,-0.0675 -0.63239,-0.78643 -4.66274,-1.14395 -5.65178,-2.37392 -0.12826,-0.1595 -2.20818,0.30118 -2.44208,0.48926 -0.22054,0.17735 1.10602,0.6702 1.17523,0.75627 0.0138,0.0172 0.0435,0.0207 0.0588,0.0378 2.53907,0.94573 4.88346,2.26149 8.38713,3.23671 3.03586,0.84501 6.54056,0.16928 9.54107,1.00453 0.39408,0.10968 0.96113,-0.0104 1.56615,-0.23859 0.007,0.006 0.0232,-0.003 0.031,0.003 0.59263,0.43657 1.41219,0.39279 2.49817,-0.1374 0.76343,0.3659 3.72766,-1.13249 4.22695,-1.58425 2.33706,-2.11449 7.09135,-6.0039 9.39464,-9.22735 1.36896,-0.35112 2.33826,-1.11465 3.38743,-1.95831 0.29409,-0.23647 0.23112,-2.4845 0.0778,-4.76947 -0.003,-0.0543 -0.0105,-0.10439 -0.0142,-0.1587 0.004,-0.39833 0.0169,-0.85515 0.014,-1.28726 -0.19594,-0.0809 -0.39099,-0.14219 -0.51802,-0.15055 z"
         style="fill:#640466;fill-opacity:1;stroke:#ffffff;stroke-width:1px;stroke-linecap:butt;stroke-linejoin:miter;stroke-opacity:0" />
      <path
         style="fill:none;stroke:#624c4c;stroke-width:0.5;stroke-linecap:round;stroke-linejoin:round;stroke-miterlimit:4;stroke-opacity:1;stroke-dasharray:none"
         d="m 525.75,337.98718 c -0.15676,-0.12907 -3.82212,1.15144 -5.125,0.5"
         id="path9503"
         inkscape:connector-curvature="0" />
      <path
         inkscape:connector-curvature="0"
         style="fill:#8b058b;fill-opacity:1;stroke:#ffffff;stroke-width:1px;stroke-linecap:butt;stroke-linejoin:miter;stroke-opacity:0"
         d="m 497.78125,337.90625 c -0.52792,1.28355 -1.13813,2.51314 -2,3.375 -0.8824,0.88241 -0.43201,3.24451 -1.4375,4.25 -1.09965,1.09965 -1.08319,4.23944 -2.125,5.28125 -0.4976,0.4976 -0.8382,4.17639 -1.40625,5.3125 -0.61811,1.23621 -1.54116,10.38492 -1.75,10.59375 -0.51544,0.51544 -1.45518,2.42562 -2.375,8.28125 -0.17634,0.51671 -0.40596,1.06192 -0.6875,1.625 -0.26667,0.53334 0.26667,1.46667 0,2 -0.92492,1.84985 -1,7.85674 -1,10.25 0,1.03764 -1.13085,9.11915 -0.5,9.75 1.62832,1.62832 5.54302,1.74221 8.625,1.75 -0.59057,-0.29033 -1.23796,-0.55648 -1.875,-0.875 -0.40639,-0.20319 -1.22809,0.0219 -1.5,-0.25 -0.59481,-0.59481 -1.42584,-0.92584 -2,-1.5 -0.30708,-0.30708 -0.15836,-0.90836 -0.375,-1.125 -0.0539,-0.054 -0.22863,-0.0427 -0.125,-0.25 0.18631,-0.37262 0.4131,-0.5381 0.625,-0.75 0.18866,-0.18866 1.09002,0.0717 1.25,0.125 0.54482,0.18161 1.74354,-0.20618 2.25,-0.375 0.56603,-0.18867 1.52619,0 2.125,0 0.7285,0 1.35319,-0.25 2,-0.25 0.30821,0 1.88292,-0.61708 1.375,-1.125 -0.95456,-0.95456 -2.95156,-0.70156 -3,-0.75 -0.29089,-0.29089 -0.95392,-0.45391 -1.375,-0.875 -0.74837,-0.74836 -1.53719,-1.57439 -2.125,-2.75 -0.4546,-0.90921 3.53432,-1.46567 2.5,-2.5 -0.41626,-0.41626 -2.52224,-1.82362 -3.125,-2.125 -1.17745,-0.58872 -1.77763,-2.02763 -2.5,-2.75 -0.0392,-0.0392 -0.61784,-1.25715 -0.5,-1.375 0.0677,-0.0677 0.95895,-0.66605 1.25,-0.375 0.22182,0.22182 0.56404,0.0945 0.875,0.25 0.30653,0.15327 1.73418,0.85918 1.875,1 0.0833,0.0833 0.41667,-0.0833 0.5,0 0.64662,0.64662 6.75206,0.99794 7.375,0.375 1.03817,-1.03816 -4.8505,-1.25 -5.5,-1.25 -0.63851,0 -1.24648,-0.37324 -1.75,-0.625 -0.43068,-0.21534 -1.46349,-0.0885 -1.875,-0.5 -0.47917,-0.47917 -1.02083,-0.89583 -1.5,-1.375 -0.11817,-0.11817 -0.0204,-0.64543 -0.125,-0.75 -0.81151,-0.81151 -0.079,-3.71703 0.25,-4.375 0.39846,-0.79692 0.8603,-3.8603 1,-4 l 1.375,-1.375 c 0.43903,-0.43903 4.80444,-1.68481 5.75,-2 1.80337,-0.60112 3.86999,-1.30999 5.5,-2.125 0.19092,-0.0955 1.32569,-0.92431 0.875,-1.375 -1.43716,-1.43716 -9.55701,3.69299 -11.375,1.875 -0.20818,-0.20818 0.125,-0.86691 0.125,-1 0,-0.0224 0.36651,-4.1165 0.5,-4.25 0.42201,-0.42201 0.98862,-0.73862 1.375,-1.125 0.26682,-0.26682 0.061,-0.78052 0.5,-1 1.53894,-0.76947 3.72514,-0.82528 4.5,-2.375 0.11288,-0.22576 -0.0419,-0.5838 -0.125,-0.75 -0.90082,-1.80165 -1.73618,-0.61118 -2.5,-1.375 -0.85538,-0.85538 0.45843,-1.91657 0.125,-2.25 -0.0638,-0.0638 -0.28685,0.17631 -0.5,-0.25 -0.75108,-2.01032 3.29814,-3.82686 2.25,-4.875 -0.0578,-0.0578 0.0377,-0.29953 0,-0.375 -0.55835,-1.1167 0.39548,-2.39547 1,-3 0.011,-0.011 0.10176,-1.10176 0.5,-1.5 0.54842,-0.54842 -0.80728,-1.83694 -1.21875,-2.21875 z"
         id="path9505" />
      <path
         inkscape:connector-curvature="0"
         style="fill:#aa07aa;fill-opacity:1;stroke:#ffffff;stroke-width:1px;stroke-linecap:butt;stroke-linejoin:miter;stroke-opacity:0"
         d="m 497.46875,338.65625 c -0.45478,1.00321 -0.99616,1.93366 -1.6875,2.625 -0.8824,0.88241 -0.43201,3.24451 -1.4375,4.25 -1.09965,1.09965 -1.08319,4.23944 -2.125,5.28125 -0.4976,0.4976 -0.8382,4.17639 -1.40625,5.3125 -0.61811,1.23621 -1.54116,10.38492 -1.75,10.59375 -0.51544,0.51544 -1.45518,2.42562 -2.375,8.28125 -0.17634,0.51671 -0.40596,1.06192 -0.6875,1.625 -0.26667,0.53334 0.26667,1.46667 0,2 -0.92492,1.84985 -1,7.85674 -1,10.25 0,1.03764 -1.13085,9.11915 -0.5,9.75 0.68328,0.68328 1.76734,1.08986 3.03125,1.34375 -0.80351,-0.85582 -2.8125,-0.57119 -2.8125,-2.75 0,-0.1266 -0.0806,-0.70065 0,-0.78125 0.49597,-0.49596 -0.12957,-2.36584 0.28125,-3.1875 0.11083,-0.22169 -0.18365,-0.4451 -0.0937,-0.625 0.19328,-0.38657 0.4375,-2.3781 0.4375,-2.8125 0,-0.26686 0.50342,-1.34034 0.25,-1.59375 -0.18526,-0.18527 -0.4542,-2.18535 -0.34375,-2.40625 0.54058,-1.08115 0.12328,-3.52952 0.8125,-4.21875 0.0426,-0.0426 -0.1161,-1.70985 -0.1875,-1.78125 -0.0739,-0.0739 0.0569,-0.5882 0.0937,-0.625 0.26974,-0.26975 2.1175,0.96875 2.1875,0.96875 0.002,0 0.18735,-0.25015 0.0937,-0.34375 -0.29795,-0.29795 -0.59983,-0.34983 -0.875,-0.625 -0.32286,-0.32286 -0.65051,-0.74426 -0.875,-0.96875 -0.0589,-0.0589 0.0589,-0.28485 0,-0.34375 -0.4815,-0.48149 0.0921,-1.43413 0.34375,-1.9375 0.1231,-0.24614 -0.10101,-0.86774 0.0937,-1.0625 0.29667,-0.29667 0.40369,-1.05739 0.625,-1.5 0.16015,-0.32032 -0.29001,-1.12321 0.15625,-1.34375 0,-0.34943 0.10148,-0.78894 0.28125,-0.96875 0.26197,-0.26196 -0.0843,-1.16565 0.15625,-1.40625 0.42704,-0.42703 0.41574,-1.29075 0.8125,-1.6875 L 489.75,367.1875 c 0.2115,-0.21146 0.53302,-0.14152 0.8125,-0.28125 0.33572,-0.16786 0.57849,-0.42224 0.78125,-0.625 0.15208,-0.15209 0.97337,-0.34837 1.5,-0.875 0.2097,-0.20972 -0.68975,-0.18525 -0.78125,-0.0937 -0.14418,0.14418 -1.88378,0.98877 -2.21875,1.15625 -0.0988,0.0494 -0.24395,0.0764 -0.3125,0.15625 0.0541,-0.1277 0.20139,-0.48264 0.21875,-0.5 0.0882,-0.0883 0.375,-1.59339 0.375,-1.875 0,-1.03985 0.97086,-3.52702 0.53125,-4.40625 -0.14418,-0.28836 1.07919,-4.50214 1.21875,-4.78125 0.20405,-0.40808 -0.11353,-1.08542 0.0937,-1.5 0.14979,-0.29956 0.24949,-0.687 0.4375,-0.875 0.17004,-0.17004 -0.11187,-0.83877 0,-1.0625 0.26888,-0.53776 0.4017,-1.2767 0.71875,-1.59375 0.13988,-0.13982 0.0536,-0.85706 0.15625,-1.0625 0.56689,-1.13377 0.89551,-2.20802 1.59375,-2.90625 0.15671,-0.15671 0.4972,-2.21315 0.71875,-2.65625 0.0558,-0.11159 -0.0849,-0.44635 0,-0.53125 0.10013,-0.10013 0.4375,-0.79912 0.4375,-0.96875 0,-0.32993 1.87183,-2.81566 1.5,-3.1875 -0.0215,-0.0215 -0.0398,-0.0434 -0.0625,-0.0625 z"
         id="path9507" />
      <path
         inkscape:connector-curvature="0"
         style="fill:#5b005b;fill-opacity:1;stroke:#ffffff;stroke-width:1px;stroke-linecap:butt;stroke-linejoin:miter;stroke-opacity:0"
         d="m 544.30209,330.62273 c -0.007,0.63596 0.0352,1.45423 0.0866,1.51822 0.49261,0.61261 0.33045,1.96249 0.84858,2.60683 0.27694,0.3444 -0.47933,1.51964 -0.20239,1.86404 0.29834,0.37101 0.26049,1.02287 0.45944,1.5587 0.19619,0.52842 -0.43951,1.71021 -0.1051,2.12608 0.33522,0.41688 0.20801,1.52812 0.54323,1.945 0.24026,0.29879 -0.42212,1.57167 -0.45093,1.83706 -0.0894,0.82353 0.23138,2.223 -0.18606,2.87169 -0.65785,1.0223 -1.78418,1.4347 -2.61748,2.10477 -0.14199,0.11418 -0.63061,0.0534 -0.7726,0.16758 -0.33337,0.26809 -1.11637,-0.01 -1.40745,0.2244 -0.19381,0.15586 -1.81391,-0.12925 -2.15306,0.14343 -0.22166,0.17822 0.1144,0.26389 0.22156,0.27553 0.21776,0.0236 1.21334,0.27195 1.36696,0.14841 0.20645,-0.166 0.98661,-0.39581 1.42094,-0.34866 0.43732,0.0475 1.0266,-0.1909 1.02114,-0.1406 -0.0315,0.29034 -1.35688,1.20452 -1.8044,1.56438 -0.19407,0.15606 -0.37576,0.64241 -0.59153,0.81591 -2.1282,1.71133 -3.64786,3.84069 -5.75618,5.53603 -0.80091,0.64402 -1.89231,0.95454 -2.68779,1.59419 -0.20996,0.16883 -0.40701,0.50091 -0.61584,0.75041 0.9927,-0.39757 2.02328,-0.94707 2.29881,-1.19636 2.33706,-2.11449 7.09134,-6.00389 9.39464,-9.22735 1.36896,-0.35112 2.33826,-1.11465 3.38742,-1.9583 0.2941,-0.23648 0.23113,-2.4845 0.0778,-4.76947 -0.003,-0.0543 -0.0105,-0.1044 -0.0141,-0.15871 0.0321,-3.54113 -0.1716,-8.74686 -0.98383,-9.75695 -0.0642,-0.0798 -0.20528,-0.78829 -0.27978,-1.47632 -0.19252,-0.25829 -0.34092,-0.42921 -0.4985,-0.61993 z m -17.39712,25.89847 c -0.76149,-0.0827 -0.33707,3.10443 -0.39129,3.60382 -0.0273,0.2518 -4.87177,-0.40322 -5.60562,-0.48289 -0.67419,-0.0732 -6.504,-0.47171 -6.71057,-0.7286 -0.19188,-0.23863 -4.53221,-2.0009 -5.05741,-2.05792 -0.48841,-0.053 -2.81476,-1.1026 -3.10958,-1.46923 -0.11061,-0.13756 -1.13036,-0.0116 -1.13192,0.003 -0.031,0.28583 0.96474,0.35346 1.07795,0.49425 0.0399,0.0496 0.14123,0.0907 0.20398,0.14788 2.84581,0.95072 5.32292,2.43872 9.17464,3.51082 3.03586,0.84501 6.54057,0.16928 9.54107,1.00453 0.39408,0.10968 0.96113,-0.0104 1.56615,-0.23859 0.007,0.006 0.0232,-0.003 0.031,0.003 0.50831,0.37445 1.20355,0.37236 2.07069,0.0362 -0.0222,-0.002 -0.0391,-0.004 -0.0621,-0.007 -0.14033,-0.0152 -0.27013,0.22503 -0.51057,0.0703 -0.24893,-0.16018 -0.70694,-0.17392 -0.8429,-0.34298 -0.13171,-0.1638 0.58227,-3.45735 -0.24356,-3.54702 z m 2.23348,0.27388 c -0.0391,0.004 -0.0938,0.0471 -0.13438,0.0797 -0.30969,0.24903 1.06124,2.72578 0.17397,3.31942 0.33087,0.0468 0.8375,-0.0477 1.41081,-0.25546 -0.17833,-0.0143 -0.38931,-0.0257 -0.40387,-0.0438 -0.0708,-0.0881 -0.46077,-3.15113 -1.04652,-3.09982 z"
         id="path9509" />
      <path
         inkscape:connector-curvature="0"
         style="fill:#8b058b;fill-opacity:1;stroke:#ffffff;stroke-width:1px;stroke-linecap:butt;stroke-linejoin:miter;stroke-opacity:0"
         d="m 543.28219,329.88332 c -1.7729,0.11817 -4.36602,4.67487 -5.07945,5.67237 -2.01061,2.81122 -8.50275,8.89286 -9.24108,11.28721 -0.1564,0.50718 -1.16367,0.8301 -2.15431,1.02344 0.11515,0.17162 0.13316,0.32812 0.35328,0.50987 0.0227,0.0188 0.0635,0.0532 0.0864,0.0722 -0.0676,0.0344 -0.13727,0.0992 -0.20327,0.13509 -0.0585,-0.14401 -0.10024,-0.28578 -0.14256,-0.42411 -0.68195,-0.069 -1.38148,-0.1685 -1.57094,-0.2963 -2.43429,-1.6413 -8.17145,-0.27407 -11.04243,-1.07319 -1.96548,-0.54708 -4.00093,-1.3383 -5.7125,-1.81471 -0.36173,-0.10073 -0.78211,-0.0319 -1.19742,0.0272 -0.28162,0.30615 -0.31893,0.69651 0.0616,1.16973 0.40579,0.50463 1.55225,0.13202 1.88907,0.55088 0.28046,0.34878 2.13408,1.09077 2.52605,1.34301 0.65141,0.41919 0.14076,1.97343 0.60341,2.54877 0.53541,0.66584 1.04873,1.72735 1.67657,2.50812 0.48324,0.60096 2.07433,1.21851 2.86174,1.72523 0.29862,0.19215 0.59802,-0.0272 0.70373,-0.1122 0.18246,-0.14672 0.52315,0.0909 0.75165,-0.26416 0.41806,-0.64965 0.002,-3.06424 0.5365,-3.49375 0.56537,-0.45462 3.16605,1.7017 3.76874,1.47793 1.21678,-0.45175 -1.06776,-2.97639 1.02151,-2.74955 0.0724,0.008 0.48668,0.006 0.52814,0.0573 1.24693,1.55069 1.5808,7.01595 5.42862,5.58736 0.58484,-0.21713 1.04467,-0.048 1.49586,-0.74916 0.84055,-1.3062 -0.40133,-2.88141 0.17452,-3.34445 0.10745,-0.0864 4.80996,0.95257 6.24579,-0.20201 0.54987,-0.44216 -1.21269,-1.04325 -1.45555,-1.06961 -0.32639,-0.0354 -4.75665,-1.93086 -5.10943,-2.15787 -0.31938,-0.20553 -0.0762,-0.90283 0.11469,-1.0563 2.01357,-1.61915 5.43689,-0.51562 6.15384,-1.09213 0.45459,-0.36555 1.05812,-0.53896 1.51272,-0.9045 1.05351,-0.84716 -0.56583,-2.19398 -0.24143,-2.69808 0.39263,-0.61014 1.0004,-0.94621 1.39448,-1.26311 0.86947,-0.69915 3.02422,0.4604 3.75437,-0.12674 1.11746,-0.89857 -1.52879,-2.88854 -1.78877,-3.21185 -0.2611,-0.32471 0.24674,-1.27996 -0.0144,-1.60467 -0.12284,-0.15276 -0.98861,-0.73804 -0.94161,-1.17098 0.11411,-1.05092 2.05684,-1.03403 3.14847,-0.9155 0.25416,0.0276 0.87457,0.0909 1.04209,-0.044 0.0973,-0.0782 0.13281,-0.28043 0.11948,-0.5214 -0.0768,-0.21297 -0.16826,-0.38555 -0.26008,-0.49974 -0.0642,-0.0798 -0.20528,-0.78829 -0.27978,-1.47633 -0.57754,-0.77487 -1.02595,-1.27576 -1.17665,-1.32223 -0.1101,-0.034 -0.22355,-0.045 -0.34175,-0.0371 z"
         id="path9511" />
      <path
         inkscape:connector-curvature="0"
         style="fill:#aa07aa;fill-opacity:1;stroke:#ffffff;stroke-width:1px;stroke-linecap:butt;stroke-linejoin:miter;stroke-opacity:0"
         d="m 543.28219,329.88332 c -1.7729,0.11817 -4.36602,4.67487 -5.07945,5.67237 -2.01061,2.81122 -8.50275,8.89286 -9.24108,11.28721 -0.1564,0.50718 -1.16367,0.8301 -2.15431,1.02344 0.11515,0.17162 0.13316,0.32812 0.35328,0.50987 0.0227,0.0188 0.0635,0.0532 0.0864,0.0722 -0.0676,0.0344 -0.13727,0.0992 -0.20327,0.13509 -0.0585,-0.14401 -0.10024,-0.28578 -0.14256,-0.42411 -0.68195,-0.069 -1.38148,-0.1685 -1.57094,-0.2963 -2.43429,-1.6413 -8.17145,-0.27407 -11.04243,-1.07319 -1.96548,-0.54708 -4.00093,-1.3383 -5.7125,-1.81471 -0.37938,-0.10557 -0.82286,-0.0421 -1.25956,0.0204 -0.216,0.37594 1.13134,0.27854 1.18802,0.34903 0.25848,0.32145 1.34353,-0.0218 1.60201,0.29967 0.47346,0.58878 4.97711,1.53491 5.20867,1.82287 0.42358,0.52676 0.4544,1.41138 0.91604,1.98548 0.0768,0.0954 -0.0199,0.53939 0.0568,0.63484 0.27694,0.34441 0.48501,0.7442 0.76195,1.08861 0.005,0.007 0.49947,0.43143 0.4566,0.42678 -0.10114,-0.011 -0.20948,-1.04607 -0.25138,-1.15891 -0.32472,-0.87464 -0.92295,-1.92182 -0.83508,-2.73109 0.0772,-0.71097 2.90408,1.06971 3.27433,1.10991 0.1056,0.0115 0.27881,-0.006 0.40724,0.0128 -0.18876,-0.15129 -0.4472,-0.34456 -0.49104,-0.39908 -0.20711,-0.25755 -1.07954,-0.47962 -1.02398,-0.99132 0.007,-0.0603 0.7588,-0.0433 0.88338,-0.0298 0.77054,0.0837 1.19406,0.0337 1.78025,-0.18392 0.25725,-0.0955 0.65916,0.11452 0.73213,0.20523 0.10398,0.12931 0.32224,-0.06 0.3863,-0.0838 0.59763,-0.22187 2.8153,0.68158 3.28782,0.98565 0.47964,0.30866 1.15646,0.16872 1.45076,0.53472 0.13393,0.16656 0.99599,4.64327 1.41879,4.30329 0.0537,-0.0432 0.0457,-0.42125 0.054,-0.49708 0.25304,-2.3306 -1.22055,-2.65506 -1.05948,-4.13854 0.0297,-0.27389 0.24328,0.0355 0.3998,-0.20806 0.11084,-0.17228 0.0467,-0.37492 0.30251,-0.4701 0.79067,-0.29355 4.34287,1.83857 5.0141,1.29881 0.01,-0.008 -1.14364,-0.75284 -1.29951,-0.76976 -0.48752,-0.0529 -2.39335,-1.11757 -2.35047,-1.51255 0.16396,-1.51004 1.72452,-2.86117 2.65513,-3.60949 0.21738,-0.1748 0.27277,-0.78645 0.48075,-0.95368 0.70041,-0.56321 1.48279,-1.07893 2.1907,-1.64817 0.48741,-0.39194 1.24911,-0.89102 1.77741,-1.31583 0.29848,-0.24002 0.20926,-0.96221 0.50774,-1.20222 0.23312,-0.18746 0.47158,-0.21632 0.68881,-0.55389 0.34987,-0.54368 0.31136,-1.49799 0.69946,-1.81007 0.34591,-0.27815 2.75645,0.32483 2.95549,0.57236 0.0111,0.0138 0.0651,0.28788 0.23505,0.15125 0.22505,-0.18095 -0.17973,-0.36456 -0.20806,-0.39979 -0.13246,-0.16472 -0.26706,-0.61421 -0.41613,-0.79959 -0.34771,-0.43241 -1.14003,-0.28935 -1.43726,-0.65899 -0.24299,-0.30218 1.15145,-1.34076 1.22353,-2.00464 0.0616,-0.56766 1.24728,-1.68348 1.59634,-1.96417 0.15736,-0.12654 0.64102,-0.0618 0.7726,-0.16759 0.093,-0.0748 0.27614,-0.26654 0.46122,-0.48429 -0.0589,-0.0508 -0.11256,-0.10004 -0.14522,-0.11002 -0.1101,-0.034 -0.22355,-0.045 -0.34175,-0.0371 z m -23.18115,18.95231 c 0.0801,0.0642 0.20029,0.18191 0.20061,0.17895 0.0115,-0.10563 -0.0722,-0.16029 -0.20061,-0.17895 z"
         id="path9513" />
      <path
         inkscape:connector-curvature="0"
         id="path9515"
         d="m 493.34658,348.06113 c -0.24745,0.46805 -0.51602,0.94209 -0.79618,1.36641 -1.26284,1.91275 -2.21738,4.29033 -3.36275,6.02514 -0.46462,0.70372 -0.18064,2.0531 -0.40507,2.89075 -0.21981,0.82041 0.77132,2.43634 2.08852,4.10499 0.046,-1.82158 -2.37005,-4.3552 -1.19081,-5.89466 0.13033,-0.17014 0.0394,-0.63277 0.14933,-0.77634 0.38624,-0.50422 0.44707,-1.16503 0.79431,-1.61835 l 1.39749,-1.82436 c 0.0953,-0.12445 0.003,-0.35284 0.0582,-0.51209 0.1715,-0.49756 0.49958,-0.79752 0.73607,-1.10626 0.29219,-0.38143 0.58742,-1.78374 0.53085,-2.65523 z"
         style="fill:#aa07aa;fill-opacity:1;stroke:#ffffff;stroke-width:1px;stroke-linecap:butt;stroke-linejoin:miter;stroke-opacity:0" />
    </g>
  </g>
</svg>
